<?xml version="1.0" encoding="UTF-8" standalone="no"?>
<!-- Created with Inkscape (http://www.inkscape.org/) -->

<svg
   xmlns:dc="http://purl.org/dc/elements/1.1/"
   xmlns:cc="http://creativecommons.org/ns#"
   xmlns:rdf="http://www.w3.org/1999/02/22-rdf-syntax-ns#"
   xmlns:svg="http://www.w3.org/2000/svg"
   xmlns="http://www.w3.org/2000/svg"
   xmlns:xlink="http://www.w3.org/1999/xlink"
   xmlns:sodipodi="http://sodipodi.sourceforge.net/DTD/sodipodi-0.dtd"
   xmlns:inkscape="http://www.inkscape.org/namespaces/inkscape"
   width="990"
   height="765"
   id="svg2985"
   version="1.1"
   inkscape:version="0.48.2 r9819"
   sodipodi:docname="bottom.svg">
  <defs
     id="defs2987" />
  <sodipodi:namedview
     inkscape:document-units="in"
     pagecolor="#ffffff"
     bordercolor="#666666"
     borderopacity="1.0"
     inkscape:pageopacity="0.0"
     inkscape:pageshadow="2"
     inkscape:zoom="0.41699346"
     inkscape:cx="815.46138"
     inkscape:cy="585.25638"
     inkscape:current-layer="layer1"
     id="namedview2989"
     showgrid="true"
     units="in"
     inkscape:window-width="1292"
     inkscape:window-height="856"
     inkscape:window-x="378"
     inkscape:window-y="0"
     inkscape:window-maximized="0"
     inkscape:snap-global="false">
    <inkscape:grid
       type="xygrid"
       id="grid3008" />
  </sodipodi:namedview>
  <metadata
     id="metadata2991">
    <rdf:RDF>
      <cc:Work
         rdf:about="">
        <dc:format>image/svg+xml</dc:format>
        <dc:type
           rdf:resource="http://purl.org/dc/dcmitype/StillImage" />
        <dc:title />
      </cc:Work>
    </rdf:RDF>
  </metadata>
  <g
     inkscape:label="Layer 1"
     inkscape:groupmode="layer"
     id="layer1"
     transform="translate(0,-225)">
    <image
       sodipodi:absref="/Users/fra/doom-figure-foam/photos/doom-figure-template.png"
       xlink:href="photos/doom-figure-template.png"
       style="opacity:0.14655169"
       width="1296.0416"
       height="1022.4666"
       id="image3121"
       x="-131.35408"
       y="152.78293" />
    <path
       style="fill:none;stroke:#000000;stroke-width:1px;stroke-linecap:butt;stroke-linejoin:miter;stroke-opacity:1"
       d="m 678.33333,450 c 25,-10 60,-25 60,-25 16.22326,9.87799 16.39965,13.75937 45.32293,14.85965 0,0 -15.32293,30.14035 -35.32293,75.14035 -50,0 -70,-15 -70,-65 z"
       id="path3963"
       inkscape:connector-curvature="0"
       sodipodi:nodetypes="ccccc" />
    <g
       id="layer1-8"
       inkscape:label="Layer 1"
       transform="translate(9.5172008,0.06908699)">
      <path
         sodipodi:nodetypes="csccscscscsccsc"
         transform="translate(0,225)"
         inkscape:connector-curvature="0"
         id="path4512"
         d="m 275.4828,744.93091 -180.000001,-25 c -61.849817,-8.59025 -60,-5 -60,-65 l 0,-559.999997 c 0,-45 19.99986,-63.936989 60.69857,-63.987887 L 905.4828,29.930913 c 35,0 55.38459,20 55,60 l -5.48675,570.665017 c -0.53722,57.06406 -5.5709,54.46719 -44.51325,59.33498 l -200,25 c -0.58673,-60.77305 0,-45 0,-60 0,-25 -20,-45 -45,-45 l -345,10e-6 c -25,0 -45,20 -45,45 0,14.97589 0.13402,-0.41389 0,59.99999 z"
         style="fill:none;stroke:#000000;stroke-width:1px;stroke-linecap:butt;stroke-linejoin:miter;stroke-opacity:1" />
    </g>
    <path
       sodipodi:type="arc"
       style="opacity:0.95979716;fill:none;stroke:#000000;stroke-width:0.99000001;stroke-miterlimit:4;stroke-opacity:1;stroke-dasharray:none"
       id="path3008"
       sodipodi:cx="627.91083"
       sodipodi:cy="390.70483"
       sodipodi:rx="16.027754"
       sodipodi:ry="16.027754"
       d="m 643.93858,390.70483 a 16.027754,16.027754 0 1 1 -32.05551,0 16.027754,16.027754 0 1 1 32.05551,0 z"
       transform="matrix(0.95323093,0,0,0.95323093,18.252968,239.62619)" />
    <path
       sodipodi:nodetypes="ccccc"
       inkscape:connector-curvature="0"
       id="path3800"
       d="m 753.42736,355.22087 c 0,0 -50,-15 -75,-25 0,-40 15,-55 70,-55 15,25 35,60 35,60 -13.87713,3.95191 -24.47365,13.0663 -30,20 z"
       style="fill:none;stroke:#000000;stroke-width:1px;stroke-linecap:butt;stroke-linejoin:miter;stroke-opacity:1" />
    <path
       style="fill:none;stroke:#000000;stroke-width:1px;stroke-linecap:butt;stroke-linejoin:miter;stroke-opacity:1"
       d="m 873.33334,425 c 0,0 35,15 60,25 0,45 -15,65 -70,65 -10,-30 -30,-75 -30,-75 14.10637,-1.35742 29.88641,-4.15027 40,-15 z"
       id="path3802"
       inkscape:connector-curvature="0"
       sodipodi:nodetypes="ccccc" />
    <path
       sodipodi:nodetypes="ccccc"
       inkscape:connector-curvature="0"
       id="path3804"
       d="m 833.33282,334.98752 c 0,0 15,-35 25,-60 60,0 75,15 75,55 -30,10 -70,25 -70,25 -4.41744,-7.29938 -15.19068,-16.81572 -30,-20 z"
       style="fill:none;stroke:#000000;stroke-width:1px;stroke-linecap:butt;stroke-linejoin:miter;stroke-opacity:1" />
  </g>
</svg>
