<?xml version="1.0" encoding="UTF-8" standalone="no"?>
<!-- Created with Inkscape (http://www.inkscape.org/) -->

<svg
   xmlns:dc="http://purl.org/dc/elements/1.1/"
   xmlns:cc="http://creativecommons.org/ns#"
   xmlns:rdf="http://www.w3.org/1999/02/22-rdf-syntax-ns#"
   xmlns:svg="http://www.w3.org/2000/svg"
   xmlns="http://www.w3.org/2000/svg"
   xmlns:sodipodi="http://sodipodi.sourceforge.net/DTD/sodipodi-0.dtd"
   xmlns:inkscape="http://www.inkscape.org/namespaces/inkscape"
   width="1056"
   height="816"
   id="svg2985"
   version="1.1"
   inkscape:version="0.91 r13725"
   sodipodi:docname="combined.svg"
   style="enable-background:new">
  <defs
     id="defs2987">
    <filter
       inkscape:collect="always"
       style="color-interpolation-filters:sRGB"
       id="filter5322">
      <feBlend
         inkscape:collect="always"
         mode="lighten"
         in2="BackgroundImage"
         id="feBlend5324" />
    </filter>
  </defs>
  <sodipodi:namedview
     inkscape:document-units="in"
     pagecolor="#ffffff"
     bordercolor="#666666"
     borderopacity="1.0"
     inkscape:pageopacity="0.0"
     inkscape:pageshadow="2"
     inkscape:zoom="2"
     inkscape:cx="493.41396"
     inkscape:cy="564.34401"
     inkscape:current-layer="layer1"
     id="namedview2989"
     showgrid="true"
     units="in"
     inkscape:window-width="1391"
     inkscape:window-height="856"
     inkscape:window-x="627"
     inkscape:window-y="0"
     inkscape:window-maximized="0"
     inkscape:snap-global="false">
    <inkscape:grid
       type="xygrid"
       id="grid3008"
       originx="0"
       originy="0"
       spacingx="4.0314961"
       spacingy="4.0314961" />
  </sodipodi:namedview>
  <metadata
     id="metadata2991">
    <rdf:RDF>
      <cc:Work
         rdf:about="">
        <dc:format>image/svg+xml</dc:format>
        <dc:type
           rdf:resource="http://purl.org/dc/dcmitype/StillImage" />
        <dc:title />
      </cc:Work>
    </rdf:RDF>
  </metadata>
  <g
     inkscape:groupmode="layer"
     id="layer3"
     inkscape:label="Bottom"
     style="display:inline">
    <text
       xml:space="preserve"
       style="font-style:normal;font-variant:normal;font-weight:normal;font-stretch:normal;font-size:12.80000019px;line-height:0%;font-family:Helvetica;-inkscape-font-specification:'Helvetica, Normal';text-align:start;letter-spacing:0px;word-spacing:0px;writing-mode:lr-tb;text-anchor:start;fill:#000000;fill-opacity:1;stroke:none;stroke-width:1.06666672px;stroke-linecap:butt;stroke-linejoin:miter;stroke-opacity:1"
       x="105.6"
       y="163.2"
       id="text5079"
       sodipodi:linespacing="0%"><tspan
         sodipodi:role="line"
         id="tspan5081"
         x="105.6"
         y="163.2"
         style="font-size:16px;line-height:1.25;stroke-width:1.06666672px"> </tspan></text>
    <path
       sodipodi:type="inkscape:offset"
       inkscape:radius="-28.78289"
       inkscape:original="M 525.21289 -131.32031 C 499.29075 -130.5381 468.14438 -121.03405 448.16992 -117.78125 C 355.23733 -102.64755 321.50307 -78.819916 319.38086 -44.541016 C 303.79292 207.24269 304.31433 230.47651 321.91406 541.29688 C 322.66814 554.61435 341.53102 587.58407 380.80273 587.56836 C 720.92345 587.43233 929.2111 591.65566 1187.5137 595.28125 C 1213.4226 595.64492 1234.3765 570.3625 1236.002 544.52148 C 1255.1749 239.73451 1256.0672 220.30533 1244.7383 -30.076172 C 1241.2834 -106.43317 1126.3957 -109.03237 1064.7559 -122.38867 C 1016.2526 -132.89857 998.93466 -121.49385 999.71289 -83.435547 C 1000.4073 -49.476647 968.44875 -23.2793 942.18359 -25.5 C 808.59139 -36.7948 717.81442 -39.704219 628.98633 -28.886719 C 598.08872 -25.123919 569.80942 -55.329444 570.90234 -92.527344 C 571.83183 -124.16279 551.13503 -132.10253 525.21289 -131.32031 z "
       style="fill:none;fill-rule:evenodd;stroke:#0000ff;stroke-width:1px;stroke-linecap:butt;stroke-linejoin:miter;stroke-opacity:1"
       id="path4191"
       d="M 526.08008,-102.55078 C 506.48885,-101.95961 476.86498,-93.292488 452.79688,-89.373047 408.15051,-82.102566 379.31329,-72.487886 364.48047,-63.628906 349.64764,-54.769926 348.61469,-50.923858 348.10938,-42.761719 332.53063,208.87348 333.05342,228.89835 350.65039,539.66992 350.33743,534.14287 352.19867,543.91235 357.45898,549.27344 362.71929,554.63453 369.21169,558.78979 380.79102,558.78516 721.1547,558.64903 929.7119,562.87772 1187.918,566.50195 1194.89,566.59982 1206.549,554.26213 1207.2754,542.71484 1226.447,237.94852 1227.3072,221.47077 1215.9844,-28.775391 1215.4459,-40.676265 1212.0035,-46.634231 1204.3887,-53.607422 1196.7739,-60.580613 1183.8837,-67.265294 1167.748,-72.458984 1135.4767,-82.846364 1092.7195,-86.877731 1058.6602,-94.257812 1038.6756,-98.588144 1029.9997,-96.412528 1029.6562,-96.615234 1029.1392,-94.92026 1028.3514,-90.81316 1028.4902,-84.023438 1029.025,-57.869249 1017.0615,-35.243102 1000.7734,-19.929688 984.48534,-4.6162734 963.33475,5.1731006 939.75781,3.1796875 806.84283,-8.0578557 718.34227,-10.77262 632.46484,-0.31445312 581.127,5.9362841 540.59842,-41.149552 542.13281,-93.373047 542.4113,-102.85137 541.74632,-100.41277 541.55859,-100.54492 541.37087,-100.67707 535.87566,-102.84637 526.08008,-102.55078 Z"
       transform="matrix(-1.0682593,0.00932256,-0.00932256,-1.0682593,1362.178,638.7709)" />
  </g>
  <g
     inkscape:groupmode="layer"
     id="layer2"
     inkscape:label="Middle"
     style="display:inline">
    <path
       style="fill:none;stroke:#00ff00;stroke-width:1.06666672px;stroke-linecap:butt;stroke-linejoin:miter;stroke-opacity:1"
       d="M 653.63616,344.54401 C 605.24131,344.88579 544.30929,344.51741 475.11614,344.47381 466.49738,344.46881 470.61471,322.16872 480.50241,322.78319 466.77359,294.97165 471.01185,263.30564 458.91309,264.78713 456.56246,257.51798 458.4083,274.46139 459.09086,249.3771 495.54389,232.72228 501.37846,246.70655 500.73558,223.68649 499.42545,176.77359 498.12557,123.29294 535.33073,121.61151 518.73281,89.756982 534.79718,81.672779 571.23619,80.523286 604.09893,79.873974 626.35622,84.325377 625.87343,106.56751 625.92403,125.69854 607.31282,119.691 602.10701,135.59009 602.21746,151.29466 686.65889,147.56468 723.30917,155.3651 L 723.90961,203.02022 C 661.31291,203.56286 634.83429,203.67517 570.3985,202.96102 570.3985,202.96102 563.77842,217.40421 568.33531,220.19196 589.39685,233.07667 590.07015,257.05637 611.73625,276.93726 632.3875,295.88692 653.1371,320.26179 653.63616,344.54403 Z"
       id="path3892-3"
       inkscape:connector-curvature="0"
       sodipodi:nodetypes="cscccscccccccsscc" />
    <path
       style="fill:none;stroke:#00ff00;stroke-width:1.06666672px;stroke-linecap:butt;stroke-linejoin:miter;stroke-opacity:1"
       d="M 304.00939,512.34798 C 311.1205,491.72576 317.54875,482.95307 330.67605,475.01465 313.63763,474.41973 299.1399,470.0312 298.67605,459.01465 298.95131,437.77422 301.50135,435.18713 315.05841,424.12834 319.90466,420.9131 332.45383,405.68131 332.45383,389.68131 332.45383,379.01465 327.75686,379.73666 327.29828,361.90611 333.13417,340.37772 311.57125,344.45855 325.5205,322.93488 346.36756,327.23904 353.91909,327.35969 369.50156,323.09108 382.66156,325.52646 384.00939,336.34798 384.00939,347.01465 410.67605,341.68131 453.0415,336.85419 452.90676,367.1085 452.13455,398.20541 406.44795,365.69485 406.98586,401.90892 414.45391,424.85492 425.98079,435.82331 448.39021,443.61919 452.84835,472.69502 454.07061,481.1875 453.34272,512.34798 394.67605,512.34798 357.34272,512.34798 304.00939,512.34798 Z"
       id="path3947-7"
       inkscape:connector-curvature="0"
       sodipodi:nodetypes="cccccccccccccc" />
    <path
       style="fill:none;stroke:#00ff00;stroke-width:1.06666672px;stroke-linecap:butt;stroke-linejoin:miter;stroke-opacity:1"
       d="M 161.35797,224.88259 C 117.75853,224.4669 93.876053,227.90354 94.231605,213.63946 94.070496,207.21938 105.3171,202.76982 121.05078,202.63247 116.9803,189.98832 117.63422,192.3146 118.58717,174.08389 100.25582,170.50122 74.762901,208.33681 69.876053,177.37279 66.222773,161.89723 74.629088,152.27541 111.20939,141.63946 105.27408,115.51883 99.506592,113.55311 107.9205,95.061675 116.45799,84.183883 124.5576,83.242784 150.58717,82.261675 170.87895,72.255467 176.24384,70.817536 190.94272,82.261675 202.78003,84.069888 216.52402,85.448299 224.00939,94.795008 235.50953,109.15482 231.31374,119.69807 225.25383,150.17279 260.63069,149.69233 271.60669,151.26571 270.3205,173.55056 266.34639,191.93503 251.09767,184.60765 225.07605,182.70612 209.54661,176.91709 210.6789,184.40732 207.28302,202.5131 218.58082,203.18858 229.39151,205.47436 229.5205,213.63945 229.24611,227.24996 199.97281,224.47489 161.35797,224.88259 Z"
       id="path3953-2"
       inkscape:connector-curvature="0"
       sodipodi:nodetypes="cccccccccccccccc" />
    <path
       style="fill:none;stroke:#00ff00;stroke-width:1.06666672px;stroke-linecap:butt;stroke-linejoin:miter;stroke-opacity:1"
       d="M 361.5723,304.07424 C 324.17025,303.7254 279.56822,304.81402 280.50182,299.91477 280.02473,287.55162 296.36163,284.89759 318.5802,283.36448 329.89005,212.14593 339.76298,220.5051 345.90564,186.06658 342.91764,160.0567 281.32245,117.42599 262.80906,91.376512 251.60588,71.821365 262.13443,53.620075 277.12405,52.673291 323.29569,51.483531 323.90321,85.061536 310.56973,98.44576 316.86939,107.51124 331.13744,121.14077 343.4978,129.97253 321.91337,72.962891 402.55236,72.407499 384.0703,130.76992 402.30454,116.30629 397.09981,122.62524 419.46109,99.12944 406.41981,85.341899 394.33444,53.034059 444.93819,53.125589 461.18719,53.016555 474.79925,68.795445 462.68455,88.316395 421.98976,150.51823 380.53092,162.30135 380.51998,186.73456 381.13237,219.0842 400.38617,214.98065 411.79444,283.9893 434.83741,283.75474 445.24738,286.92276 445.25584,300.17883 445.0661,306.17563 408.30113,302.31309 361.5723,304.07424 Z"
       id="path3955-2"
       inkscape:connector-curvature="0"
       sodipodi:nodetypes="cccccccccccccccc" />
    <path
       style="fill:none;stroke:#00ff00;stroke-width:1.06666672px;stroke-linecap:butt;stroke-linejoin:miter;stroke-opacity:1"
       d="M 588.71411,512.34398 C 551.38078,512.34398 540.71411,512.34398 540.71411,501.67732 540.71711,470.00327 535.72222,453.47502 537.36943,424.50145 536.71737,415.27058 523.10888,418.09402 524.71411,411.01065 527.24799,403.22721 540.24146,391.77254 552.69424,399.56923 562.65789,402.27089 564.75924,383.62215 612.11246,384.29388 631.97277,382.19142 628.10217,379.05741 643.5222,392.30084 654.00649,404.56557 650.16096,408.53521 658.16531,425.423 659.03241,434.77741 659.76137,455.86392 648.13134,455.6197 627.57106,454.68914 622.12944,445.41542 605.99808,452.14978 597.18094,455.83067 594.67882,456.08702 593.46935,472.01902 594.04745,485.67732 594.04745,491.01065 610.04745,491.01065 625.81308,491.04375 636.71411,491.01065 636.71411,501.67732 636.71411,512.34398 626.04745,512.34398 588.71411,512.34398 Z"
       id="path3957-9"
       inkscape:connector-curvature="0"
       sodipodi:nodetypes="cccccccccccccc" />
    <path
       style="fill:none;stroke:#00ff00;stroke-width:1.06666672px;stroke-linecap:butt;stroke-linejoin:miter;stroke-opacity:1"
       d="M 762.67605,530.20563 C 730.67605,530.20563 730.67605,530.20563 730.67605,519.53896 730.67605,498.20563 738.56674,501.81469 741.34272,487.53896 745.01295,471.6282 743.27397,467.14406 747.4839,449.7028 720.81724,449.7028 716.2544,418.45569 711.96409,402.70845 706.63075,370.70845 717.0072,339.92491 728.98014,339.04231 740.27966,338.86206 735.5502,357.67756 770.46374,356.26429 810.53097,356.33959 791.80275,335.98271 805.53623,336.02534 828.46993,335.90713 831.91089,379.97173 832.00939,402.20563 832.00939,439.53896 816.4184,444.94603 799.87938,448.40817 788.85125,465.33129 783.19403,471.36513 784.00939,487.53896 784.00939,503.53896 794.67605,498.20563 794.67605,519.53896 794.67605,530.20563 794.67605,530.20563 762.67605,530.20563 Z"
       id="path3959-8"
       inkscape:connector-curvature="0"
       sodipodi:nodetypes="ccccccccccccc" />
    <path
       sodipodi:nodetypes="cccccccccscccsc"
       inkscape:connector-curvature="0"
       id="path3961-7"
       d="M 874.67605,519.53896 C 885.34272,498.20563 885.34272,508.87229 892.73807,488.80353 901.34272,471.53896 906.67605,455.53896 897.64067,445.05719 881.26054,423.66399 840.49382,430.89047 841.08818,418.14534 841.87524,390.69951 858.67605,418.20564 869.34272,386.20563 852.74701,381.19205 861.0097,353.61177 872.63755,357.5455 883.93707,356.611 885.27362,361.30778 917.34272,354.20563 957.03282,357.29793 959.17581,345.0689 968.38381,349.25989 982.26654,357.06127 979.48891,371.20049 969.3299,378.05859 967.59186,402.24502 995.764,378.58353 995.1903,397.65028 994.8576,408.70475 990.4967,414.62563 967.63828,414.07749 960.00939,455.53896 939.34909,460.29933 938.67605,487.53896 938.67605,508.87229 948.64997,503.36765 949.34272,519.53896 949.34272,530.20563 949.34272,530.20563 912.00939,530.20563 874.67605,530.20563 874.67605,530.20563 874.67605,519.53896 Z"
       style="fill:none;stroke:#00ff00;stroke-width:1.06666672px;stroke-linecap:butt;stroke-linejoin:miter;stroke-opacity:1" />
    <path
       style="fill:none;stroke:#00ff00;stroke-width:1.06666672px;stroke-linecap:butt;stroke-linejoin:miter;stroke-opacity:1"
       d="M 706.56494,255.54878 C 733.23161,244.88211 770.56494,228.88211 770.56494,228.88211 759.89827,228.88211 754.56494,228.88211 754.56494,212.88211 754.56494,191.54878 754.56494,164.88211 786.56494,154.21544 786.56494,154.21544 733.23161,138.21544 706.56494,127.54878 706.56494,84.882109 722.56494,68.882109 781.23161,68.882109 797.23161,95.548776 818.56494,132.88211 818.56494,132.88211 834.56494,122.21544 855.89827,122.21544 871.89827,132.88211 871.89827,132.88211 887.89827,95.548776 898.56494,68.882109 962.56494,68.882109 978.56494,84.882109 978.56494,127.54878 946.56494,138.21544 903.89827,154.21544 903.89827,154.21544 930.56494,170.21544 930.56494,191.54878 930.56494,212.88211 930.56494,228.88211 925.23161,228.88211 914.56494,228.88211 914.56494,228.88211 951.89827,244.88211 978.56494,255.54878 978.56494,303.54878 962.56494,324.88211 903.89827,324.88211 893.23161,292.88211 871.89827,244.88211 871.89827,244.88211 855.89827,244.88211 861.23161,255.54878 845.23161,255.54878 829.23161,255.54878 834.56494,244.88211 818.9094,244.7324 818.9094,244.7324 802.56494,276.88211 781.23161,324.88211 727.89827,324.88211 706.56494,308.88211 706.56494,255.54878 Z"
       id="path3963-5"
       inkscape:connector-curvature="0"
       sodipodi:nodetypes="cccccccccccccccccccc" />
    <path
       sodipodi:type="inkscape:offset"
       inkscape:radius="-13.033512"
       inkscape:original="M 525.21289 -131.32031 C 499.29075 -130.5381 468.14438 -121.03405 448.16992 -117.78125 C 355.23733 -102.64755 321.50307 -78.819916 319.38086 -44.541016 C 303.79292 207.24269 304.31433 230.47651 321.91406 541.29688 C 322.66814 554.61435 341.53102 587.58407 380.80273 587.56836 C 720.92345 587.43233 929.2111 591.65566 1187.5137 595.28125 C 1213.4226 595.64492 1234.3765 570.3625 1236.002 544.52148 C 1255.1749 239.73451 1256.0672 220.30533 1244.7383 -30.076172 C 1241.2834 -106.43317 1126.3957 -109.03237 1064.7559 -122.38867 C 1016.2526 -132.89857 998.93466 -121.49385 999.71289 -83.435547 C 1000.4073 -49.476647 968.44875 -23.2793 942.18359 -25.5 C 808.59139 -36.7948 717.81442 -39.704219 628.98633 -28.886719 C 598.08872 -25.123919 569.80942 -55.329444 570.90234 -92.527344 C 571.83183 -124.16279 551.13503 -132.10253 525.21289 -131.32031 z "
       style="display:inline;fill:none;fill-rule:evenodd;stroke:#00ff00;stroke-width:1px;stroke-linecap:butt;stroke-linejoin:miter;stroke-opacity:1;enable-background:new"
       id="path4187"
       d="M 525.60547,-118.29297 C 502.5501,-117.59726 472.09377,-108.47264 450.26562,-104.91797 404.62343,-97.485321 374.23708,-87.801108 356.4043,-77.150391 338.57152,-66.499673 333.1981,-56.810659 332.38867,-43.736328 316.8049,207.98013 317.3273,229.76227 334.92578,540.56055 334.99037,541.7013 338.51682,552.45718 346.2168,560.30469 353.91678,568.15219 364.80919,574.54155 380.79688,574.53516 721.02762,574.39908 929.43838,578.62307 1187.6973,582.24805 1205.0312,582.49135 1221.7758,563.07164 1222.9941,543.70312 1242.1665,238.9255 1243.0449,220.83389 1231.7188,-29.486328 1231.0023,-45.320527 1225.1579,-55.94208 1215.0234,-65.222656 1204.8889,-74.503233 1189.963,-81.853505 1172.5723,-87.451172 1137.7908,-98.646506 1094.2829,-102.65439 1061.9961,-109.65039 1039.0118,-114.63072 1025.6918,-113.14802 1020.5527,-110.00586 1017.9832,-108.43478 1016.4492,-106.65755 1014.9785,-102.60742 1013.5079,-98.557289 1012.5701,-92.21461 1012.7441,-83.701172 1013.1763,-62.567203 1003.4827,-44.093004 989.98633,-31.404297 976.49,-18.71559 958.94795,-11.003452 941.08594,-12.513672 807.8004,-23.782545 718.05446,-26.604005 630.5625,-15.949219 590.40869,-11.059172 556.58216,-48.90804 557.875,-92.910156 558.2554,-105.85726 555.25065,-110.16564 550.625,-113.42188 545.99935,-116.67811 537.13314,-118.64082 525.60547,-118.29297 Z"
       transform="matrix(-1.0682593,0.00932256,-0.00932256,-1.0682593,1362.178,638.7709)" />
  </g>
  <g
     inkscape:label="Top"
     inkscape:groupmode="layer"
     id="layer1"
     transform="translate(0,-240)"
     style="display:inline">
    <path
       style="fill:none;stroke:#ff0000;stroke-width:1.05599999;stroke-linecap:butt;stroke-linejoin:miter;stroke-miterlimit:4;stroke-dasharray:none;stroke-opacity:1"
       d="M 653.62677,584.55158 C 605.23193,584.89337 544.2999,584.52498 475.10675,584.48138 466.48799,584.47638 470.60532,562.17628 480.49302,562.79075 466.7642,534.97921 471.48048,504.93954 459.0287,504.41969 443.33199,503.76437 424.40251,483.0067 438.35925,443.74021 452.31599,404.47372 475.61103,346.87082 535.32134,361.61907 518.72342,329.76455 534.7878,321.68034 571.22681,320.53085 604.08955,319.88154 626.34684,324.33294 625.86404,346.57507 625.91464,365.7061 607.30343,359.69856 602.09762,375.59765 602.20807,391.30222 686.6495,387.57225 723.29979,395.37266 L 723.90022,443.02779 C 661.30352,443.57042 634.82491,443.68273 570.38911,442.96859 570.38911,442.96859 563.76903,457.41178 568.32592,460.19952 589.38747,473.08424 590.06077,497.06394 611.72686,516.94482 632.37811,535.89449 653.12771,560.26936 653.62677,584.5516 Z"
       id="path3892"
       inkscape:connector-curvature="0"
       sodipodi:nodetypes="cscszcccccccsscc" />
    <path
       style="fill:none;stroke:#ff0000;stroke-width:1.05599999;stroke-linecap:butt;stroke-linejoin:miter;stroke-miterlimit:4;stroke-dasharray:none;stroke-opacity:1"
       d="M 549.33333,896 C 506.66667,896 501.33333,896 501.33333,890.66667 501.33333,874.66667 506.66667,874.66667 522.66667,874.66667 L 533.33333,826.66667 C 464,848 458.66667,826.66667 458.66667,816 458.66667,805.33333 460.08889,786.48889 522.60829,796.04006 526.61024,789.36297 532.1456,787.49549 538.35556,787.37121 541.29083,762.5086 568.68315,760.39114 572.8,788.08657 592.60774,793.86767 597.33333,800 597.33333,816 597.33333,826.66667 573.92592,827.06925 573.92592,827.06925 573.92592,827.06925 583.35644,846.18643 570.66667,874.66667 586.66667,874.66667 592,874.66667 592,890.66667 592,896 586.66667,896 549.33333,896 Z"
       id="path3894"
       inkscape:connector-curvature="0"
       sodipodi:nodetypes="csccsccccccsc" />
    <path
       style="fill:none;stroke:#ff0000;stroke-width:1.05599999;stroke-linecap:butt;stroke-linejoin:miter;stroke-miterlimit:4;stroke-dasharray:none;stroke-opacity:1"
       d="M 667.37777,889.95555 C 667.37777,873.95555 672.7111,873.95555 688.7111,873.95555 688.7111,857.95555 688.7111,847.28889 688.7111,836.62222 665.61183,837.02612 674.01465,784.37797 694.26797,783.95267 689.48725,758.88062 730.79183,757.5275 725.45422,784.24854 742.47925,784.25964 739.53088,808.20821 739.53088,808.20821 786.49865,809.31798 779.16677,828.34112 729.90082,828.42715 737.04176,850.03999 736.7111,852.62222 736.7111,873.95555 752.7111,873.95555 763.37777,873.95555 763.37777,889.95555 763.37777,895.28889 752.7111,895.28889 715.37777,895.28889 678.04444,895.28889 667.37777,895.28889 667.37777,889.95555 Z"
       id="path3896"
       inkscape:connector-curvature="0"
       sodipodi:nodetypes="cccccccccsc" />
    <path
       sodipodi:nodetypes="cccccccccccsc"
       inkscape:connector-curvature="0"
       id="path3922"
       d="M 301.51111,891.37778 C 301.51111,875.37778 306.84445,875.37778 317.51111,875.37778 317.51111,864.71111 318.16108,857.02016 320.89105,846.43691 322.12717,839.84514 310.69405,841.81062 306.78126,829.30358 301.95142,812.24395 319.90308,792.75692 328.14004,793.08993 328.31066,767.5502 357.52197,765.87615 356.66748,793.62459 370.13695,795.0579 367.62095,804.29013 366.85829,813.88403 389.50256,814.08659 411.51244,805.19017 412.10532,821.46378 411.83625,839.46142 358.64575,824.77485 361.76157,838.10295 369.6,845.6889 369.24445,858.66667 365.51111,875.37778 381.51111,875.37778 386.84445,875.37778 386.84445,891.37778 386.84445,896.71111 381.51111,896.71111 344.17778,896.71111 306.84445,896.71111 301.51111,896.71111 301.51111,891.37778 Z"
       style="fill:none;stroke:#ff0000;stroke-width:1.05599999;stroke-linecap:butt;stroke-linejoin:miter;stroke-miterlimit:4;stroke-dasharray:none;stroke-opacity:1" />
    <path
       style="fill:none;stroke:#ff0000;stroke-width:1.05599999;stroke-linecap:butt;stroke-linejoin:miter;stroke-miterlimit:4;stroke-dasharray:none;stroke-opacity:1"
       d="M 128.8194,970.26779 C 128.68779,960.37236 134.74754,960.73514 145.41421,960.73514 140.62945,912.67102 155.49435,915.11755 151.28087,897.10639 146.37554,882.86065 144.00368,894.71752 140.55691,883.54661 138.09192,869.23435 128.97066,867.90705 126.42651,857.06882 119.44972,815.35718 165.59208,814.42534 163.8319,843.05704 163.821,847.34851 165.80957,848.65383 177.05522,848.03527 202.59201,851.91913 204.72986,860.29575 204.272,880.66751 210.84736,878.71313 221.21531,882.30177 221.91252,889.09594 224.53986,907.83835 218.4249,913.31074 197.05969,914.81795 203.0274,929.44404 204.05742,936.64173 203.52444,960.73514 214.19111,960.73514 219.52444,960.73514 219.52444,971.40181 219.52444,976.73514 214.74754,976.73514 177.41421,976.73514 134.74754,976.73514 129.41421,976.73514 128.8194,970.26779 Z"
       id="path3943"
       inkscape:connector-curvature="0"
       sodipodi:nodetypes="ccccccccccccsc" />
    <path
       sodipodi:nodetypes="cscccsccccsc"
       inkscape:connector-curvature="0"
       id="path3945"
       d="M 896,938.66667 C 853.33333,938.66667 848,938.66667 848,933.33333 848,922.66667 853.33333,922.66667 869.33333,922.66667 871.68485,884.41255 874.66667,874.66667 874.66667,874.66667 845.50247,851.76323 846.87541,831.0462 883.5038,824.96987 883.16615,813.28507 893.50135,811.73581 902.6855,811.83305 910.24322,811.91305 919.66177,813.98033 918.25435,825.40963 934.4,825.95555 938.66667,832 938.66667,848 938.66667,874.66667 922.66667,874.66667 922.66667,874.66667 922.66667,874.66667 925.99205,890.32537 922.80555,923.33108 938.66667,922.66667 944,922.66667 944,933.33333 944,938.89627 938.66667,938.66667 896,938.66667 Z"
       style="fill:none;stroke:#ff0000;stroke-width:1.05599999;stroke-linecap:butt;stroke-linejoin:miter;stroke-miterlimit:4;stroke-dasharray:none;stroke-opacity:1" />
    <path
       style="fill:none;stroke:#ff0000;stroke-width:1.05599999;stroke-linecap:butt;stroke-linejoin:miter;stroke-miterlimit:4;stroke-dasharray:none;stroke-opacity:1"
       d="M 304,752.35555 C 311.11111,731.73333 317.53936,722.96064 330.66667,715.02222 313.62825,714.42731 299.13052,710.03877 298.66667,699.02222 298.94192,677.78179 301.49197,675.1947 315.04902,664.13591 319.89527,660.92067 332.44445,645.68889 332.44445,629.68889 332.44445,619.02222 327.74748,619.74423 327.2889,601.91369 333.12478,580.38529 311.56187,584.46612 325.51111,562.94245 346.35818,567.24661 353.90971,567.36726 369.49217,563.09866 382.65217,565.53404 384,576.35555 384,587.02222 410.66667,581.68889 453.03212,576.86176 452.89738,607.11607 452.12516,638.21298 406.43856,605.70242 406.97647,641.91649 414.44452,664.8625 425.9714,675.83088 448.38082,683.62676 452.83897,712.70259 454.06123,721.19507 453.33333,752.35555 394.66667,752.35555 357.33333,752.35555 304,752.35555 Z"
       id="path3947"
       inkscape:connector-curvature="0"
       sodipodi:nodetypes="cccccccccccccc" />
    <path
       style="fill:none;stroke:#ff0000;stroke-width:1.05599999;stroke-linecap:butt;stroke-linejoin:miter;stroke-miterlimit:4;stroke-dasharray:none;stroke-opacity:1"
       d="M 154.66667,799.28889 C 112,799.28889 106.66667,799.28889 106.66667,793.95555 106.52357,779.77456 107.31604,779.03697 107.73333,764.2248 108.43054,730.1754 131.64684,735.91796 131.73333,725.55813 128.0431,720.87725 125.49677,716.36173 126.4,711.4248 133.14612,696.5209 139.08554,689.13872 149.05141,684.94114 168.80341,689.00141 177.51868,688.37968 197.22658,684.95644 217.77152,692.67409 219.41078,706.31278 226.93333,715.69152 231.12213,721.51388 232.18814,730.95223 221.72278,738.39137 218.82486,751.29125 208.59713,746.71339 203.46667,751.15818 200.32123,756.56202 202.04641,762.10889 198.99171,773.62659 191.6818,789.04138 202.65275,785.55826 202.66667,793.9556 197.33333,799.28894 202.66667,799.28894 154.66667,799.28894 Z"
       id="path3949"
       inkscape:connector-curvature="0"
       sodipodi:nodetypes="ccccccccccccc" />
    <path
       style="fill:none;stroke:#ff0000;stroke-width:1.05599999;stroke-linecap:butt;stroke-linejoin:miter;stroke-miterlimit:4;stroke-dasharray:none;stroke-opacity:1"
       d="M 154.66667,656 C 85.333333,656 90.666667,656 90.666667,645.33333 90.666667,634.66667 101.33333,634.66667 106.66667,634.66667 106.66667,608 111.99483,603.60721 112,592 112,574.11359 90.666667,597.33333 90.666667,554.66667 90.666667,522.66667 97.512928,517.75657 122.66667,517.33333 122.66667,501.33333 133.33333,496 149.33333,496 160,474.66667 189.64731,487.89853 181.33333,515.86925 179.37778,524.08889 180.31154,528.18978 186.66667,533.33333 201.68351,523.06595 239.28271,521.8147 202.66667,565.33333 190.66928,576.76931 186.66667,576 170.66667,576 181.33333,586.66667 186.31111,597.33333 180.97778,634.66667 213.68889,635.02222 218.66667,634.66667 218.66667,645.33333 218.66667,656 224,656 154.66667,656 Z"
       id="path3951"
       inkscape:connector-curvature="0"
       sodipodi:nodetypes="cccccccccccccc" />
    <path
       style="fill:none;stroke:#ff0000;stroke-width:1.05599999;stroke-linecap:butt;stroke-linejoin:miter;stroke-miterlimit:4;stroke-dasharray:none;stroke-opacity:1"
       d="M 161.34859,464.89017 C 117.74914,464.47447 93.866667,467.91111 94.222222,453.64703 94.061107,447.22695 105.30771,442.7774 121.0414,442.64004 116.97091,429.99589 117.62483,432.32218 118.57778,414.09147 100.24643,410.50879 74.753511,448.34438 69.866667,417.38036 66.213382,401.9048 74.619703,392.28299 111.2,381.64703 105.2647,355.5264 99.497206,353.56068 107.91111,335.06925 116.44861,324.19146 124.54821,323.25036 150.57778,322.26925 170.86957,312.26304 176.23445,310.82511 190.93333,322.26925 202.77065,324.07746 216.51463,325.45587 224,334.80258 235.50014,349.16239 231.30435,359.70564 225.24445,390.18036 260.6213,389.6999 271.5973,391.27328 270.31111,413.55813 266.337,431.9426 251.08829,424.61522 225.06667,422.7137 209.53723,416.92466 210.66951,424.41489 207.27363,442.52067 218.57143,443.19615 229.38212,445.48193 229.51111,453.64702 229.23673,467.25754 199.96342,464.48246 161.34859,464.89017 Z"
       id="path3953"
       inkscape:connector-curvature="0"
       sodipodi:nodetypes="cccccccccccccccc" />
    <path
       style="fill:none;stroke:#ff0000;stroke-width:1.05599999;stroke-linecap:butt;stroke-linejoin:miter;stroke-miterlimit:4;stroke-dasharray:none;stroke-opacity:1"
       d="M 361.56291,544.08181 C 324.16086,543.73297 279.55884,544.82159 280.49244,539.92235 280.01534,527.55919 296.35225,524.90516 318.57082,523.37205 329.88066,452.1535 339.75359,460.51267 345.89626,426.07415 342.90826,400.06428 281.31307,357.43357 262.79967,331.38409 251.59649,311.82894 262.12505,293.62765 277.11467,292.68086 323.2863,291.4911 323.89382,325.06911 310.56034,338.45333 316.86,347.51882 331.12805,361.14834 343.48842,369.98011 321.90398,312.97046 402.54298,312.41507 384.06092,370.77749 402.29516,356.31387 397.09042,362.63281 419.4517,339.13701 406.41042,325.34947 394.32506,293.04163 444.9288,293.13316 461.1778,293.02413 474.78987,308.80302 462.67517,328.32397 421.98037,390.5258 380.52154,402.30893 380.51059,426.74213 381.12299,459.09178 400.37678,454.98822 411.78506,523.99687 434.82802,523.76231 445.23799,526.93034 445.24645,540.1864 445.05671,546.1832 408.29174,542.32066 361.56291,544.08181 Z"
       id="path3955"
       inkscape:connector-curvature="0"
       sodipodi:nodetypes="cccccccccccccccc" />
    <path
       style="fill:none;stroke:#ff0000;stroke-width:1.05599999;stroke-linecap:butt;stroke-linejoin:miter;stroke-miterlimit:4;stroke-dasharray:none;stroke-opacity:1"
       d="M 588.70473,752.35156 C 551.37139,752.35156 540.70473,752.35156 540.70473,741.68489 540.70773,710.01084 535.71283,693.4826 537.36004,664.50902 536.70798,655.27815 523.09949,658.1016 524.70473,651.01822 527.2386,643.23478 540.23208,631.78011 552.68485,639.57681 562.6485,642.27846 564.74986,623.62972 612.10307,624.30146 631.96338,622.19899 628.09278,619.06499 643.51281,632.30841 653.9971,644.57315 650.15157,648.54278 658.15593,665.43058 659.02302,674.78499 659.75198,695.87149 648.12195,695.62727 627.56168,694.69671 622.12005,685.42299 605.98869,692.15735 597.17155,695.83825 594.66943,696.0946 593.45996,712.0266 594.03806,725.68489 594.03806,731.01822 610.03806,731.01822 625.80369,731.05132 636.70473,731.01822 636.70473,741.68489 636.70473,752.35156 626.03806,752.35156 588.70473,752.35156 Z"
       id="path3957"
       inkscape:connector-curvature="0"
       sodipodi:nodetypes="cccccccccccccc" />
    <path
       style="fill:none;stroke:#ff0000;stroke-width:1.05599999;stroke-linecap:butt;stroke-linejoin:miter;stroke-miterlimit:4;stroke-dasharray:none;stroke-opacity:1"
       d="M 762.66667,770.2132 C 730.66667,770.2132 730.66667,770.2132 730.66667,759.54653 730.66667,738.2132 738.55735,741.82227 741.33333,727.54653 745.00356,711.63577 743.26459,707.15163 747.47452,689.71037 720.80785,689.71037 716.24501,658.46326 711.9547,642.71603 706.62137,610.71603 716.99781,579.93249 728.97075,579.04988 740.27027,578.86964 735.54081,597.68514 770.45436,596.27187 810.52158,596.34717 791.79337,575.99029 805.52685,576.03291 828.46054,575.9147 831.9015,619.9793 832,642.2132 832,679.54653 816.40901,684.95361 799.86999,688.41574 788.84187,705.33886 783.18464,711.3727 784,727.54653 784,743.54653 794.66667,738.2132 794.66667,759.54653 794.66667,770.2132 794.66667,770.2132 762.66667,770.2132 Z"
       id="path3959"
       inkscape:connector-curvature="0"
       sodipodi:nodetypes="ccccccccccccc" />
    <path
       sodipodi:nodetypes="cccccccccscccsc"
       inkscape:connector-curvature="0"
       id="path3961"
       d="M 874.66667,759.54653 C 885.33333,738.2132 885.33333,748.87987 892.72868,728.8111 901.33333,711.54653 906.66667,695.54653 897.63129,685.06476 881.25116,663.67157 840.48444,670.89804 841.07879,658.15291 841.86586,630.70709 858.66667,658.2132 869.33333,626.2132 852.73762,621.19962 861.00031,593.61934 872.62816,597.55307 883.92768,596.61858 885.26423,601.31535 917.33333,594.2132 957.02343,597.3055 959.16642,585.07647 968.37442,589.26746 982.25715,597.06885 979.47952,611.20806 969.32051,618.06616 967.58247,642.25259 995.7546,618.5911 995.1809,637.65785 994.8483,648.71233 990.4873,654.6332 967.6289,654.08506 960,695.54653 939.3397,700.30691 938.66667,727.54653 938.66667,748.87987 948.64059,743.37523 949.33333,759.54653 949.33333,770.2132 949.33333,770.2132 912,770.2132 874.66667,770.2132 874.66667,770.2132 874.66667,759.54653 Z"
       style="fill:none;stroke:#ff0000;stroke-width:1.05599999;stroke-linecap:butt;stroke-linejoin:miter;stroke-miterlimit:4;stroke-dasharray:none;stroke-opacity:1" />
    <path
       style="fill:none;stroke:#ff0000;stroke-width:1.05599999;stroke-linecap:butt;stroke-linejoin:miter;stroke-miterlimit:4;stroke-dasharray:none;stroke-opacity:1"
       d="M 706.55555,495.55635 C 733.22222,484.88968 770.55555,468.88968 770.55555,468.88968 759.88889,468.88968 754.55555,468.88968 754.55555,452.88968 754.55555,431.55635 754.55555,404.88968 786.55555,394.22302 786.55555,394.22302 733.22222,378.22302 706.55555,367.55635 706.55555,324.88968 722.55555,308.88968 781.22222,308.88968 797.22222,335.55635 818.55555,372.88968 818.55555,372.88968 834.55555,362.22302 855.88889,362.22302 871.88889,372.88968 871.88889,372.88968 887.88889,335.55635 898.55555,308.88968 962.55555,308.88968 978.55555,324.88968 978.55555,367.55635 946.55555,378.22302 903.88889,394.22302 903.88889,394.22302 930.55555,410.22302 930.55555,431.55635 930.55555,452.88968 930.55555,468.88968 925.22222,468.88968 914.55555,468.88968 914.55555,468.88968 951.88889,484.88968 978.55555,495.55635 978.55555,543.55635 962.55555,564.88968 903.88889,564.88968 893.22222,532.88968 871.88889,484.88968 871.88889,484.88968 855.88889,484.88968 861.22222,495.55635 845.22222,495.55635 829.22222,495.55635 834.55555,484.88968 818.90001,484.73998 818.90001,484.73998 802.55555,516.88968 781.22222,564.88968 727.88889,564.88968 706.55555,548.88968 706.55555,495.55635 Z"
       id="path3963"
       inkscape:connector-curvature="0"
       sodipodi:nodetypes="cccccccccccccccccccc" />
    <path
       sodipodi:type="inkscape:offset"
       inkscape:radius="-2.2064621"
       inkscape:original="M 525.21289 -131.32031 C 499.29075 -130.5381 468.14438 -121.03405 448.16992 -117.78125 C 355.23733 -102.64755 321.50307 -78.819916 319.38086 -44.541016 C 303.79292 207.24269 304.31433 230.47651 321.91406 541.29688 C 322.66814 554.61435 341.53102 587.58407 380.80273 587.56836 C 720.92345 587.43233 929.2111 591.65566 1187.5137 595.28125 C 1213.4226 595.64492 1234.3765 570.3625 1236.002 544.52148 C 1255.1749 239.73451 1256.0672 220.30533 1244.7383 -30.076172 C 1241.2834 -106.43317 1126.3957 -109.03237 1064.7559 -122.38867 C 1016.2526 -132.89857 998.93466 -121.49385 999.71289 -83.435547 C 1000.4073 -49.476647 968.44875 -23.2793 942.18359 -25.5 C 808.59139 -36.7948 717.81442 -39.704219 628.98633 -28.886719 C 598.08872 -25.123919 569.80942 -55.329444 570.90234 -92.527344 C 571.83183 -124.16279 551.13503 -132.10253 525.21289 -131.32031 z "
       style="display:inline;fill:none;fill-rule:evenodd;stroke:#ff0000;stroke-width:1px;stroke-linecap:butt;stroke-linejoin:miter;stroke-opacity:1;enable-background:new"
       id="path4180"
       d="M 525.2793,-129.11523 C 499.84248,-128.34767 468.81366,-118.90742 448.52539,-115.60352 402.19861,-108.05938 370.74864,-98.327776 350.85352,-86.445312 330.95839,-74.562849 322.60248,-60.855557 321.58398,-44.404297 305.99675,207.36802 306.51767,230.35525 324.11719,541.17188 324.44133,546.89646 329.11113,558.32991 338.48828,567.88672 347.86543,577.44353 361.78448,585.36894 380.80273,585.36133 720.94208,585.22529 929.24972,589.44873 1187.5449,593.07422 1212.0021,593.41751 1232.2442,569.12809 1233.8008,544.38281 1252.9736,239.59743 1253.8616,220.39456 1242.5332,-29.976562 1241.6944,-48.51476 1234.2026,-62.340222 1222.3359,-73.207031 1210.4693,-84.07384 1194.1442,-91.882428 1175.8906,-97.757812 1139.3835,-109.50858 1095.3573,-113.50046 1064.2891,-120.23242 1040.252,-125.44088 1024.3265,-125.00321 1014.9043,-119.24219 1010.1932,-116.36167 1006.9371,-112.18607 1004.8008,-106.30273 1002.6645,-100.4194 1001.7269,-92.82556 1001.918,-83.480469 1002.2796,-65.797694 994.14742,-50.177298 982.57031,-39.292969 970.99321,-28.40864 955.93128,-22.122737 941.99805,-23.300781 808.45776,-34.591192 717.8558,-37.48722 629.25391,-26.697266 596.7893,-22.743632 567.5705,-54.242001 568.69727,-92.591797 569.14773,-107.92355 564.53396,-116.87148 556.85742,-122.27539 549.18089,-127.6793 537.9977,-129.49902 525.2793,-129.11523 Z"
       transform="matrix(-1.0682593,0.00932256,-0.00932256,-1.0682593,1362.178,878.7709)" />
  </g>
  <g
     inkscape:groupmode="layer"
     id="layer4"
     inkscape:label="Text"
     style="display:inline;filter:url(#filter5322)">
    <text
       xml:space="preserve"
       style="font-style:normal;font-variant:normal;font-weight:normal;font-stretch:normal;font-size:12.80000019px;line-height:0%;font-family:Helvetica;-inkscape-font-specification:'Helvetica, Normal';text-align:start;letter-spacing:0px;word-spacing:0px;writing-mode:lr-tb;text-anchor:start;display:inline;fill:#000000;fill-opacity:1;stroke:none;stroke-width:1.06666672px;stroke-linecap:butt;stroke-linejoin:miter;stroke-opacity:1"
       x="144.31432"
       y="149.14651"
       id="text5217"
       sodipodi:linespacing="0%"><tspan
         sodipodi:role="line"
         id="tspan5219"
         x="144.31432"
         y="149.14651"
         style="font-size:10.66666698px;line-height:1.25;stroke-width:1.06666672px">Mancubus</tspan></text>
    <text
       xml:space="preserve"
       style="font-style:normal;font-variant:normal;font-weight:normal;font-stretch:normal;font-size:12.80000019px;line-height:0%;font-family:Helvetica;-inkscape-font-specification:'Helvetica, Normal';text-align:start;letter-spacing:0px;word-spacing:0px;writing-mode:lr-tb;text-anchor:start;display:inline;fill:#000000;fill-opacity:1;stroke:none;stroke-width:1.06666672px;stroke-linecap:butt;stroke-linejoin:miter;stroke-opacity:1"
       x="341.57184"
       y="154.73485"
       id="text5221"
       sodipodi:linespacing="0%"><tspan
         sodipodi:role="line"
         id="tspan5223"
         x="341.57184"
         y="154.73485"
         style="font-size:10.66666698px;line-height:1.25;stroke-width:1.06666672px">Arch-Vile</tspan></text>
    <text
       xml:space="preserve"
       style="font-style:normal;font-variant:normal;font-weight:normal;font-stretch:normal;font-size:12.80000019px;line-height:0%;font-family:Helvetica;-inkscape-font-specification:'Helvetica, Normal';text-align:start;letter-spacing:0px;word-spacing:0px;writing-mode:lr-tb;text-anchor:start;display:inline;fill:#000000;fill-opacity:1;stroke:none;stroke-width:1.06666672px;stroke-linecap:butt;stroke-linejoin:miter;stroke-opacity:1"
       x="513.55103"
       y="188.96362"
       id="text5225"
       sodipodi:linespacing="0%"><tspan
         sodipodi:role="line"
         id="tspan5227"
         x="513.55103"
         y="188.96362"
         style="font-size:10.66666698px;line-height:1.25;stroke-width:1.06666672px">Cyberdemon</tspan></text>
    <text
       xml:space="preserve"
       style="font-style:normal;font-variant:normal;font-weight:normal;font-stretch:normal;font-size:12.80000019px;line-height:0%;font-family:Helvetica;-inkscape-font-specification:'Helvetica, Normal';text-align:start;letter-spacing:0px;word-spacing:0px;writing-mode:lr-tb;text-anchor:start;display:inline;fill:#000000;fill-opacity:1;stroke:none;stroke-width:1.06666672px;stroke-linecap:butt;stroke-linejoin:miter;stroke-opacity:1"
       x="815.49731"
       y="197.30931"
       id="text5229"
       sodipodi:linespacing="0%"><tspan
         sodipodi:role="line"
         id="tspan5231"
         x="815.49731"
         y="197.30931"
         style="font-size:10.66666698px;line-height:1.25;stroke-width:1.06666672px">Arachnotron</tspan></text>
    <text
       xml:space="preserve"
       style="font-style:normal;font-variant:normal;font-weight:normal;font-stretch:normal;font-size:12.80000019px;line-height:0%;font-family:Helvetica;-inkscape-font-specification:'Helvetica, Normal';text-align:start;letter-spacing:0px;word-spacing:0px;writing-mode:lr-tb;text-anchor:start;display:inline;fill:#000000;fill-opacity:1;stroke:none;stroke-width:1.06666672px;stroke-linecap:butt;stroke-linejoin:miter;stroke-opacity:1"
       x="883.15747"
       y="406.9642"
       id="text5253"
       sodipodi:linespacing="0%"><tspan
         sodipodi:role="line"
         id="tspan5255"
         x="883.15747"
         y="406.9642"
         style="font-size:10.66666698px;line-height:1.25;stroke-width:1.06666672px">Pain Elemental</tspan></text>
    <text
       xml:space="preserve"
       style="font-style:normal;font-variant:normal;font-weight:normal;font-stretch:normal;font-size:12.80000019px;line-height:0%;font-family:Helvetica;-inkscape-font-specification:'Helvetica, Normal';text-align:start;letter-spacing:0px;word-spacing:0px;writing-mode:lr-tb;text-anchor:start;display:inline;fill:#000000;fill-opacity:1;stroke:none;stroke-width:1.06666672px;stroke-linecap:butt;stroke-linejoin:miter;stroke-opacity:1"
       x="744.99738"
       y="402.13739"
       id="text5249"
       sodipodi:linespacing="0%"><tspan
         sodipodi:role="line"
         id="tspan5251"
         x="744.99738"
         y="402.13739"
         style="font-size:10.66666698px;line-height:1.25;stroke-width:1.06666672px">Cacodemon</tspan></text>
    <text
       xml:space="preserve"
       style="font-style:normal;font-variant:normal;font-weight:normal;font-stretch:normal;font-size:12.80000019px;line-height:0%;font-family:Helvetica;-inkscape-font-specification:'Helvetica, Normal';text-align:start;letter-spacing:0px;word-spacing:0px;writing-mode:lr-tb;text-anchor:start;display:inline;fill:#000000;fill-opacity:1;stroke:none;stroke-width:1.06666672px;stroke-linecap:butt;stroke-linejoin:miter;stroke-opacity:1"
       x="548.79626"
       y="441.44183"
       id="text5245"
       sodipodi:linespacing="0%"><tspan
         sodipodi:role="line"
         id="tspan5247"
         x="548.79626"
         y="441.44183"
         style="font-size:10.66666698px;line-height:1.25;stroke-width:1.06666672px">Lost Soul</tspan></text>
    <text
       xml:space="preserve"
       style="font-style:normal;font-variant:normal;font-weight:normal;font-stretch:normal;font-size:12.80000019px;line-height:0%;font-family:Helvetica;-inkscape-font-specification:'Helvetica, Normal';text-align:start;letter-spacing:0px;word-spacing:0px;writing-mode:lr-tb;text-anchor:start;display:inline;fill:#000000;fill-opacity:1;stroke:none;stroke-width:1.06666672px;stroke-linecap:butt;stroke-linejoin:miter;stroke-opacity:1"
       x="335.12744"
       y="425.02496"
       id="text5241"
       sodipodi:linespacing="0%"><tspan
         sodipodi:role="line"
         id="tspan5243"
         x="335.12744"
         y="425.02496"
         style="font-size:10.66666698px;line-height:1.25;stroke-width:1.06666672px">Baron of Hell</tspan></text>
    <text
       xml:space="preserve"
       style="font-style:normal;font-variant:normal;font-weight:normal;font-stretch:normal;font-size:12.80000019px;line-height:0%;font-family:Helvetica;-inkscape-font-specification:'Helvetica, Normal';text-align:start;letter-spacing:0px;word-spacing:0px;writing-mode:lr-tb;text-anchor:start;display:inline;fill:#000000;fill-opacity:1;stroke:none;stroke-width:1.06666672px;stroke-linecap:butt;stroke-linejoin:miter;stroke-opacity:1"
       x="147.93394"
       y="502.94714"
       id="text5237"
       sodipodi:linespacing="0%"><tspan
         sodipodi:role="line"
         id="tspan5239"
         x="147.93394"
         y="502.94714"
         style="font-size:10.66666698px;line-height:1.25;stroke-width:1.06666672px">Demon</tspan></text>
    <text
       xml:space="preserve"
       style="font-style:normal;font-variant:normal;font-weight:normal;font-stretch:normal;font-size:12.80000019px;line-height:0%;font-family:Helvetica;-inkscape-font-specification:'Helvetica, Normal';text-align:start;letter-spacing:0px;word-spacing:0px;writing-mode:lr-tb;text-anchor:start;display:inline;fill:#000000;fill-opacity:1;stroke:none;stroke-width:1.06666672px;stroke-linecap:butt;stroke-linejoin:miter;stroke-opacity:1"
       x="163.62335"
       y="653.38037"
       id="text5257"
       sodipodi:linespacing="0%"><tspan
         sodipodi:role="line"
         id="tspan5259"
         x="163.62335"
         y="653.38037"
         style="font-size:10.66666698px;line-height:1.25;stroke-width:1.06666672px">Imp</tspan></text>
    <text
       xml:space="preserve"
       style="font-style:normal;font-variant:normal;font-weight:normal;font-stretch:normal;font-size:12.80000019px;line-height:0%;font-family:Helvetica;-inkscape-font-specification:'Helvetica, Normal';text-align:start;letter-spacing:0px;word-spacing:0px;writing-mode:lr-tb;text-anchor:start;display:inline;fill:#000000;fill-opacity:1;stroke:none;stroke-width:1.06666672px;stroke-linecap:butt;stroke-linejoin:miter;stroke-opacity:1"
       x="315.36731"
       y="586.69617"
       id="text5265"
       sodipodi:linespacing="0%"><tspan
         sodipodi:role="line"
         id="tspan5267"
         x="315.36731"
         y="586.69617"
         style="font-size:10.66666698px;line-height:1.25;stroke-width:1.06666672px">Zombieman</tspan></text>
    <text
       xml:space="preserve"
       style="font-style:normal;font-variant:normal;font-weight:normal;font-stretch:normal;font-size:12.80000019px;line-height:0%;font-family:Helvetica;-inkscape-font-specification:'Helvetica, Normal';text-align:start;letter-spacing:0px;word-spacing:0px;writing-mode:lr-tb;text-anchor:start;display:inline;fill:#000000;fill-opacity:1;stroke:none;stroke-width:1.06666672px;stroke-linecap:butt;stroke-linejoin:miter;stroke-opacity:1"
       x="537.07318"
       y="574.43414"
       id="text5261"
       sodipodi:linespacing="0%"><tspan
         sodipodi:role="line"
         id="tspan5263"
         x="537.07318"
         y="574.43414"
         style="font-size:10.66666698px;line-height:1.25;stroke-width:1.06666672px">Marine</tspan></text>
    <text
       xml:space="preserve"
       style="font-style:normal;font-variant:normal;font-weight:normal;font-stretch:normal;font-size:12.80000019px;line-height:0%;font-family:Helvetica;-inkscape-font-specification:'Helvetica, Normal';text-align:start;letter-spacing:0px;word-spacing:0px;writing-mode:lr-tb;text-anchor:start;display:inline;fill:#000000;fill-opacity:1;stroke:none;stroke-width:1.06666672px;stroke-linecap:butt;stroke-linejoin:miter;stroke-opacity:1"
       x="681.72943"
       y="580.84515"
       id="text5269"
       sodipodi:linespacing="0%"><tspan
         sodipodi:role="line"
         id="tspan5271"
         x="681.72943"
         y="580.84515"
         style="font-size:10.66666698px;line-height:1.25;stroke-width:1.06666672px">Shotgun Guy</tspan></text>
    <text
       xml:space="preserve"
       style="font-style:normal;font-variant:normal;font-weight:normal;font-stretch:normal;font-size:12.80000019px;line-height:0%;font-family:Helvetica;-inkscape-font-specification:'Helvetica, Normal';text-align:start;letter-spacing:0px;word-spacing:0px;writing-mode:lr-tb;text-anchor:start;display:inline;fill:#000000;fill-opacity:1;stroke:none;stroke-width:1.06666672px;stroke-linecap:butt;stroke-linejoin:miter;stroke-opacity:1"
       x="867.59937"
       y="618.41516"
       id="text5273"
       sodipodi:linespacing="0%"><tspan
         sodipodi:role="line"
         id="tspan5275"
         x="867.59937"
         y="618.41516"
         style="font-size:10.66666698px;line-height:1.25;stroke-width:1.06666672px">Chaingunner</tspan></text>
    <text
       xml:space="preserve"
       style="font-style:normal;font-variant:normal;font-weight:normal;font-stretch:normal;font-size:12.80000019px;line-height:0%;font-family:Helvetica;-inkscape-font-specification:'Helvetica, Normal';text-align:start;letter-spacing:0px;word-spacing:0px;writing-mode:lr-tb;text-anchor:start;display:inline;fill:#000000;fill-opacity:1;stroke:none;stroke-width:1.06666672px;stroke-linecap:butt;stroke-linejoin:miter;stroke-opacity:1"
       x="119.47777"
       y="317.20471"
       id="text5233"
       sodipodi:linespacing="0%"><tspan
         sodipodi:role="line"
         id="tspan5235"
         x="119.47777"
         y="317.20471"
         style="font-size:10.66666698px;line-height:1.25;stroke-width:1.06666672px">Revenant</tspan></text>
    <a
       style="display:inline;filter:url(#filter5322)"
       id="a5338">
      <text
         id="text5326"
         y="724.26666"
         x="328.53333"
         style="font-style:normal;font-variant:normal;font-weight:normal;font-stretch:normal;font-size:12.80000019px;line-height:0%;font-family:Helvetica;-inkscape-font-specification:'Helvetica, Normal';text-align:start;letter-spacing:0px;word-spacing:0px;writing-mode:lr-tb;text-anchor:start;fill:#000000;fill-opacity:1;stroke:none;stroke-width:1.06666672px;stroke-linecap:butt;stroke-linejoin:miter;stroke-opacity:1"
         xml:space="preserve"
         sodipodi:linespacing="0%"><tspan
           y="724.26666"
           x="328.53333"
           id="tspan5328"
           sodipodi:role="line"
           style="font-size:16px;line-height:1.25;stroke-width:1.06666672px">Laser cutting design for Reaper Miniatures Doom figures</tspan><tspan
           id="tspan5330"
           y="744.26666"
           x="328.53333"
           sodipodi:role="line"
           style="font-size:16px;line-height:1.25;stroke-width:1.06666672px">boxed set. This file is split into three layers, color coded</tspan><tspan
           id="tspan5332"
           y="764.26666"
           x="328.53333"
           sodipodi:role="line"
           style="font-size:16px;line-height:1.25;stroke-width:1.06666672px">as red, green and blue (use Inkscape's layers feature to</tspan><tspan
           id="tspan5334"
           y="784.26666"
           x="328.53333"
           sodipodi:role="line"
           style="font-size:16px;line-height:1.25;stroke-width:1.06666672px">view individually). Each layer should be cut as a ½ inch</tspan><tspan
           id="tspan5336"
           y="804.26666"
           x="328.53333"
           sodipodi:role="line"
           style="font-size:16px;line-height:1.25;stroke-width:1.06666672px">sheet of polyester foam.</tspan></text>
    </a>
  </g>
</svg>
