<?xml version="1.0" encoding="UTF-8" standalone="no"?>
<!-- Created with Inkscape (http://www.inkscape.org/) -->

<svg
   xmlns:dc="http://purl.org/dc/elements/1.1/"
   xmlns:cc="http://creativecommons.org/ns#"
   xmlns:rdf="http://www.w3.org/1999/02/22-rdf-syntax-ns#"
   xmlns:svg="http://www.w3.org/2000/svg"
   xmlns="http://www.w3.org/2000/svg"
   xmlns:sodipodi="http://sodipodi.sourceforge.net/DTD/sodipodi-0.dtd"
   xmlns:inkscape="http://www.inkscape.org/namespaces/inkscape"
   width="1056"
   height="816"
   id="svg2985"
   version="1.1"
   inkscape:version="0.91 r13725"
   sodipodi:docname="combined.svg"
   style="enable-background:new">
  <defs
     id="defs2987">
    <filter
       inkscape:collect="always"
       style="color-interpolation-filters:sRGB"
       id="filter5322">
      <feBlend
         inkscape:collect="always"
         mode="lighten"
         in2="BackgroundImage"
         id="feBlend5324" />
    </filter>
  </defs>
  <sodipodi:namedview
     inkscape:document-units="in"
     pagecolor="#ffffff"
     bordercolor="#666666"
     borderopacity="1.0"
     inkscape:pageopacity="0.0"
     inkscape:pageshadow="2"
     inkscape:zoom="1"
     inkscape:cx="526.24346"
     inkscape:cy="509.73378"
     inkscape:current-layer="layer2"
     id="namedview2989"
     showgrid="true"
     units="in"
     inkscape:window-width="1391"
     inkscape:window-height="856"
     inkscape:window-x="0"
     inkscape:window-y="0"
     inkscape:window-maximized="1"
     inkscape:snap-global="false">
    <inkscape:grid
       type="xygrid"
       id="grid3008"
       originx="0"
       originy="0"
       spacingx="4.0314961"
       spacingy="4.0314961" />
  </sodipodi:namedview>
  <metadata
     id="metadata2991">
    <rdf:RDF>
      <cc:Work
         rdf:about="">
        <dc:format>image/svg+xml</dc:format>
        <dc:type
           rdf:resource="http://purl.org/dc/dcmitype/StillImage" />
        <dc:title />
      </cc:Work>
    </rdf:RDF>
  </metadata>
  <g
     inkscape:groupmode="layer"
     id="layer3"
     inkscape:label="Bottom"
     style="display:inline">
    <g
       id="layer1-8-16"
       inkscape:label="Layer 1"
       transform="translate(10.149457,-239.929)"
       style="stroke:#0000ff;stroke-opacity:1">
      <path
         sodipodi:nodetypes="csccscscscssccssc"
         inkscape:connector-curvature="0"
         id="path4512-10"
         d="M 279.84832,1032.093 101.84832,1007.9263 C 35.847424,998.96549 37.848319,1002.593 37.848319,938.59297 L 35.348319,352.75964 C 35.348319,304.75964 56.681503,284.56018 100.09346,284.50589 L 963.34832,283.42631 C 1000.6817,283.42631 1022.2545,304.75834 1022.015,347.42631 L 1018.6625,944.63566 C 1018.0894,1005.504 1012.8014,1003.4308 971.18165,1007.9263 L 779.84832,1028.593 C 762.53539,1031.1807 757.53539,1025.1807 757.61363,1014.7838 757.65801,1008.8865 757.84832,978.59297 757.84832,970.59297 757.84832,943.9263 736.51499,922.59297 709.84832,922.59297 L 341.84832,922.59298 C 315.18165,922.59298 293.84832,943.92631 293.84832,970.59298 293.84832,978.58012 294.13406,1014.9698 294.15193,1020.9178 294.1698,1026.8658 291.41979,1034.8723 279.84832,1032.093 Z"
         style="fill:none;stroke:#0000ff;stroke-width:1.06666672px;stroke-linecap:butt;stroke-linejoin:miter;stroke-opacity:1" />
    </g>
    <text
       xml:space="preserve"
       style="font-style:normal;font-variant:normal;font-weight:normal;font-stretch:normal;font-size:12.80000019px;line-height:0%;font-family:Helvetica;-inkscape-font-specification:'Helvetica, Normal';text-align:start;letter-spacing:0px;word-spacing:0px;writing-mode:lr-tb;text-anchor:start;fill:#000000;fill-opacity:1;stroke:none;stroke-width:1.06666672px;stroke-linecap:butt;stroke-linejoin:miter;stroke-opacity:1"
       x="105.6"
       y="163.2"
       id="text5079"
       sodipodi:linespacing="0%"><tspan
         sodipodi:role="line"
         id="tspan5081"
         x="105.6"
         y="163.2"
         style="font-size:16px;line-height:1.25;stroke-width:1.06666672px"> </tspan></text>
  </g>
  <g
     inkscape:groupmode="layer"
     id="layer2"
     inkscape:label="Middle"
     style="display:inline">
    <path
       style="fill:none;stroke:#00ff00;stroke-width:1.06666672px;stroke-linecap:butt;stroke-linejoin:miter;stroke-opacity:1"
       d="M 669.63616,338.54401 C 621.24131,338.88579 560.30929,338.51741 491.11614,338.47381 482.49738,338.46881 486.61471,316.16872 496.50241,316.78319 482.77359,288.97165 487.01185,257.30564 474.91309,258.78713 472.56246,251.51798 474.4083,268.46139 475.09086,243.3771 511.54389,226.72228 517.37846,240.70655 516.73558,217.68649 515.42545,170.77359 514.12557,117.29294 551.33073,115.61151 534.73281,83.756982 550.79718,75.672779 587.23619,74.523286 620.09893,73.873974 642.35622,78.325377 641.87343,100.56751 641.92403,119.69854 623.31282,113.691 618.10701,129.59009 618.21746,145.29466 702.65889,141.56468 739.30917,149.3651 L 739.90961,197.02022 C 677.31291,197.56286 650.83429,197.67517 586.3985,196.96102 586.3985,196.96102 579.77842,211.40421 584.33531,214.19196 605.39685,227.07667 606.07015,251.05637 627.73625,270.93726 648.3875,289.88692 669.1371,314.26179 669.63616,338.54403 Z"
       id="path3892-3"
       inkscape:connector-curvature="0"
       sodipodi:nodetypes="cscccscccccccsscc" />
    <path
       style="fill:none;stroke:#00ff00;stroke-width:1.06666672px;stroke-linecap:butt;stroke-linejoin:miter;stroke-opacity:1"
       d="M 304.00939,512.34798 C 311.1205,491.72576 317.54875,482.95307 330.67605,475.01465 313.63763,474.41973 299.1399,470.0312 298.67605,459.01465 298.95131,437.77422 301.50135,435.18713 315.05841,424.12834 319.90466,420.9131 332.45383,405.68131 332.45383,389.68131 332.45383,379.01465 327.75686,379.73666 327.29828,361.90611 333.13417,340.37772 311.57125,344.45855 325.5205,322.93488 346.36756,327.23904 353.91909,327.35969 369.50156,323.09108 382.66156,325.52646 384.00939,336.34798 384.00939,347.01465 410.67605,341.68131 453.0415,336.85419 452.90676,367.1085 452.13455,398.20541 406.44795,365.69485 406.98586,401.90892 414.45391,424.85492 425.98079,435.82331 448.39021,443.61919 452.84835,472.69502 454.07061,481.1875 453.34272,512.34798 394.67605,512.34798 357.34272,512.34798 304.00939,512.34798 Z"
       id="path3947-7"
       inkscape:connector-curvature="0"
       sodipodi:nodetypes="cccccccccccccc" />
    <path
       style="fill:none;stroke:#00ff00;stroke-width:1.06666672px;stroke-linecap:butt;stroke-linejoin:miter;stroke-opacity:1"
       d="M 161.35797,224.88259 C 117.75853,224.4669 93.876053,227.90354 94.231605,213.63946 94.070496,207.21938 105.3171,202.76982 121.05078,202.63247 116.9803,189.98832 117.63422,192.3146 118.58717,174.08389 100.25582,170.50122 74.762901,208.33681 69.876053,177.37279 66.222773,161.89723 74.629088,152.27541 111.20939,141.63946 105.27408,115.51883 99.506592,113.55311 107.9205,95.061675 116.45799,84.183883 124.5576,83.242784 150.58717,82.261675 170.87895,72.255467 176.24384,70.817536 190.94272,82.261675 202.78003,84.069888 216.52402,85.448299 224.00939,94.795008 235.50953,109.15482 231.31374,119.69807 225.25383,150.17279 260.63069,149.69233 271.60669,151.26571 270.3205,173.55056 266.34639,191.93503 251.09767,184.60765 225.07605,182.70612 209.54661,176.91709 210.6789,184.40732 207.28302,202.5131 218.58082,203.18858 229.39151,205.47436 229.5205,213.63945 229.24611,227.24996 199.97281,224.47489 161.35797,224.88259 Z"
       id="path3953-2"
       inkscape:connector-curvature="0"
       sodipodi:nodetypes="cccccccccccccccc" />
    <path
       style="fill:none;stroke:#00ff00;stroke-width:1.06666672px;stroke-linecap:butt;stroke-linejoin:miter;stroke-opacity:1"
       d="M 361.5723,304.07424 C 324.17025,303.7254 279.56822,304.81402 280.50182,299.91477 280.02473,287.55162 296.36163,284.89759 318.5802,283.36448 329.89005,212.14593 339.76298,220.5051 345.90564,186.06658 342.91764,160.0567 281.32245,117.42599 262.80906,91.376512 251.60588,71.821365 262.13443,53.620075 277.12405,52.673291 323.29569,51.483531 323.90321,85.061536 310.56973,98.44576 316.86939,107.51124 331.13744,121.14077 343.4978,129.97253 321.91337,72.962891 402.55236,72.407499 384.0703,130.76992 402.30454,116.30629 397.09981,122.62524 419.46109,99.12944 406.41981,85.341899 394.33444,53.034059 444.93819,53.125589 461.18719,53.016555 474.79925,68.795445 462.68455,88.316395 421.98976,150.51823 380.53092,162.30135 380.51998,186.73456 381.13237,219.0842 400.38617,214.98065 411.79444,283.9893 434.83741,283.75474 445.24738,286.92276 445.25584,300.17883 445.0661,306.17563 408.30113,302.31309 361.5723,304.07424 Z"
       id="path3955-2"
       inkscape:connector-curvature="0"
       sodipodi:nodetypes="cccccccccccccccc" />
    <path
       style="fill:none;stroke:#00ff00;stroke-width:1.06666672px;stroke-linecap:butt;stroke-linejoin:miter;stroke-opacity:1"
       d="M 634.67605,511.63687 C 597.34272,511.63687 586.67605,511.63687 586.67605,500.97021 586.67905,469.29616 581.68416,452.76791 583.33137,423.79434 582.67931,414.56347 569.07082,417.38691 570.67605,410.30354 573.20993,402.5201 586.2034,391.06543 598.65618,398.86212 608.61983,401.56378 610.72118,382.91504 658.0744,383.58677 677.93471,381.48431 674.06411,378.3503 689.48414,391.59373 699.96843,403.85846 696.1229,407.8281 704.12725,424.71589 704.99435,434.0703 705.72331,455.15681 694.09328,454.91259 673.533,453.98203 668.09138,444.70831 651.96002,451.44267 643.14288,455.12356 640.64076,455.37991 639.43129,471.31191 640.00939,484.97021 640.00939,490.30354 656.00939,490.30354 671.77502,490.33664 682.67605,490.30354 682.67605,500.97021 682.67605,511.63687 672.00939,511.63687 634.67605,511.63687 Z"
       id="path3957-9"
       inkscape:connector-curvature="0"
       sodipodi:nodetypes="cccccccccccccc" />
    <path
       style="fill:none;stroke:#00ff00;stroke-width:1.06666672px;stroke-linecap:butt;stroke-linejoin:miter;stroke-opacity:1"
       d="M 778.67605,533.20563 C 746.67605,533.20563 746.67605,533.20563 746.67605,522.53896 746.67605,501.20563 754.56674,504.81469 757.34272,490.53896 761.01295,474.6282 759.27397,470.14406 763.4839,452.7028 736.81724,452.7028 732.2544,421.45569 727.96409,405.70845 722.63075,373.70845 733.0072,342.92491 744.98014,342.04231 756.27966,341.86206 751.5502,360.67756 786.46374,359.26429 826.53097,359.33959 807.80275,338.98271 821.53623,339.02534 844.46993,338.90713 847.91089,382.97173 848.00939,405.20563 848.00939,442.53896 832.4184,447.94603 815.87938,451.40817 804.85125,468.33129 799.19403,474.36513 800.00939,490.53896 800.00939,506.53896 810.67605,501.20563 810.67605,522.53896 810.67605,533.20563 810.67605,533.20563 778.67605,533.20563 Z"
       id="path3959-8"
       inkscape:connector-curvature="0"
       sodipodi:nodetypes="ccccccccccccc" />
    <path
       sodipodi:nodetypes="cccccccccscccsc"
       inkscape:connector-curvature="0"
       id="path3961-7"
       d="M 890.67605,522.53896 C 901.34272,501.20563 901.34272,511.87229 908.73807,491.80353 917.34272,474.53896 922.67605,458.53896 913.64067,448.05719 897.26054,426.66399 856.49382,433.89047 857.08818,421.14534 857.87524,393.69951 874.67605,421.20564 885.34272,389.20563 868.74701,384.19205 877.0097,356.61177 888.63755,360.5455 899.93707,359.611 901.27362,364.30778 933.34272,357.20563 973.03282,360.29793 975.17581,348.0689 984.38381,352.25989 998.26654,360.06127 995.48891,374.20049 985.3299,381.05859 983.59186,405.24502 1011.764,381.58353 1011.1903,400.65028 1010.8576,411.70475 1006.4967,417.62563 983.63828,417.07749 976.00939,458.53896 955.34909,463.29933 954.67605,490.53896 954.67605,511.87229 964.64997,506.36765 965.34272,522.53896 965.34272,533.20563 965.34272,533.20563 928.00939,533.20563 890.67605,533.20563 890.67605,533.20563 890.67605,522.53896 Z"
       style="fill:none;stroke:#00ff00;stroke-width:1.06666672px;stroke-linecap:butt;stroke-linejoin:miter;stroke-opacity:1" />
    <path
       style="fill:none;stroke:#00ff00;stroke-width:1.06666672px;stroke-linecap:butt;stroke-linejoin:miter;stroke-opacity:1"
       d="M 723.56494,255.54878 C 750.23161,244.88211 787.56494,228.88211 787.56494,228.88211 776.89827,228.88211 771.56494,228.88211 771.56494,212.88211 771.56494,191.54878 771.56494,164.88211 803.56494,154.21544 803.56494,154.21544 750.23161,138.21544 723.56494,127.54878 723.56494,84.882109 739.56494,68.882109 798.23161,68.882109 814.23161,95.548776 835.56494,132.88211 835.56494,132.88211 851.56494,122.21544 872.89827,122.21544 888.89827,132.88211 888.89827,132.88211 904.89827,95.548776 915.56494,68.882109 979.56494,68.882109 995.56494,84.882109 995.56494,127.54878 963.56494,138.21544 920.89827,154.21544 920.89827,154.21544 947.56494,170.21544 947.56494,191.54878 947.56494,212.88211 947.56494,228.88211 942.23161,228.88211 931.56494,228.88211 931.56494,228.88211 968.89827,244.88211 995.56494,255.54878 995.56494,303.54878 979.56494,324.88211 920.89827,324.88211 910.23161,292.88211 888.89827,244.88211 888.89827,244.88211 872.89827,244.88211 878.23161,255.54878 862.23161,255.54878 846.23161,255.54878 851.56494,244.88211 835.9094,244.7324 835.9094,244.7324 819.56494,276.88211 798.23161,324.88211 744.89827,324.88211 723.56494,308.88211 723.56494,255.54878 Z"
       id="path3963-5"
       inkscape:connector-curvature="0"
       sodipodi:nodetypes="cccccccccccccccccccc" />
    <g
       id="layer1-8-1"
       inkscape:label="Layer 1"
       transform="translate(10.161067,-239.93388)"
       style="stroke:#00ff00;stroke-opacity:1">
      <path
         sodipodi:nodetypes="csccscscscssccssc"
         inkscape:connector-curvature="0"
         id="path4512-1"
         d="M 274.84832,1039.4575 76.706746,1017.8819 C 10.491729,1010.6718 12.706746,1012.5485 12.706746,948.54852 L 12.706746,341.25964 C 12.706746,293.25964 34.039926,273.05782 77.451887,273.00589 L 980.07054,271.92631 C 1017.4039,271.92631 1039.1408,293.25958 1038.7372,335.92631 L 1032.8847,954.59121 C 1032.3116,1015.4595 1027.0172,1013.3282 985.40387,1017.8819 L 787.40898,1039.5485 C 768.60647,1041.722 757.65152,1035.52 757.55297,1021.118 757.51262,1015.2207 757.84832,988.54852 757.84832,980.54852 757.84832,953.88186 736.51499,932.54852 709.84832,932.54852 L 341.84832,932.54853 C 315.18165,932.54853 293.84832,953.88187 293.84832,980.54853 293.84832,988.53568 293.89413,1015.9253 293.90193,1021.8733 293.9198,1035.5034 283.26293,1040.3226 274.84832,1039.4575 Z"
         style="fill:none;stroke:#00ff00;stroke-width:1.06666672px;stroke-linecap:butt;stroke-linejoin:miter;stroke-opacity:1" />
    </g>
  </g>
  <g
     inkscape:label="Top"
     inkscape:groupmode="layer"
     id="layer1"
     transform="translate(0,-240)"
     style="display:inline">
    <path
       style="fill:none;stroke:#ff0000;stroke-width:1.05599999;stroke-linecap:butt;stroke-linejoin:miter;stroke-miterlimit:4;stroke-dasharray:none;stroke-opacity:1"
       d="M 669.62677,578.55158 C 621.23193,578.89337 560.2999,578.52498 491.10675,578.48138 482.48799,578.47638 486.60532,556.17628 496.49302,556.79075 482.7642,528.97921 487.00246,497.31321 474.9037,498.79469 457.61974,500.77 460.17669,492.8245 460.85925,467.74021 466.92086,406.69725 464.11103,351.87082 551.32134,355.61907 534.72342,323.76455 550.7878,315.68034 587.22681,314.53085 620.08955,313.88154 642.34684,318.33294 641.86404,340.57507 641.91464,359.7061 623.30343,353.69856 618.09762,369.59765 618.20807,385.30222 702.6495,381.57225 739.29979,389.37266 L 739.90022,437.02779 C 677.30352,437.57042 650.82491,437.68273 586.38911,436.96859 586.38911,436.96859 579.76903,451.41178 584.32592,454.19952 605.38747,467.08424 606.06077,491.06394 627.72686,510.94482 648.37811,529.89449 669.12771,554.26936 669.62677,578.5516 Z"
       id="path3892"
       inkscape:connector-curvature="0"
       sodipodi:nodetypes="csccccccccccsscc" />
    <path
       style="fill:none;stroke:#ff0000;stroke-width:1.05599999;stroke-linecap:butt;stroke-linejoin:miter;stroke-miterlimit:4;stroke-dasharray:none;stroke-opacity:1"
       d="M 549.33333,896 C 506.66667,896 501.33333,896 501.33333,890.66667 501.33333,874.66667 506.66667,874.66667 522.66667,874.66667 L 533.33333,826.66667 C 464,848 458.66667,826.66667 458.66667,816 458.66667,805.33333 460.08889,786.48889 522.60829,796.04006 526.61024,789.36297 532.1456,787.49549 538.35556,787.37121 541.29083,762.5086 568.68315,760.39114 572.8,788.08657 592.60774,793.86767 597.33333,800 597.33333,816 597.33333,826.66667 573.92592,827.06925 573.92592,827.06925 573.92592,827.06925 583.35644,846.18643 570.66667,874.66667 586.66667,874.66667 592,874.66667 592,890.66667 592,896 586.66667,896 549.33333,896 Z"
       id="path3894"
       inkscape:connector-curvature="0"
       sodipodi:nodetypes="csccsccccccsc" />
    <path
       style="fill:none;stroke:#ff0000;stroke-width:1.05599999;stroke-linecap:butt;stroke-linejoin:miter;stroke-miterlimit:4;stroke-dasharray:none;stroke-opacity:1"
       d="M 667.37777,889.95555 C 667.37777,873.95555 672.7111,873.95555 688.7111,873.95555 688.7111,857.95555 688.7111,847.28889 688.7111,836.62222 665.61183,837.02612 674.01465,784.37797 694.26797,783.95267 689.48725,758.88062 730.79183,757.5275 725.45422,784.24854 742.47925,784.25964 739.53088,808.20821 739.53088,808.20821 786.49865,809.31798 779.16677,828.34112 729.90082,828.42715 737.04176,850.03999 736.7111,852.62222 736.7111,873.95555 752.7111,873.95555 763.37777,873.95555 763.37777,889.95555 763.37777,895.28889 752.7111,895.28889 715.37777,895.28889 678.04444,895.28889 667.37777,895.28889 667.37777,889.95555 Z"
       id="path3896"
       inkscape:connector-curvature="0"
       sodipodi:nodetypes="cccccccccsc" />
    <path
       sodipodi:nodetypes="cccccccccccsc"
       inkscape:connector-curvature="0"
       id="path3922"
       d="M 301.51111,891.37778 C 301.51111,875.37778 306.84445,875.37778 317.51111,875.37778 317.51111,864.71111 318.16108,857.02016 320.89105,846.43691 322.12717,839.84514 310.69405,841.81062 306.78126,829.30358 301.95142,812.24395 319.90308,792.75692 328.14004,793.08993 328.31066,767.5502 357.52197,765.87615 356.66748,793.62459 370.13695,795.0579 367.62095,804.29013 366.85829,813.88403 389.50256,814.08659 411.51244,805.19017 412.10532,821.46378 411.83625,839.46142 358.64575,824.77485 361.76157,838.10295 369.6,845.6889 369.24445,858.66667 365.51111,875.37778 381.51111,875.37778 386.84445,875.37778 386.84445,891.37778 386.84445,896.71111 381.51111,896.71111 344.17778,896.71111 306.84445,896.71111 301.51111,896.71111 301.51111,891.37778 Z"
       style="fill:none;stroke:#ff0000;stroke-width:1.05599999;stroke-linecap:butt;stroke-linejoin:miter;stroke-miterlimit:4;stroke-dasharray:none;stroke-opacity:1" />
    <path
       style="fill:none;stroke:#ff0000;stroke-width:1.05599999;stroke-linecap:butt;stroke-linejoin:miter;stroke-miterlimit:4;stroke-dasharray:none;stroke-opacity:1"
       d="M 127.40519,974.51043 C 127.27358,964.615 133.33333,964.97778 144,964.97778 139.21524,916.91366 154.08014,919.36019 149.86666,901.34903 144.96133,887.10329 142.58947,898.96016 139.1427,887.78925 136.67771,873.47699 127.55645,872.14969 125.0123,861.31146 118.03551,819.59982 164.17787,818.66798 162.41769,847.29968 162.40679,851.59115 164.39536,852.89647 175.64101,852.27791 201.1778,856.16177 203.31565,864.53839 202.85779,884.91015 209.43315,882.95577 219.8011,886.54441 220.49831,893.33858 223.12565,912.08099 217.01069,917.55338 195.64548,919.06059 201.61319,933.68668 202.64321,940.88437 202.11023,964.97778 212.7769,964.97778 218.11023,964.97778 218.11023,975.64445 218.11023,980.97778 213.33333,980.97778 176,980.97778 133.33333,980.97778 128,980.97778 127.40519,974.51043 Z"
       id="path3943"
       inkscape:connector-curvature="0"
       sodipodi:nodetypes="ccccccccccccsc" />
    <path
       sodipodi:nodetypes="cscccsccccsc"
       inkscape:connector-curvature="0"
       id="path3945"
       d="M 896,938.66667 C 853.33333,938.66667 848,938.66667 848,933.33333 848,922.66667 853.33333,922.66667 869.33333,922.66667 871.68485,884.41255 874.66667,874.66667 874.66667,874.66667 845.50247,851.76323 846.87541,831.0462 883.5038,824.96987 883.16615,813.28507 893.50135,811.73581 902.6855,811.83305 910.24322,811.91305 919.66177,813.98033 918.25435,825.40963 934.4,825.95555 938.66667,832 938.66667,848 938.66667,874.66667 922.66667,874.66667 922.66667,874.66667 922.66667,874.66667 925.99205,890.32537 922.80555,923.33108 938.66667,922.66667 944,922.66667 944,933.33333 944,938.89627 938.66667,938.66667 896,938.66667 Z"
       style="fill:none;stroke:#ff0000;stroke-width:1.05599999;stroke-linecap:butt;stroke-linejoin:miter;stroke-miterlimit:4;stroke-dasharray:none;stroke-opacity:1" />
    <path
       style="fill:none;stroke:#ff0000;stroke-width:1.05599999;stroke-linecap:butt;stroke-linejoin:miter;stroke-miterlimit:4;stroke-dasharray:none;stroke-opacity:1"
       d="M 304,752.35555 C 311.11111,731.73333 317.53936,722.96064 330.66667,715.02222 313.62825,714.42731 299.13052,710.03877 298.66667,699.02222 298.94192,677.78179 301.49197,675.1947 315.04902,664.13591 319.89527,660.92067 332.44445,645.68889 332.44445,629.68889 332.44445,619.02222 327.74748,619.74423 327.2889,601.91369 333.12478,580.38529 311.56187,584.46612 325.51111,562.94245 346.35818,567.24661 353.90971,567.36726 369.49217,563.09866 382.65217,565.53404 384,576.35555 384,587.02222 410.66667,581.68889 453.03212,576.86176 452.89738,607.11607 452.12516,638.21298 406.43856,605.70242 406.97647,641.91649 414.44452,664.8625 425.9714,675.83088 448.38082,683.62676 452.83897,712.70259 454.06123,721.19507 453.33333,752.35555 394.66667,752.35555 357.33333,752.35555 304,752.35555 Z"
       id="path3947"
       inkscape:connector-curvature="0"
       sodipodi:nodetypes="cccccccccccccc" />
    <path
       style="fill:none;stroke:#ff0000;stroke-width:1.05599999;stroke-linecap:butt;stroke-linejoin:miter;stroke-miterlimit:4;stroke-dasharray:none;stroke-opacity:1"
       d="M 154.66667,799.28889 C 112,799.28889 106.66667,799.28889 106.66667,793.95555 106.52357,779.77456 107.31604,779.03697 107.73333,764.2248 108.43054,730.1754 131.64684,735.91796 131.73333,725.55813 128.0431,720.87725 125.49677,716.36173 126.4,711.4248 133.14612,696.5209 139.08554,689.13872 149.05141,684.94114 168.80341,689.00141 177.51868,688.37968 197.22658,684.95644 217.77152,692.67409 219.41078,706.31278 226.93333,715.69152 231.12213,721.51388 232.18814,730.95223 221.72278,738.39137 218.82486,751.29125 208.59713,746.71339 203.46667,751.15818 200.32123,756.56202 202.04641,762.10889 198.99171,773.62659 191.6818,789.04138 202.65275,785.55826 202.66667,793.9556 197.33333,799.28894 202.66667,799.28894 154.66667,799.28894 Z"
       id="path3949"
       inkscape:connector-curvature="0"
       sodipodi:nodetypes="ccccccccccccc" />
    <path
       style="fill:none;stroke:#ff0000;stroke-width:1.05599999;stroke-linecap:butt;stroke-linejoin:miter;stroke-miterlimit:4;stroke-dasharray:none;stroke-opacity:1"
       d="M 154.66667,656 C 85.333333,656 90.666667,656 90.666667,645.33333 90.666667,634.66667 101.33333,634.66667 106.66667,634.66667 106.66667,608 111.99483,603.60721 112,592 112,574.11359 90.666667,597.33333 90.666667,554.66667 90.666667,522.66667 97.512928,517.75657 122.66667,517.33333 122.66667,501.33333 133.33333,496 149.33333,496 160,474.66667 189.64731,487.89853 181.33333,515.86925 179.37778,524.08889 180.31154,528.18978 186.66667,533.33333 201.68351,523.06595 239.28271,521.8147 202.66667,565.33333 190.66928,576.76931 186.66667,576 170.66667,576 181.33333,586.66667 186.31111,597.33333 180.97778,634.66667 213.68889,635.02222 218.66667,634.66667 218.66667,645.33333 218.66667,656 224,656 154.66667,656 Z"
       id="path3951"
       inkscape:connector-curvature="0"
       sodipodi:nodetypes="cccccccccccccc" />
    <path
       style="fill:none;stroke:#ff0000;stroke-width:1.05599999;stroke-linecap:butt;stroke-linejoin:miter;stroke-miterlimit:4;stroke-dasharray:none;stroke-opacity:1"
       d="M 161.34859,464.89017 C 117.74914,464.47447 93.866667,467.91111 94.222222,453.64703 94.061107,447.22695 105.30771,442.7774 121.0414,442.64004 116.97091,429.99589 117.62483,432.32218 118.57778,414.09147 100.24643,410.50879 74.753511,448.34438 69.866667,417.38036 66.213382,401.9048 74.619703,392.28299 111.2,381.64703 105.2647,355.5264 99.497206,353.56068 107.91111,335.06925 116.44861,324.19146 124.54821,323.25036 150.57778,322.26925 170.86957,312.26304 176.23445,310.82511 190.93333,322.26925 202.77065,324.07746 216.51463,325.45587 224,334.80258 235.50014,349.16239 231.30435,359.70564 225.24445,390.18036 260.6213,389.6999 271.5973,391.27328 270.31111,413.55813 266.337,431.9426 251.08829,424.61522 225.06667,422.7137 209.53723,416.92466 210.66951,424.41489 207.27363,442.52067 218.57143,443.19615 229.38212,445.48193 229.51111,453.64702 229.23673,467.25754 199.96342,464.48246 161.34859,464.89017 Z"
       id="path3953"
       inkscape:connector-curvature="0"
       sodipodi:nodetypes="cccccccccccccccc" />
    <path
       style="fill:none;stroke:#ff0000;stroke-width:1.05599999;stroke-linecap:butt;stroke-linejoin:miter;stroke-miterlimit:4;stroke-dasharray:none;stroke-opacity:1"
       d="M 361.56291,544.08181 C 324.16086,543.73297 279.55884,544.82159 280.49244,539.92235 280.01534,527.55919 296.35225,524.90516 318.57082,523.37205 329.88066,452.1535 339.75359,460.51267 345.89626,426.07415 342.90826,400.06428 281.31307,357.43357 262.79967,331.38409 251.59649,311.82894 262.12505,293.62765 277.11467,292.68086 323.2863,291.4911 323.89382,325.06911 310.56034,338.45333 316.86,347.51882 331.12805,361.14834 343.48842,369.98011 321.90398,312.97046 402.54298,312.41507 384.06092,370.77749 402.29516,356.31387 397.09042,362.63281 419.4517,339.13701 406.41042,325.34947 394.32506,293.04163 444.9288,293.13316 461.1778,293.02413 474.78987,308.80302 462.67517,328.32397 421.98037,390.5258 380.52154,402.30893 380.51059,426.74213 381.12299,459.09178 400.37678,454.98822 411.78506,523.99687 434.82802,523.76231 445.23799,526.93034 445.24645,540.1864 445.05671,546.1832 408.29174,542.32066 361.56291,544.08181 Z"
       id="path3955"
       inkscape:connector-curvature="0"
       sodipodi:nodetypes="cccccccccccccccc" />
    <path
       style="fill:none;stroke:#ff0000;stroke-width:1.05599999;stroke-linecap:butt;stroke-linejoin:miter;stroke-miterlimit:4;stroke-dasharray:none;stroke-opacity:1"
       d="M 634.66667,751.64445 C 597.33333,751.64445 586.66667,751.64445 586.66667,740.97778 586.66967,709.30373 581.67477,692.77549 583.32198,663.80191 582.66992,654.57104 569.06143,657.39449 570.66667,650.31111 573.20054,642.52767 586.19402,631.073 598.64679,638.8697 608.61044,641.57135 610.7118,622.92261 658.06501,623.59435 677.92532,621.49188 674.05472,618.35788 689.47475,631.6013 699.95904,643.86604 696.11351,647.83567 704.11787,664.72347 704.98496,674.07788 705.71392,695.16438 694.08389,694.92016 673.52362,693.9896 668.08199,684.71588 651.95063,691.45024 643.13349,695.13114 640.63137,695.38749 639.4219,711.31949 640,724.97778 640,730.31111 656,730.31111 671.76563,730.34421 682.66667,730.31111 682.66667,740.97778 682.66667,751.64445 672,751.64445 634.66667,751.64445 Z"
       id="path3957"
       inkscape:connector-curvature="0"
       sodipodi:nodetypes="cccccccccccccc" />
    <path
       style="fill:none;stroke:#ff0000;stroke-width:1.05599999;stroke-linecap:butt;stroke-linejoin:miter;stroke-miterlimit:4;stroke-dasharray:none;stroke-opacity:1"
       d="M 778.66667,773.2132 C 746.66667,773.2132 746.66667,773.2132 746.66667,762.54653 746.66667,741.2132 754.55735,744.82227 757.33333,730.54653 761.00356,714.63577 759.26459,710.15163 763.47452,692.71037 736.80785,692.71037 732.24501,661.46326 727.9547,645.71603 722.62137,613.71603 732.99781,582.93249 744.97075,582.04988 756.27027,581.86964 751.54081,600.68514 786.45436,599.27187 826.52158,599.34717 807.79337,578.99029 821.52685,579.03291 844.46054,578.9147 847.9015,622.9793 848,645.2132 848,682.54653 832.40901,687.95361 815.86999,691.41574 804.84187,708.33886 799.18464,714.3727 800,730.54653 800,746.54653 810.66667,741.2132 810.66667,762.54653 810.66667,773.2132 810.66667,773.2132 778.66667,773.2132 Z"
       id="path3959"
       inkscape:connector-curvature="0"
       sodipodi:nodetypes="ccccccccccccc" />
    <path
       sodipodi:nodetypes="cccccccccscccsc"
       inkscape:connector-curvature="0"
       id="path3961"
       d="M 890.66667,762.54653 C 901.33333,741.2132 901.33333,751.87987 908.72868,731.8111 917.33333,714.54653 922.66667,698.54653 913.63129,688.06476 897.25116,666.67157 856.48444,673.89804 857.07879,661.15291 857.86586,633.70709 874.66667,661.2132 885.33333,629.2132 868.73762,624.19962 877.00031,596.61934 888.62816,600.55307 899.92768,599.61858 901.26423,604.31535 933.33333,597.2132 973.02343,600.3055 975.16642,588.07647 984.37442,592.26746 998.25715,600.06885 995.47952,614.20806 985.32051,621.06616 983.58247,645.25259 1011.7546,621.5911 1011.1809,640.65785 1010.8483,651.71233 1006.4873,657.6332 983.6289,657.08506 976,698.54653 955.3397,703.30691 954.66667,730.54653 954.66667,751.87987 964.64059,746.37523 965.33333,762.54653 965.33333,773.2132 965.33333,773.2132 928,773.2132 890.66667,773.2132 890.66667,773.2132 890.66667,762.54653 Z"
       style="fill:none;stroke:#ff0000;stroke-width:1.05599999;stroke-linecap:butt;stroke-linejoin:miter;stroke-miterlimit:4;stroke-dasharray:none;stroke-opacity:1" />
    <path
       style="fill:none;stroke:#ff0000;stroke-width:1.05599999;stroke-linecap:butt;stroke-linejoin:miter;stroke-miterlimit:4;stroke-dasharray:none;stroke-opacity:1"
       d="M 723.55555,495.55635 C 750.22222,484.88968 787.55555,468.88968 787.55555,468.88968 776.88889,468.88968 771.55555,468.88968 771.55555,452.88968 771.55555,431.55635 771.55555,404.88968 803.55555,394.22302 803.55555,394.22302 750.22222,378.22302 723.55555,367.55635 723.55555,324.88968 739.55555,308.88968 798.22222,308.88968 814.22222,335.55635 835.55555,372.88968 835.55555,372.88968 851.55555,362.22302 872.88889,362.22302 888.88889,372.88968 888.88889,372.88968 904.88889,335.55635 915.55555,308.88968 979.55555,308.88968 995.55555,324.88968 995.55555,367.55635 963.55555,378.22302 920.88889,394.22302 920.88889,394.22302 947.55555,410.22302 947.55555,431.55635 947.55555,452.88968 947.55555,468.88968 942.22222,468.88968 931.55555,468.88968 931.55555,468.88968 968.88889,484.88968 995.55555,495.55635 995.55555,543.55635 979.55555,564.88968 920.88889,564.88968 910.22222,532.88968 888.88889,484.88968 888.88889,484.88968 872.88889,484.88968 878.22222,495.55635 862.22222,495.55635 846.22222,495.55635 851.55555,484.88968 835.90001,484.73998 835.90001,484.73998 819.55555,516.88968 798.22222,564.88968 744.88889,564.88968 723.55555,548.88968 723.55555,495.55635 Z"
       id="path3963"
       inkscape:connector-curvature="0"
       sodipodi:nodetypes="cccccccccccccccccccc" />
    <g
       id="layer1-8"
       inkscape:label="Layer 1"
       transform="translate(10.151681,0.0736928)"
       style="stroke:#ff0000;stroke-width:0.99000001;stroke-miterlimit:4;stroke-dasharray:none;stroke-opacity:1">
      <path
         sodipodi:nodetypes="csccscscscssccssc"
         inkscape:connector-curvature="0"
         id="path4512"
         d="M 270.34832,1039.0485 76.706746,1017.8819 C 10.494715,1010.6444 12.706746,1012.5485 12.706746,948.54852 L 12.706746,341.25964 C 12.706746,293.25964 34.039926,273.05782 77.451887,273.00589 L 980.07054,271.92631 C 1017.4039,271.92631 1039.1408,293.25958 1038.7372,335.92631 L 1032.8847,954.59121 C 1032.3116,1015.4595 1027.0203,1013.3565 985.40387,1017.8819 L 795.34832,1038.5485 C 769.22779,1042.7826 757.91927,1037.0002 757.5833,1020.2948 757.46472,1014.3985 757.84832,988.54852 757.84832,980.54852 757.84832,953.88186 736.51499,932.54852 709.84832,932.54852 L 341.84832,932.54853 C 315.18165,932.54853 293.84832,953.88187 293.84832,980.54853 293.84832,988.53568 294.09925,1015.895 294.10904,1021.843 294.1269,1032.7001 287.48045,1040.9742 270.34832,1039.0485 Z"
         style="fill:none;stroke:#ff0000;stroke-width:1.05599999;stroke-linecap:butt;stroke-linejoin:miter;stroke-miterlimit:4;stroke-dasharray:none;stroke-opacity:1" />
    </g>
  </g>
  <g
     inkscape:groupmode="layer"
     id="layer4"
     inkscape:label="Text"
     style="display:inline;filter:url(#filter5322)">
    <text
       xml:space="preserve"
       style="font-style:normal;font-variant:normal;font-weight:normal;font-stretch:normal;font-size:12.80000019px;line-height:0%;font-family:Helvetica;-inkscape-font-specification:'Helvetica, Normal';text-align:start;letter-spacing:0px;word-spacing:0px;writing-mode:lr-tb;text-anchor:start;display:inline;fill:#000000;fill-opacity:1;stroke:none;stroke-width:1.06666672px;stroke-linecap:butt;stroke-linejoin:miter;stroke-opacity:1"
       x="144.31432"
       y="149.14651"
       id="text5217"
       sodipodi:linespacing="0%"><tspan
         sodipodi:role="line"
         id="tspan5219"
         x="144.31432"
         y="149.14651"
         style="font-size:10.66666698px;line-height:1.25;stroke-width:1.06666672px">Mancubus</tspan></text>
    <text
       xml:space="preserve"
       style="font-style:normal;font-variant:normal;font-weight:normal;font-stretch:normal;font-size:12.80000019px;line-height:0%;font-family:Helvetica;-inkscape-font-specification:'Helvetica, Normal';text-align:start;letter-spacing:0px;word-spacing:0px;writing-mode:lr-tb;text-anchor:start;display:inline;fill:#000000;fill-opacity:1;stroke:none;stroke-width:1.06666672px;stroke-linecap:butt;stroke-linejoin:miter;stroke-opacity:1"
       x="341.57184"
       y="154.73485"
       id="text5221"
       sodipodi:linespacing="0%"><tspan
         sodipodi:role="line"
         id="tspan5223"
         x="341.57184"
         y="154.73485"
         style="font-size:10.66666698px;line-height:1.25;stroke-width:1.06666672px">Arch-Vile</tspan></text>
    <text
       xml:space="preserve"
       style="font-style:normal;font-variant:normal;font-weight:normal;font-stretch:normal;font-size:12.80000019px;line-height:0%;font-family:Helvetica;-inkscape-font-specification:'Helvetica, Normal';text-align:start;letter-spacing:0px;word-spacing:0px;writing-mode:lr-tb;text-anchor:start;display:inline;fill:#000000;fill-opacity:1;stroke:none;stroke-width:1.06666672px;stroke-linecap:butt;stroke-linejoin:miter;stroke-opacity:1"
       x="529.55103"
       y="182.96362"
       id="text5225"
       sodipodi:linespacing="0%"><tspan
         sodipodi:role="line"
         id="tspan5227"
         x="529.55103"
         y="182.96362"
         style="font-size:10.66666698px;line-height:1.25;stroke-width:1.06666672px">Cyberdemon</tspan></text>
    <text
       xml:space="preserve"
       style="font-style:normal;font-variant:normal;font-weight:normal;font-stretch:normal;font-size:12.80000019px;line-height:0%;font-family:Helvetica;-inkscape-font-specification:'Helvetica, Normal';text-align:start;letter-spacing:0px;word-spacing:0px;writing-mode:lr-tb;text-anchor:start;display:inline;fill:#000000;fill-opacity:1;stroke:none;stroke-width:1.06666672px;stroke-linecap:butt;stroke-linejoin:miter;stroke-opacity:1"
       x="832.49731"
       y="197.30931"
       id="text5229"
       sodipodi:linespacing="0%"><tspan
         sodipodi:role="line"
         id="tspan5231"
         x="832.49731"
         y="197.30931"
         style="font-size:10.66666698px;line-height:1.25;stroke-width:1.06666672px">Arachnotron</tspan></text>
    <text
       xml:space="preserve"
       style="font-style:normal;font-variant:normal;font-weight:normal;font-stretch:normal;font-size:12.80000019px;line-height:0%;font-family:Helvetica;-inkscape-font-specification:'Helvetica, Normal';text-align:start;letter-spacing:0px;word-spacing:0px;writing-mode:lr-tb;text-anchor:start;display:inline;fill:#000000;fill-opacity:1;stroke:none;stroke-width:1.06666672px;stroke-linecap:butt;stroke-linejoin:miter;stroke-opacity:1"
       x="899.15747"
       y="409.9642"
       id="text5253"
       sodipodi:linespacing="0%"><tspan
         sodipodi:role="line"
         id="tspan5255"
         x="899.15747"
         y="409.9642"
         style="font-size:10.66666698px;line-height:1.25;stroke-width:1.06666672px">Pain Elemental</tspan></text>
    <text
       xml:space="preserve"
       style="font-style:normal;font-variant:normal;font-weight:normal;font-stretch:normal;font-size:12.80000019px;line-height:0%;font-family:Helvetica;-inkscape-font-specification:'Helvetica, Normal';text-align:start;letter-spacing:0px;word-spacing:0px;writing-mode:lr-tb;text-anchor:start;display:inline;fill:#000000;fill-opacity:1;stroke:none;stroke-width:1.06666672px;stroke-linecap:butt;stroke-linejoin:miter;stroke-opacity:1"
       x="760.99738"
       y="405.13739"
       id="text5249"
       sodipodi:linespacing="0%"><tspan
         sodipodi:role="line"
         id="tspan5251"
         x="760.99738"
         y="405.13739"
         style="font-size:10.66666698px;line-height:1.25;stroke-width:1.06666672px">Cacodemon</tspan></text>
    <text
       xml:space="preserve"
       style="font-style:normal;font-variant:normal;font-weight:normal;font-stretch:normal;font-size:12.80000019px;line-height:0%;font-family:Helvetica;-inkscape-font-specification:'Helvetica, Normal';text-align:start;letter-spacing:0px;word-spacing:0px;writing-mode:lr-tb;text-anchor:start;display:inline;fill:#000000;fill-opacity:1;stroke:none;stroke-width:1.06666672px;stroke-linecap:butt;stroke-linejoin:miter;stroke-opacity:1"
       x="594.75818"
       y="440.73474"
       id="text5245"
       sodipodi:linespacing="0%"><tspan
         sodipodi:role="line"
         id="tspan5247"
         x="594.75818"
         y="440.73474"
         style="font-size:10.66666698px;line-height:1.25;stroke-width:1.06666672px">Lost Soul</tspan></text>
    <text
       xml:space="preserve"
       style="font-style:normal;font-variant:normal;font-weight:normal;font-stretch:normal;font-size:12.80000019px;line-height:0%;font-family:Helvetica;-inkscape-font-specification:'Helvetica, Normal';text-align:start;letter-spacing:0px;word-spacing:0px;writing-mode:lr-tb;text-anchor:start;display:inline;fill:#000000;fill-opacity:1;stroke:none;stroke-width:1.06666672px;stroke-linecap:butt;stroke-linejoin:miter;stroke-opacity:1"
       x="335.12744"
       y="425.02496"
       id="text5241"
       sodipodi:linespacing="0%"><tspan
         sodipodi:role="line"
         id="tspan5243"
         x="335.12744"
         y="425.02496"
         style="font-size:10.66666698px;line-height:1.25;stroke-width:1.06666672px">Baron of Hell</tspan></text>
    <text
       xml:space="preserve"
       style="font-style:normal;font-variant:normal;font-weight:normal;font-stretch:normal;font-size:12.80000019px;line-height:0%;font-family:Helvetica;-inkscape-font-specification:'Helvetica, Normal';text-align:start;letter-spacing:0px;word-spacing:0px;writing-mode:lr-tb;text-anchor:start;display:inline;fill:#000000;fill-opacity:1;stroke:none;stroke-width:1.06666672px;stroke-linecap:butt;stroke-linejoin:miter;stroke-opacity:1"
       x="147.93394"
       y="502.94714"
       id="text5237"
       sodipodi:linespacing="0%"><tspan
         sodipodi:role="line"
         id="tspan5239"
         x="147.93394"
         y="502.94714"
         style="font-size:10.66666698px;line-height:1.25;stroke-width:1.06666672px">Demon</tspan></text>
    <text
       xml:space="preserve"
       style="font-style:normal;font-variant:normal;font-weight:normal;font-stretch:normal;font-size:12.80000019px;line-height:0%;font-family:Helvetica;-inkscape-font-specification:'Helvetica, Normal';text-align:start;letter-spacing:0px;word-spacing:0px;writing-mode:lr-tb;text-anchor:start;display:inline;fill:#000000;fill-opacity:1;stroke:none;stroke-width:1.06666672px;stroke-linecap:butt;stroke-linejoin:miter;stroke-opacity:1"
       x="162.20914"
       y="657.62299"
       id="text5257"
       sodipodi:linespacing="0%"><tspan
         sodipodi:role="line"
         id="tspan5259"
         x="162.20914"
         y="657.62299"
         style="font-size:10.66666698px;line-height:1.25;stroke-width:1.06666672px">Imp</tspan></text>
    <text
       xml:space="preserve"
       style="font-style:normal;font-variant:normal;font-weight:normal;font-stretch:normal;font-size:12.80000019px;line-height:0%;font-family:Helvetica;-inkscape-font-specification:'Helvetica, Normal';text-align:start;letter-spacing:0px;word-spacing:0px;writing-mode:lr-tb;text-anchor:start;display:inline;fill:#000000;fill-opacity:1;stroke:none;stroke-width:1.06666672px;stroke-linecap:butt;stroke-linejoin:miter;stroke-opacity:1"
       x="315.36731"
       y="586.69617"
       id="text5265"
       sodipodi:linespacing="0%"><tspan
         sodipodi:role="line"
         id="tspan5267"
         x="315.36731"
         y="586.69617"
         style="font-size:10.66666698px;line-height:1.25;stroke-width:1.06666672px">Zombieman</tspan></text>
    <text
       xml:space="preserve"
       style="font-style:normal;font-variant:normal;font-weight:normal;font-stretch:normal;font-size:12.80000019px;line-height:0%;font-family:Helvetica;-inkscape-font-specification:'Helvetica, Normal';text-align:start;letter-spacing:0px;word-spacing:0px;writing-mode:lr-tb;text-anchor:start;display:inline;fill:#000000;fill-opacity:1;stroke:none;stroke-width:1.06666672px;stroke-linecap:butt;stroke-linejoin:miter;stroke-opacity:1"
       x="537.07318"
       y="574.43414"
       id="text5261"
       sodipodi:linespacing="0%"><tspan
         sodipodi:role="line"
         id="tspan5263"
         x="537.07318"
         y="574.43414"
         style="font-size:10.66666698px;line-height:1.25;stroke-width:1.06666672px">Marine</tspan></text>
    <text
       xml:space="preserve"
       style="font-style:normal;font-variant:normal;font-weight:normal;font-stretch:normal;font-size:12.80000019px;line-height:0%;font-family:Helvetica;-inkscape-font-specification:'Helvetica, Normal';text-align:start;letter-spacing:0px;word-spacing:0px;writing-mode:lr-tb;text-anchor:start;display:inline;fill:#000000;fill-opacity:1;stroke:none;stroke-width:1.06666672px;stroke-linecap:butt;stroke-linejoin:miter;stroke-opacity:1"
       x="681.72943"
       y="580.84515"
       id="text5269"
       sodipodi:linespacing="0%"><tspan
         sodipodi:role="line"
         id="tspan5271"
         x="681.72943"
         y="580.84515"
         style="font-size:10.66666698px;line-height:1.25;stroke-width:1.06666672px">Shotgun Guy</tspan></text>
    <text
       xml:space="preserve"
       style="font-style:normal;font-variant:normal;font-weight:normal;font-stretch:normal;font-size:12.80000019px;line-height:0%;font-family:Helvetica;-inkscape-font-specification:'Helvetica, Normal';text-align:start;letter-spacing:0px;word-spacing:0px;writing-mode:lr-tb;text-anchor:start;display:inline;fill:#000000;fill-opacity:1;stroke:none;stroke-width:1.06666672px;stroke-linecap:butt;stroke-linejoin:miter;stroke-opacity:1"
       x="867.59937"
       y="618.41516"
       id="text5273"
       sodipodi:linespacing="0%"><tspan
         sodipodi:role="line"
         id="tspan5275"
         x="867.59937"
         y="618.41516"
         style="font-size:10.66666698px;line-height:1.25;stroke-width:1.06666672px">Chaingunner</tspan></text>
    <text
       xml:space="preserve"
       style="font-style:normal;font-variant:normal;font-weight:normal;font-stretch:normal;font-size:12.80000019px;line-height:0%;font-family:Helvetica;-inkscape-font-specification:'Helvetica, Normal';text-align:start;letter-spacing:0px;word-spacing:0px;writing-mode:lr-tb;text-anchor:start;display:inline;fill:#000000;fill-opacity:1;stroke:none;stroke-width:1.06666672px;stroke-linecap:butt;stroke-linejoin:miter;stroke-opacity:1"
       x="119.47777"
       y="317.20471"
       id="text5233"
       sodipodi:linespacing="0%"><tspan
         sodipodi:role="line"
         id="tspan5235"
         x="119.47777"
         y="317.20471"
         style="font-size:10.66666698px;line-height:1.25;stroke-width:1.06666672px">Revenant</tspan></text>
    <a
       style="display:inline;filter:url(#filter5322)"
       id="a5338">
      <text
         id="text5326"
         y="724.26666"
         x="328.53333"
         style="font-style:normal;font-variant:normal;font-weight:normal;font-stretch:normal;font-size:12.80000019px;line-height:0%;font-family:Helvetica;-inkscape-font-specification:'Helvetica, Normal';text-align:start;letter-spacing:0px;word-spacing:0px;writing-mode:lr-tb;text-anchor:start;fill:#000000;fill-opacity:1;stroke:none;stroke-width:1.06666672px;stroke-linecap:butt;stroke-linejoin:miter;stroke-opacity:1"
         xml:space="preserve"
         sodipodi:linespacing="0%"><tspan
           y="724.26666"
           x="328.53333"
           id="tspan5328"
           sodipodi:role="line"
           style="font-size:16px;line-height:1.25;stroke-width:1.06666672px">Laser cutting design for Reaper Miniatures Doom figures</tspan><tspan
           id="tspan5330"
           y="744.26666"
           x="328.53333"
           sodipodi:role="line"
           style="font-size:16px;line-height:1.25;stroke-width:1.06666672px">boxed set. This file is split into three layers, color coded</tspan><tspan
           id="tspan5332"
           y="764.26666"
           x="328.53333"
           sodipodi:role="line"
           style="font-size:16px;line-height:1.25;stroke-width:1.06666672px">as red, green and blue (use Inkscape's layers feature to</tspan><tspan
           id="tspan5334"
           y="784.26666"
           x="328.53333"
           sodipodi:role="line"
           style="font-size:16px;line-height:1.25;stroke-width:1.06666672px">view individually). Each layer should be cut as a ½ inch</tspan><tspan
           id="tspan5336"
           y="804.26666"
           x="328.53333"
           sodipodi:role="line"
           style="font-size:16px;line-height:1.25;stroke-width:1.06666672px">sheet of polyester foam.</tspan></text>
    </a>
  </g>
</svg>
