<?xml version="1.0" encoding="UTF-8" standalone="no"?>
<!-- Created with Inkscape (http://www.inkscape.org/) -->

<svg
   xmlns:dc="http://purl.org/dc/elements/1.1/"
   xmlns:cc="http://creativecommons.org/ns#"
   xmlns:rdf="http://www.w3.org/1999/02/22-rdf-syntax-ns#"
   xmlns:svg="http://www.w3.org/2000/svg"
   xmlns="http://www.w3.org/2000/svg"
   xmlns:sodipodi="http://sodipodi.sourceforge.net/DTD/sodipodi-0.dtd"
   xmlns:inkscape="http://www.inkscape.org/namespaces/inkscape"
   width="990"
   height="765"
   id="svg2985"
   version="1.1"
   inkscape:version="0.91 r13725"
   sodipodi:docname="combined.svg"
   enable-background="new">
  <defs
     id="defs2987">
    <filter
       inkscape:collect="always"
       style="color-interpolation-filters:sRGB"
       id="filter5322">
      <feBlend
         inkscape:collect="always"
         mode="lighten"
         in2="BackgroundImage"
         id="feBlend5324" />
    </filter>
  </defs>
  <sodipodi:namedview
     inkscape:document-units="in"
     pagecolor="#ffffff"
     bordercolor="#666666"
     borderopacity="1.0"
     inkscape:pageopacity="0.0"
     inkscape:pageshadow="2"
     inkscape:zoom="0.70710678"
     inkscape:cx="544.82211"
     inkscape:cy="361.8301"
     inkscape:current-layer="layer4"
     id="namedview2989"
     showgrid="true"
     units="in"
     inkscape:window-width="1228"
     inkscape:window-height="755"
     inkscape:window-x="0"
     inkscape:window-y="1"
     inkscape:window-maximized="1"
     inkscape:snap-global="false">
    <inkscape:grid
       type="xygrid"
       id="grid3008" />
  </sodipodi:namedview>
  <metadata
     id="metadata2991">
    <rdf:RDF>
      <cc:Work
         rdf:about="">
        <dc:format>image/svg+xml</dc:format>
        <dc:type
           rdf:resource="http://purl.org/dc/dcmitype/StillImage" />
        <dc:title></dc:title>
      </cc:Work>
    </rdf:RDF>
  </metadata>
  <g
     inkscape:groupmode="layer"
     id="layer3"
     inkscape:label="Bottom"
     style="display:inline">
    <path
       style="fill:none;stroke:#0000ff;stroke-width:1px;stroke-linecap:butt;stroke-linejoin:miter;stroke-opacity:1"
       d="m 678.33124,224.99751 c 25,-10 60,-25 60,-25 16.22326,9.878 16.39965,13.7593 45.32293,14.8596 0,0 -15.32293,30.1404 -35.32293,75.1404 -50,0 -70,-15 -70,-65 z"
       id="path3963-0"
       inkscape:connector-curvature="0"
       sodipodi:nodetypes="ccccc" />
    <g
       id="layer1-8-16"
       inkscape:label="Layer 1"
       transform="translate(9.515116,-224.93344)"
       style="stroke:#0000ff;stroke-opacity:1">
      <path
         sodipodi:nodetypes="csccscscscsccsc"
         transform="translate(0,225)"
         inkscape:connector-curvature="0"
         id="path4512-10"
         d="m 275.4828,744.93091 -180.000001,-25 c -61.849817,-8.59025 -60,-5 -60,-65 l 0,-559.999997 c 0,-45 19.99986,-63.936989 60.69857,-63.987887 L 905.4828,29.930913 c 35,0 55.38459,20 55,60 l -5.48675,570.665017 c -0.53722,57.06406 -5.5709,54.46719 -44.51325,59.33498 l -200,25 c -0.58673,-60.77305 0,-45 0,-60 0,-25 -20,-45 -45,-45 l -345,10e-6 c -25,0 -45,20 -45,45 0,14.97589 0.13402,-0.41389 0,59.99999 z"
         style="fill:none;stroke:#0000ff;stroke-width:1px;stroke-linecap:butt;stroke-linejoin:miter;stroke-opacity:1" />
    </g>
    <circle
       r="15.278151"
       cy="387.05554"
       cx="616.79492"
       style="opacity:0.95979716;fill:none;stroke:#0000ff;stroke-width:0.94369864;stroke-miterlimit:4;stroke-dasharray:none;stroke-opacity:1"
       id="path3008" />
    <path
       sodipodi:nodetypes="ccccc"
       inkscape:connector-curvature="0"
       id="path3800"
       d="m 753.42527,130.21831 c 0,0 -50,-15 -75,-24.99997 0,-40 15,-55 70,-55 15,25 35,59.99997 35,59.99997 -13.87713,3.9519 -24.47365,13.0663 -30,20 z"
       style="fill:none;stroke:#0000ff;stroke-width:1px;stroke-linecap:butt;stroke-linejoin:miter;stroke-opacity:1" />
    <path
       style="fill:none;stroke:#0000ff;stroke-width:1px;stroke-linecap:butt;stroke-linejoin:miter;stroke-opacity:1"
       d="m 873.33125,199.99751 c 0,0 35,15 60,25 0,45 -15,65 -70,65 -10,-30 -30,-75 -30,-75 14.10637,-1.3575 29.88641,-4.1503 40,-15 z"
       id="path3802"
       inkscape:connector-curvature="0"
       sodipodi:nodetypes="ccccc" />
    <path
       sodipodi:nodetypes="ccccc"
       inkscape:connector-curvature="0"
       id="path3804"
       d="m 833.33073,109.98501 c 0,0 15,-35.00002 25,-60.00002 60,0 75,15 75,55 -30,10.00002 -70,25.00002 -70,25.00002 -4.41744,-7.2994 -15.19068,-16.8157 -30,-20 z"
       style="fill:none;stroke:#0000ff;stroke-width:1px;stroke-linecap:butt;stroke-linejoin:miter;stroke-opacity:1" />
    <text
       xml:space="preserve"
       style="font-style:normal;font-variant:normal;font-weight:normal;font-stretch:normal;font-size:15px;line-height:125%;font-family:Helvetica;-inkscape-font-specification:'Helvetica, Normal';text-align:start;letter-spacing:0px;word-spacing:0px;writing-mode:lr-tb;text-anchor:start;fill:#000000;fill-opacity:1;stroke:none;stroke-width:1px;stroke-linecap:butt;stroke-linejoin:miter;stroke-opacity:1"
       x="99"
       y="153"
       id="text5079"
       sodipodi:linespacing="125%"><tspan
         sodipodi:role="line"
         id="tspan5081"
         x="99"
         y="153"></tspan></text>
  </g>
  <g
     inkscape:groupmode="layer"
     id="layer2"
     inkscape:label="Middle"
     style="display:inline">
    <path
       style="fill:none;stroke:#00ff00;stroke-width:1px;stroke-linecap:butt;stroke-linejoin:miter;stroke-opacity:1"
       d="m 627.7839,317.38501 c -45.37017,0.32042 -102.49394,-0.0249 -167.36252,-0.0658 -8.08009,-0.005 -4.22009,-20.91103 5.04963,-20.33496 -12.87077,-26.07332 -8.8974,-55.7602 -20.23999,-54.37131 -2.20371,-6.81482 -0.47324,9.06962 0.16666,-14.4469 34.17472,-15.61389 39.64463,-2.50364 39.04193,-24.08495 -1.22825,-43.98084 -2.44689,-94.11895 32.43295,-95.69529 -15.56055,-29.86362 -0.5002,-37.44256 33.66137,-38.52021 30.80882,-0.60873 51.67503,3.56446 51.22241,24.41646 0.0474,17.93534 -17.40057,12.30327 -22.28102,27.20867 0.10355,14.72303 79.26739,11.22618 113.62703,18.53907 l 0.56291,44.67668 c -58.68441,0.50872 -83.50811,0.61401 -143.91667,-0.0555 0,0 -6.20632,13.54049 -1.93424,16.154 19.7452,12.07942 20.37642,34.56039 40.68838,53.19872 19.36055,17.76531 38.8133,40.61675 39.28117,63.38135 z"
       id="path3892-3"
       inkscape:connector-curvature="0"
       sodipodi:nodetypes="cscccscccccccsscc" />
    <path
       style="fill:none;stroke:#00ff00;stroke-width:1px;stroke-linecap:butt;stroke-linejoin:miter;stroke-opacity:1"
       d="m 285.0088,480.32623 c 6.66667,-19.33333 12.69315,-27.55773 25,-35 -15.97352,-0.55773 -29.56514,-4.67198 -30,-15 0.25805,-19.9129 2.64872,-22.3383 15.35846,-32.70591 4.54336,-3.01429 16.30821,-17.29409 16.30821,-32.29409 0,-10 -4.40341,-9.32311 -4.83333,-26.03925 5.47114,-20.18287 -14.74409,-16.35709 -1.66667,-36.53553 19.54412,4.03515 26.62368,4.14826 41.23224,0.14644 12.3375,2.28317 13.60109,12.42834 13.60109,22.42834 25,-5 64.71761,-9.52543 64.59129,18.83799 -0.72395,29.15335 -43.55514,-1.3253 -43.05085,32.62539 7.0013,21.51188 17.80775,31.79474 38.81658,39.10338 4.17951,27.25859 5.32538,35.22029 4.64298,64.43324 -55,0 -90,0 -140,0 z"
       id="path3947-7"
       inkscape:connector-curvature="0"
       sodipodi:nodetypes="cccccccccccccc" />
    <path
       style="fill:none;stroke:#00ff00;stroke-width:1px;stroke-linecap:butt;stroke-linejoin:miter;stroke-opacity:1"
       d="m 124.34213,389.9929 c -31.66666,0 -39.33333,0 -39.33333,-10 0,-10 10,-10 15,-10 64.57716,0.21386 64.10996,0.35913 64.45921,10.94281 -0.33333,9.40727 0.0665,9.05719 -40.12588,9.05719 z"
       id="path3951-5"
       inkscape:connector-curvature="0"
       sodipodi:nodetypes="ccccc" />
    <path
       style="fill:none;stroke:#00ff00;stroke-width:1px;stroke-linecap:butt;stroke-linejoin:miter;stroke-opacity:1"
       d="m 151.2731,210.82743 c -40.87448,-0.38971 -63.2643,2.83214 -62.93097,-10.54044 -0.15104,-6.01882 10.39265,-10.19028 25.14298,-10.31905 -3.81608,-11.85389 -3.20303,-9.673 -2.30964,-26.76429 -17.18564,-3.35876 -41.08525,32.11211 -45.66667,3.08334 -3.42495,-14.50834 4.45597,-23.52879 38.75,-33.5 -5.56435,-24.48809 -10.97137,-26.33095 -3.08333,-43.66667 8.0039,-10.19793 15.59728,-11.08021 40,-12 19.02355,-9.38082 24.05313,-10.72888 37.83333,0 11.09748,1.6952 23.98247,2.98746 31,11.75 10.78138,13.46232 6.84783,23.34662 1.16667,51.91667 33.1658,-0.45043 43.4558,1.02461 42.25,21.91666 -3.72573,17.23544 -18.0214,10.36602 -42.41667,8.58334 -14.55885,-5.42722 -13.49733,1.59487 -16.68097,18.56904 10.59169,0.63326 20.72671,2.77618 20.84764,10.43095 -0.25724,12.75986 -27.70096,10.15823 -63.90237,10.54045 z"
       id="path3953-2"
       inkscape:connector-curvature="0"
       sodipodi:nodetypes="cccccccccccccccc" />
    <path
       style="fill:none;stroke:#00ff00;stroke-width:1px;stroke-linecap:butt;stroke-linejoin:miter;stroke-opacity:1"
       d="m 338.97403,285.0696 c -35.06442,-0.32704 -76.87882,0.69354 -76.00357,-3.8995 -0.44728,-11.59046 14.86857,-14.07861 35.69848,-15.5159 10.60298,-66.76739 19.85885,-58.93067 25.6176,-91.21678 -2.80125,-24.38426 -60.54674,-64.35055 -77.90305,-88.77194 -10.50298,-18.33295 -0.63246,-35.39666 13.42031,-36.28427 43.28591,-1.1154 43.85546,30.36398 31.35532,42.91169 5.90593,8.49889 19.28223,21.27657 30.87007,29.55635 -20.23541,-53.44654 55.36365,-53.96722 38.03672,0.74755 17.0946,-13.55965 12.21516,-7.63564 33.17886,-29.66295 -12.2262,-12.92582 -23.55623,-43.21442 23.88478,-43.12861 15.23344,-0.10222 27.99475,14.69049 16.63722,32.99138 -38.15137,58.31422 -77.01903,69.3609 -77.02929,92.26703 0.57412,30.32779 18.62455,26.48071 29.31981,91.17632 21.60278,-0.2199 31.36213,2.75012 31.37006,15.17768 -0.17788,5.622 -34.64504,2.00087 -78.45332,3.65195 z"
       id="path3955-2"
       inkscape:connector-curvature="0"
       sodipodi:nodetypes="cccccccccccccccc" />
    <path
       style="fill:none;stroke:#00ff00;stroke-width:1px;stroke-linecap:butt;stroke-linejoin:miter;stroke-opacity:1"
       d="m 595.0088,479.65957 c -35,0 -45,0 -45,-10 0.003,-29.69442 -4.6799,-45.18965 -3.13564,-72.35238 -0.61131,-8.65394 -13.36927,-6.00696 -11.86436,-12.64762 2.37551,-7.29698 14.55689,-18.03573 26.23137,-10.72633 9.34092,2.5328 11.31094,-14.95039 55.70458,-14.32064 18.61904,-1.97106 14.99035,-4.90919 29.44663,7.50652 9.82902,11.49819 6.22384,15.21972 13.72792,31.05203 0.8129,8.76976 1.4963,28.53836 -9.40685,28.3094 -19.27526,-0.8724 -24.37678,-9.56651 -39.49993,-3.25305 -8.26607,3.45084 -10.61181,3.69117 -11.74569,18.62742 0.54197,12.80465 0.54197,17.80465 15.54197,17.80465 14.78028,0.031 25,0 25,10 0,10 -10,10 -45,10 z"
       id="path3957-9"
       inkscape:connector-curvature="0"
       sodipodi:nodetypes="cccccccccccccc" />
    <path
       style="fill:none;stroke:#00ff00;stroke-width:1px;stroke-linecap:butt;stroke-linejoin:miter;stroke-opacity:1"
       d="m 730.0088,479.9929 c -30,0 -30,0 -30,-10 0,-20 7.39752,-16.6165 10,-30 3.44084,-14.91634 1.81055,-19.12022 5.75736,-35.4714 -25,0 -29.27766,-29.29417 -33.29983,-44.0572 -5,-30 4.72792,-58.85957 15.95255,-59.68701 10.5933,-0.16898 6.15943,17.47055 38.89088,16.14561 37.56302,0.0706 20.00532,-19.01398 32.88046,-18.97402 21.50034,-0.11082 24.72624,41.19974 24.81858,62.04402 0,35 -14.61655,40.06913 -30.12188,43.31488 -10.33887,15.86543 -15.64252,21.52215 -14.87812,36.68512 0,15 10,10 10,30 0,10 0,10 -30,10 z"
       id="path3959-8"
       inkscape:connector-curvature="0"
       sodipodi:nodetypes="ccccccccccccc" />
    <path
       sodipodi:nodetypes="cccccccccscccsc"
       inkscape:connector-curvature="0"
       id="path3961-7"
       d="m 835.0088,469.9929 c 10,-20 10,-10 16.93314,-28.81447 8.06686,-16.18553 13.06686,-31.18553 4.59619,-41.01219 -15.35637,-20.05612 -53.57517,-13.2813 -53.01796,-25.22986 0.73787,-25.73046 16.48863,0.0565 26.48863,-29.94348 -15.55848,-4.70023 -7.81221,-30.55674 3.0889,-26.86887 10.5933,-0.87609 11.84632,3.52714 41.9111,-3.13113 37.20947,2.89903 39.21852,-8.56568 47.85102,-4.63663 13.01506,7.3138 10.41103,20.56931 0.88696,26.99878 -1.62941,22.67478 24.78198,0.49213 24.24411,18.36721 -0.31185,10.36357 -4.40022,15.91439 -25.83,15.40051 -7.15209,38.87013 -26.52112,43.33298 -27.15209,68.87013 0,20 9.35055,14.8394 10,30 0,10 0,10 -35,10 -35,0 -35,0 -35,-10 z"
       style="fill:none;stroke:#00ff00;stroke-width:1px;stroke-linecap:butt;stroke-linejoin:miter;stroke-opacity:1" />
    <path
       style="fill:none;stroke:#00ff00;stroke-width:1px;stroke-linecap:butt;stroke-linejoin:miter;stroke-opacity:1"
       d="m 678.34213,224.9929 c 25,-10 60,-25 60,-25 -10,0 -15,0 -15,-15 0,-20 0,-45 30,-55 0,0 -50,-15 -75,-25 0,-40 15,-55 70,-55 15,25 35,60 35,60 15,-10 35,-10 50,0 0,0 15,-35 25,-60 60,0 75,15 75,55 -30,10 -70,25 -70,25 25,15 25,35 25,55 0,15 -5,15 -15,15 0,0 35,15 60,25 0,45 -15,65 -70,65 -10,-30 -30,-75 -30,-75 -15,0 -10,10 -25,10 -15,0 -10,-10 -24.67707,-10.14035 0,0 -15.32293,30.14035 -35.32293,75.14035 -50,0 -70,-15 -70,-65 z"
       id="path3963-5"
       inkscape:connector-curvature="0"
       sodipodi:nodetypes="cccccccccccccccccccc" />
    <g
       id="layer1-8-1"
       inkscape:label="Layer 1"
       transform="translate(9.526,-224.93801)"
       style="stroke:#00ff00;stroke-opacity:1">
      <path
         sodipodi:nodetypes="csccscscscsccsc"
         transform="translate(0,225)"
         inkscape:connector-curvature="0"
         id="path4512-1"
         d="m 275.4828,754.26424 -203.570226,-25 c -61.9778947,-7.61137 -60,-5 -60,-65 l 0,-569.333327 c 0,-45 19.999857,-63.939209 60.69857,-63.987887 L 918.81613,29.930913 c 35,0 55.3784,19.999941 55,60 l -5.48675,579.998347 c -0.53722,57.06406 -5.53457,54.76717 -44.51325,59.33498 l -213.33333,25 c -0.58673,-60.77305 0,-45 0,-60 0,-25 -20,-45 -45,-45 l -345,10e-6 c -25,0 -45,20 -45,45 0,14.97589 0.13402,-0.41389 0,59.99999 z"
         style="fill:none;stroke:#00ff00;stroke-width:1px;stroke-linecap:butt;stroke-linejoin:miter;stroke-opacity:1" />
    </g>
  </g>
  <g
     inkscape:label="Top"
     inkscape:groupmode="layer"
     id="layer1"
     transform="translate(0,-225)"
     style="display:inline">
    <path
       style="fill:none;stroke:#ff0000;stroke-width:0.99000001;stroke-linecap:butt;stroke-linejoin:miter;stroke-miterlimit:4;stroke-dasharray:none;stroke-opacity:1"
       d="m 627.7751,542.39211 c -45.37017,0.32042 -102.49394,-0.0249 -167.36252,-0.0658 -8.08009,-0.005 -4.22009,-20.91103 5.04963,-20.33496 -12.87077,-26.07332 -8.8974,-55.7602 -20.23999,-54.37131 -16.20371,1.85185 -13.80657,-5.59705 -13.16667,-29.11357 5.68276,-57.22778 3.04854,-108.62756 84.80821,-105.11357 -15.56055,-29.86362 -0.5002,-37.44256 33.66137,-38.52021 30.80882,-0.60873 51.67503,3.56446 51.22241,24.41646 0.0474,17.93534 -17.40057,12.30327 -22.28102,27.20867 0.10355,14.72303 79.26739,11.22618 113.62703,18.53907 l 0.56291,44.67668 c -58.68441,0.50872 -83.50811,0.61401 -143.91667,-0.0555 0,0 -6.20632,13.54049 -1.93424,16.154 19.7452,12.07942 20.37642,34.56039 40.68838,53.19872 19.36055,17.76531 38.8133,40.61675 39.28117,63.38135 z"
       id="path3892"
       inkscape:connector-curvature="0"
       sodipodi:nodetypes="csccccccccccsscc" />
    <path
       style="fill:none;stroke:#ff0000;stroke-width:0.99000001;stroke-linecap:butt;stroke-linejoin:miter;stroke-miterlimit:4;stroke-dasharray:none;stroke-opacity:1"
       d="m 515,840 c -40,0 -45,0 -45,-5 0,-15 5,-15 20,-15 l 10,-45 c -65,20 -70,0 -70,-10 0,-10 1.33333,-27.66667 59.94527,-18.71244 3.75183,-6.25978 8.94123,-8.01054 14.76307,-8.12705 2.75181,-23.3087 28.43211,-25.29382 32.29166,0.67065 C 555.56976,744.25094 560,750 560,765 c 0,10 -21.94445,10.37742 -21.94445,10.37742 0,0 8.84111,17.92236 -3.05555,44.62258 15,0 20,0 20,15 0,5 -5,5 -40,5 z"
       id="path3894"
       inkscape:connector-curvature="0"
       sodipodi:nodetypes="csccsccccccsc" />
    <path
       style="fill:none;stroke:#ff0000;stroke-width:0.99000001;stroke-linecap:butt;stroke-linejoin:miter;stroke-miterlimit:4;stroke-dasharray:none;stroke-opacity:1"
       d="m 625.66666,834.33333 c 0,-15 5,-15 20,-15 0,-15 0,-25 0,-35 -21.65557,0.37866 -13.77793,-48.97898 5.20956,-49.3777 -4.48192,-23.50505 34.24112,-24.7736 29.23711,0.27738 15.96097,0.0104 13.19687,22.46219 13.19687,22.46219 44.03228,1.04041 37.15865,18.8746 -9.02818,18.95525 6.69463,20.26204 6.38464,22.68288 6.38464,42.68288 15,0 25,0 25,15 0,5 -10,5 -45,5 -35,0 -45,0 -45,-5 z"
       id="path3896"
       inkscape:connector-curvature="0"
       sodipodi:nodetypes="cccccccccsc" />
    <path
       sodipodi:nodetypes="cccccccccccsc"
       inkscape:connector-curvature="0"
       id="path3922"
       d="m 282.66667,835.66667 c 0,-15 5,-15 15,-15 0,-10 0.60934,-17.21027 3.16869,-27.13207 1.15886,-6.17978 -9.55969,-4.33714 -13.22793,-16.06249 -4.52797,-15.99341 12.30171,-34.2625 20.02386,-33.9503 0.15995,-23.9435 27.54556,-25.51292 26.74447,0.50124 12.62763,1.34373 10.26888,9.99895 9.55389,18.99323 21.229,0.1899 41.86326,-8.1505 42.41909,7.10601 -0.25226,16.87279 -50.11835,3.10413 -47.19727,15.59923 7.34853,7.11182 7.0152,19.27848 3.5152,34.94515 15,0 20,0 20,15 0,5 -5,5 -40,5 -35,0 -40,0 -40,-5 z"
       style="fill:none;stroke:#ff0000;stroke-width:0.99000001;stroke-linecap:butt;stroke-linejoin:miter;stroke-miterlimit:4;stroke-dasharray:none;stroke-opacity:1" />
    <path
       style="fill:none;stroke:#ff0000;stroke-width:0.99000001;stroke-linecap:butt;stroke-linejoin:miter;stroke-miterlimit:4;stroke-dasharray:none;stroke-opacity:1"
       d="M 119.44237,913.60353 C 119.31898,904.32656 125,904.66667 135,904.66667 c -4.48571,-45.06011 9.45013,-42.76649 5.49999,-59.65195 -4.59874,-13.35539 -6.82236,-2.23957 -10.05371,-12.7123 -2.31093,-13.41774 -10.86211,-14.66209 -13.24725,-24.82293 -6.54074,-39.10466 36.71772,-39.97826 35.06755,-13.13604 -0.0102,4.02325 1.85407,5.24699 12.39687,4.66709 23.94074,3.64112 25.94497,11.4942 25.51573,30.59273 6.1644,-1.83224 15.88435,1.53211 16.53799,7.90165 2.46313,17.57101 -3.26965,22.70137 -23.29953,24.11438 5.59473,13.71196 6.56037,20.4598 6.0607,43.04737 10,0 15,0 15,10 0,5 -4.47834,5 -39.47834,5 -40,0 -45,0 -45.55763,-6.06314 z"
       id="path3943"
       inkscape:connector-curvature="0"
       sodipodi:nodetypes="ccccccccccccsc" />
    <path
       sodipodi:nodetypes="cscccsccccsc"
       inkscape:connector-curvature="0"
       id="path3945"
       d="m 840,880 c -40,0 -45,0 -45,-5 0,-10 5,-10 20,-10 2.20455,-35.86323 5,-45 5,-45 -27.34143,-21.47197 -26.0543,-40.89419 8.28481,-46.59075 -0.31654,-10.9545 9.37271,-12.40693 17.98285,-12.31577 7.08536,0.075 15.91525,2.01308 14.59579,12.72805 C 876,774.33333 880,780 880,795 c 0,25 -15,25 -15,25 0,0 3.11755,14.68003 0.1302,45.62289 C 880,865 885,865 885,875 c 0,5.21525 -5,5 -45,5 z"
       style="fill:none;stroke:#ff0000;stroke-width:0.99000001;stroke-linecap:butt;stroke-linejoin:miter;stroke-miterlimit:4;stroke-dasharray:none;stroke-opacity:1" />
    <path
       style="fill:none;stroke:#ff0000;stroke-width:0.99000001;stroke-linecap:butt;stroke-linejoin:miter;stroke-miterlimit:4;stroke-dasharray:none;stroke-opacity:1"
       d="m 285,705.33333 c 6.66667,-19.33333 12.69315,-27.55773 25,-35 -15.97352,-0.55773 -29.56514,-4.67198 -30,-15 0.25805,-19.9129 2.64872,-22.3383 15.35846,-32.70591 4.54336,-3.01429 16.30821,-17.29409 16.30821,-32.29409 0,-10 -4.40341,-9.32311 -4.83333,-26.03925 5.47114,-20.18287 -14.74409,-16.35709 -1.66667,-36.53553 19.54412,4.03515 26.62368,4.14826 41.23224,0.14644 12.3375,2.28317 13.60109,12.42834 13.60109,22.42834 25,-5 64.71761,-9.52543 64.59129,18.83799 -0.72395,29.15335 -43.55514,-1.3253 -43.05085,32.62539 7.0013,21.51188 17.80775,31.79474 38.81658,39.10338 4.17951,27.25859 5.32538,35.22029 4.64298,64.43324 -55,0 -90,0 -140,0 z"
       id="path3947"
       inkscape:connector-curvature="0"
       sodipodi:nodetypes="cccccccccccccc" />
    <path
       style="fill:none;stroke:#ff0000;stroke-width:0.99000001;stroke-linecap:butt;stroke-linejoin:miter;stroke-miterlimit:4;stroke-dasharray:none;stroke-opacity:1"
       d="m 145,749.33333 c -40,0 -45,0 -45,-5 -0.13415,-13.29468 0.60879,-13.98617 1,-27.87258 0.65363,-31.92131 22.41891,-26.53766 22.5,-36.25 -3.45959,-4.38833 -5.84678,-8.62163 -5,-13.25 6.32449,-13.97241 11.89269,-20.8932 21.2357,-24.82843 18.5175,3.8065 26.68806,3.22363 45.16422,0.0143 19.26088,7.23529 20.79769,20.02156 27.85008,28.81413 3.927,5.45847 4.92638,14.30692 -4.88489,21.28111 -2.7168,12.09364 -12.3053,7.8019 -17.11511,11.96889 -2.94885,5.0661 -1.33149,10.26629 -4.19527,21.06413 -6.85304,14.45137 3.43222,11.18594 3.44527,19.05845 -5,5 0,5 -45,5 z"
       id="path3949"
       inkscape:connector-curvature="0"
       sodipodi:nodetypes="ccccccccccccc" />
    <path
       style="fill:none;stroke:#ff0000;stroke-width:0.99000001;stroke-linecap:butt;stroke-linejoin:miter;stroke-miterlimit:4;stroke-dasharray:none;stroke-opacity:1"
       d="m 145,615 c -65,0 -60,0 -60,-10 0,-10 10,-10 15,-10 0,-25 4.99515,-29.11824 5,-40 0,-16.76851 -20,5 -20,-35 0,-30 6.41837,-34.60322 30,-35 0,-15 10,-20 25,-20 10,-20 37.79435,-7.59513 30,18.62742 -1.83333,7.70591 -0.95793,11.5505 5,16.37258 14.07829,-9.62567 49.32754,-10.79872 15,30 -11.24755,10.72123 -15,10 -30,10 10,10 14.66667,20 9.66667,55 30.66666,0.33333 35.33333,0 35.33333,10 0,10 5,10 -60,10 z"
       id="path3951"
       inkscape:connector-curvature="0"
       sodipodi:nodetypes="cccccccccccccc" />
    <path
       style="fill:none;stroke:#ff0000;stroke-width:0.99000001;stroke-linecap:butt;stroke-linejoin:miter;stroke-miterlimit:4;stroke-dasharray:none;stroke-opacity:1"
       d="M 151.2643,435.83453 C 110.38982,435.44482 88,438.66667 88.333333,425.29409 c -0.151045,-6.01882 10.392643,-10.19028 25.142977,-10.31905 -3.81608,-11.85389 -3.20303,-9.673 -2.30964,-26.76429 -17.185644,-3.35876 -41.085253,32.11211 -45.66667,3.08334 -3.424954,-14.50834 4.455972,-23.52879 38.75,-33.5 -5.564347,-24.48809 -10.971369,-26.33095 -3.08333,-43.66667 8.0039,-10.19793 15.59728,-11.08021 40,-12 19.02355,-9.38082 24.05313,-10.72888 37.83333,0 11.09748,1.6952 23.98247,2.98746 31,11.75 10.78138,13.46232 6.84783,23.34662 1.16667,51.91667 33.1658,-0.45043 43.4558,1.02461 42.25,21.91666 -3.72573,17.23544 -18.0214,10.36602 -42.41667,8.58334 -14.55885,-5.42722 -13.49733,1.59487 -16.68097,18.56904 10.59169,0.63326 20.72671,2.77618 20.84764,10.43095 -0.25724,12.75986 -27.70096,10.15823 -63.90237,10.54045 z"
       id="path3953"
       inkscape:connector-curvature="0"
       sodipodi:nodetypes="cccccccccccccccc" />
    <path
       style="fill:none;stroke:#ff0000;stroke-width:0.99000001;stroke-linecap:butt;stroke-linejoin:miter;stroke-miterlimit:4;stroke-dasharray:none;stroke-opacity:1"
       d="m 338.96523,510.0767 c -35.06442,-0.32704 -76.87882,0.69354 -76.00357,-3.8995 -0.44728,-11.59046 14.86857,-14.07861 35.69848,-15.5159 10.60298,-66.76739 19.85885,-58.93067 25.6176,-91.21678 -2.80125,-24.38426 -60.54674,-64.35055 -77.90305,-88.77194 -10.50298,-18.33295 -0.63246,-35.39666 13.42031,-36.28427 43.28591,-1.1154 43.85546,30.36398 31.35532,42.91169 5.90593,8.49889 19.28223,21.27657 30.87007,29.55635 -20.23541,-53.44654 55.36365,-53.96722 38.03672,0.74755 17.0946,-13.55965 12.21516,-7.63564 33.17886,-29.66295 -12.2262,-12.92582 -23.55623,-43.21442 23.88478,-43.12861 15.23344,-0.10222 27.99475,14.69049 16.63722,32.99138 -38.15137,58.31422 -77.01903,69.3609 -77.02929,92.26703 0.57412,30.32779 18.62455,26.48071 29.31981,91.17632 21.60278,-0.2199 31.36213,2.75012 31.37006,15.17768 -0.17788,5.622 -34.64504,2.00087 -78.45332,3.65195 z"
       id="path3955"
       inkscape:connector-curvature="0"
       sodipodi:nodetypes="cccccccccccccccc" />
    <path
       style="fill:none;stroke:#ff0000;stroke-width:0.99000001;stroke-linecap:butt;stroke-linejoin:miter;stroke-miterlimit:4;stroke-dasharray:none;stroke-opacity:1"
       d="m 595,704.66667 c -35,0 -45,0 -45,-10 0.003,-29.69442 -4.6799,-45.18965 -3.13564,-72.35238 -0.61131,-8.65394 -13.36927,-6.00696 -11.86436,-12.64762 2.37551,-7.29698 14.55689,-18.03573 26.23137,-10.72633 9.34092,2.5328 11.31094,-14.95039 55.70458,-14.32064 18.61904,-1.97106 14.99035,-4.90919 29.44663,7.50652 9.82902,11.49819 6.22384,15.21972 13.72792,31.05203 0.8129,8.76976 1.4963,28.53836 -9.40685,28.3094 -19.27526,-0.8724 -24.37678,-9.56651 -39.49993,-3.25305 -8.26607,3.45084 -10.61181,3.69117 -11.74569,18.62742 C 600,679.66667 600,684.66667 615,684.66667 c 14.78028,0.031 25,0 25,10 0,10 -10,10 -45,10 z"
       id="path3957"
       inkscape:connector-curvature="0"
       sodipodi:nodetypes="cccccccccccccc" />
    <path
       style="fill:none;stroke:#ff0000;stroke-width:0.99000001;stroke-linecap:butt;stroke-linejoin:miter;stroke-miterlimit:4;stroke-dasharray:none;stroke-opacity:1"
       d="m 730,705 c -30,0 -30,0 -30,-10 0,-20 7.39752,-16.6165 10,-30 3.44084,-14.91634 1.81055,-19.12022 5.75736,-35.4714 -25,0 -29.27766,-29.29417 -33.29983,-44.0572 -5,-30 4.72792,-58.85957 15.95255,-59.68701 10.5933,-0.16898 6.15943,17.47055 38.89088,16.14561 37.56302,0.0706 20.00532,-19.01398 32.88046,-18.97402 C 791.68176,522.84516 794.90766,564.15572 795,585 c 0,35 -14.61655,40.06913 -30.12188,43.31488 C 754.53925,644.18031 749.2356,649.83703 750,665 c 0,15 10,10 10,30 0,10 0,10 -30,10 z"
       id="path3959"
       inkscape:connector-curvature="0"
       sodipodi:nodetypes="ccccccccccccc" />
    <path
       sodipodi:nodetypes="cccccccccscccsc"
       inkscape:connector-curvature="0"
       id="path3961"
       d="m 835,695 c 10,-20 10,-10 16.93314,-28.81447 C 860,650 865,635 856.52933,625.17334 841.17296,605.11722 802.95416,611.89204 803.51137,599.94348 804.24924,574.21302 820,600 830,570 c -15.55848,-4.70023 -7.81221,-30.55674 3.0889,-26.86887 10.5933,-0.87609 11.84632,3.52714 41.9111,-3.13113 37.20947,2.89903 39.21852,-8.56568 47.85102,-4.63663 13.01506,7.3138 10.41103,20.56931 0.88696,26.99878 -1.62941,22.67478 24.78198,0.49213 24.24411,18.36721 -0.31185,10.36357 -4.40022,15.91439 -25.83,15.40051 C 915,635 895.63097,639.46285 895,665 c 0,20 9.35055,14.8394 10,30 0,10 0,10 -35,10 -35,0 -35,0 -35,-10 z"
       style="fill:none;stroke:#ff0000;stroke-width:0.99000001;stroke-linecap:butt;stroke-linejoin:miter;stroke-miterlimit:4;stroke-dasharray:none;stroke-opacity:1" />
    <path
       style="fill:none;stroke:#ff0000;stroke-width:0.99000001;stroke-linecap:butt;stroke-linejoin:miter;stroke-miterlimit:4;stroke-dasharray:none;stroke-opacity:1"
       d="m 678.33333,450 c 25,-10 60,-25 60,-25 -10,0 -15,0 -15,-15 0,-20 0,-45 30,-55 0,0 -50,-15 -75,-25 0,-40 15,-55 70,-55 15,25 35,60 35,60 15,-10 35,-10 50,0 0,0 15,-35 25,-60 60,0 75,15 75,55 -30,10 -70,25 -70,25 25,15 25,35 25,55 0,15 -5,15 -15,15 0,0 35,15 60,25 0,45 -15,65 -70,65 -10,-30 -30,-75 -30,-75 -15,0 -10,10 -25,10 -15,0 -10,-10 -24.67707,-10.14035 0,0 -15.32293,30.14035 -35.32293,75.14035 -50,0 -70,-15 -70,-65 z"
       id="path3963"
       inkscape:connector-curvature="0"
       sodipodi:nodetypes="cccccccccccccccccccc" />
    <g
       id="layer1-8"
       inkscape:label="Layer 1"
       transform="translate(9.5172008,0.06908699)"
       style="stroke:#ff0000;stroke-width:0.99000001;stroke-miterlimit:4;stroke-dasharray:none;stroke-opacity:1">
      <path
         sodipodi:nodetypes="csccscscscsccsc"
         transform="translate(0,225)"
         inkscape:connector-curvature="0"
         id="path4512"
         d="m 275.4828,754.26424 -203.570226,-25 c -61.9778947,-7.61137 -60,-5 -60,-65 l 0,-569.333327 c 0,-45 19.999857,-63.939209 60.69857,-63.987887 L 918.81613,29.930913 c 35,0 55.3784,19.999941 55,60 l -5.48675,579.998347 c -0.53722,57.06406 -5.53457,54.76717 -44.51325,59.33498 l -213.33333,25 c -0.58673,-60.77305 0,-45 0,-60 0,-25 -20,-45 -45,-45 l -345,10e-6 c -25,0 -45,20 -45,45 0,14.97589 0.13402,-0.41389 0,59.99999 z"
         style="fill:none;stroke:#ff0000;stroke-width:0.99000001;stroke-linecap:butt;stroke-linejoin:miter;stroke-miterlimit:4;stroke-dasharray:none;stroke-opacity:1" />
    </g>
  </g>
  <g
     inkscape:groupmode="layer"
     id="layer4"
     inkscape:label="Text"
     style="display:inline;filter:url(#filter5322)">
    <text
       xml:space="preserve"
       style="font-style:normal;font-variant:normal;font-weight:normal;font-stretch:normal;font-size:10px;line-height:125%;font-family:Helvetica;-inkscape-font-specification:'Helvetica, Normal';text-align:start;letter-spacing:0px;word-spacing:0px;writing-mode:lr-tb;text-anchor:start;display:inline;fill:#000000;fill-opacity:1;stroke:none;stroke-width:1px;stroke-linecap:butt;stroke-linejoin:miter;stroke-opacity:1"
       x="135.29468"
       y="139.82486"
       id="text5217"
       sodipodi:linespacing="125%"><tspan
         sodipodi:role="line"
         id="tspan5219"
         x="135.29468"
         y="139.82486">Mancubus</tspan></text>
    <text
       xml:space="preserve"
       style="font-style:normal;font-variant:normal;font-weight:normal;font-stretch:normal;font-size:10px;line-height:125%;font-family:Helvetica;-inkscape-font-specification:'Helvetica, Normal';text-align:start;letter-spacing:0px;word-spacing:0px;writing-mode:lr-tb;text-anchor:start;display:inline;fill:#000000;fill-opacity:1;stroke:none;stroke-width:1px;stroke-linecap:butt;stroke-linejoin:miter;stroke-opacity:1"
       x="320.2236"
       y="145.06392"
       id="text5221"
       sodipodi:linespacing="125%"><tspan
         sodipodi:role="line"
         id="tspan5223"
         x="320.2236"
         y="145.06392">Arch-Vile</tspan></text>
    <text
       xml:space="preserve"
       style="font-style:normal;font-variant:normal;font-weight:normal;font-stretch:normal;font-size:10px;line-height:125%;font-family:Helvetica;-inkscape-font-specification:'Helvetica, Normal';text-align:start;letter-spacing:0px;word-spacing:0px;writing-mode:lr-tb;text-anchor:start;display:inline;fill:#000000;fill-opacity:1;stroke:none;stroke-width:1px;stroke-linecap:butt;stroke-linejoin:miter;stroke-opacity:1"
       x="496.45407"
       y="171.5284"
       id="text5225"
       sodipodi:linespacing="125%"><tspan
         sodipodi:role="line"
         id="tspan5227"
         x="496.45407"
         y="171.5284">Cyberdemon</tspan></text>
    <text
       xml:space="preserve"
       style="font-style:normal;font-variant:normal;font-weight:normal;font-stretch:normal;font-size:10px;line-height:125%;font-family:Helvetica;-inkscape-font-specification:'Helvetica, Normal';text-align:start;letter-spacing:0px;word-spacing:0px;writing-mode:lr-tb;text-anchor:start;display:inline;fill:#000000;fill-opacity:1;stroke:none;stroke-width:1px;stroke-linecap:butt;stroke-linejoin:miter;stroke-opacity:1"
       x="780.46625"
       y="170.3934"
       id="text5229"
       sodipodi:linespacing="125%"><tspan
         sodipodi:role="line"
         id="tspan5231"
         x="780.46625"
         y="170.3934">Arachnotron</tspan></text>
    <text
       xml:space="preserve"
       style="font-style:normal;font-variant:normal;font-weight:normal;font-stretch:normal;font-size:10px;line-height:125%;font-family:Helvetica;-inkscape-font-specification:'Helvetica, Normal';text-align:start;letter-spacing:0px;word-spacing:0px;writing-mode:lr-tb;text-anchor:start;display:inline;fill:#000000;fill-opacity:1;stroke:none;stroke-width:1px;stroke-linecap:butt;stroke-linejoin:miter;stroke-opacity:1"
       x="842.96014"
       y="364.45407"
       id="text5253"
       sodipodi:linespacing="125%"><tspan
         sodipodi:role="line"
         id="tspan5255"
         x="842.96014"
         y="364.45407">Pain Elemental</tspan></text>
    <text
       xml:space="preserve"
       style="font-style:normal;font-variant:normal;font-weight:normal;font-stretch:normal;font-size:10px;line-height:125%;font-family:Helvetica;-inkscape-font-specification:'Helvetica, Normal';text-align:start;letter-spacing:0px;word-spacing:0px;writing-mode:lr-tb;text-anchor:start;display:inline;fill:#000000;fill-opacity:1;stroke:none;stroke-width:1px;stroke-linecap:butt;stroke-linejoin:miter;stroke-opacity:1"
       x="713.43506"
       y="359.92892"
       id="text5249"
       sodipodi:linespacing="125%"><tspan
         sodipodi:role="line"
         id="tspan5251"
         x="713.43506"
         y="359.92892">Cacodemon</tspan></text>
    <text
       xml:space="preserve"
       style="font-style:normal;font-variant:normal;font-weight:normal;font-stretch:normal;font-size:10px;line-height:125%;font-family:Helvetica;-inkscape-font-specification:'Helvetica, Normal';text-align:start;letter-spacing:0px;word-spacing:0px;writing-mode:lr-tb;text-anchor:start;display:inline;fill:#000000;fill-opacity:1;stroke:none;stroke-width:1px;stroke-linecap:butt;stroke-linejoin:miter;stroke-opacity:1"
       x="557.58582"
       y="413.18881"
       id="text5245"
       sodipodi:linespacing="125%"><tspan
         sodipodi:role="line"
         id="tspan5247"
         x="557.58582"
         y="413.18881">Lost Soul</tspan></text>
    <text
       xml:space="preserve"
       style="font-style:normal;font-variant:normal;font-weight:normal;font-stretch:normal;font-size:10px;line-height:125%;font-family:Helvetica;-inkscape-font-specification:'Helvetica, Normal';text-align:start;letter-spacing:0px;word-spacing:0px;writing-mode:lr-tb;text-anchor:start;display:inline;fill:#000000;fill-opacity:1;stroke:none;stroke-width:1px;stroke-linecap:butt;stroke-linejoin:miter;stroke-opacity:1"
       x="314.18198"
       y="398.46091"
       id="text5241"
       sodipodi:linespacing="125%"><tspan
         sodipodi:role="line"
         id="tspan5243"
         x="314.18198"
         y="398.46091">Baron of Hell</tspan></text>
    <text
       xml:space="preserve"
       style="font-style:normal;font-variant:normal;font-weight:normal;font-stretch:normal;font-size:10px;line-height:125%;font-family:Helvetica;-inkscape-font-specification:'Helvetica, Normal';text-align:start;letter-spacing:0px;word-spacing:0px;writing-mode:lr-tb;text-anchor:start;display:inline;fill:#000000;fill-opacity:1;stroke:none;stroke-width:1px;stroke-linecap:butt;stroke-linejoin:miter;stroke-opacity:1"
       x="138.68808"
       y="471.51294"
       id="text5237"
       sodipodi:linespacing="125%"><tspan
         sodipodi:role="line"
         id="tspan5239"
         x="138.68808"
         y="471.51294">Demon</tspan></text>
    <text
       xml:space="preserve"
       style="font-style:normal;font-variant:normal;font-weight:normal;font-stretch:normal;font-size:10px;line-height:125%;font-family:Helvetica;-inkscape-font-specification:'Helvetica, Normal';text-align:start;letter-spacing:0px;word-spacing:0px;writing-mode:lr-tb;text-anchor:start;display:inline;fill:#000000;fill-opacity:1;stroke:none;stroke-width:1px;stroke-linecap:butt;stroke-linejoin:miter;stroke-opacity:1"
       x="152.07106"
       y="616.52155"
       id="text5257"
       sodipodi:linespacing="125%"><tspan
         sodipodi:role="line"
         id="tspan5259"
         x="152.07106"
         y="616.52155">Imp</tspan></text>
    <text
       xml:space="preserve"
       style="font-style:normal;font-variant:normal;font-weight:normal;font-stretch:normal;font-size:10px;line-height:125%;font-family:Helvetica;-inkscape-font-specification:'Helvetica, Normal';text-align:start;letter-spacing:0px;word-spacing:0px;writing-mode:lr-tb;text-anchor:start;display:inline;fill:#000000;fill-opacity:1;stroke:none;stroke-width:1px;stroke-linecap:butt;stroke-linejoin:miter;stroke-opacity:1"
       x="295.65686"
       y="550.02765"
       id="text5265"
       sodipodi:linespacing="125%"><tspan
         sodipodi:role="line"
         id="tspan5267"
         x="295.65686"
         y="550.02765">Zombieman</tspan></text>
    <text
       xml:space="preserve"
       style="font-style:normal;font-variant:normal;font-weight:normal;font-stretch:normal;font-size:10px;line-height:125%;font-family:Helvetica;-inkscape-font-specification:'Helvetica, Normal';text-align:start;letter-spacing:0px;word-spacing:0px;writing-mode:lr-tb;text-anchor:start;display:inline;fill:#000000;fill-opacity:1;stroke:none;stroke-width:1px;stroke-linecap:butt;stroke-linejoin:miter;stroke-opacity:1"
       x="503.5061"
       y="538.53198"
       id="text5261"
       sodipodi:linespacing="125%"><tspan
         sodipodi:role="line"
         id="tspan5263"
         x="503.5061"
         y="538.53198">Marine</tspan></text>
    <text
       xml:space="preserve"
       style="font-style:normal;font-variant:normal;font-weight:normal;font-stretch:normal;font-size:10px;line-height:125%;font-family:Helvetica;-inkscape-font-specification:'Helvetica, Normal';text-align:start;letter-spacing:0px;word-spacing:0px;writing-mode:lr-tb;text-anchor:start;display:inline;fill:#000000;fill-opacity:1;stroke:none;stroke-width:1px;stroke-linecap:butt;stroke-linejoin:miter;stroke-opacity:1"
       x="639.12134"
       y="544.54236"
       id="text5269"
       sodipodi:linespacing="125%"><tspan
         sodipodi:role="line"
         id="tspan5271"
         x="639.12134"
         y="544.54236">Shotgun Guy</tspan></text>
    <text
       xml:space="preserve"
       style="font-style:normal;font-variant:normal;font-weight:normal;font-stretch:normal;font-size:10px;line-height:125%;font-family:Helvetica;-inkscape-font-specification:'Helvetica, Normal';text-align:start;letter-spacing:0px;word-spacing:0px;writing-mode:lr-tb;text-anchor:start;display:inline;fill:#000000;fill-opacity:1;stroke:none;stroke-width:1px;stroke-linecap:butt;stroke-linejoin:miter;stroke-opacity:1"
       x="813.37439"
       y="579.76422"
       id="text5273"
       sodipodi:linespacing="125%"><tspan
         sodipodi:role="line"
         id="tspan5275"
         x="813.37439"
         y="579.76422">Chaingunner</tspan></text>
    <text
       xml:space="preserve"
       style="font-style:normal;font-variant:normal;font-weight:normal;font-stretch:normal;font-size:10px;line-height:125%;font-family:Helvetica;-inkscape-font-specification:'Helvetica, Normal';text-align:start;letter-spacing:0px;word-spacing:0px;writing-mode:lr-tb;text-anchor:start;display:inline;fill:#000000;fill-opacity:1;stroke:none;stroke-width:1px;stroke-linecap:butt;stroke-linejoin:miter;stroke-opacity:1"
       x="112.01041"
       y="297.37943"
       id="text5233"
       sodipodi:linespacing="125%"><tspan
         sodipodi:role="line"
         id="tspan5235"
         x="112.01041"
         y="297.37943">Revenant</tspan></text>
    <a
       style="display:inline;filter:url(#filter5322)"
       id="a5338">
      <text
         sodipodi:linespacing="125%"
         id="text5326"
         y="679"
         x="308"
         style="font-style:normal;font-variant:normal;font-weight:normal;font-stretch:normal;font-size:15px;line-height:125%;font-family:Helvetica;-inkscape-font-specification:'Helvetica, Normal';text-align:start;letter-spacing:0px;word-spacing:0px;writing-mode:lr-tb;text-anchor:start;fill:#000000;fill-opacity:1;stroke:none;stroke-width:1px;stroke-linecap:butt;stroke-linejoin:miter;stroke-opacity:1"
         xml:space="preserve"><tspan
           y="679"
           x="308"
           id="tspan5328"
           sodipodi:role="line">Laser cutting design for Reaper Miniatures Doom figures</tspan><tspan
           id="tspan5330"
           y="697.75"
           x="308"
           sodipodi:role="line">boxed set. This file is split into three layers, color coded</tspan><tspan
           id="tspan5332"
           y="716.5"
           x="308"
           sodipodi:role="line">as red, green and blue (use Inkscape's layers feature to</tspan><tspan
           id="tspan5334"
           y="735.25"
           x="308"
           sodipodi:role="line">view individually). Each layer should be cut as a ½ inch</tspan><tspan
           id="tspan5336"
           y="754"
           x="308"
           sodipodi:role="line">sheet of polyester foam.</tspan></text>
    </a>
  </g>
</svg>
