<?xml version="1.0" encoding="UTF-8" standalone="no"?>
<!-- Created with Inkscape (http://www.inkscape.org/) -->

<svg
   xmlns:dc="http://purl.org/dc/elements/1.1/"
   xmlns:cc="http://creativecommons.org/ns#"
   xmlns:rdf="http://www.w3.org/1999/02/22-rdf-syntax-ns#"
   xmlns:svg="http://www.w3.org/2000/svg"
   xmlns="http://www.w3.org/2000/svg"
   xmlns:xlink="http://www.w3.org/1999/xlink"
   xmlns:sodipodi="http://sodipodi.sourceforge.net/DTD/sodipodi-0.dtd"
   xmlns:inkscape="http://www.inkscape.org/namespaces/inkscape"
   width="990"
   height="765"
   id="svg2985"
   version="1.1"
   inkscape:version="0.48.2 r9819"
   sodipodi:docname="doom-figure-outline.svg">
  <defs
     id="defs2987" />
  <sodipodi:namedview
     inkscape:document-units="in"
     pagecolor="#ffffff"
     bordercolor="#666666"
     borderopacity="1.0"
     inkscape:pageopacity="0.0"
     inkscape:pageshadow="2"
     inkscape:zoom="0.70710678"
     inkscape:cx="604.67731"
     inkscape:cy="231.24362"
     inkscape:current-layer="layer1"
     id="namedview2989"
     showgrid="false"
     units="in"
     inkscape:window-width="1549"
     inkscape:window-height="953"
     inkscape:window-x="91"
     inkscape:window-y="2"
     inkscape:window-maximized="0" />
  <metadata
     id="metadata2991">
    <rdf:RDF>
      <cc:Work
         rdf:about="">
        <dc:format>image/svg+xml</dc:format>
        <dc:type
           rdf:resource="http://purl.org/dc/dcmitype/StillImage" />
        <dc:title />
      </cc:Work>
    </rdf:RDF>
  </metadata>
  <g
     inkscape:label="Layer 1"
     inkscape:groupmode="layer"
     id="layer1"
     transform="translate(0,-225)">
    <image
       sodipodi:absref="/Users/fra/doom-figure-foam/photos/doom-figure-template.png"
       xlink:href="photos/doom-figure-template.png"
       style="opacity:0.14655169"
       width="1296.0416"
       height="1022.4666"
       id="image3121"
       x="-131.35408"
       y="152.78293" />
    <path
       style="fill:none;stroke:#000000;stroke-width:1px;stroke-linecap:butt;stroke-linejoin:miter;stroke-opacity:1"
       d="m 611.77511,510.22342 c -0.18472,8.12516 -91.84403,8.34887 -157.89113,8.308 -8.08009,-0.005 -2.69149,-14.43963 6.57823,-13.86356 -12.87077,-26.07332 -10.56406,-76.42687 -21.90665,-75.03798 -16.20371,1.85185 -29.80657,3.40295 -29.16667,-20.11357 0.6399,-23.51653 19.75048,-47.79493 31.94444,-66.66667 12.19396,-18.87174 27.43688,-23.48904 39.24244,-30.202 8.24925,-5.32863 17.53384,6.37662 22.95466,1.7551 13.97425,-19.30316 -0.43461,-20.39851 1.38884,-26.3348 2.30019,-7.48829 16.59884,-11.52105 42.27253,-11.51875 11.80882,-0.2754 36.34169,12.8978 37.22241,20.41647 1.38072,25.26867 -44.7339,13.6366 -41.61435,27.20867 2.08291,9.06202 5.91982,3.23872 23.13027,6.60484 29.73274,5.35826 77.22974,6.83048 118.49675,15.93423 l -0.77042,34.34335 c -33.69445,5.25 -91.99189,11.02964 -129.77937,-8.81084 -0.81566,13.82718 -18.1373,15.75528 -18.1373,15.75528 0,0 -3.53965,18.20716 0.73243,20.82067 19.7452,12.07942 15.04309,32.56039 35.35505,51.19872 19.36055,17.76531 40.4753,27.00224 39.94784,50.20284 z"
       id="path3892"
       inkscape:connector-curvature="0"
       sodipodi:nodetypes="ssccszccsccccccccsss" />
    <path
       style="fill:none;stroke:#000000;stroke-width:1px;stroke-linecap:butt;stroke-linejoin:miter;stroke-opacity:1"
       d="m 513.88889,831.91909 c -37.64755,-0.42639 -65.11461,-8.4474 -22.91667,-24.30556 l 9.72222,-41.31944 c -98.44436,-40.60875 -99.67102,-53.88762 -6.94444,-19.09723 0,0 -1.53334,-5.07602 4.38735,-9.88062 7.6668,-6.22155 10.37449,-0.28427 11.23765,-6.0916 1.61544,-10.86872 2.15375,-17.5495 10.76389,-17.70833 7.08455,-0.13069 14.43057,3.44976 13.19444,14.94801 -0.9839,9.15204 3.71336,2.89019 5.92328,8.69903 5.41109,14.22324 17.19244,-0.35199 17.13722,11.21178 -0.0626,13.10156 -21.67161,11.66895 -21.67161,11.66895 0,0 9.66055,21.56368 2.43056,48.2639 32.97724,14.6385 20.10662,23.3838 -23.26389,23.61111 z"
       id="path3894"
       inkscape:connector-curvature="0"
       sodipodi:nodetypes="ccccssssssccc" />
    <path
       style="fill:none;stroke:#000000;stroke-width:1px;stroke-linecap:butt;stroke-linejoin:miter;stroke-opacity:1"
       d="m 690.19688,830.0327 c -23.88376,0.89831 -39.85964,-0.80226 -39.84798,-11.61028 0.007,-6.66318 18.34556,-7.93871 18.34556,-7.93871 0,0 -1.95457,-14.84838 -0.22855,-24.27018 1.00687,-5.49622 9.95482,-16.22756 5.15317,-19.59924 -4.4449,-3.12117 -16.67133,8.32083 -17.88109,6.70342 -5.02718,-6.7212 -1.89863,-20.92419 3.34619,-29.19848 3.71187,-5.85589 17.67767,-10.33516 17.67767,-10.33516 0,0 -2.06549,-17.15772 6.69975,-17.36701 8.92985,-0.21322 7.45237,7.67423 7.62805,16.03491 15.96097,0.0104 16.22056,15.9099 16.22056,15.9099 0,0 21.69659,-3.6505 23.50242,-0.56066 1.86456,6.42497 -14.85799,-1.3556 -17.46321,15.11701 -9.83586,-1.95005 -13.47234,-2.65542 -15.06739,7.73223 12.02796,20.26204 12.21384,40.90128 12.21384,40.90128 0,0 19.2902,0.588 19.65254,6.46016 0.82382,13.3509 -16.06777,11.1225 -39.95153,12.02081 z"
       id="path3896"
       inkscape:connector-curvature="0"
       sodipodi:nodetypes="zscsssscsccccccsz" />
    <path
       sodipodi:nodetypes="zscsssscsccccccsz"
       inkscape:connector-curvature="0"
       id="path3922"
       d="m 305.81632,829.35377 c -23.88376,0.89831 -38.81788,1.06002 -37.09798,-9.61028 1.58162,-9.81243 18.34556,-7.93871 18.34556,-7.93871 0,0 2.54543,-14.84838 4.27145,-24.27018 1.00687,-5.49622 9.45482,-17.22756 4.65317,-20.59924 -4.4449,-3.12117 -12.67133,0.82083 -13.88109,-0.79658 -5.02718,-6.7212 1.99507,-12.19066 5.84619,-21.19848 4.96187,-11.60589 8.29294,-10.00574 18.67767,-9.58516 -1.89996,-12.75295 -2.75993,-18.40696 11.94975,-14.86701 7.17206,1.72599 6.20237,8.42423 2.62805,17.03491 15.96097,0.0104 13.93555,9.16562 13.22056,18.1599 21.229,0.1899 44.69659,-0.1505 45.25242,4.43934 -0.13544,5.92497 -15.35799,5.6444 -40.46321,8.11701 -17.58586,0.05 -14.47234,-2.90542 -16.06739,7.48223 7.77796,27.51204 8.21384,38.90128 8.21384,38.90128 0,0 15.767,2.39069 14.90254,8.21016 -1.42618,9.6009 -16.56777,5.6225 -40.45153,6.52081 z"
       style="fill:none;stroke:#000000;stroke-width:1px;stroke-linecap:butt;stroke-linejoin:miter;stroke-opacity:1" />
    <path
       style="fill:none;stroke:#000000;stroke-width:1px;stroke-linecap:butt;stroke-linejoin:miter;stroke-opacity:1"
       d="m 160.59619,887.78249 c -14.04778,0.0119 -42.4728,1.33763 -42.59619,-7.93934 -0.12339,-9.27697 13.85592,-6.48438 18,-12.5 4.18096,-45.39344 16.45014,-36.44297 12.5,-53.32843 -1.29303,-5.52723 -2.68994,-11.87912 -11,-10.17157 -9.9118,2.77874 -14.50016,7.30582 -17.18198,-1.54074 -8.31093,-30.08441 -10.19544,-15.32875 -12.58058,-25.48959 -2.24824,-9.62741 0.7085,-12.87036 6.61611,-13.73223 9.10407,-3.04402 15.44678,-5.90808 19.15165,2.59619 5.70593,12.67638 -19.35646,5.31432 -6.0052,23.66637 11.14027,-8.60142 18.21476,-9.90613 28.30988,-2.92102 1.06625,-13.24088 2.48498,-14.50859 9.75598,-14.73799 9.39119,2.61957 8.53934,1.36145 7.0402,16.43197 14.13046,1.99136 14.85445,15.21968 14.9065,24.15382 6.1644,-1.83224 17.21768,-2.46789 17.87132,3.90165 1.1298,8.90434 -25.08133,10.42523 -30.44454,13.17157 5.59473,13.71196 6.06033,17.66243 5.56066,40.25 9.97999,3.07305 17.16366,0.33284 18,10.25 -0.6665,8.6336 -23.85602,7.92741 -37.90381,7.93934 z"
       id="path3943"
       inkscape:connector-curvature="0"
       sodipodi:nodetypes="zzccccccccccccccccz" />
    <path
       sodipodi:nodetypes="cccccsccccc"
       inkscape:connector-curvature="0"
       id="path3945"
       d="m 845.32096,884.44601 c -51.43613,2.40204 -58.93749,-14.23219 -21.50246,-19.70937 -2.46212,-31.19657 5.30801,-46.79431 5.30801,-46.79431 -47.69436,-41.60875 -12.17102,-47.88762 -10.44444,-36.34723 6.77522,-6.74208 10.77707,-3.68201 18.65013,-4.53593 -0.31654,-10.9545 0.32532,-16.05685 8.93546,-15.96569 7.08536,0.075 9.42016,6.88194 7.43403,16.93025 17.29329,4.42969 18.22786,15.15016 20.74984,28.31766 -0.3126,7.60156 -15.9112,11.67936 -15.9112,11.67936 0,0 10.91055,13.99261 7.9232,44.93547 33.68435,13.93139 25.76347,20.55537 -21.14257,21.48979 z"
       style="fill:none;stroke:#000000;stroke-width:1px;stroke-linecap:butt;stroke-linejoin:miter;stroke-opacity:1" />
    <path
       style="fill:none;stroke:#000000;stroke-width:1px;stroke-linecap:butt;stroke-linejoin:miter;stroke-opacity:1"
       d="m 349.5,704.62742 c -19.73716,-2.29132 -54.47879,1.38728 -65.69239,-9.45406 25.29007,-22.76121 16.94532,-27.8838 34.16591,-36.61563 0.18237,-11.39757 -34.03866,-4.10229 -34.47352,-14.43031 1.25805,-37.57957 10.48205,-1.13239 18.52513,-30.5 6.54336,-17.01429 -3.36281,-14.88238 20.29289,-33.86827 17.8322,-16.54397 -8.3881,-3.41559 -8.81802,-20.13173 20.08468,-19.47576 -9.82784,-13.29296 -5,-33 17.8942,6.15647 27.80219,7.4481 40.52513,-1.26777 12.3375,2.28317 5.51354,18.50237 -0.41422,31.97488 20.81858,-5.85559 59.62142,-23.80565 67.53554,0.26776 -0.72395,21.15335 -40.06005,20.47943 -40.88909,37.76346 -5.17796,11.68545 19.41238,17.32924 12.94975,36.08579 25.88128,7.38682 25.67157,12.11522 25.67157,12.11522 14.17951,18.59192 -0.19628,46.68104 5.12132,54.56066 0.37617,9.14852 -35.78086,4.58699 -69.5,6.5 z"
       id="path3947"
       inkscape:connector-curvature="0"
       sodipodi:nodetypes="cccccccccccccccc" />
    <path
       style="fill:none;stroke:#000000;stroke-width:1px;stroke-linecap:butt;stroke-linejoin:miter;stroke-opacity:1"
       d="m 142.25,741.87742 c -26.03166,-0.46628 -40.48363,2.44577 -40.25,-7.5 -0.13415,-13.29468 -1.39121,-13.36359 -1,-27.25 0.65363,-31.92131 22.41891,-26.53766 22.5,-36.25 -3.45959,-4.38833 -5.84678,-8.62163 -5,-13.25 6.32449,-13.97241 11.65699,-18.06477 21,-22 18.5175,3.8065 25.27384,3.45933 43.75,0.25 19.26088,7.23529 22.44761,16.95743 29.5,25.75 3.927,5.45847 4.92638,14.30692 -4.88489,21.28111 -2.7168,12.09364 -12.3053,7.8019 -17.11511,11.96889 -2.94885,5.0661 -1.13622,4.20216 -4,15 -3.28856,9.82893 -25.83155,-9.16074 -22.55889,8.91 7.37931,10.71156 19.1856,7.22441 23.05889,19.34 0.36093,6.29479 -12.23366,3.91546 -45,3.75 z"
       id="path3949"
       inkscape:connector-curvature="0"
       sodipodi:nodetypes="cccccccccccccc" />
    <path
       style="fill:none;stroke:#000000;stroke-width:1px;stroke-linecap:butt;stroke-linejoin:miter;stroke-opacity:1"
       d="m 143.5,609.29899 c -34.17185,-0.46554 -60.027537,6.87697 -59.792893,-9.7071 0.446683,-5.44399 6.602843,-4.85826 17.792893,-4.96447 2.36491,-11.18786 4.48175,-22.23323 10.5,-22.5 10.93958,2.55644 26.13194,-0.9493 25.79374,-15.07008 C 137.4855,544.18779 91.622602,529.40492 92,514.12742 c 3.580982,-14.62056 9.66504,-18.90869 18.38604,-27.07538 7.25065,-6.53347 17.70916,-7.04368 27.11396,-3.8033 3.26081,-2.85879 -0.0146,-9.15145 2.97487,-12.29289 3.92159,-4.12095 9.24205,-3.60955 14.52513,-1.5 9.13968,-22.6534 34.79435,-10.05098 15,14.17157 2.75828,11.94228 -5.95793,20.92792 0,32.75 7.41162,14.37433 28.57509,-16.89737 34.91421,-3.43198 3.76904,18.88091 -49.75658,14.3898 -57.41421,24.43198 4.88462,4.34331 14.45546,8.71793 16.27513,16.76777 -1.09243,12.92914 -9.12731,9.70087 -8.98224,32.60355 7.34115,17.02357 53.78095,3.70981 52.20711,16.75736 0.15835,9.74763 -42.22828,6.27872 -63.5,5.79289 z"
       id="path3951"
       inkscape:connector-curvature="0"
       sodipodi:nodetypes="ccccsccccccccccccc" />
    <path
       style="fill:none;stroke:#000000;stroke-width:1px;stroke-linecap:butt;stroke-linejoin:miter;stroke-opacity:1"
       d="m 147.5,434.12742 c -40.40307,0.0817 -58.862186,3.31796 -58.5,-5.5 0.515622,-10.01882 15.59184,-6.75417 33.5,-6.75 -5.7017,-3.36861 -5.35092,-16.4945 -12,-35 -17.185641,-3.35876 -40.418583,20.11211 -45,-0.25 -3.424954,-14.50834 6.455972,-20.86212 42.75,-19.5 -0.57245,-24.48809 -12.304702,-22.33095 -7.75,-41 2.0039,-7.53126 13.59728,-17.08021 38,-18 13.69022,-10.71415 17.38646,-14.06222 34.5,0 11.09748,1.6952 23.98247,0.98746 31,9.75 10.78138,13.46232 12.18116,24.67995 6.5,53.25 18.49913,0.8829 44.78914,-2.30872 44.25,13.25 0.27427,14.56877 -19.35473,9.03268 -43.75,7.25 -14.55885,-5.42722 -18.06636,8.02583 -21.25,25 2.59169,8.63326 21.9624,0.0119 22.75,11 0.40943,10.09319 -29.7414,5.41068 -65,6.5 z"
       id="path3953"
       inkscape:connector-curvature="0"
       sodipodi:nodetypes="cccccccccccccccc" />
    <path
       style="fill:none;stroke:#000000;stroke-width:1px;stroke-linecap:butt;stroke-linejoin:miter;stroke-opacity:1"
       d="m 316.29856,506.58161 c -35.06442,-0.32704 -66.21216,13.36021 -70.00357,-9.8995 -1.78062,-10.9238 22.53523,-6.41195 29.69848,-14.84924 10.60298,-66.76739 22.52552,-58.93067 28.28427,-91.21678 -0.64668,-11.80506 -2.88351,-21.1947 -14.14213,-32.52691 -17.0199,-21.88202 -38.76786,-28.41081 -65.76093,-50.91169 -10.50298,-18.33295 7.70087,-26.06333 19.42031,-28.28427 41.95258,-2.44873 33.85547,26.36398 21.35533,38.91169 5.90593,8.49889 35.94889,25.6099 45.87006,28.55635 -22.90208,-45.44654 42.69699,-44.30056 22.37006,0.41421 15.68039,-4.13156 25.54849,-5.63564 46.51219,-27.66295 -12.55108,-6.92576 -19.28074,-11.48656 -17.88477,-20.92031 2.1436,-14.48618 18.51482,-26.89532 32.76955,-23.54163 10.90011,2.56445 23.66142,8.35716 16.97056,28.99138 -38.15137,58.31422 -80.35237,62.02757 -77.69596,86.26703 0.57412,30.32779 18.62455,29.81405 29.31981,94.50966 22.60278,0.44676 24.36213,0.75011 24.37006,13.17767 -0.84455,12.95534 -32.31171,9.33421 -71.45332,8.98529 z"
       id="path3955"
       inkscape:connector-curvature="0"
       sodipodi:nodetypes="cccccccccccccccccc" />
    <path
       style="fill:none;stroke:#000000;stroke-width:1px;stroke-linecap:butt;stroke-linejoin:miter;stroke-opacity:1"
       d="m 596.32935,698.89688 c -14.28293,-0.10903 -38.51767,1.277 -38.67641,-5.26041 0.003,-29.69442 -6.67599,-48.82612 -5.13173,-75.98885 -0.61131,-8.65394 -15.42217,-7.48371 -13.91726,-14.12437 2.37551,-7.29698 10.95294,-12.55204 22.62742,-5.24264 9.34092,2.5328 11.31094,-16.60031 55.70458,-15.97056 18.61904,-1.97106 20.32368,-7.26621 34.77996,5.1495 9.82902,11.49819 6.22384,15.21972 13.72792,31.05203 0.8129,8.76976 1.4963,28.53836 -9.40685,28.3094 -19.27526,-0.8724 -29.71011,-13.56651 -44.83326,-7.25305 -8.26607,3.45084 -10.61181,7.69117 -11.74569,22.62742 -0.76408,12.42383 -2.27423,21.49817 17.60965,23.14518 14.78028,0.031 20.10309,0.2798 20.75609,8.35661 -0.0578,6.48156 -28.30969,5.30039 -41.49442,5.19974 z"
       id="path3957"
       inkscape:connector-curvature="0"
       sodipodi:nodetypes="cccccccccccccc" />
    <path
       style="fill:none;stroke:#000000;stroke-width:1px;stroke-linecap:butt;stroke-linejoin:miter;stroke-opacity:1"
       d="m 730.58344,705.74308 c -11.09493,0.117 -32.55323,0.751 -32.52691,-7.07107 0.69979,-7.54338 10.62145,3.19198 15.2028,-32.52691 2.02128,-12.76058 15.59309,-11.61361 12.02081,-26.16295 -21.32617,-10.61715 -27.09052,-40.3913 -31.11269,-55.15433 -16.73699,-30.39178 -8.07269,-49.64982 8.48527,-49.14393 10.5933,-0.16898 1.91679,12.2851 34.64824,10.96016 37.56302,0.0706 20.00532,-18.07118 32.88046,-18.03122 21.50034,-0.11082 21.89844,35.28982 17.32412,54.80077 -6.79436,26.25768 -7.12209,41.65553 -22.62742,44.90128 -10.33887,15.86543 -20.56339,24.78857 -19.79899,39.95154 -1.88407,28.69001 18.79599,14.18433 19.44544,29.34493 0.3327,9.76385 -22.30789,8.00905 -33.94113,8.13173 z"
       id="path3959"
       inkscape:connector-curvature="0"
       sodipodi:nodetypes="ccccccccccccc" />
    <path
       sodipodi:nodetypes="ccccccccccsccccc"
       inkscape:connector-curvature="0"
       id="path3961"
       d="m 869.4086,706.09663 c -11.09493,0.117 -30.07836,0.751 -30.05204,-7.07107 -0.36087,-12.84668 9.91435,2.83843 15.90991,-32.17336 6.97103,-33.62022 8.16847,-26.46285 4.59619,-41.01219 -37.35637,-6.72279 -54.9085,-25.94797 -54.35129,-32.5632 0.73787,-25.73046 20.29994,14.84242 37.02718,-26.48022 -21.68674,-5.64304 -16.55797,-27.0224 -5.65686,-23.33453 10.5933,-0.87609 6.51298,4.86048 39.24443,3.53554 37.20947,2.89903 41.21852,-9.23235 49.85102,-5.3033 13.01506,7.3138 1.39235,16.90505 -8.13172,23.33452 -1.62941,22.67478 30.67454,-2.17454 30.13667,15.70054 -0.31185,10.36357 -4.40022,15.91439 -25.83,15.40051 -3.39354,16.61563 -9.26918,10.51392 -19.50947,26.1746 3.80327,21.87584 -19.50273,31.15253 -18.73833,46.3155 -1.88407,28.69001 18.44244,13.83078 19.09189,28.99138 0.3327,9.76385 -21.95434,8.3626 -33.58758,8.48528 z"
       style="fill:none;stroke:#000000;stroke-width:1px;stroke-linecap:butt;stroke-linejoin:miter;stroke-opacity:1" />
    <path
       style="fill:none;stroke:#000000;stroke-width:1px;stroke-linecap:butt;stroke-linejoin:miter;stroke-opacity:1"
       d="m 712.25736,516.14824 38.44406,-94.53113 c -5.79141,-5.12228 -13.62361,-2.51118 -13.30454,-11.42377 -0.40248,-14.82115 27.45363,-49.40954 33.51733,-54.62658 l -51.85355,-66.91421 23.45406,-18.4896 54.37437,71.96447 c 17.52713,-4.33493 24.30974,-5.86557 44.1967,2.14645 l 63.96446,-71.90381 20.68629,16.95406 -63.80761,68.46447 c 8.1779,18.3087 30.04557,39.06678 33.07107,58.83883 -4.81956,5.88856 -13.2507,1.81386 -14.12132,7.29289 l 52.13604,84.36396 -31.36827,18.40381 -61.75736,-92.47487 C 821.89514,432.85205 837.6017,450.52398 815,450.62742 c -19.27847,0.13563 -2.18163,-20.42369 -32.01041,-17.76777 l -36.63604,94.82843 z"
       id="path3963"
       inkscape:connector-curvature="0"
       sodipodi:nodetypes="cccccccccccccccccccc" />
    <g
       id="layer1-8"
       inkscape:label="Layer 1"
       transform="translate(9.5172008,0.06908699)">
      <path
         sodipodi:nodetypes="csccscscscccc"
         transform="translate(0,225)"
         inkscape:connector-curvature="0"
         id="path4512"
         d="M 250.06979,741.83333 93.34039,690.85209 C 33.959404,671.53653 35.118488,684.99311 35.814994,625.33345 L 36.825998,93.201509 C 35.625627,44.169867 38.965193,30.776705 96.181369,30.943026 l 808.712151,2.350825 c 46.79517,1.325579 53.34492,-0.362729 53.33281,49.828997 l -0.13129,543.965392 c -0.53722,57.06406 -7.00554,47.7862 -44.51325,59.33498 l -183.02623,56.35456 c -1.17345,-121.5461 12.47463,-121.73554 -65.27778,-123.61112 l -346.64693,2.53949 c -73.37549,1.33459 -68.29302,-0.70058 -68.56106,120.12718 z"
         style="fill:none;stroke:#000000;stroke-width:1px;stroke-linecap:butt;stroke-linejoin:miter;stroke-opacity:1" />
    </g>
  </g>
</svg>
