<?xml version="1.0" encoding="UTF-8" standalone="no"?>
<!-- Created with Inkscape (http://www.inkscape.org/) -->

<svg
   xmlns:dc="http://purl.org/dc/elements/1.1/"
   xmlns:cc="http://creativecommons.org/ns#"
   xmlns:rdf="http://www.w3.org/1999/02/22-rdf-syntax-ns#"
   xmlns:svg="http://www.w3.org/2000/svg"
   xmlns="http://www.w3.org/2000/svg"
   xmlns:xlink="http://www.w3.org/1999/xlink"
   xmlns:sodipodi="http://sodipodi.sourceforge.net/DTD/sodipodi-0.dtd"
   xmlns:inkscape="http://www.inkscape.org/namespaces/inkscape"
   width="990"
   height="765"
   id="svg2985"
   version="1.1"
   inkscape:version="0.48.2 r9819"
   sodipodi:docname="doom-figure-outline.svg">
  <defs
     id="defs2987" />
  <sodipodi:namedview
     inkscape:document-units="in"
     pagecolor="#ffffff"
     bordercolor="#666666"
     borderopacity="1.0"
     inkscape:pageopacity="0.0"
     inkscape:pageshadow="2"
     inkscape:zoom="1.0606602"
     inkscape:cx="579.50814"
     inkscape:cy="364.50483"
     inkscape:current-layer="layer1"
     id="namedview2989"
     showgrid="false"
     units="in"
     inkscape:window-width="1292"
     inkscape:window-height="973"
     inkscape:window-x="326"
     inkscape:window-y="0"
     inkscape:window-maximized="0" />
  <metadata
     id="metadata2991">
    <rdf:RDF>
      <cc:Work
         rdf:about="">
        <dc:format>image/svg+xml</dc:format>
        <dc:type
           rdf:resource="http://purl.org/dc/dcmitype/StillImage" />
        <dc:title />
      </cc:Work>
    </rdf:RDF>
  </metadata>
  <g
     inkscape:label="Layer 1"
     inkscape:groupmode="layer"
     id="layer1"
     transform="translate(0,-225)">
    <image
       sodipodi:absref="/Users/fra/doom-figure-foam/photos/doom-figure-template.png"
       xlink:href="photos/doom-figure-template.png"
       y="152.78293"
       x="-131.35408"
       id="image3121"
       height="1022.4666"
       width="1296.0416"
       style="opacity:0.14655169" />
    <path
       style="fill:none;stroke:#000000;stroke-width:1px;stroke-linecap:butt;stroke-linejoin:miter;stroke-opacity:1"
       d="m 612.44177,518.22342 c -40.18472,0.79182 -92.51069,0.34887 -158.55779,0.308 -8.08009,-0.005 -4.69149,-14.43963 4.57823,-13.86356 -12.87077,-26.07332 -7.23073,-56.42687 -18.57332,-55.03798 -16.20371,1.85185 -23.80657,-4.59705 -23.16667,-28.11357 0.6399,-23.51653 19.75048,-60.4616 31.94444,-79.33334 24.87901,-30.84527 36.19624,-13.5712 52.86377,-25.78023 13.97425,-19.30316 0.23206,-11.06518 2.05551,-17.00147 2.30019,-7.48829 5.93217,-13.52104 31.60586,-13.51874 11.80882,-0.2754 51.67503,-4.43554 51.22241,16.41646 0.0474,17.93534 -17.40057,12.30327 -22.28102,27.20867 0.10355,14.72303 79.26739,15.89285 113.62703,23.20574 l 0.56291,33.67668 c -33.69445,5.25 -70.65856,0.36298 -111.77937,5.18916 -22.81566,4.49385 -32.1373,1.08862 -32.1373,1.08862 0,0 -6.20632,13.54049 -1.93424,16.154 19.7452,12.07942 20.37642,34.56039 40.68838,53.19872 19.36055,17.76531 38.8133,33.43824 39.28117,56.20284 z"
       id="path3892"
       inkscape:connector-curvature="0"
       sodipodi:nodetypes="csccsccscccccccssc" />
    <path
       style="fill:none;stroke:#000000;stroke-width:1px;stroke-linecap:butt;stroke-linejoin:miter;stroke-opacity:1"
       d="m 513.88889,829.25242 c -54.31422,-0.42639 -59.11461,-9.11407 -25.58334,-18.30556 l 12.38889,-44.65277 c -91.11103,14.05792 -91.67102,-37.88762 -6.94444,-21.76389 4.71834,-12.35741 11.85055,-8.94641 12.95834,-13.30556 2.75181,-23.3087 27.09878,-22.05812 25.29166,1.23968 15.26993,11.54804 18.30079,3.7663 28.39383,22.57748 -0.0626,13.10156 -22.33828,10.33562 -22.33828,10.33562 0,0 10.99389,16.23034 -0.90277,42.93056 32.97724,14.6385 20.10662,20.71713 -23.26389,20.94444 z"
       id="path3894"
       inkscape:connector-curvature="0"
       sodipodi:nodetypes="cccccccccc" />
    <path
       style="fill:none;stroke:#000000;stroke-width:1px;stroke-linecap:butt;stroke-linejoin:miter;stroke-opacity:1"
       d="m 650.3489,817.75576 c 0.007,-6.66318 17.01223,-9.27205 17.01223,-9.27205 0.58177,-32.99955 8.06469,-32.51347 -0.95647,-33.166 -21.65557,0.37866 -8.29697,-48.46826 10.35719,-44.20031 -4.48192,-23.50505 22.99848,-29.38308 18.99447,-0.66543 15.96097,0.0104 16.88722,17.9099 16.88722,17.9099 44.26798,-2.25942 30.08758,18.8746 -9.02818,18.95525 6.69463,20.26204 8.88051,40.23461 8.88051,40.23461 0,0 17.2902,-2.07867 17.65254,10.46016 0.40542,10.94116 -79.60806,10.34794 -79.79951,-0.25613 z"
       id="path3896"
       inkscape:connector-curvature="0"
       sodipodi:nodetypes="cccccccccc" />
    <path
       sodipodi:nodetypes="cccccccccccc"
       inkscape:connector-curvature="0"
       id="path3922"
       d="m 268.71834,823.07682 c 1.58162,-9.81243 17.01223,-10.60537 17.01223,-10.60537 0,0 5.2121,-20.18172 6.93812,-29.60352 2.99219,-20.67978 -5.05969,-6.83714 -14.56126,-16.06249 -4.52797,-15.99341 14.13504,-33.09583 21.85719,-32.78363 0.65995,-26.77684 23.04556,-27.51292 23.91114,2.1679 12.62763,1.34373 11.26888,7.16562 10.55389,16.1599 21.229,0.1899 38.69659,-8.1505 39.25242,7.10601 -0.25226,16.87279 -50.11835,3.10413 -47.19727,15.59923 7.77796,27.51204 2.88051,36.23462 2.88051,36.23462 0,0 17.767,5.72402 16.90254,11.54349 0.57647,7.57849 -76.81833,7.48736 -77.54951,0.24386 z"
       style="fill:none;stroke:#000000;stroke-width:1px;stroke-linecap:butt;stroke-linejoin:miter;stroke-opacity:1" />
    <path
       style="fill:none;stroke:#000000;stroke-width:1px;stroke-linecap:butt;stroke-linejoin:miter;stroke-opacity:1"
       d="m 117.33333,893.17649 c -0.12339,-9.27697 13.85592,-3.15105 18,-9.16667 4.18096,-45.39344 15.78347,-41.10964 11.83333,-57.9951 -4.59874,-19.02206 -19.61729,2.09376 -22.84864,-8.37897 -2.31093,-13.41774 -10.86211,-14.66209 -13.24725,-24.82293 -2.5338,-30.61938 30.35376,-31.49298 31.76772,-13.13604 0.93259,12.27283 11.51786,9.25393 22.06066,8.67403 23.94074,3.64112 25.70927,7.48726 25.28003,26.58579 6.1644,-1.83224 15.88435,1.53211 16.53799,7.90165 2.46313,17.57101 -7.74799,21.75856 -27.77787,23.17157 5.59473,13.71196 4.72699,17.66243 4.22732,40.25 9.97999,3.07305 15.16366,-2.33383 14.66667,7.58333 0.86881,9.34338 -80.54837,5.26946 -80.49996,-0.66666 z"
       id="path3943"
       inkscape:connector-curvature="0"
       sodipodi:nodetypes="ccccccccccccc" />
    <path
       sodipodi:nodetypes="ccccsccccc"
       inkscape:connector-curvature="0"
       id="path3945"
       d="m 845.32096,880.44601 c -51.43613,2.40204 -67.60416,-3.56552 -30.16913,-16.37604 2.20455,-35.86323 5.97468,-45.46097 5.97468,-45.46097 -27.34143,-21.47197 -24.46676,-38.1866 15.53902,-42.88316 -0.31654,-10.9545 0.99199,-14.72352 9.60213,-14.63236 7.08536,0.075 12.75349,6.88194 10.76736,16.93025 17.29329,4.42969 14.89453,15.15016 17.41651,28.31766 0.35407,15.60156 -15.9112,12.34603 -15.9112,12.34603 0,0 9.57722,15.99261 6.58987,46.93547 31.01768,5.93139 27.0968,13.8887 -19.80924,14.82312 z"
       style="fill:none;stroke:#000000;stroke-width:1px;stroke-linecap:butt;stroke-linejoin:miter;stroke-opacity:1" />
    <path
       style="fill:none;stroke:#000000;stroke-width:1px;stroke-linecap:butt;stroke-linejoin:miter;stroke-opacity:1"
       d="m 283.80761,696.50669 c 25.29007,-22.76121 19.61199,-21.8838 34.16591,-35.94896 -4.4843,-11.1755 -34.03866,1.23104 -34.47352,-9.09698 1.25805,-37.57957 10.48205,-8.46572 18.52513,-37.83333 6.54336,-17.01429 -2.69614,-18.88238 11.62622,-29.2016 17.8322,-16.54397 -3.05476,-8.74893 -3.48468,-25.46507 20.08468,-19.47576 -9.82784,-13.29296 -5,-33 17.8942,6.15647 27.80219,7.4481 40.52513,-1.26777 12.3375,2.28317 12.84687,15.16904 6.91911,28.64155 24.81858,-2.52226 63.62142,-9.13898 64.20221,10.26776 -0.72395,29.15335 -40.72672,-0.8539 -40.22243,33.09679 7.0013,21.51188 18.27916,31.55904 39.28799,38.86768 4.17951,27.25859 3.80372,33.34771 3.12132,62.56066 -57.21627,-1.82226 -84.39497,-0.37162 -135.19239,-1.62073 z"
       id="path3947"
       inkscape:connector-curvature="0"
       sodipodi:nodetypes="cccccccccccccc" />
    <path
       style="fill:none;stroke:#000000;stroke-width:1px;stroke-linecap:butt;stroke-linejoin:miter;stroke-opacity:1"
       d="m 142.25,741.87742 c -26.03166,-0.46628 -40.48363,2.44577 -40.25,-7.5 -0.13415,-13.29468 -1.39121,-13.36359 -1,-27.25 0.65363,-31.92131 22.41891,-26.53766 22.5,-36.25 -3.45959,-4.38833 -5.84678,-8.62163 -5,-13.25 6.32449,-13.97241 11.65699,-18.06477 21,-22 18.5175,3.8065 25.27384,3.45933 43.75,0.25 19.26088,7.23529 22.44761,16.95743 29.5,25.75 3.927,5.45847 4.92638,14.30692 -4.88489,21.28111 -2.7168,12.09364 -12.3053,7.8019 -17.11511,11.96889 -2.94885,5.0661 -1.13622,4.20216 -4,15 -3.28856,9.82893 -25.83155,-9.16074 -22.55889,8.91 7.37931,10.71156 19.1856,7.22441 23.05889,19.34 0.36093,6.29479 -12.23366,3.91546 -45,3.75 z"
       id="path3949"
       inkscape:connector-curvature="0"
       sodipodi:nodetypes="cccccccccccccc" />
    <path
       style="fill:none;stroke:#000000;stroke-width:1px;stroke-linecap:butt;stroke-linejoin:miter;stroke-opacity:1"
       d="m 143.5,605.96566 c -34.17185,-0.46554 -60.027537,4.87697 -59.792893,-6.37377 0.446683,-5.44399 6.602843,-6.85826 17.792893,-6.96447 2.36491,-11.18786 0.48175,-23.56656 6.5,-23.83333 10.93958,2.55644 18.64538,1.7202 18.46041,-12.40342 -0.30824,-23.53622 -35.504475,1.68092 -37.127077,-34.26325 13.438487,-15.75124 12.585037,-31.81523 36.166667,-32.21201 -2.90766,-8.38635 0.20306,-15.03871 18.16667,-17.79289 9.80634,-23.32007 34.12768,-14.71765 26.33333,11.5049 2.75828,11.94228 -7.29126,10.26125 -1.33333,22.08333 14.07829,-9.62567 51.90842,-22.2307 17.58088,18.56802 -21.5643,15.54758 -31.08992,-5.6102 -38.74755,4.43198 18.92207,18.60649 28.59878,20.38911 12.62622,54.70466 -8.65885,20.3569 46.44762,1.04314 46.87378,16.75736 0.15835,9.74763 -42.22828,6.27872 -63.5,5.79289 z"
       id="path3951"
       inkscape:connector-curvature="0"
       sodipodi:nodetypes="ccccscccccccccc" />
    <path
       style="fill:none;stroke:#000000;stroke-width:1px;stroke-linecap:butt;stroke-linejoin:miter;stroke-opacity:1"
       d="m 151.5,432.12742 c -40.40307,0.0817 -63.528853,-1.34871 -63.166667,-6.83333 -0.151045,-6.01882 10.392643,-9.48317 25.142977,-9.61194 -3.81608,-11.85389 -3.20303,-10.38011 -2.30964,-27.4714 -17.185644,-3.35876 -41.085253,32.11211 -45.66667,3.08334 -3.424954,-14.50834 4.455972,-23.52879 38.75,-33.5 -5.564347,-24.48809 -10.971369,-26.33095 -3.08333,-43.66667 8.0039,-10.19793 15.59728,-11.08021 40,-12 19.02355,-9.38082 24.05313,-10.72888 37.83333,0 11.09748,1.6952 23.98247,2.98746 31,11.75 10.78138,13.46232 6.84783,23.34662 1.16667,51.91667 33.1658,-0.45043 43.4558,1.02461 42.25,21.91666 -3.72573,17.23544 -18.0214,10.36602 -42.41667,8.58334 -14.55885,-5.42722 -13.3997,0.6925 -16.58334,17.66667 10.59169,0.63326 20.62908,1.34522 20.75001,8.99999 -0.25724,8.75986 -28.40807,8.07735 -63.66667,9.16667 z"
       id="path3953"
       inkscape:connector-curvature="0"
       sodipodi:nodetypes="cccccccccccccccc" />
    <path
       style="fill:none;stroke:#000000;stroke-width:1px;stroke-linecap:butt;stroke-linejoin:miter;stroke-opacity:1"
       d="m 316.29856,505.91494 c -35.06442,-0.32704 -70.87882,0.69354 -70.00357,-3.8995 -0.44728,-10.25713 11.2019,-7.74528 29.69848,-15.5159 10.60298,-66.76739 19.85885,-58.93067 25.6176,-91.21678 -2.80125,-24.38426 -47.21341,-68.01722 -72.56972,-88.77194 -10.50298,-18.33295 3.70087,-29.39666 15.42031,-31.6176 43.28591,-1.1154 36.52213,25.69731 24.02199,38.24502 5.90593,8.49889 27.28223,27.6099 37.2034,30.55635 -12.90208,-40.77987 40.69699,-42.96722 31.70339,-0.25245 15.68039,-4.13156 14.21516,-5.63564 35.17886,-27.66295 -14.88525,-7.59298 -15.94741,-8.15323 -14.55144,-17.58698 2.1436,-14.48618 22.51482,-26.89532 36.76955,-23.54163 10.90011,2.56445 22.99475,8.35716 16.30389,28.99138 -38.15137,58.31422 -77.01903,69.3609 -77.02929,92.26703 0.57412,30.32779 18.62455,27.14738 29.31981,91.84299 21.26945,5.7801 24.36213,6.08345 25.03673,14.51101 1.15545,4.95533 -28.31171,2.00087 -72.11999,3.65195 z"
       id="path3955"
       inkscape:connector-curvature="0"
       sodipodi:nodetypes="ccccccccccccccccc" />
    <path
       style="fill:none;stroke:#000000;stroke-width:1px;stroke-linecap:butt;stroke-linejoin:miter;stroke-opacity:1"
       d="m 596.32935,698.89688 c -14.28293,-0.10903 -38.51767,1.277 -38.67641,-5.26041 0.003,-29.69442 -6.67599,-48.82612 -5.13173,-75.98885 -0.61131,-8.65394 -15.42217,-7.48371 -13.91726,-14.12437 2.37551,-7.29698 10.95294,-12.55204 22.62742,-5.24264 9.34092,2.5328 11.31094,-16.60031 55.70458,-15.97056 18.61904,-1.97106 14.99035,-7.26621 29.44663,5.1495 9.82902,11.49819 6.22384,15.21972 13.72792,31.05203 0.8129,8.76976 1.4963,28.53836 -9.40685,28.3094 -19.27526,-0.8724 -24.37678,-9.56651 -39.49993,-3.25305 -8.26607,3.45084 -10.61181,3.69117 -11.74569,18.62742 -0.76408,12.42383 -2.27423,17.49817 17.60965,19.14518 14.78028,0.031 20.10309,0.2798 20.75609,8.35661 2.1615,10.92015 -28.30969,9.30039 -41.49442,9.19974 z"
       id="path3957"
       inkscape:connector-curvature="0"
       sodipodi:nodetypes="cccccccccccccc" />
    <path
       style="fill:none;stroke:#000000;stroke-width:1px;stroke-linecap:butt;stroke-linejoin:miter;stroke-opacity:1"
       d="m 730.58344,700.40975 c -11.09493,0.117 -29.2199,0.751 -29.19358,-7.07107 0.69979,-7.54338 8.62145,-7.47469 11.86947,-27.19358 2.02128,-12.76058 14.25976,-12.94694 10.68748,-27.49628 -21.32617,-10.61715 -25.75719,-39.05797 -29.77936,-53.821 -10.07032,-31.05845 -2.73936,-48.31649 8.48527,-49.14393 10.5933,-0.16898 1.91679,12.2851 34.64824,10.96016 37.56302,0.0706 20.00532,-18.07118 32.88046,-18.03122 21.50034,-0.11082 16.56511,33.95649 16.65745,54.80077 -6.79436,26.25768 -6.45542,41.65553 -21.96075,44.90128 -10.33887,15.86543 -15.89672,24.78857 -15.13232,39.95154 -0.55074,16.69001 6.12932,8.851 6.77877,24.0116 0.3327,9.76385 -14.30789,8.00905 -25.94113,8.13173 z"
       id="path3959"
       inkscape:connector-curvature="0"
       sodipodi:nodetypes="ccccccccccccc" />
    <path
       sodipodi:nodetypes="cccccccccsccccc"
       inkscape:connector-curvature="0"
       id="path3961"
       d="m 839.35656,691.69223 c -0.36087,-12.84668 6.58102,9.50509 12.57658,-25.5067 6.97103,-33.62022 8.16847,-26.46285 4.59619,-41.01219 -15.35637,-20.05612 -53.57517,-13.2813 -53.01796,-25.22986 0.73787,-25.73046 18.29994,11.50908 35.02718,-29.81356 -21.68674,-5.64304 -15.22464,-23.68906 -4.32353,-20.00119 10.5933,-0.87609 11.84632,3.52714 41.9111,-3.13113 37.20947,2.89903 39.21852,-8.56568 47.85102,-4.63663 13.01506,7.3138 3.39235,13.57171 -6.13172,20.00118 -1.62941,22.67478 30.67454,0.49213 30.13667,18.36721 -0.31185,10.36357 -4.40022,15.91439 -25.83,15.40051 -3.39354,16.61563 -5.26918,10.51392 -15.50947,26.1746 -1.53006,22.54251 -16.1694,30.48586 -15.405,45.64883 -1.88407,28.69001 11.10911,7.16412 11.75856,22.32472 -0.79655,8.34343 -64.21,8.6977 -63.63962,1.41421 z"
       style="fill:none;stroke:#000000;stroke-width:1px;stroke-linecap:butt;stroke-linejoin:miter;stroke-opacity:1" />
    <path
       style="fill:none;stroke:#000000;stroke-width:1px;stroke-linecap:butt;stroke-linejoin:miter;stroke-opacity:1"
       d="m 712.25736,516.14824 38.44406,-94.53113 c -5.79141,-5.12228 -13.62361,-2.51118 -13.30454,-11.42377 -0.40248,-14.82115 27.45363,-49.40954 33.51733,-54.62658 l -51.85355,-66.91421 23.45406,-18.4896 54.37437,71.96447 c 17.52713,-4.33493 24.30974,-5.86557 44.1967,2.14645 l 63.96446,-71.90381 20.68629,16.95406 -63.80761,68.46447 c 8.1779,18.3087 30.04557,39.06678 33.07107,58.83883 -4.81956,5.88856 -13.2507,1.81386 -14.12132,7.29289 l 52.13604,84.36396 -31.36827,18.40381 -61.75736,-92.47487 C 821.89514,432.85205 837.6017,450.52398 815,450.62742 c -19.27847,0.13563 -2.18163,-20.42369 -32.01041,-17.76777 l -36.63604,94.82843 z"
       id="path3963"
       inkscape:connector-curvature="0"
       sodipodi:nodetypes="cccccccccccccccccccc" />
    <g
       id="layer1-8"
       inkscape:label="Layer 1"
       transform="translate(9.5172008,0.06908699)">
      <path
         sodipodi:nodetypes="csccscscscccc"
         transform="translate(0,225)"
         inkscape:connector-curvature="0"
         id="path4512"
         d="M 250.06979,741.83333 93.34039,690.85209 C 33.959404,671.53653 35.118488,684.99311 35.814994,625.33345 L 36.825998,93.201509 C 35.625627,44.169867 38.965193,30.776705 96.181369,30.943026 l 808.712151,2.350825 c 46.79517,1.325579 53.34492,-0.362729 53.33281,49.828997 l -0.13129,543.965392 c -0.53722,57.06406 -7.00554,47.7862 -44.51325,59.33498 l -183.02623,56.35456 c -1.17345,-121.5461 12.47463,-121.73554 -65.27778,-123.61112 l -346.64693,2.53949 c -73.37549,1.33459 -68.29302,-0.70058 -68.56106,120.12718 z"
         style="fill:none;stroke:#000000;stroke-width:1px;stroke-linecap:butt;stroke-linejoin:miter;stroke-opacity:1" />
    </g>
  </g>
</svg>
