<?xml version="1.0" encoding="UTF-8" standalone="no"?>
<!-- Created with Inkscape (http://www.inkscape.org/) -->

<svg
   xmlns:dc="http://purl.org/dc/elements/1.1/"
   xmlns:cc="http://creativecommons.org/ns#"
   xmlns:rdf="http://www.w3.org/1999/02/22-rdf-syntax-ns#"
   xmlns:svg="http://www.w3.org/2000/svg"
   xmlns="http://www.w3.org/2000/svg"
   xmlns:xlink="http://www.w3.org/1999/xlink"
   xmlns:sodipodi="http://sodipodi.sourceforge.net/DTD/sodipodi-0.dtd"
   xmlns:inkscape="http://www.inkscape.org/namespaces/inkscape"
   width="990"
   height="765"
   id="svg2985"
   version="1.1"
   inkscape:version="0.48.2 r9819"
   sodipodi:docname="doom-figure-outline.svg">
  <defs
     id="defs2987" />
  <sodipodi:namedview
     inkscape:document-units="in"
     pagecolor="#ffffff"
     bordercolor="#666666"
     borderopacity="1.0"
     inkscape:pageopacity="0.0"
     inkscape:pageshadow="2"
     inkscape:zoom="1.0606602"
     inkscape:cx="615.69474"
     inkscape:cy="482.45444"
     inkscape:current-layer="layer1"
     id="namedview2989"
     showgrid="true"
     units="in"
     inkscape:window-width="1292"
     inkscape:window-height="973"
     inkscape:window-x="326"
     inkscape:window-y="0"
     inkscape:window-maximized="0"
     inkscape:snap-global="true">
    <inkscape:grid
       type="xygrid"
       id="grid3008" />
  </sodipodi:namedview>
  <metadata
     id="metadata2991">
    <rdf:RDF>
      <cc:Work
         rdf:about="">
        <dc:format>image/svg+xml</dc:format>
        <dc:type
           rdf:resource="http://purl.org/dc/dcmitype/StillImage" />
        <dc:title />
      </cc:Work>
    </rdf:RDF>
  </metadata>
  <g
     inkscape:label="Layer 1"
     inkscape:groupmode="layer"
     id="layer1"
     transform="translate(0,-225)">
    <image
       sodipodi:absref="/Users/fra/doom-figure-foam/photos/doom-figure-template.png"
       xlink:href="photos/doom-figure-template.png"
       style="opacity:0.14655169"
       width="1296.0416"
       height="1022.4666"
       id="image3121"
       x="-131.35408"
       y="152.78293" />
    <path
       style="fill:none;stroke:#000000;stroke-width:1px;stroke-linecap:butt;stroke-linejoin:miter;stroke-opacity:1"
       d="m 612.44177,525.40193 c -45.37017,0.32042 -102.49394,-0.0249 -167.36252,-0.0658 -8.08009,-0.005 -4.22009,-20.91103 5.04963,-20.33496 -12.87077,-26.07332 -8.8974,-55.7602 -20.23999,-54.37131 -16.20371,1.85185 -13.80657,-5.59705 -13.16667,-29.11357 5.68276,-57.22778 3.04854,-108.62756 84.80821,-105.11357 -15.56055,-29.86362 -0.5002,-37.44256 33.66137,-38.52021 30.80882,-0.60873 51.67503,3.56446 51.22241,24.41646 0.0474,17.93534 -17.40057,12.30327 -22.28102,27.20867 0.10355,14.72303 79.26739,11.22618 113.62703,18.53907 l 0.56291,44.67668 c -58.68441,0.50872 -83.50811,0.61401 -143.91667,-0.0555 0,0 -6.20632,13.54049 -1.93424,16.154 19.7452,12.07942 20.37642,34.56039 40.68838,53.19872 19.36055,17.76531 38.8133,40.61675 39.28117,63.38135 z"
       id="path3892"
       inkscape:connector-curvature="0"
       sodipodi:nodetypes="csccccccccccsscc" />
    <path
       style="fill:none;stroke:#000000;stroke-width:1px;stroke-linecap:butt;stroke-linejoin:miter;stroke-opacity:1"
       d="m 515,830 c -40,0 -45,0 -45,-5 0,-15 5,-15 20,-15 l 10,-45 c -50,5 -70,0 -70,-10 0,-10 15,-10 63.2786,-14.71244 1.4185,-12.59311 7.6079,-12.01054 13.42974,-12.12705 2.75181,-23.3087 27.09878,-22.29382 25.29166,1.00398 C 550.56976,734.58427 560,740 560,755 c 0,10 -21.94445,10.37742 -21.94445,10.37742 0,0 8.84111,17.92236 -3.05555,44.62258 15,0 20,0 20,15 0,5 -5,5 -40,5 z"
       id="path3894"
       inkscape:connector-curvature="0"
       sodipodi:nodetypes="csccsccccccsc" />
    <path
       style="fill:none;stroke:#000000;stroke-width:1px;stroke-linecap:butt;stroke-linejoin:miter;stroke-opacity:1"
       d="m 645,825 c 0,-15 5,-15 20,-15 0,-15 0,-25 0,-35 -21.65557,0.37866 -8.77793,-50.97898 9.87623,-46.71103 -4.48192,-23.50505 27.24112,-28.44027 23.23711,0.27738 15.96097,0.0104 14.5302,19.79552 14.5302,19.79552 44.03228,1.04041 37.15865,18.8746 -9.02818,18.95525 C 710.30999,787.57916 710,790 710,810 c 15,0 25,0 25,15 0,5 -10,5 -45,5 -35,0 -45,0 -45,-5 z"
       id="path3896"
       inkscape:connector-curvature="0"
       sodipodi:nodetypes="cccccccccsc" />
    <path
       sodipodi:nodetypes="cccccccccccsc"
       inkscape:connector-curvature="0"
       id="path3922"
       d="m 270,825 c 0,-15 5,-15 15,-15 0,-10 0.60934,-17.21027 3.16869,-27.13207 1.15886,-6.17978 -9.55969,-4.33714 -13.22793,-16.06249 -4.52797,-15.99341 12.30171,-34.2625 20.02386,-33.9503 0.15995,-23.9435 27.54556,-25.51292 26.74447,0.50124 12.62763,1.34373 10.26888,9.99895 9.55389,18.99323 21.229,0.1899 41.86326,-8.1505 42.41909,7.10601 -0.25226,16.87279 -50.11835,3.10413 -47.19727,15.59923 7.34853,7.11182 7.0152,19.27848 3.5152,34.94515 15,0 20,0 20,15 0,5 -5,5 -40,5 -35,0 -40,0 -40,-5 z"
       style="fill:none;stroke:#000000;stroke-width:1px;stroke-linecap:butt;stroke-linejoin:miter;stroke-opacity:1" />
    <path
       style="fill:none;stroke:#000000;stroke-width:1px;stroke-linecap:butt;stroke-linejoin:miter;stroke-opacity:1"
       d="M 119.44237,898.93686 C 119.31898,889.65989 125,890 135,890 c 4.18096,-45.39344 16.1168,-47.09982 12.16666,-63.98528 -4.59874,-19.02206 -13.48903,2.09376 -16.72038,-8.37897 -2.31093,-13.41774 -10.86211,-14.66209 -13.24725,-24.82293 -6.54074,-39.10466 36.71772,-39.97826 35.06755,-13.13604 -0.0102,4.02325 1.85407,5.24699 12.39687,4.66709 23.94074,3.64112 25.94497,11.4942 25.51573,30.59273 6.1644,-1.83224 15.88435,1.53211 16.53799,7.90165 2.46313,17.57101 -3.26965,22.70137 -23.29953,24.11438 5.59473,13.71196 6.56037,20.4598 6.0607,43.04737 10,0 15,0 15,10 0,5 -4.47834,5 -39.47834,5 -40,0 -45,0 -45.55763,-6.06314 z"
       id="path3943"
       inkscape:connector-curvature="0"
       sodipodi:nodetypes="ccccccccccccsc" />
    <path
       sodipodi:nodetypes="cscccsccccsc"
       inkscape:connector-curvature="0"
       id="path3945"
       d="m 840,880 c -40,0 -45,0 -45,-5 0,-10 5,-10 20,-10 2.20455,-35.86323 5,-45 5,-45 -27.34143,-21.47197 -28.0543,-41.22752 11.95148,-45.92408 -0.31654,-10.9545 5.70604,-13.0736 14.31618,-12.98244 7.08536,0.075 15.58192,3.34641 13.59579,13.39472 C 875,775 880,780 880,795 c 0,25 -15,25 -15,25 0,0 3.11755,14.68003 0.1302,45.62289 C 880,865 885,865 885,875 c 0,5.21525 -5,5 -45,5 z"
       style="fill:none;stroke:#000000;stroke-width:1px;stroke-linecap:butt;stroke-linejoin:miter;stroke-opacity:1" />
    <path
       style="fill:none;stroke:#000000;stroke-width:1px;stroke-linecap:butt;stroke-linejoin:miter;stroke-opacity:1"
       d="m 285,700 c 5,-25 15,-35 32.97352,-39.44227 -4.4843,-11.1755 -34.03866,1.23104 -34.47352,-9.09698 1.25805,-37.57957 10.48205,-8.46572 18.52513,-37.83333 6.54336,-17.01429 -2.69614,-18.88238 11.62622,-29.2016 17.8322,-16.54397 -3.05476,-8.74893 -3.48468,-25.46507 5.47114,-20.18287 -18.07742,-16.35709 -5,-36.53553 19.54412,4.03515 26.62368,4.14826 41.23224,0.14644 12.3375,2.28317 12.13976,17.29036 6.212,30.76287 25.05428,-12.65746 72.1067,-17.85996 71.98038,10.50346 -0.72395,29.15335 -43.55514,-1.3253 -43.05085,32.62539 7.0013,21.51188 17.80775,31.79474 38.81658,39.10338 4.17951,27.25859 5.32538,35.22029 4.64298,64.43324 -55,0 -90,0 -140,0 z"
       id="path3947"
       inkscape:connector-curvature="0"
       sodipodi:nodetypes="cccccccccccccc" />
    <path
       style="fill:none;stroke:#000000;stroke-width:1px;stroke-linecap:butt;stroke-linejoin:miter;stroke-opacity:1"
       d="m 145,740 c -40,0 -45,0 -45,-5 -0.13415,-13.29468 0.60879,-13.98617 1,-27.87258 0.65363,-31.92131 22.41891,-26.53766 22.5,-36.25 -3.45959,-4.38833 -5.84678,-8.62163 -5,-13.25 6.32449,-13.97241 11.89269,-20.8932 21.2357,-24.82843 18.5175,3.8065 26.68806,3.22363 45.16422,0.0143 19.26088,7.23529 20.79769,20.02156 27.85008,28.81413 3.927,5.45847 4.92638,14.30692 -4.88489,21.28111 -2.7168,12.09364 -12.3053,7.8019 -17.11511,11.96889 -2.94885,5.0661 -0.66482,7.26629 -3.5286,18.06413 C 183.93284,722.77048 170.49858,712.58611 170,725 c 0,10 20,0 20,10 -5,5 0,5 -45,5 z"
       id="path3949"
       inkscape:connector-curvature="0"
       sodipodi:nodetypes="cccccccccccccc" />
    <path
       style="fill:none;stroke:#000000;stroke-width:1px;stroke-linecap:butt;stroke-linejoin:miter;stroke-opacity:1"
       d="m 145,615 c -65,0 -60,0 -60,-10 0,-10 3.80995,-9.89379 15,-10 2.36491,-11.18786 -1.01825,-24.73323 5,-25 15,0 20,0 20,-15 0,-16.76851 -40,5 -40,-35 0,-30 6.41837,-34.60322 30,-35 0,-15 10,-20 25,-20 10,-20 37.79435,-7.59513 30,18.62742 2.75828,11.94228 -7.29126,10.26125 -1.33333,22.08333 14.07829,-9.62567 51.90842,-22.2307 17.58088,18.56802 C 175,535 180,535 155,535 c 18.92207,18.60649 20.97256,25.68445 5,60 40,0 45,0 45,10 0,10 5,10 -60,10 z"
       id="path3951"
       inkscape:connector-curvature="0"
       sodipodi:nodetypes="ccccscccccccccc" />
    <path
       style="fill:none;stroke:#000000;stroke-width:1px;stroke-linecap:butt;stroke-linejoin:miter;stroke-opacity:1"
       d="M 151.2643,435.83453 C 110.38982,435.44482 88,438.66667 88.333333,425.29409 c -0.151045,-6.01882 10.392643,-10.19028 25.142977,-10.31905 -3.81608,-11.85389 -3.20303,-9.673 -2.30964,-26.76429 -17.185644,-3.35876 -41.085253,32.11211 -45.66667,3.08334 -3.424954,-14.50834 4.455972,-23.52879 38.75,-33.5 -5.564347,-24.48809 -10.971369,-26.33095 -3.08333,-43.66667 8.0039,-10.19793 15.59728,-11.08021 40,-12 19.02355,-9.38082 24.05313,-10.72888 37.83333,0 11.09748,1.6952 23.98247,2.98746 31,11.75 10.78138,13.46232 6.84783,23.34662 1.16667,51.91667 33.1658,-0.45043 43.4558,1.02461 42.25,21.91666 -3.72573,17.23544 -18.0214,10.36602 -42.41667,8.58334 -14.55885,-5.42722 -13.49733,1.59487 -16.68097,18.56904 10.59169,0.63326 20.72671,2.77618 20.84764,10.43095 -0.25724,12.75986 -27.70096,10.15823 -63.90237,10.54045 z"
       id="path3953"
       inkscape:connector-curvature="0"
       sodipodi:nodetypes="cccccccccccccccc" />
    <path
       style="fill:none;stroke:#000000;stroke-width:1px;stroke-linecap:butt;stroke-linejoin:miter;stroke-opacity:1"
       d="m 316.29856,505.91494 c -35.06442,-0.32704 -76.87882,0.69354 -76.00357,-3.8995 -0.44728,-11.59046 14.86857,-14.07861 35.69848,-15.5159 10.60298,-66.76739 19.85885,-58.93067 25.6176,-91.21678 -2.80125,-24.38426 -60.54674,-64.35055 -77.90305,-88.77194 -10.50298,-18.33295 -0.63246,-35.39666 13.42031,-36.28427 43.28591,-1.1154 43.85546,30.36398 31.35532,42.91169 5.90593,8.49889 19.28223,21.27657 30.87007,29.55635 -20.23541,-53.44654 55.36365,-53.96722 38.03672,0.74755 17.0946,-13.55965 12.21516,-7.63564 33.17886,-29.66295 -12.2262,-12.92582 -23.55623,-43.21442 23.88478,-43.12861 15.23344,-0.10222 27.99475,14.69049 16.63722,32.99138 -38.15137,58.31422 -77.01903,69.3609 -77.02929,92.26703 0.57412,30.32779 18.62455,26.48071 29.31981,91.17632 21.60278,-0.2199 31.36213,2.75012 31.37006,15.17768 -0.17788,5.622 -34.64504,2.00087 -78.45332,3.65195 z"
       id="path3955"
       inkscape:connector-curvature="0"
       sodipodi:nodetypes="cccccccccccccccc" />
    <path
       style="fill:none;stroke:#000000;stroke-width:1px;stroke-linecap:butt;stroke-linejoin:miter;stroke-opacity:1"
       d="m 595,700 c -35,0 -45,0 -45,-10 0.003,-29.69442 -4.6799,-45.18965 -3.13564,-72.35238 C 546.25305,608.99368 533.49509,611.64066 535,605 c 2.37551,-7.29698 14.55689,-18.03573 26.23137,-10.72633 9.34092,2.5328 11.31094,-14.95039 55.70458,-14.32064 18.61904,-1.97106 14.99035,-4.90919 29.44663,7.50652 9.82902,11.49819 6.22384,15.21972 13.72792,31.05203 0.8129,8.76976 1.4963,28.53836 -9.40685,28.3094 -19.27526,-0.8724 -24.37678,-9.56651 -39.49993,-3.25305 -8.26607,3.45084 -10.61181,3.69117 -11.74569,18.62742 C 600,675 600,680 615,680 c 14.78028,0.031 25,0 25,10 0,10 -10,10 -45,10 z"
       id="path3957"
       inkscape:connector-curvature="0"
       sodipodi:nodetypes="cccccccccccccc" />
    <path
       style="fill:none;stroke:#000000;stroke-width:1px;stroke-linecap:butt;stroke-linejoin:miter;stroke-opacity:1"
       d="m 730,705 c -30,0 -30,0 -30,-10 0,-20 1.74067,-16.1451 10,-30 6.74067,-11.1451 6.05319,-18.64882 10,-35 -25,0 -25.97783,-30.23697 -30,-45 -5,-30 1.42809,-53.67412 12.65272,-54.50156 10.5933,-0.16898 1.91679,12.7565 34.64824,11.43156 37.56302,0.0706 20.00532,-19.01398 32.88046,-18.97402 C 791.68176,522.84516 794.90766,564.15572 795,585 c 0,35 -14.61655,40.06913 -30.12188,43.31488 C 754.53925,644.18031 749.2356,649.83703 750,665 c 0,15 10,10 10,30 0,10 0,10 -30,10 z"
       id="path3959"
       inkscape:connector-curvature="0"
       sodipodi:nodetypes="ccccccccccccc" />
    <path
       sodipodi:nodetypes="cccccccccscccsc"
       inkscape:connector-curvature="0"
       id="path3961"
       d="m 835,695 c 10,-20 10,-10 16.93314,-28.81447 C 860,650 865,635 856.52933,625.17334 841.17296,605.11722 802.95416,611.89204 803.51137,599.94348 804.24924,574.21302 820,600 830,570 c -15.55848,-4.70023 -7.81221,-30.55674 3.0889,-26.86887 10.5933,-0.87609 11.84632,3.52714 41.9111,-3.13113 37.20947,2.89903 39.21852,-8.56568 47.85102,-4.63663 13.01506,7.3138 10.41103,20.56931 0.88696,26.99878 -1.62941,22.67478 24.78198,0.49213 24.24411,18.36721 -0.31185,10.36357 -4.40022,15.91439 -25.83,15.40051 C 915,635 895.63097,639.46285 895,665 c 0,20 9.35055,14.8394 10,30 0,10 0,10 -35,10 -35,0 -35,0 -35,-10 z"
       style="fill:none;stroke:#000000;stroke-width:1px;stroke-linecap:butt;stroke-linejoin:miter;stroke-opacity:1" />
    <path
       style="fill:none;stroke:#000000;stroke-width:1px;stroke-linecap:butt;stroke-linejoin:miter;stroke-opacity:1"
       d="m 685,485 60,-60 c -10,0 -15,0 -15,-15 0,-20 0,-45 30,-55 l -55,-55 25,-25 60,60 c 15,-10 35,-10 50,0 l 60,-60 25,25 -55,55 c 25,15 25,35 25,55 0,15 -5,15 -15,15 l 60,60 -30,30 -70,-75 c -15,0 -10,10 -25,10 -15,0 -10,-10 -24.67707,-10.14035 L 715,515 z"
       id="path3963"
       inkscape:connector-curvature="0"
       sodipodi:nodetypes="cccccccccccccccccccc" />
    <g
       id="layer1-8"
       inkscape:label="Layer 1"
       transform="translate(9.5172008,0.06908699)">
      <path
         sodipodi:nodetypes="csccscscscsccsc"
         transform="translate(0,225)"
         inkscape:connector-curvature="0"
         id="path4512"
         d="m 275.4828,744.93091 -180.000001,-25 c -61.849817,-8.59025 -60,-5 -60,-65 l 0,-559.999997 c 0,-45 19.99986,-63.936989 60.69857,-63.987887 L 905.4828,29.930913 c 35,0 55.38459,20 55,60 l -5.48675,570.665017 c -0.53722,57.06406 -5.5709,54.46719 -44.51325,59.33498 l -200,25 c -0.58673,-60.77305 0,-45 0,-60 0,-25 -20,-45 -45,-45 l -345,10e-6 c -25,0 -45,20 -45,45 0,14.97589 0.13402,-0.41389 0,59.99999 z"
         style="fill:none;stroke:#000000;stroke-width:1px;stroke-linecap:butt;stroke-linejoin:miter;stroke-opacity:1" />
    </g>
  </g>
</svg>
