<?xml version="1.0" encoding="UTF-8" standalone="no"?>
<!-- Created with Inkscape (http://www.inkscape.org/) -->

<svg
   xmlns:dc="http://purl.org/dc/elements/1.1/"
   xmlns:cc="http://creativecommons.org/ns#"
   xmlns:rdf="http://www.w3.org/1999/02/22-rdf-syntax-ns#"
   xmlns:svg="http://www.w3.org/2000/svg"
   xmlns="http://www.w3.org/2000/svg"
   xmlns:sodipodi="http://sodipodi.sourceforge.net/DTD/sodipodi-0.dtd"
   xmlns:inkscape="http://www.inkscape.org/namespaces/inkscape"
   width="1056"
   height="816"
   id="svg2985"
   version="1.1"
   inkscape:version="0.91 r13725"
   sodipodi:docname="expanded.svg"
   style="enable-background:new">
  <defs
     id="defs2987">
    <filter
       inkscape:collect="always"
       style="color-interpolation-filters:sRGB"
       id="filter5322">
      <feBlend
         inkscape:collect="always"
         mode="lighten"
         in2="BackgroundImage"
         id="feBlend5324" />
    </filter>
    <filter
       id="filter5322-4"
       style="color-interpolation-filters:sRGB"
       inkscape:collect="always">
      <feBlend
         id="feBlend5324-5"
         in2="BackgroundImage"
         mode="lighten"
         inkscape:collect="always" />
    </filter>
  </defs>
  <sodipodi:namedview
     inkscape:document-units="in"
     pagecolor="#ffffff"
     bordercolor="#666666"
     borderopacity="1.0"
     inkscape:pageopacity="0.0"
     inkscape:pageshadow="2"
     inkscape:zoom="0.70710678"
     inkscape:cx="606.01094"
     inkscape:cy="371.54777"
     inkscape:current-layer="layer4"
     id="namedview2989"
     showgrid="true"
     units="in"
     inkscape:window-width="1391"
     inkscape:window-height="856"
     inkscape:window-x="5"
     inkscape:window-y="0"
     inkscape:window-maximized="0"
     inkscape:snap-global="false">
    <inkscape:grid
       type="xygrid"
       id="grid3008"
       originx="0"
       originy="0"
       spacingx="4.0314961"
       spacingy="4.0314961" />
  </sodipodi:namedview>
  <metadata
     id="metadata2991">
    <rdf:RDF>
      <cc:Work
         rdf:about="">
        <dc:format>image/svg+xml</dc:format>
        <dc:type
           rdf:resource="http://purl.org/dc/dcmitype/StillImage" />
        <dc:title />
      </cc:Work>
    </rdf:RDF>
  </metadata>
  <g
     inkscape:groupmode="layer"
     id="layer3"
     inkscape:label="Bottom"
     style="display:inline">
    <text
       xml:space="preserve"
       style="font-style:normal;font-variant:normal;font-weight:normal;font-stretch:normal;font-size:12.80000019px;line-height:0%;font-family:Helvetica;-inkscape-font-specification:'Helvetica, Normal';text-align:start;letter-spacing:0px;word-spacing:0px;writing-mode:lr-tb;text-anchor:start;fill:#000000;fill-opacity:1;stroke:none;stroke-width:1.06666672px;stroke-linecap:butt;stroke-linejoin:miter;stroke-opacity:1"
       x="94.105087"
       y="431.02637"
       id="text5079"
       sodipodi:linespacing="0%"><tspan
         sodipodi:role="line"
         id="tspan5081"
         x="94.105087"
         y="431.02637"
         style="font-size:16px;line-height:1.25;stroke-width:1.06666672px"> </tspan></text>
    <path
       sodipodi:type="inkscape:offset"
       inkscape:radius="-28.78289"
       inkscape:original="M 525.21289 -131.32031 C 499.29075 -130.5381 468.14438 -121.03405 448.16992 -117.78125 C 355.23733 -102.64755 321.50307 -78.819916 319.38086 -44.541016 C 303.79292 207.24269 304.31433 230.47651 321.91406 541.29688 C 322.66814 554.61435 341.53102 587.58407 380.80273 587.56836 C 720.92345 587.43233 929.2111 591.65566 1187.5137 595.28125 C 1213.4226 595.64492 1234.3765 570.3625 1236.002 544.52148 C 1255.1749 239.73451 1256.0672 220.30533 1244.7383 -30.076172 C 1241.2834 -106.43317 1126.3957 -109.03237 1064.7559 -122.38867 C 1016.2526 -132.89857 998.93466 -121.49385 999.71289 -83.435547 C 1000.4073 -49.476647 968.44875 -23.2793 942.18359 -25.5 C 808.59139 -36.7948 717.81442 -39.704219 628.98633 -28.886719 C 598.08872 -25.123919 569.80942 -55.329444 570.90234 -92.527344 C 571.83183 -124.16279 551.13503 -132.10253 525.21289 -131.32031 z "
       style="fill:none;fill-rule:evenodd;stroke:#0000ff;stroke-width:1px;stroke-linecap:butt;stroke-linejoin:miter;stroke-opacity:1"
       id="path4191"
       d="M 526.08008,-102.55078 C 506.48885,-101.95961 476.86498,-93.292488 452.79688,-89.373047 408.15051,-82.102566 379.31329,-72.487886 364.48047,-63.628906 349.64764,-54.769926 348.61469,-50.923858 348.10938,-42.761719 332.53063,208.87348 333.05342,228.89835 350.65039,539.66992 350.33743,534.14287 352.19867,543.91235 357.45898,549.27344 362.71929,554.63453 369.21169,558.78979 380.79102,558.78516 721.1547,558.64903 929.7119,562.87772 1187.918,566.50195 1194.89,566.59982 1206.549,554.26213 1207.2754,542.71484 1226.447,237.94852 1227.3072,221.47077 1215.9844,-28.775391 1215.4459,-40.676265 1212.0035,-46.634231 1204.3887,-53.607422 1196.7739,-60.580613 1183.8837,-67.265294 1167.748,-72.458984 1135.4767,-82.846364 1092.7195,-86.877731 1058.6602,-94.257812 1038.6756,-98.588144 1029.9997,-96.412528 1029.6562,-96.615234 1029.1392,-94.92026 1028.3514,-90.81316 1028.4902,-84.023438 1029.025,-57.869249 1017.0615,-35.243102 1000.7734,-19.929688 984.48534,-4.6162734 963.33475,5.1731006 939.75781,3.1796875 806.84283,-8.0578557 718.34227,-10.77262 632.46484,-0.31445312 581.127,5.9362841 540.59842,-41.149552 542.13281,-93.373047 542.4113,-102.85137 541.74632,-100.41277 541.55859,-100.54492 541.37087,-100.67707 535.87566,-102.84637 526.08008,-102.55078 Z"
       transform="matrix(-1.0682593,0.00932256,-0.00932256,-1.0682593,1362.178,638.7709)" />
  </g>
  <g
     inkscape:groupmode="layer"
     id="layer2"
     inkscape:label="Middle"
     style="display:inline">
    <path
       style="fill:none;stroke:#00ff00;stroke-width:1.06666672px;stroke-linecap:butt;stroke-linejoin:miter;stroke-opacity:1"
       d="M 280.63616,317.54401 C 232.24131,317.88579 171.30929,317.51741 102.11614,317.47381 93.49738,317.46881 97.61471,295.16872 107.50241,295.78319 93.77359,267.97165 98.01185,236.30564 85.91309,237.78713 83.56246,230.51798 85.4083,247.46139 86.09086,222.3771 122.54389,205.72228 128.37846,219.70655 127.73558,196.68649 126.42545,149.77359 125.12557,96.29294 162.33073,94.61151 145.73281,62.756982 161.79718,54.672779 198.23619,53.523286 231.09893,52.873974 253.35622,57.325377 252.87343,79.56751 252.92403,98.69854 234.31282,92.691 229.10701,108.59009 229.21746,124.29466 313.65889,120.56468 350.30917,128.3651 L 350.90961,176.02022 C 288.31291,176.56286 261.83429,176.67517 197.3985,175.96102 197.3985,175.96102 190.77842,190.40421 195.33531,193.19196 216.39685,206.07667 217.07015,230.05637 238.73625,249.93726 259.3875,268.88692 280.1371,293.26179 280.63616,317.54403 Z"
       id="path3892-3"
       inkscape:connector-curvature="0"
       sodipodi:nodetypes="cscccscccccccsscc" />
    <path
       style="fill:none;stroke:#00ff00;stroke-width:1.06666672px;stroke-linecap:butt;stroke-linejoin:miter;stroke-opacity:1"
       d="M 493.16942,299.19199 C 455.76732,298.84315 411.16532,299.93177 412.09892,295.03252 411.62182,282.66937 427.95872,280.01534 450.17732,278.48223 490.38982,278.92381 503.49762,278.57895 543.39152,279.10705 566.43452,278.87249 576.84452,282.04051 576.85292,295.29658 576.66322,301.29338 539.89822,297.43084 493.16942,299.19199 Z"
       id="path3955-2"
       inkscape:connector-curvature="0"
       sodipodi:nodetypes="cccccc" />
    <path
       style="fill:none;stroke:#00ff00;stroke-width:1.06666672px;stroke-linecap:butt;stroke-linejoin:miter;stroke-opacity:1"
       d="M 638.44399,239.67284 C 601.11059,239.67284 590.44389,239.67284 590.44389,229.00618 590.44689,197.33213 585.45199,180.80388 587.09919,151.83031 586.44719,142.59944 572.83869,145.42288 574.44389,138.33951 576.97779,130.55607 589.97129,119.1014 602.42409,126.89809 612.38769,129.59975 614.48909,110.95101 661.84229,111.62274 681.70259,109.52028 677.83199,106.38627 693.25199,119.6297 703.73629,131.89443 699.89079,135.86407 707.89519,152.75186 708.76229,162.10627 709.49119,183.19278 697.86119,182.94856 677.30089,182.018 671.85929,172.74428 655.72789,179.47864 646.91079,183.15953 644.40869,183.41588 643.19919,199.34788 643.77729,213.00618 643.77729,218.33951 659.77729,218.33951 675.54289,218.37261 686.44399,218.33951 686.44399,229.00618 686.44399,239.67284 675.77729,239.67284 638.44399,239.67284 Z"
       id="path3957-9"
       inkscape:connector-curvature="0"
       sodipodi:nodetypes="cccccccccccccc" />
    <path
       style="fill:none;stroke:#00ff00;stroke-width:1.06666672px;stroke-linecap:butt;stroke-linejoin:miter;stroke-opacity:1"
       d="M 764.31721,512.02334 C 732.31721,512.02334 732.31721,512.02334 732.31721,501.35667 732.31721,480.02334 740.20791,483.6324 742.98391,469.35667 746.65411,453.44591 744.91511,448.96177 749.12501,431.52051 722.45841,431.52051 717.89551,400.2734 713.60521,384.52616 708.27191,352.52616 718.64831,321.74262 730.62131,320.86002 741.92081,320.67977 737.19131,339.49527 772.10491,338.082 812.17211,338.1573 793.44391,317.80042 807.17741,317.84305 830.11111,317.72484 833.55201,361.78944 833.65051,384.02334 833.65051,421.35667 818.05951,426.76374 801.52051,430.22588 790.49241,447.149 784.83521,453.18284 785.65051,469.35667 785.65051,485.35667 796.31721,480.02334 796.31721,501.35667 796.31721,512.02334 796.31721,512.02334 764.31721,512.02334 Z"
       id="path3959-8"
       inkscape:connector-curvature="0"
       sodipodi:nodetypes="ccccccccccccc" />
    <path
       sodipodi:nodetypes="cccccccccscccsc"
       inkscape:connector-curvature="0"
       id="path3961-7"
       d="M 308.02008,360.66177 C 318.68668,339.32844 318.68668,349.9951 326.08208,329.92634 334.68668,312.66177 340.02008,296.66177 330.98468,286.18 314.60458,264.7868 273.83778,272.01328 274.43218,259.26815 275.21928,231.82232 292.02008,259.32845 302.68668,227.32844 286.09098,222.31486 294.35368,194.73458 305.98158,198.66831 317.28108,197.73381 318.61758,202.43059 350.68668,195.32844 390.37678,198.42074 392.51978,186.19171 401.72778,190.3827 415.61058,198.18408 412.83288,212.3233 402.67388,219.1814 400.93588,243.36783 429.10798,219.70634 428.53428,238.77309 428.20158,249.82756 423.84068,255.74844 400.98228,255.2003 393.35338,296.66177 372.69308,301.42214 372.02008,328.66177 372.02008,349.9951 381.99398,344.49046 382.68668,360.66177 382.68668,371.32844 382.68668,371.32844 345.35338,371.32844 308.02008,371.32844 308.02008,371.32844 308.02008,360.66177 Z"
       style="fill:none;stroke:#00ff00;stroke-width:1.06666672px;stroke-linecap:butt;stroke-linejoin:miter;stroke-opacity:1" />
    <path
       style="fill:none;stroke:#00ff00;stroke-width:1.06666672px;stroke-linecap:butt;stroke-linejoin:miter;stroke-opacity:1"
       d="M 706.97915,239.41884 C 733.64582,228.75217 770.97915,212.75217 770.97915,212.75217 760.31248,212.75217 754.97915,212.75217 754.97915,196.75217 754.97915,175.41884 754.97915,148.75217 786.97915,138.0855 786.97915,138.0855 733.64582,122.0855 706.97915,111.41884 706.97915,68.75217 722.97915,52.75217 781.64582,52.75217 797.64582,79.41883 818.97915,116.75217 818.97915,116.75217 834.97915,106.0855 856.31248,106.0855 872.31248,116.75217 872.31248,116.75217 888.31248,79.41883 898.97915,52.75217 962.97915,52.75217 978.97915,68.75217 978.97915,111.41884 946.97915,122.0855 904.31248,138.0855 904.31248,138.0855 930.97915,154.0855 930.97915,175.41884 930.97915,196.75217 930.97915,212.75217 925.64582,212.75217 914.97915,212.75217 914.97915,212.75217 952.31248,228.75217 978.97915,239.41884 978.97915,287.41884 962.97915,308.75217 904.31248,308.75217 893.64582,276.75217 872.31248,228.75217 872.31248,228.75217 856.31248,228.75217 861.64582,239.41884 845.64582,239.41884 829.64582,239.41884 834.97915,228.75217 819.32361,228.60246 819.32361,228.60246 802.97915,260.75217 781.64582,308.75217 728.31248,308.75217 706.97915,292.75217 706.97915,239.41884 Z"
       id="path3963-5"
       inkscape:connector-curvature="0"
       sodipodi:nodetypes="cccccccccccccccccccc" />
    <path
       sodipodi:type="inkscape:offset"
       inkscape:radius="-13.033512"
       inkscape:original="M 525.21289 -131.32031 C 499.29075 -130.5381 468.14438 -121.03405 448.16992 -117.78125 C 355.23733 -102.64755 321.50307 -78.819916 319.38086 -44.541016 C 303.79292 207.24269 304.31433 230.47651 321.91406 541.29688 C 322.66814 554.61435 341.53102 587.58407 380.80273 587.56836 C 720.92345 587.43233 929.2111 591.65566 1187.5137 595.28125 C 1213.4226 595.64492 1234.3765 570.3625 1236.002 544.52148 C 1255.1749 239.73451 1256.0672 220.30533 1244.7383 -30.076172 C 1241.2834 -106.43317 1126.3957 -109.03237 1064.7559 -122.38867 C 1016.2526 -132.89857 998.93466 -121.49385 999.71289 -83.435547 C 1000.4073 -49.476647 968.44875 -23.2793 942.18359 -25.5 C 808.59139 -36.7948 717.81442 -39.704219 628.98633 -28.886719 C 598.08872 -25.123919 569.80942 -55.329444 570.90234 -92.527344 C 571.83183 -124.16279 551.13503 -132.10253 525.21289 -131.32031 z "
       style="display:inline;fill:none;fill-rule:evenodd;stroke:#00ff00;stroke-width:1px;stroke-linecap:butt;stroke-linejoin:miter;stroke-opacity:1;enable-background:new"
       id="path4187"
       d="M 525.60547,-118.29297 C 502.5501,-117.59726 472.09377,-108.47264 450.26562,-104.91797 404.62343,-97.485321 374.23708,-87.801108 356.4043,-77.150391 338.57152,-66.499673 333.1981,-56.810659 332.38867,-43.736328 316.8049,207.98013 317.3273,229.76227 334.92578,540.56055 334.99037,541.7013 338.51682,552.45718 346.2168,560.30469 353.91678,568.15219 364.80919,574.54155 380.79688,574.53516 721.02762,574.39908 929.43838,578.62307 1187.6973,582.24805 1205.0312,582.49135 1221.7758,563.07164 1222.9941,543.70312 1242.1665,238.9255 1243.0449,220.83389 1231.7188,-29.486328 1231.0023,-45.320527 1225.1579,-55.94208 1215.0234,-65.222656 1204.8889,-74.503233 1189.963,-81.853505 1172.5723,-87.451172 1137.7908,-98.646506 1094.2829,-102.65439 1061.9961,-109.65039 1039.0118,-114.63072 1025.6918,-113.14802 1020.5527,-110.00586 1017.9832,-108.43478 1016.4492,-106.65755 1014.9785,-102.60742 1013.5079,-98.557289 1012.5701,-92.21461 1012.7441,-83.701172 1013.1763,-62.567203 1003.4827,-44.093004 989.98633,-31.404297 976.49,-18.71559 958.94795,-11.003452 941.08594,-12.513672 807.8004,-23.782545 718.05446,-26.604005 630.5625,-15.949219 590.40869,-11.059172 556.58216,-48.90804 557.875,-92.910156 558.2554,-105.85726 555.25065,-110.16564 550.625,-113.42188 545.99935,-116.67811 537.13314,-118.64082 525.60547,-118.29297 Z"
       transform="matrix(-1.0682593,0.00932256,-0.00932256,-1.0682593,1362.178,638.7709)" />
    <path
       sodipodi:nodetypes="ccszzcccccccc"
       inkscape:connector-curvature="0"
       id="path4326"
       d="M 114.06498,708.89319 C 117.64055,693.92783 125.6117,696.42595 174.80145,696.61926 176.18174,671.74984 168.07995,678.43636 142.60415,649.24431 125.54272,629.69407 77.75406,674.88239 77.49763,648.07763 77.2412,621.27287 105.13148,584.76933 101.11986,569.45133 97.10823,554.13333 79.82454,536.78297 91.84206,519.48009 110.40033,523.39042 120.24067,523.9049 135.82313,519.6363 148.98313,522.07168 150.33096,532.89319 150.33096,543.55986 176.99763,538.22653 219.36308,533.3994 219.22834,563.65371 218.45612,594.75062 172.76952,562.24006 173.30743,598.45413 180.77548,621.40014 192.30236,632.36852 214.71178,640.1644 219.16993,669.24023 220.39219,677.73271 219.66429,708.89319 Z"
       style="display:inline;fill:none;stroke:#00ff00;stroke-width:1.05599999;stroke-linecap:butt;stroke-linejoin:miter;stroke-miterlimit:4;stroke-dasharray:none;stroke-opacity:1;enable-background:new" />
    <path
       sodipodi:nodetypes="cccczcccccczsccc"
       inkscape:connector-curvature="0"
       id="path4204"
       d="M 162.35371,492.71651 C 118.75421,492.30081 94.87181,495.73745 95.22741,481.47337 95.06631,475.05329 106.31281,470.60374 122.04651,470.46638 117.97601,457.82223 118.62991,460.14852 119.58291,441.91781 98.42311,457.07346 65.720013,488.36886 58.265213,453.58843 50.810513,418.80799 73.857113,406.14397 110.79091,404.34685 104.85561,378.22622 102.09331,380.85669 108.91621,362.89559 117.45371,352.0178 125.55331,351.0767 151.58291,350.09559 171.87461,340.08938 177.23951,338.65145 191.93841,350.09559 203.77571,351.9038 217.51971,353.28221 225.00511,362.62892 236.50521,376.98873 232.30941,387.53198 227.31021,413.41051 267.28321,405.85898 290.92481,419.57464 287.22611,441.73802 283.52741,463.90141 261.68571,467.09457 225.36461,456.19689 209.49041,451.43403 211.67461,452.24123 208.27871,470.34701 219.57651,471.02249 230.38721,473.30827 230.51621,481.47336 230.24181,495.08388 200.96851,492.3088 162.35371,492.71651 Z"
       style="display:inline;fill:none;stroke:#00ff00;stroke-width:1.05599999;stroke-linecap:butt;stroke-linejoin:miter;stroke-miterlimit:4;stroke-dasharray:none;stroke-opacity:1;enable-background:new" />
    <path
       style="display:inline;fill:none;stroke:#00ff00;stroke-width:1.05599999;stroke-linecap:butt;stroke-linejoin:miter;stroke-miterlimit:4;stroke-dasharray:none;stroke-opacity:1;enable-background:new"
       d="M 881.38844,513.05257 C 884.96404,498.08721 892.93514,500.58533 942.12494,500.77864 943.50524,475.90922 935.40344,482.59574 909.92764,453.40369 892.86624,433.85345 845.07754,479.04177 844.82114,452.23701 844.56464,425.43225 872.45494,388.92871 868.44334,373.61071 864.43174,358.29271 847.14804,340.94235 859.16554,323.63947 877.72384,327.5498 887.56414,328.06428 903.14664,323.79568 916.30664,326.23106 917.65444,337.05257 917.65444,347.71924 944.32114,342.38591 986.68654,337.55878 986.55184,367.81309 985.77964,398.91 940.09304,366.39944 940.63094,402.61351 948.09894,425.55952 959.62584,436.5279 982.03524,444.32378 986.49344,473.39961 987.71564,481.89209 986.98774,513.05257 Z"
       id="path5290"
       inkscape:connector-curvature="0"
       sodipodi:nodetypes="ccszzcccccccc" />
  </g>
  <g
     inkscape:label="Top"
     inkscape:groupmode="layer"
     id="layer1"
     transform="translate(0,-240)"
     style="display:inline">
    <path
       style="fill:none;stroke:#ff0000;stroke-width:1.05599999;stroke-linecap:butt;stroke-linejoin:miter;stroke-miterlimit:4;stroke-dasharray:none;stroke-opacity:1"
       d="M 280.62677,557.55158 C 232.23193,557.89337 171.2999,557.52498 102.10675,557.48138 93.48799,557.47638 97.60532,535.17628 107.49302,535.79075 93.7642,507.97921 98.48048,477.93954 86.0287,477.41969 70.33199,476.76437 51.40251,456.0067 65.35925,416.74021 79.31599,377.47372 102.61103,319.87082 162.32134,334.61907 145.72342,302.76455 161.7878,294.68034 198.22681,293.53085 231.08955,292.88154 253.34684,297.33294 252.86404,319.57507 252.91464,338.7061 234.30343,332.69856 229.09762,348.59765 229.20807,364.30222 313.6495,360.57225 350.29979,368.37266 L 350.90022,416.02779 C 288.30352,416.57042 261.82491,416.68273 197.38911,415.96859 197.38911,415.96859 190.76903,430.41178 195.32592,433.19952 216.38747,446.08424 217.06077,470.06394 238.72686,489.94482 259.37811,508.89449 280.12771,533.26936 280.62677,557.5516 Z"
       id="path3892"
       inkscape:connector-curvature="0"
       sodipodi:nodetypes="cscszcccccccsscc" />
    <path
       style="fill:none;stroke:#ff0000;stroke-width:1.05599999;stroke-linecap:butt;stroke-linejoin:miter;stroke-miterlimit:4;stroke-dasharray:none;stroke-opacity:1"
       d="M 507.80585,684.61255 C 465.13915,684.61255 459.80585,684.61255 459.80585,679.27915 459.80585,663.27915 465.13915,663.27915 481.13915,663.27915 L 491.80585,615.27915 C 422.47245,636.61255 417.13915,615.27915 417.13915,604.61255 417.13915,593.94585 418.56135,575.10145 481.08075,584.65255 485.08275,577.97545 490.61805,576.10805 496.82805,575.98375 499.76335,551.12115 527.15565,549.00365 531.27245,576.69905 551.08025,582.48015 555.80585,588.61255 555.80585,604.61255 555.80585,615.27915 532.39835,615.68175 532.39835,615.68175 532.39835,615.68175 541.82895,634.79895 529.13915,663.27915 545.13915,663.27915 550.47245,663.27915 550.47245,679.27915 550.47245,684.61255 545.13915,684.61255 507.80585,684.61255 Z"
       id="path3894"
       inkscape:connector-curvature="0"
       sodipodi:nodetypes="csccsccccccsc" />
    <path
       style="fill:none;stroke:#ff0000;stroke-width:1.05599999;stroke-linecap:butt;stroke-linejoin:miter;stroke-miterlimit:4;stroke-dasharray:none;stroke-opacity:1"
       d="M 363.9648,888.04848 C 363.9648,872.04848 369.2981,872.04848 385.2981,872.04848 385.2981,856.04848 385.2981,845.38182 385.2981,834.71515 362.1988,835.11905 370.6016,782.4709 390.855,782.0456 386.0742,756.97355 427.3788,755.62043 422.0412,782.34147 439.0662,782.35257 436.1179,806.30114 436.1179,806.30114 483.0856,807.41091 475.7538,826.43405 426.4878,826.52008 433.6287,848.13292 433.2981,850.71515 433.2981,872.04848 449.2981,872.04848 459.9648,872.04848 459.9648,888.04848 459.9648,893.38182 449.2981,893.38182 411.9648,893.38182 374.6314,893.38182 363.9648,893.38182 363.9648,888.04848 Z"
       id="path3896"
       inkscape:connector-curvature="0"
       sodipodi:nodetypes="cccccccccsc" />
    <path
       sodipodi:nodetypes="cccccccccccsc"
       inkscape:connector-curvature="0"
       id="path3922"
       d="M 604.1251,889.16415 C 604.1251,873.16415 609.4584,873.16415 620.1251,873.16415 620.1251,862.49748 620.775,854.80653 623.505,844.22328 624.7411,837.63151 613.308,839.59699 609.3952,827.08995 604.5654,810.03032 622.517,790.54329 630.754,790.8763 630.9246,765.33657 660.1359,763.66252 659.2814,791.41096 672.7509,792.84427 670.2349,802.0765 669.4722,811.6704 692.1165,811.87296 714.1264,802.97654 714.7193,819.25015 714.4502,837.24779 661.2597,822.56122 664.3755,835.88932 672.214,843.47527 671.8584,856.45304 668.1251,873.16415 684.1251,873.16415 689.4584,873.16415 689.4584,889.16415 689.4584,894.49748 684.1251,894.49748 646.7917,894.49748 609.4584,894.49748 604.1251,894.49748 604.1251,889.16415 Z"
       style="fill:none;stroke:#ff0000;stroke-width:1.05599999;stroke-linecap:butt;stroke-linejoin:miter;stroke-miterlimit:4;stroke-dasharray:none;stroke-opacity:1" />
    <path
       style="fill:none;stroke:#ff0000;stroke-width:1.05599999;stroke-linecap:butt;stroke-linejoin:miter;stroke-miterlimit:4;stroke-dasharray:none;stroke-opacity:1"
       d="M 239.45643,887.28756 C 239.32483,877.39213 245.38463,877.75491 256.05123,877.75491 251.26653,829.69079 266.13143,832.13732 261.91793,814.12616 257.01263,799.88042 254.64073,811.73729 251.19393,800.56638 248.72893,786.25412 239.60773,784.92682 237.06353,774.08859 230.08673,732.37695 276.22913,731.44511 274.46893,760.07681 274.45803,764.36828 276.44663,765.6736 287.69223,765.05504 313.22903,768.9389 315.36693,777.31552 314.90903,797.68728 321.48443,795.7329 331.85233,799.32154 332.54963,806.11571 335.17693,824.85812 329.06193,830.33051 307.69673,831.83772 313.66443,846.46381 314.69453,853.6615 314.16153,877.75491 324.82813,877.75491 330.16153,877.75491 330.16153,888.42158 330.16153,893.75491 325.38463,893.75491 288.05123,893.75491 245.38463,893.75491 240.05123,893.75491 239.45643,887.28756 Z"
       id="path3943"
       inkscape:connector-curvature="0"
       sodipodi:nodetypes="ccccccccccccsc" />
    <path
       sodipodi:nodetypes="cscccsccccsc"
       inkscape:connector-curvature="0"
       id="path3945"
       d="M 781.96632,900.81934 C 739.29972,900.81934 733.96632,900.81934 733.96632,895.486 733.96632,884.81934 739.29972,884.81934 755.29972,884.81934 757.65122,846.56522 760.63302,836.81934 760.63302,836.81934 731.46882,813.9159 732.84172,793.19887 769.47012,787.12254 769.13252,775.43774 779.46772,773.88848 788.65182,773.98572 796.20952,774.06572 805.62812,776.133 804.22072,787.5623 820.36632,788.10822 824.63302,794.15267 824.63302,810.15267 824.63302,836.81934 808.63302,836.81934 808.63302,836.81934 808.63302,836.81934 811.95842,852.47804 808.77192,885.48375 824.63302,884.81934 829.96632,884.81934 829.96632,895.486 829.96632,901.04894 824.63302,900.81934 781.96632,900.81934 Z"
       style="fill:none;stroke:#ff0000;stroke-width:1.05599999;stroke-linecap:butt;stroke-linejoin:miter;stroke-miterlimit:4;stroke-dasharray:none;stroke-opacity:1" />
    <path
       style="fill:none;stroke:#ff0000;stroke-width:1.05599999;stroke-linecap:butt;stroke-linejoin:miter;stroke-miterlimit:4;stroke-dasharray:none;stroke-opacity:1"
       d="M 74.82055,948.89319 C 81.93166,928.27097 93.79188,918.74828 109.74763,910.80986 92.7092,910.21495 77.36812,910.26442 77.49763,886.30986 77.62714,862.3553 105.13148,824.76933 101.11986,809.45133 97.10823,794.13333 79.82454,776.78297 91.84206,759.48009 110.40033,763.39042 120.24067,763.9049 135.82313,759.6363 148.98313,762.07168 150.33096,772.89319 150.33096,783.55986 176.99763,778.22653 219.36308,773.3994 219.22834,803.65371 218.45612,834.75062 172.76952,802.24006 173.30743,838.45413 180.77548,861.40014 192.30236,872.36852 214.71178,880.1644 219.16993,909.24023 220.39219,917.73271 219.66429,948.89319 Z"
       id="path3947"
       inkscape:connector-curvature="0"
       sodipodi:nodetypes="cczzcccccccc" />
    <path
       style="fill:none;stroke:#ff0000;stroke-width:1.05599999;stroke-linecap:butt;stroke-linejoin:miter;stroke-miterlimit:4;stroke-dasharray:none;stroke-opacity:1"
       d="M 625.39059,611.56601 C 582.72399,611.56601 577.39059,611.56601 577.39059,606.23271 577.24749,592.05171 578.03999,591.31411 578.45729,576.50191 579.15449,542.45252 602.37079,548.19508 602.45729,537.83525 598.76709,533.15437 596.22069,528.63885 597.12399,523.70192 603.87009,508.79802 609.80949,501.41584 619.77539,497.21826 639.52739,501.27853 648.24259,500.6568 667.95049,497.23356 688.49549,504.95121 690.13469,518.5899 697.65729,527.96864 701.84609,533.791 702.91209,543.22935 692.44669,550.66849 689.54879,563.56841 679.32109,558.99051 674.19059,563.43531 671.04519,568.83911 672.77039,574.38601 669.71569,585.90371 662.40579,601.31851 673.37669,597.83541 673.39059,606.23271 668.05729,611.56611 673.39059,611.56611 625.39059,611.56611 Z"
       id="path3949"
       inkscape:connector-curvature="0"
       sodipodi:nodetypes="ccccccccccccc" />
    <path
       style="fill:none;stroke:#ff0000;stroke-width:1.05599999;stroke-linecap:butt;stroke-linejoin:miter;stroke-miterlimit:4;stroke-dasharray:none;stroke-opacity:1"
       d="M 906.93889,944.78741 C 837.60549,944.78741 842.93889,944.78741 842.93889,934.12074 842.93889,923.45408 853.60549,923.45408 858.93889,923.45408 858.93889,896.78741 864.26699,892.39462 864.27219,880.78741 864.27219,862.901 842.93889,886.12074 842.93889,843.45408 842.93889,811.45408 849.78509,806.54398 874.93889,806.12074 874.93889,790.12074 885.60549,784.78741 901.60549,784.78741 912.27219,763.45408 941.91949,776.68594 933.60549,804.65666 931.64999,812.8763 932.58379,816.97719 938.93889,822.12074 953.95569,811.85336 991.55489,810.60211 954.93889,854.12074 942.94149,865.55672 938.93889,864.78741 922.93889,864.78741 933.60549,875.45408 938.58329,886.12074 933.24999,923.45408 965.96109,923.80963 970.93889,923.45408 970.93889,934.12074 970.93889,944.78741 976.27219,944.78741 906.93889,944.78741 Z"
       id="path3951"
       inkscape:connector-curvature="0"
       sodipodi:nodetypes="cccccccccccccc" />
    <path
       style="fill:none;stroke:#ff0000;stroke-width:1.05599999;stroke-linecap:butt;stroke-linejoin:miter;stroke-miterlimit:4;stroke-dasharray:none;stroke-opacity:1"
       d="M 162.35371,732.71651 C 118.75421,732.30081 94.87181,735.73745 95.22741,721.47337 95.06631,715.05329 106.31281,710.60374 122.04651,710.46638 117.97601,697.82223 118.62991,700.14852 119.58291,681.91781 98.42311,697.07346 65.720013,728.36886 58.265213,693.58843 50.810513,658.80799 73.857113,646.14397 110.79091,644.34685 104.85561,618.22622 102.09331,620.85669 108.91621,602.89559 117.45371,592.0178 125.55331,591.0767 151.58291,590.09559 171.87461,580.08938 177.23951,578.65145 191.93841,590.09559 203.77571,591.9038 217.51971,593.28221 225.00511,602.62892 236.50521,616.98873 232.30941,627.53198 227.31021,653.41051 267.28321,645.85898 290.92481,659.57464 287.22611,681.73802 283.52741,703.90141 261.68571,707.09457 225.36461,696.19689 209.49041,691.43403 211.67461,692.24123 208.27871,710.34701 219.57651,711.02249 230.38721,713.30827 230.51621,721.47336 230.24181,735.08388 200.96851,732.3088 162.35371,732.71651 Z"
       id="path3953"
       inkscape:connector-curvature="0"
       sodipodi:nodetypes="cccczcccccczsccc" />
    <path
       style="fill:none;stroke:#ff0000;stroke-width:1.05599999;stroke-linecap:butt;stroke-linejoin:miter;stroke-miterlimit:4;stroke-dasharray:none;stroke-opacity:1"
       d="M 493.16002,539.19956 C 455.75802,538.85072 411.15592,539.93934 412.08952,535.0401 411.61242,522.67694 427.94932,520.02291 450.16792,518.4898 461.47782,447.27125 471.35072,455.63042 477.49342,421.1919 474.50542,395.18203 412.91022,352.55132 394.39682,326.50184 383.19362,306.94669 393.72212,288.7454 408.71182,287.79861 454.88342,286.60885 455.49092,320.18686 442.15742,333.57108 448.45712,342.63657 462.72512,356.26609 475.08552,365.09786 453.50112,308.08821 534.14012,307.53282 515.65802,365.89524 533.89232,351.43162 528.68752,357.75056 551.04882,334.25476 538.00752,320.46722 525.92222,288.15938 576.52592,288.25091 592.77492,288.14188 606.38702,303.92077 594.27232,323.44172 553.57752,385.64355 512.11862,397.42668 512.10772,421.85988 512.72012,454.20953 531.97392,450.10597 543.38222,519.11462 566.42512,518.88006 576.83512,522.04809 576.84352,535.30415 576.65382,541.30095 539.88882,537.43841 493.16002,539.19956 Z"
       id="path3955"
       inkscape:connector-curvature="0"
       sodipodi:nodetypes="cccccccccccccccc" />
    <path
       style="fill:none;stroke:#ff0000;stroke-width:1.05599999;stroke-linecap:butt;stroke-linejoin:miter;stroke-miterlimit:4;stroke-dasharray:none;stroke-opacity:1"
       d="M 638.43459,479.68043 C 601.10119,479.68043 590.43449,479.68043 590.43449,469.01373 590.43749,437.33973 585.44259,420.81143 587.08989,391.83793 586.43779,382.60703 572.82929,385.43043 574.43449,378.34713 576.96839,370.56363 589.96189,359.10893 602.41469,366.90563 612.37829,369.60733 614.47969,350.95863 661.83289,351.63033 681.69319,349.52783 677.82259,346.39383 693.24269,359.63723 703.72689,371.90203 699.88139,375.87163 707.88579,392.75943 708.75289,402.11383 709.48179,423.20033 697.85179,422.95613 677.29149,422.02553 671.84989,412.75183 655.71849,419.48623 646.90139,423.16713 644.39929,423.42343 643.18979,439.35543 643.76789,453.01373 643.76789,458.34713 659.76789,458.34713 675.53349,458.38023 686.43459,458.34713 686.43459,469.01373 686.43459,479.68043 675.76789,479.68043 638.43459,479.68043 Z"
       id="path3957"
       inkscape:connector-curvature="0"
       sodipodi:nodetypes="cccccccccccccc" />
    <path
       style="fill:none;stroke:#ff0000;stroke-width:1.05599999;stroke-linecap:butt;stroke-linejoin:miter;stroke-miterlimit:4;stroke-dasharray:none;stroke-opacity:1"
       d="M 764.30781,752.03094 C 732.30781,752.03094 732.30781,752.03094 732.30781,741.36424 732.30781,720.03094 740.19851,723.63994 742.97451,709.36424 746.64471,693.45344 744.90571,688.96934 749.11571,671.52804 722.44901,671.52804 717.88611,640.28097 713.59581,624.53374 708.26251,592.53374 718.63891,561.7502 730.61191,560.86759 741.91141,560.68735 737.18191,579.50285 772.09551,578.08958 812.16271,578.16488 793.43451,557.808 807.16801,557.85062 830.10171,557.73241 833.54261,601.79701 833.64111,624.03091 833.64111,661.36424 818.05011,666.77134 801.51111,670.23344 790.48301,687.15654 784.82581,693.19044 785.64111,709.36424 785.64111,725.36424 796.30781,720.03094 796.30781,741.36424 796.30781,752.03094 796.30781,752.03094 764.30781,752.03094 Z"
       id="path3959"
       inkscape:connector-curvature="0"
       sodipodi:nodetypes="ccccccccccccc" />
    <path
       sodipodi:nodetypes="cccccccccscccsc"
       inkscape:connector-curvature="0"
       id="path3961"
       d="M 308.01068,600.66931 C 318.67738,579.33601 318.67738,590.00261 326.07268,569.93391 334.67738,552.66931 340.01068,536.66933 330.97528,526.18753 314.59518,504.79433 273.82848,512.02083 274.42278,499.27573 275.20988,471.82993 292.01068,499.33603 302.67738,467.33603 286.08158,462.32243 294.34428,434.74213 305.97218,438.67583 317.27168,437.74143 318.60828,442.43813 350.67738,435.33603 390.36748,438.42833 392.51038,426.19928 401.71838,430.39023 415.60118,438.19163 412.82348,452.33083 402.66448,459.18893 400.92648,483.37543 429.09858,459.71393 428.52488,478.78063 428.19228,489.83513 423.83128,495.75603 400.97288,495.20783 393.34398,536.66933 372.68368,541.42973 372.01068,568.66931 372.01068,590.00261 381.98458,584.49801 382.67738,600.66931 382.67738,611.33601 382.67738,611.33601 345.34398,611.33601 308.01068,611.33601 308.01068,611.33601 308.01068,600.66931 Z"
       style="fill:none;stroke:#ff0000;stroke-width:1.05599999;stroke-linecap:butt;stroke-linejoin:miter;stroke-miterlimit:4;stroke-dasharray:none;stroke-opacity:1" />
    <path
       style="fill:none;stroke:#ff0000;stroke-width:1.05599999;stroke-linecap:butt;stroke-linejoin:miter;stroke-miterlimit:4;stroke-dasharray:none;stroke-opacity:1"
       d="M 706.96976,479.42641 C 733.63643,468.75974 770.96976,452.75974 770.96976,452.75974 760.3031,452.75974 754.96976,452.75974 754.96976,436.75974 754.96976,415.42641 754.96976,388.75974 786.96976,378.09308 786.96976,378.09308 733.63643,362.09308 706.96976,351.42641 706.96976,308.75974 722.96976,292.75974 781.63643,292.75974 797.63643,319.42641 818.96976,356.75974 818.96976,356.75974 834.96976,346.09308 856.3031,346.09308 872.3031,356.75974 872.3031,356.75974 888.3031,319.42641 898.96976,292.75974 962.96976,292.75974 978.96976,308.75974 978.96976,351.42641 946.96976,362.09308 904.3031,378.09308 904.3031,378.09308 930.96976,394.09308 930.96976,415.42641 930.96976,436.75974 930.96976,452.75974 925.63643,452.75974 914.96976,452.75974 914.96976,452.75974 952.3031,468.75974 978.96976,479.42641 978.96976,527.42641 962.96976,548.75974 904.3031,548.75974 893.63643,516.75974 872.3031,468.75974 872.3031,468.75974 856.3031,468.75974 861.63643,479.42641 845.63643,479.42641 829.63643,479.42641 834.96976,468.75974 819.31422,468.61004 819.31422,468.61004 802.96976,500.75974 781.63643,548.75974 728.3031,548.75974 706.96976,532.75974 706.96976,479.42641 Z"
       id="path3963"
       inkscape:connector-curvature="0"
       sodipodi:nodetypes="cccccccccccccccccccc" />
    <path
       sodipodi:type="inkscape:offset"
       inkscape:radius="-2.2064621"
       inkscape:original="M 525.21289 -131.32031 C 499.29075 -130.5381 468.14438 -121.03405 448.16992 -117.78125 C 355.23733 -102.64755 321.50307 -78.819916 319.38086 -44.541016 C 303.79292 207.24269 304.31433 230.47651 321.91406 541.29688 C 322.66814 554.61435 341.53102 587.58407 380.80273 587.56836 C 720.92345 587.43233 929.2111 591.65566 1187.5137 595.28125 C 1213.4226 595.64492 1234.3765 570.3625 1236.002 544.52148 C 1255.1749 239.73451 1256.0672 220.30533 1244.7383 -30.076172 C 1241.2834 -106.43317 1126.3957 -109.03237 1064.7559 -122.38867 C 1016.2526 -132.89857 998.93466 -121.49385 999.71289 -83.435547 C 1000.4073 -49.476647 968.44875 -23.2793 942.18359 -25.5 C 808.59139 -36.7948 717.81442 -39.704219 628.98633 -28.886719 C 598.08872 -25.123919 569.80942 -55.329444 570.90234 -92.527344 C 571.83183 -124.16279 551.13503 -132.10253 525.21289 -131.32031 z "
       style="display:inline;fill:none;fill-rule:evenodd;stroke:#ff0000;stroke-width:1px;stroke-linecap:butt;stroke-linejoin:miter;stroke-opacity:1;enable-background:new"
       id="path4180"
       d="M 525.2793,-129.11523 C 499.84248,-128.34767 468.81366,-118.90742 448.52539,-115.60352 402.19861,-108.05938 370.74864,-98.327776 350.85352,-86.445312 330.95839,-74.562849 322.60248,-60.855557 321.58398,-44.404297 305.99675,207.36802 306.51767,230.35525 324.11719,541.17188 324.44133,546.89646 329.11113,558.32991 338.48828,567.88672 347.86543,577.44353 361.78448,585.36894 380.80273,585.36133 720.94208,585.22529 929.24972,589.44873 1187.5449,593.07422 1212.0021,593.41751 1232.2442,569.12809 1233.8008,544.38281 1252.9736,239.59743 1253.8616,220.39456 1242.5332,-29.976562 1241.6944,-48.51476 1234.2026,-62.340222 1222.3359,-73.207031 1210.4693,-84.07384 1194.1442,-91.882428 1175.8906,-97.757812 1139.3835,-109.50858 1095.3573,-113.50046 1064.2891,-120.23242 1040.252,-125.44088 1024.3265,-125.00321 1014.9043,-119.24219 1010.1932,-116.36167 1006.9371,-112.18607 1004.8008,-106.30273 1002.6645,-100.4194 1001.7269,-92.82556 1001.918,-83.480469 1002.2796,-65.797694 994.14742,-50.177298 982.57031,-39.292969 970.99321,-28.40864 955.93128,-22.122737 941.99805,-23.300781 808.45776,-34.591192 717.8558,-37.48722 629.25391,-26.697266 596.7893,-22.743632 567.5705,-54.242001 568.69727,-92.591797 569.14773,-107.92355 564.53396,-116.87148 556.85742,-122.27539 549.18089,-127.6793 537.9977,-129.49902 525.2793,-129.11523 Z"
       transform="matrix(-1.0682593,0.00932256,-0.00932256,-1.0682593,1362.178,878.7709)" />
    <path
       sodipodi:nodetypes="cczzcccccccc"
       inkscape:connector-curvature="0"
       id="path5292"
       d="M 842.14404,753.05257 C 849.25514,732.43035 861.11534,722.90766 877.07114,714.96924 860.03274,714.37433 844.69164,714.4238 844.82114,690.46924 844.95064,666.51468 872.45494,628.92871 868.44334,613.61071 864.43174,598.29271 847.14804,580.94235 859.16554,563.63947 877.72384,567.5498 887.56414,568.06428 903.14664,563.79568 916.30664,566.23106 917.65444,577.05257 917.65444,587.71924 944.32114,582.38591 986.68654,577.55878 986.55184,607.81309 985.77964,638.91 940.09304,606.39944 940.63094,642.61351 948.09894,665.55952 959.62584,676.5279 982.03524,684.32378 986.49344,713.39961 987.71564,721.89209 986.98774,753.05257 Z"
       style="fill:none;stroke:#ff0000;stroke-width:1.05599999;stroke-linecap:butt;stroke-linejoin:miter;stroke-miterlimit:4;stroke-dasharray:none;stroke-opacity:1" />
    <path
       sodipodi:nodetypes="csccsccccccsc"
       inkscape:connector-curvature="0"
       id="path5298"
       d="M 393.26317,751.39787 C 350.59647,751.39787 345.26313,751.39787 345.26313,746.06447 345.26313,730.06447 350.59647,730.06447 366.59647,730.06447 L 377.26317,682.06447 C 307.9298,703.39787 302.59647,682.06447 302.59647,671.39787 302.59647,660.73117 304.01869,641.88677 366.53809,651.43787 370.54007,644.76077 376.07537,642.89337 382.28537,642.76907 385.22067,617.90647 412.61297,615.78897 416.72977,643.48437 436.53757,649.26547 441.26317,655.39787 441.26317,671.39787 441.26317,682.06447 417.85567,682.46707 417.85567,682.46707 417.85567,682.46707 427.28627,701.58427 414.59647,730.06447 430.59647,730.06447 435.92977,730.06447 435.92977,746.06447 435.92977,751.39787 430.59647,751.39787 393.26317,751.39787 Z"
       style="fill:none;stroke:#ff0000;stroke-width:1.05599999;stroke-linecap:butt;stroke-linejoin:miter;stroke-miterlimit:4;stroke-dasharray:none;stroke-opacity:1" />
    <path
       style="fill:none;stroke:#ff0000;stroke-width:1.05599999;stroke-linecap:butt;stroke-linejoin:miter;stroke-miterlimit:4;stroke-dasharray:none;stroke-opacity:1"
       d="M 661.9523,759.64907 C 619.2857,759.64907 613.9523,759.64907 613.9523,754.31577 613.9523,738.31577 619.2857,738.31577 635.2857,738.31577 L 645.9523,690.31577 C 576.619,711.64907 571.2857,690.31577 571.2857,679.64907 571.2857,668.98247 572.7079,650.13797 635.2273,659.68917 639.2293,653.01207 644.7646,651.14457 650.9746,651.02027 653.9098,626.15767 681.3022,624.04027 685.419,651.73567 705.2268,657.51677 709.9523,663.64907 709.9523,679.64907 709.9523,690.31577 686.5449,690.71837 686.5449,690.71837 686.5449,690.71837 695.9755,709.83557 683.2857,738.31577 699.2857,738.31577 704.619,738.31577 704.619,754.31577 704.619,759.64907 699.2857,759.64907 661.9523,759.64907 Z"
       id="path5304"
       inkscape:connector-curvature="0"
       sodipodi:nodetypes="csccsccccccsc" />
    <path
       sodipodi:nodetypes="csccsccccccsc"
       inkscape:connector-curvature="0"
       id="path5310"
       d="M 548.43762,833.64907 C 505.77102,833.64907 500.43762,833.64907 500.43762,828.31577 500.43762,812.31577 505.77102,812.31577 521.77102,812.31577 L 532.43762,764.31577 C 463.10432,785.64907 457.77102,764.31577 457.77102,753.64907 457.77102,742.98247 459.19322,724.13797 521.71262,733.68917 525.71452,727.01207 531.24992,725.14457 537.45992,725.02027 540.39512,700.15767 567.78752,698.04027 571.90432,725.73567 591.71202,731.51677 596.43762,737.64907 596.43762,753.64907 596.43762,764.31577 573.03022,764.71837 573.03022,764.71837 573.03022,764.71837 582.46072,783.83557 569.77102,812.31577 585.77102,812.31577 591.10432,812.31577 591.10432,828.31577 591.10432,833.64907 585.77102,833.64907 548.43762,833.64907 Z"
       style="fill:none;stroke:#ff0000;stroke-width:1.05599999;stroke-linecap:butt;stroke-linejoin:miter;stroke-miterlimit:4;stroke-dasharray:none;stroke-opacity:1" />
  </g>
  <g
     inkscape:groupmode="layer"
     id="layer4"
     inkscape:label="Text"
     style="display:inline;filter:url(#filter5322)">
    <text
       xml:space="preserve"
       style="font-style:normal;font-variant:normal;font-weight:normal;font-stretch:normal;font-size:12.80000019px;line-height:0%;font-family:Helvetica;-inkscape-font-specification:'Helvetica, Normal';text-align:start;letter-spacing:0px;word-spacing:0px;writing-mode:lr-tb;text-anchor:start;display:inline;fill:#000000;fill-opacity:1;stroke:none;stroke-width:1.06666672px;stroke-linecap:butt;stroke-linejoin:miter;stroke-opacity:1"
       x="146.81944"
       y="416.47284"
       id="text5217"
       sodipodi:linespacing="0%"><tspan
         sodipodi:role="line"
         id="tspan5219"
         x="146.81944"
         y="416.47284"
         style="font-size:10.66666698px;line-height:1.25;stroke-width:1.06666672px">Mancubus</tspan></text>
    <text
       xml:space="preserve"
       style="font-style:normal;font-variant:normal;font-weight:normal;font-stretch:normal;font-size:12.80000019px;line-height:0%;font-family:Helvetica;-inkscape-font-specification:'Helvetica, Normal';text-align:start;letter-spacing:0px;word-spacing:0px;writing-mode:lr-tb;text-anchor:start;display:inline;fill:#000000;fill-opacity:1;stroke:none;stroke-width:1.06666672px;stroke-linecap:butt;stroke-linejoin:miter;stroke-opacity:1"
       x="473.16895"
       y="149.85258"
       id="text5221"
       sodipodi:linespacing="0%"><tspan
         sodipodi:role="line"
         id="tspan5223"
         x="473.16895"
         y="149.85258"
         style="font-size:10.66666698px;line-height:1.25;stroke-width:1.06666672px">Arch-Vile</tspan></text>
    <text
       xml:space="preserve"
       style="font-style:normal;font-variant:normal;font-weight:normal;font-stretch:normal;font-size:12.80000019px;line-height:0%;font-family:Helvetica;-inkscape-font-specification:'Helvetica, Normal';text-align:start;letter-spacing:0px;word-spacing:0px;writing-mode:lr-tb;text-anchor:start;display:inline;fill:#000000;fill-opacity:1;stroke:none;stroke-width:1.06666672px;stroke-linecap:butt;stroke-linejoin:miter;stroke-opacity:1"
       x="140.55103"
       y="161.96362"
       id="text5225"
       sodipodi:linespacing="0%"><tspan
         sodipodi:role="line"
         id="tspan5227"
         x="140.55103"
         y="161.96362"
         style="font-size:10.66666698px;line-height:1.25;stroke-width:1.06666672px">Cyberdemon</tspan></text>
    <text
       xml:space="preserve"
       style="font-style:normal;font-variant:normal;font-weight:normal;font-stretch:normal;font-size:12.80000019px;line-height:0%;font-family:Helvetica;-inkscape-font-specification:'Helvetica, Normal';text-align:start;letter-spacing:0px;word-spacing:0px;writing-mode:lr-tb;text-anchor:start;display:inline;fill:#000000;fill-opacity:1;stroke:none;stroke-width:1.06666672px;stroke-linecap:butt;stroke-linejoin:miter;stroke-opacity:1"
       x="815.9115"
       y="181.17937"
       id="text5229"
       sodipodi:linespacing="0%"><tspan
         sodipodi:role="line"
         id="tspan5231"
         x="815.9115"
         y="181.17937"
         style="font-size:10.66666698px;line-height:1.25;stroke-width:1.06666672px">Arachnotron</tspan></text>
    <text
       xml:space="preserve"
       style="font-style:normal;font-variant:normal;font-weight:normal;font-stretch:normal;font-size:12.80000019px;line-height:0%;font-family:Helvetica;-inkscape-font-specification:'Helvetica, Normal';text-align:start;letter-spacing:0px;word-spacing:0px;writing-mode:lr-tb;text-anchor:start;display:inline;fill:#000000;fill-opacity:1;stroke:none;stroke-width:1.06666672px;stroke-linecap:butt;stroke-linejoin:miter;stroke-opacity:1"
       x="316.50146"
       y="248.08704"
       id="text5253"
       sodipodi:linespacing="0%"><tspan
         sodipodi:role="line"
         id="tspan5255"
         x="316.50146"
         y="248.08704"
         style="font-size:10.66666698px;line-height:1.25;stroke-width:1.06666672px">Pain Elemental</tspan></text>
    <text
       xml:space="preserve"
       style="font-style:normal;font-variant:normal;font-weight:normal;font-stretch:normal;font-size:12.80000019px;line-height:0%;font-family:Helvetica;-inkscape-font-specification:'Helvetica, Normal';text-align:start;letter-spacing:0px;word-spacing:0px;writing-mode:lr-tb;text-anchor:start;display:inline;fill:#000000;fill-opacity:1;stroke:none;stroke-width:1.06666672px;stroke-linecap:butt;stroke-linejoin:miter;stroke-opacity:1"
       x="746.63861"
       y="383.95514"
       id="text5249"
       sodipodi:linespacing="0%"><tspan
         sodipodi:role="line"
         id="tspan5251"
         x="746.63861"
         y="383.95514"
         style="font-size:10.66666698px;line-height:1.25;stroke-width:1.06666672px">Cacodemon</tspan></text>
    <text
       xml:space="preserve"
       style="font-style:normal;font-variant:normal;font-weight:normal;font-stretch:normal;font-size:12.80000019px;line-height:0%;font-family:Helvetica;-inkscape-font-specification:'Helvetica, Normal';text-align:start;letter-spacing:0px;word-spacing:0px;writing-mode:lr-tb;text-anchor:start;display:inline;fill:#000000;fill-opacity:1;stroke:none;stroke-width:1.06666672px;stroke-linecap:butt;stroke-linejoin:miter;stroke-opacity:1"
       x="619.52612"
       y="160.77065"
       id="text5245"
       sodipodi:linespacing="0%"><tspan
         sodipodi:role="line"
         id="tspan5247"
         x="619.52612"
         y="160.77065"
         style="font-size:10.66666698px;line-height:1.25;stroke-width:1.06666672px">Lost Soul</tspan></text>
    <text
       xml:space="preserve"
       style="font-style:normal;font-variant:normal;font-weight:normal;font-stretch:normal;font-size:12.80000019px;line-height:0%;font-family:Helvetica;-inkscape-font-specification:'Helvetica, Normal';text-align:start;letter-spacing:0px;word-spacing:0px;writing-mode:lr-tb;text-anchor:start;display:inline;fill:#000000;fill-opacity:1;stroke:none;stroke-width:1.06666672px;stroke-linecap:butt;stroke-linejoin:miter;stroke-opacity:1"
       x="101.45839"
       y="621.56256"
       id="text5241"
       sodipodi:linespacing="0%"><tspan
         sodipodi:role="line"
         id="tspan5243"
         x="101.45839"
         y="621.56256"
         style="font-size:10.66666698px;line-height:1.25;stroke-width:1.06666672px">Baron of Hell</tspan></text>
    <text
       xml:space="preserve"
       style="font-style:normal;font-variant:normal;font-weight:normal;font-stretch:normal;font-size:12.80000019px;line-height:0%;font-family:Helvetica;-inkscape-font-specification:'Helvetica, Normal';text-align:start;letter-spacing:0px;word-spacing:0px;writing-mode:lr-tb;text-anchor:start;display:inline;fill:#000000;fill-opacity:1;stroke:none;stroke-width:1.06666672px;stroke-linecap:butt;stroke-linejoin:miter;stroke-opacity:1"
       x="618.6579"
       y="315.2244"
       id="text5237"
       sodipodi:linespacing="0%"><tspan
         sodipodi:role="line"
         id="tspan5239"
         x="618.6579"
         y="315.2244"
         style="font-size:10.66666698px;line-height:1.25;stroke-width:1.06666672px">Demon</tspan></text>
    <text
       xml:space="preserve"
       style="font-style:normal;font-variant:normal;font-weight:normal;font-stretch:normal;font-size:12.80000019px;line-height:0%;font-family:Helvetica;-inkscape-font-specification:'Helvetica, Normal';text-align:start;letter-spacing:0px;word-spacing:0px;writing-mode:lr-tb;text-anchor:start;display:inline;fill:#000000;fill-opacity:1;stroke:none;stroke-width:1.06666672px;stroke-linecap:butt;stroke-linejoin:miter;stroke-opacity:1"
       x="274.26041"
       y="570.40015"
       id="text5257"
       sodipodi:linespacing="0%"><tspan
         sodipodi:role="line"
         id="tspan5259"
         x="274.26041"
         y="570.40015"
         style="font-size:10.66666698px;line-height:1.25;stroke-width:1.06666672px">Imp</tspan></text>
    <text
       xml:space="preserve"
       style="font-style:normal;font-variant:normal;font-weight:normal;font-stretch:normal;font-size:12.80000019px;line-height:0%;font-family:Helvetica;-inkscape-font-specification:'Helvetica, Normal';text-align:start;letter-spacing:0px;word-spacing:0px;writing-mode:lr-tb;text-anchor:start;display:inline;fill:#000000;fill-opacity:1;stroke:none;stroke-width:1.06666672px;stroke-linecap:butt;stroke-linejoin:miter;stroke-opacity:1"
       x="617.9812"
       y="584.48254"
       id="text5265"
       sodipodi:linespacing="0%"><tspan
         sodipodi:role="line"
         id="tspan5267"
         x="617.9812"
         y="584.48254"
         style="font-size:10.66666698px;line-height:1.25;stroke-width:1.06666672px">Zombieman</tspan></text>
    <text
       xml:space="preserve"
       style="font-style:normal;font-variant:normal;font-weight:normal;font-stretch:normal;font-size:12.80000019px;line-height:0%;font-family:Helvetica;-inkscape-font-specification:'Helvetica, Normal';text-align:start;letter-spacing:0px;word-spacing:0px;writing-mode:lr-tb;text-anchor:start;display:inline;fill:#000000;fill-opacity:1;stroke:none;stroke-width:1.06666672px;stroke-linecap:butt;stroke-linejoin:miter;stroke-opacity:1"
       x="495.54568"
       y="363.04663"
       id="text5261"
       sodipodi:linespacing="0%"><tspan
         sodipodi:role="line"
         id="tspan5263"
         x="495.54568"
         y="363.04663"
         style="font-size:10.66666698px;line-height:1.25;stroke-width:1.06666672px">Marine</tspan></text>
    <text
       xml:space="preserve"
       style="font-style:normal;font-variant:normal;font-weight:normal;font-stretch:normal;font-size:12.80000019px;line-height:0%;font-family:Helvetica;-inkscape-font-specification:'Helvetica, Normal';text-align:start;letter-spacing:0px;word-spacing:0px;writing-mode:lr-tb;text-anchor:start;display:inline;fill:#000000;fill-opacity:1;stroke:none;stroke-width:1.06666672px;stroke-linecap:butt;stroke-linejoin:miter;stroke-opacity:1"
       x="378.31665"
       y="578.93805"
       id="text5269"
       sodipodi:linespacing="0%"><tspan
         sodipodi:role="line"
         id="tspan5271"
         x="378.31665"
         y="578.93805"
         style="font-size:10.66666698px;line-height:1.25;stroke-width:1.06666672px">Shotgun Guy</tspan></text>
    <text
       xml:space="preserve"
       style="font-style:normal;font-variant:normal;font-weight:normal;font-stretch:normal;font-size:12.80000019px;line-height:0%;font-family:Helvetica;-inkscape-font-specification:'Helvetica, Normal';text-align:start;letter-spacing:0px;word-spacing:0px;writing-mode:lr-tb;text-anchor:start;display:inline;fill:#000000;fill-opacity:1;stroke:none;stroke-width:1.06666672px;stroke-linecap:butt;stroke-linejoin:miter;stroke-opacity:1"
       x="753.56567"
       y="580.56787"
       id="text5273"
       sodipodi:linespacing="0%"><tspan
         sodipodi:role="line"
         id="tspan5275"
         x="753.56567"
         y="580.56787"
         style="font-size:10.66666698px;line-height:1.25;stroke-width:1.06666672px">Chaingunner</tspan></text>
    <text
       xml:space="preserve"
       style="font-style:normal;font-variant:normal;font-weight:normal;font-stretch:normal;font-size:12.80000019px;line-height:0%;font-family:Helvetica;-inkscape-font-specification:'Helvetica, Normal';text-align:start;letter-spacing:0px;word-spacing:0px;writing-mode:lr-tb;text-anchor:start;display:inline;fill:#000000;fill-opacity:1;stroke:none;stroke-width:1.06666672px;stroke-linecap:butt;stroke-linejoin:miter;stroke-opacity:1"
       x="871.75006"
       y="605.99207"
       id="text5233"
       sodipodi:linespacing="0%"><tspan
         sodipodi:role="line"
         id="tspan5235"
         x="871.75006"
         y="605.99207"
         style="font-size:10.66666698px;line-height:1.25;stroke-width:1.06666672px">Revenant</tspan></text>
    <a
       id="a5338"
       style="display:inline;filter:url(#filter5322-4)"
       transform="translate(-9.8803248,3.5307607)">
      <text
         xml:space="preserve"
         style="font-style:normal;font-variant:normal;font-weight:normal;font-stretch:normal;font-size:12.80000019px;line-height:0%;font-family:Helvetica;-inkscape-font-specification:'Helvetica, Normal';text-align:start;letter-spacing:0px;word-spacing:0px;writing-mode:lr-tb;text-anchor:start;fill:#000000;fill-opacity:1;stroke:none;stroke-width:1.06666672px;stroke-linecap:butt;stroke-linejoin:miter;stroke-opacity:1"
         x="328.53333"
         y="724.26666"
         id="text5326"
         sodipodi:linespacing="0%"><tspan
           id="tspan4779"
           style="font-size:16px;line-height:1.25;stroke-width:1.06666672px"
           sodipodi:role="line"
           x="328.53333"
           y="724.26666">Modified laser cutting design for a &quot;more complete&quot; cast</tspan><tspan
           id="tspan4783"
           style="font-size:16px;line-height:1.25;stroke-width:1.06666672px"
           sodipodi:role="line"
           x="328.53333"
           y="744.26666">that includes four marines and the Hell Knight.</tspan></text>
    </a>
    <text
       sodipodi:linespacing="0%"
       id="text5294"
       y="425.72198"
       x="868.78204"
       style="font-style:normal;font-variant:normal;font-weight:normal;font-stretch:normal;font-size:12.80000019px;line-height:0%;font-family:Helvetica;-inkscape-font-specification:'Helvetica, Normal';text-align:start;letter-spacing:0px;word-spacing:0px;writing-mode:lr-tb;text-anchor:start;display:inline;fill:#000000;fill-opacity:1;stroke:none;stroke-width:1.06666672px;stroke-linecap:butt;stroke-linejoin:miter;stroke-opacity:1"
       xml:space="preserve"><tspan
         style="font-size:10.66666698px;line-height:1.25;stroke-width:1.06666672px"
         y="425.72198"
         x="868.78204"
         id="tspan5296"
         sodipodi:role="line">Hell Knight</tspan></text>
    <text
       sodipodi:linespacing="0%"
       id="text5300"
       y="429.83194"
       x="381.00296"
       style="font-style:normal;font-variant:normal;font-weight:normal;font-stretch:normal;font-size:12.80000019px;line-height:0%;font-family:Helvetica;-inkscape-font-specification:'Helvetica, Normal';text-align:start;letter-spacing:0px;word-spacing:0px;writing-mode:lr-tb;text-anchor:start;display:inline;fill:#000000;fill-opacity:1;stroke:none;stroke-width:1.06666672px;stroke-linecap:butt;stroke-linejoin:miter;stroke-opacity:1"
       xml:space="preserve"><tspan
         style="font-size:10.66666698px;line-height:1.25;stroke-width:1.06666672px"
         y="429.83194"
         x="381.00296"
         id="tspan5302"
         sodipodi:role="line">Marine</tspan></text>
    <text
       xml:space="preserve"
       style="font-style:normal;font-variant:normal;font-weight:normal;font-stretch:normal;font-size:12.80000019px;line-height:0%;font-family:Helvetica;-inkscape-font-specification:'Helvetica, Normal';text-align:start;letter-spacing:0px;word-spacing:0px;writing-mode:lr-tb;text-anchor:start;display:inline;fill:#000000;fill-opacity:1;stroke:none;stroke-width:1.06666672px;stroke-linecap:butt;stroke-linejoin:miter;stroke-opacity:1"
       x="649.69226"
       y="438.08325"
       id="text5306"
       sodipodi:linespacing="0%"><tspan
         sodipodi:role="line"
         id="tspan5308"
         x="649.69226"
         y="438.08325"
         style="font-size:10.66666698px;line-height:1.25;stroke-width:1.06666672px">Marine</tspan></text>
    <text
       sodipodi:linespacing="0%"
       id="text5312"
       y="512.08325"
       x="536.17755"
       style="font-style:normal;font-variant:normal;font-weight:normal;font-stretch:normal;font-size:12.80000019px;line-height:0%;font-family:Helvetica;-inkscape-font-specification:'Helvetica, Normal';text-align:start;letter-spacing:0px;word-spacing:0px;writing-mode:lr-tb;text-anchor:start;display:inline;fill:#000000;fill-opacity:1;stroke:none;stroke-width:1.06666672px;stroke-linecap:butt;stroke-linejoin:miter;stroke-opacity:1"
       xml:space="preserve"><tspan
         style="font-size:10.66666698px;line-height:1.25;stroke-width:1.06666672px"
         y="512.08325"
         x="536.17755"
         id="tspan5314"
         sodipodi:role="line">Marine</tspan></text>
  </g>
</svg>
