<?xml version="1.0" encoding="UTF-8" standalone="no"?>
<!-- Created with Inkscape (http://www.inkscape.org/) -->

<svg
   xmlns:dc="http://purl.org/dc/elements/1.1/"
   xmlns:cc="http://creativecommons.org/ns#"
   xmlns:rdf="http://www.w3.org/1999/02/22-rdf-syntax-ns#"
   xmlns:svg="http://www.w3.org/2000/svg"
   xmlns="http://www.w3.org/2000/svg"
   xmlns:sodipodi="http://sodipodi.sourceforge.net/DTD/sodipodi-0.dtd"
   xmlns:inkscape="http://www.inkscape.org/namespaces/inkscape"
   width="1056"
   height="816"
   id="svg2985"
   version="1.1"
   inkscape:version="0.92.2 5c3e80d, 2017-08-06"
   sodipodi:docname="expanded.svg"
   style="enable-background:new">
  <defs
     id="defs2987">
    <filter
       inkscape:collect="always"
       style="color-interpolation-filters:sRGB"
       id="filter5322">
      <feBlend
         inkscape:collect="always"
         mode="lighten"
         in2="BackgroundImage"
         id="feBlend5324" />
    </filter>
  </defs>
  <sodipodi:namedview
     inkscape:document-units="in"
     pagecolor="#ffffff"
     bordercolor="#666666"
     borderopacity="1.0"
     inkscape:pageopacity="0.0"
     inkscape:pageshadow="2"
     inkscape:zoom="1.4142136"
     inkscape:cx="533.93295"
     inkscape:cy="279.0365"
     inkscape:current-layer="layer1"
     id="namedview2989"
     showgrid="true"
     units="in"
     inkscape:window-width="1390"
     inkscape:window-height="856"
     inkscape:window-x="0"
     inkscape:window-y="0"
     inkscape:window-maximized="1"
     inkscape:snap-global="false">
    <inkscape:grid
       type="xygrid"
       id="grid3008"
       originx="0"
       originy="0"
       spacingx="4.0314961"
       spacingy="4.0314961" />
  </sodipodi:namedview>
  <metadata
     id="metadata2991">
    <rdf:RDF>
      <cc:Work
         rdf:about="">
        <dc:format>image/svg+xml</dc:format>
        <dc:type
           rdf:resource="http://purl.org/dc/dcmitype/StillImage" />
        <dc:title />
      </cc:Work>
    </rdf:RDF>
  </metadata>
  <g
     inkscape:groupmode="layer"
     id="layer3"
     inkscape:label="Bottom"
     style="display:inline">
    <path
       style="fill:none;stroke:#0000ff;stroke-width:1.06666672px;stroke-linecap:butt;stroke-linejoin:miter;stroke-opacity:1"
       d="m 736.28124,242.82577 c 26.66667,-10.66666 64,-26.66666 64,-26.66666 17.30481,10.53653 17.49296,14.67658 48.34446,15.85024 0,0 -16.34446,32.14976 -37.67779,80.14976 -53.33333,0 -74.66667,-16 -74.66667,-69.33334 z"
       id="path3963-0"
       inkscape:connector-curvature="0"
       sodipodi:nodetypes="ccccc" />
    <g
       id="layer1-8-16"
       inkscape:label="Layer 1"
       transform="translate(10.149457,-239.929)"
       style="stroke:#0000ff;stroke-opacity:1">
      <path
         sodipodi:nodetypes="csccscscscsccsc"
         inkscape:connector-curvature="0"
         id="path4512-10"
         d="m 293.84832,1034.593 -192,-26.6667 C 35.875181,998.76337 37.848319,1002.593 37.848319,938.59297 V 341.25964 c 0,-48 21.333184,-68.19945 64.745141,-68.25375 l 863.25486,-1.07958 c 37.33338,0 59.07688,21.33333 58.66668,64 l -5.8525,608.70935 c -0.5731,60.86834 -5.9423,58.09834 -47.48085,63.29064 l -213.33333,26.6667 c -0.62585,-64.82462 0,-48.00003 0,-64.00003 0,-26.66667 -21.33333,-48 -48,-48 l -368,10e-6 c -26.66667,0 -48,21.33333 -48,48 0,15.97428 0.14295,-0.44148 0,64.00002 z"
         style="fill:none;stroke:#0000ff;stroke-width:1.06666672px;stroke-linecap:butt;stroke-linejoin:miter;stroke-opacity:1" />
    </g>
    <circle
       r="16.296694"
       cy="303.47955"
       cx="520.63538"
       style="opacity:0.95979716;fill:none;stroke:#0000ff;stroke-width:1.00661194;stroke-miterlimit:4;stroke-dasharray:none;stroke-opacity:1"
       id="path3008" />
    <path
       sodipodi:nodetypes="ccccc"
       inkscape:connector-curvature="0"
       id="path3800"
       d="m 816.38154,141.72796 c 0,0 -53.33333,-16 -80,-26.66663 0,-42.666674 16,-58.666674 74.66667,-58.666674 16,26.666667 37.33333,63.999974 37.33333,63.999974 -14.80227,4.21536 -26.10523,13.93738 -32,21.33333 z"
       style="fill:none;stroke:#0000ff;stroke-width:1.06666672px;stroke-linecap:butt;stroke-linejoin:miter;stroke-opacity:1" />
    <path
       style="fill:none;stroke:#0000ff;stroke-width:1.06666672px;stroke-linecap:butt;stroke-linejoin:miter;stroke-opacity:1"
       d="m 944.28125,216.15911 c 0,0 37.33334,16 64.00005,26.66666 0,48 -16.00005,69.33334 -74.66671,69.33334 -10.66667,-32 -32,-80 -32,-80 15.04679,-1.448 31.87883,-4.42699 42.66666,-16 z"
       id="path3802"
       inkscape:connector-curvature="0"
       sodipodi:nodetypes="ccccc" />
    <path
       sodipodi:nodetypes="ccccc"
       inkscape:connector-curvature="0"
       id="path3804"
       d="m 901.61403,120.14577 c 0,0 16,-37.333354 26.66667,-64.00002 64,0 80,16 80,58.66667 -32,10.66669 -74.66667,26.66669 -74.66667,26.66669 -4.71193,-7.78603 -16.20339,-17.93675 -32,-21.33334 z"
       style="fill:none;stroke:#0000ff;stroke-width:1.06666672px;stroke-linecap:butt;stroke-linejoin:miter;stroke-opacity:1" />
    <text
       xml:space="preserve"
       style="font-style:normal;font-variant:normal;font-weight:normal;font-stretch:normal;font-size:12.80000019px;line-height:0%;font-family:Helvetica;-inkscape-font-specification:'Helvetica, Normal';text-align:start;letter-spacing:0px;word-spacing:0px;writing-mode:lr-tb;text-anchor:start;fill:#000000;fill-opacity:1;stroke:none;stroke-width:1.06666672px;stroke-linecap:butt;stroke-linejoin:miter;stroke-opacity:1"
       x="611.88843"
       y="356.94724"
       id="text5079"><tspan
         sodipodi:role="line"
         id="tspan5081"
         x="611.88843"
         y="356.94724"
         style="font-size:16px;line-height:1.25;stroke-width:1.06666672px"> </tspan></text>
  </g>
  <g
     inkscape:groupmode="layer"
     id="layer2"
     inkscape:label="Middle"
     style="display:inline">
    <path
       style="fill:none;stroke:#00ff00;stroke-width:1.06666672px;stroke-linecap:butt;stroke-linejoin:miter;stroke-opacity:1"
       d="m 283.55586,315.91659 c -48.39485,0.34178 -109.32687,-0.0266 -178.52002,-0.0702 -8.618758,-0.005 -4.50143,-22.30509 5.38627,-21.69062 -13.728818,-27.81154 -9.49056,-59.47755 -21.589318,-57.99606 -2.35063,-7.26915 -0.50479,9.67426 0.17777,-15.41003 36.453028,-16.65482 42.287598,-2.67055 41.644718,-25.69061 -1.31013,-46.9129 -2.61001,-100.393547 34.59515,-102.074977 -16.59792,-31.854528 -0.53355,-39.938731 35.90546,-41.088224 32.86274,-0.649312 55.12003,3.802091 54.63724,26.044224 0.0506,19.13103 -18.56061,13.12349 -23.76642,29.022577 0.11045,15.70457 84.55188,11.97459 121.20216,19.77501 l 0.60044,47.65512 c -62.5967,0.54264 -89.07532,0.65495 -153.51111,-0.0592 0,0 -6.62008,14.44319 -2.06319,17.23094 21.06154,12.88471 21.73484,36.86441 43.40094,56.7453 20.65125,18.94966 41.40085,43.32453 41.89991,67.60677 z"
       id="path3892-3"
       inkscape:connector-curvature="0"
       sodipodi:nodetypes="cscccscccccccsscc" />
    <path
       style="fill:none;stroke:#00ff00;stroke-width:1.06666672px;stroke-linecap:butt;stroke-linejoin:miter;stroke-opacity:1"
       d="m 560.2205,242.86479 c 7.11111,-20.62222 13.53936,-29.39491 26.66666,-37.33333 -17.03842,-0.59492 -31.53615,-4.98345 -32,-16 0.27526,-21.24043 2.8253,-23.82752 16.38236,-34.88631 4.84625,-3.21524 17.39542,-18.44703 17.39542,-34.44703 0,-10.66666 -4.69697,-9.94465 -5.15555,-27.775201 5.83589,-21.52839 -15.72703,-17.44756 -1.77778,-38.97123 20.84706,4.30416 28.39859,4.42481 43.98106,0.1562 13.16,2.43538 14.50783,13.2569 14.50783,23.92357 26.66666,-5.33334 69.03211,-10.16046 68.89737,20.09385 -0.77221,31.096911 -46.45881,-1.41365 -45.9209,34.800421 7.46805,22.946 18.99493,33.91439 41.40435,41.71027 4.45814,29.07583 5.6804,37.56831 4.95251,68.72879 -58.66667,0 -96,0 -149.33333,0 z"
       id="path3947-7"
       inkscape:connector-curvature="0"
       sodipodi:nodetypes="cccccccccccccc" />
    <path
       style="fill:none;stroke:#00ff00;stroke-width:1.06666672px;stroke-linecap:butt;stroke-linejoin:miter;stroke-opacity:1"
       d="m 855.29473,472.56096 c -33.77777,0 -41.95555,0 -41.95555,-10.6667 0,-10.66662 10.66666,-10.66662 15.99999,-10.66662 68.88232,0.22812 68.38397,0.38308 68.7565,11.67232 -0.35555,10.0344 0.0709,9.661 -42.80094,9.661 z"
       id="path3951-5"
       inkscape:connector-curvature="0"
       sodipodi:nodetypes="ccccc" />
    <path
       style="fill:none;stroke:#00ff00;stroke-width:1.06666672px;stroke-linecap:butt;stroke-linejoin:miter;stroke-opacity:1"
       d="m 667.64643,418.62985 c -43.59944,-0.41569 -67.48191,3.02095 -67.12636,-11.24313 -0.16111,-6.42008 11.08549,-10.86964 26.81917,-11.00699 -4.07048,-12.64415 -3.41656,-10.31787 -2.46361,-28.54858 -18.33134,-3.58267 -43.82426,34.25292 -48.71111,3.2889 -3.65328,-15.47556 4.75303,-25.09738 41.33333,-35.73333 -5.93531,-26.12063 -11.70279,-28.08635 -3.28889,-46.57779 8.53749,-10.87779 16.6371,-11.81889 42.66667,-12.8 20.29178,-10.00621 25.65667,-11.44414 40.35555,0 11.83731,1.80821 25.5813,3.18662 33.06667,12.53333 11.50014,14.35982 7.30435,24.90307 1.24444,55.37779 35.37686,-0.48046 46.35286,1.09292 45.06667,23.37777 -3.97411,18.38447 -19.22283,11.05709 -45.24445,9.15556 -15.52944,-5.78903 -14.39715,1.7012 -17.79303,19.80698 11.2978,0.67548 22.10849,2.96126 22.23748,11.12635 -0.27439,13.61051 -29.54769,10.83544 -68.16253,11.24314 z"
       id="path3953-2"
       inkscape:connector-curvature="0"
       sodipodi:nodetypes="cccccccccccccccc" />
    <path
       style="fill:none;stroke:#00ff00;stroke-width:1.06666672px;stroke-linecap:butt;stroke-linejoin:miter;stroke-opacity:1"
       d="m 901.80188,743.89466 c -37.402,-0.34884 -82.0041,0.73978 -81.0705,-4.15947 -0.4771,-12.36315 15.8598,-15.01718 38.0784,-16.55029 11.3099,-71.21855 21.1828,-62.85938 27.3254,-97.2979 -2.988,-26.00988 -64.5831,-68.64059 -83.0965,-94.69007 -11.2032,-19.55515 -0.6747,-37.75644 14.315,-38.70322 46.1716,-1.18976 46.7791,32.38824 33.4456,45.77247 6.2997,9.06548 20.5677,22.69501 32.9281,31.52677 -21.5844,-57.00964 59.0546,-57.56503 40.5725,0.79739 18.2342,-14.46363 13.0295,-8.14468 35.3908,-31.64048 -13.0413,-13.78754 -25.1267,-46.09538 25.4771,-46.00385 16.24902,-0.10904 29.86112,15.66985 17.74642,35.1908 -40.69482,62.20184 -82.15372,73.98496 -82.16462,98.41817 0.6124,32.34964 19.8662,28.24609 31.2744,97.25474 23.043,-0.23456 33.453,2.93346 33.4614,16.18953 -0.1897,5.9968 -36.9547,2.13426 -83.6835,3.89541 z"
       id="path3955-2"
       inkscape:connector-curvature="0"
       sodipodi:nodetypes="cccccccccccccccc" />
    <path
       style="fill:none;stroke:#00ff00;stroke-width:1.06666672px;stroke-linecap:butt;stroke-linejoin:miter;stroke-opacity:1"
       d="m 497.39683,402.25718 c -37.33333,0 -48,0 -48,-10.6667 0.003,-31.6741 -4.99189,-48.2023 -3.34468,-77.1759 -0.65206,-9.23084 -14.26055,-6.4074 -12.65532,-13.49077 2.53388,-7.78344 15.52735,-19.23811 27.98013,-11.44142 9.96365,2.70166 12.065,-15.94708 59.41822,-15.27535 19.86031,-2.10246 15.98971,-5.23647 31.40974,8.00696 10.48429,12.26473 6.63876,16.23437 14.64311,33.12218 0.8671,9.3544 1.59606,30.4409 -10.03397,30.1967 -20.56028,-0.9306 -26.0019,-10.2043 -42.13326,-3.4699 -8.81714,3.6808 -11.31926,3.9372 -12.52873,19.8692 0.5781,13.6583 0.5781,18.9916 16.5781,18.9916 15.76563,0.033 26.66666,0 26.66666,10.6667 0,10.6667 -10.66666,10.6667 -48,10.6667 z"
       id="path3957-9"
       inkscape:connector-curvature="0"
       sodipodi:nodetypes="cccccccccccccc" />
    <path
       style="fill:none;stroke:#00ff00;stroke-width:1.06666672px;stroke-linecap:butt;stroke-linejoin:miter;stroke-opacity:1"
       d="m 143.44264,531.27878 c -32,0 -32,0 -32,-10.6667 0,-21.3333 7.89069,-17.7242 10.66667,-32 3.67023,-15.9107 1.93125,-20.3949 6.14118,-37.8361 -26.66666,0 -31.2295,-31.24712 -35.51981,-46.99436 -5.33334,-32 5.04311,-62.78354 17.01605,-63.66614 11.29952,-0.18025 6.57006,18.63525 41.4836,17.22198 40.06723,0.0753 21.33901,-20.28158 35.07249,-20.23895 22.9337,-0.11821 26.37466,43.94639 26.47316,66.18029 0,37.33328 -15.59099,42.74038 -32.13001,46.20258 -11.02813,16.9231 -16.68535,22.9569 -15.86999,39.1307 0,16 10.66666,10.6667 10.66666,32 0,10.6667 0,10.6667 -32,10.6667 z"
       id="path3959-8"
       inkscape:connector-curvature="0"
       sodipodi:nodetypes="ccccccccccccc" />
    <path
       sodipodi:nodetypes="cccccccccscccsc"
       inkscape:connector-curvature="0"
       id="path3961-7"
       d="m 126.09236,730.50147 c 10.66667,-21.3333 10.66667,-10.6666 18.06202,-30.7354 8.60465,-17.2646 13.93798,-33.2646 4.9026,-43.7463 -16.38013,-21.39322 -57.14685,-14.16674 -56.55249,-26.91187 0.78706,-27.44583 17.58787,0.0603 28.25454,-31.93971 -16.59571,-5.01358 -8.33302,-32.59386 3.29483,-28.66013 11.29952,-0.9345 12.63607,3.76228 44.70517,-3.33987 39.6901,3.0923 41.83309,-9.13673 51.04109,-4.94574 13.88272,7.80138 11.10509,21.9406 0.94609,28.7987 -1.73804,24.18643 26.43409,0.52494 25.86039,19.59169 -0.3327,11.05447 -4.6936,16.97535 -27.55201,16.42721 -7.62889,41.46142 -28.28919,46.22182 -28.96223,73.46142 0,21.3334 9.97392,15.8287 10.66667,32 0,10.6667 0,10.6667 -37.33333,10.6667 -37.33334,0 -37.33334,0 -37.33334,-10.6667 z"
       style="fill:none;stroke:#00ff00;stroke-width:1.06666672px;stroke-linecap:butt;stroke-linejoin:miter;stroke-opacity:1" />
    <path
       style="fill:none;stroke:#00ff00;stroke-width:1.06666672px;stroke-linecap:butt;stroke-linejoin:miter;stroke-opacity:1"
       d="m 736.29286,242.82086 c 26.66667,-10.66667 64,-26.66667 64,-26.66667 -10.66667,0 -16,0 -16,-16 0,-21.33333 0,-48 32,-58.66667 0,0 -53.33333,-16 -80,-26.66666 0,-42.666673 16,-58.666673 74.66667,-58.666673 16,26.666667 37.33333,64.000003 37.33333,64.000003 16,-10.66667 37.33333,-10.66667 53.33333,0 0,0 16,-37.333336 26.66667,-64.000003 64,0 80.00004,16 80.00004,58.666673 -32.00004,10.66666 -74.66671,26.66666 -74.66671,26.66666 26.66667,16 26.66667,37.33334 26.66667,58.66667 0,16 -5.33333,16 -16,16 0,0 37.33333,16 64.00004,26.66667 0,48 -16.00004,69.33333 -74.66671,69.33333 -10.66666,-32 -32,-80 -32,-80 -16,0 -10.66666,10.66667 -26.66666,10.66667 -16,0 -10.66667,-10.66667 -26.32221,-10.81638 0,0 -16.34446,32.14971 -37.67779,80.14971 -53.33334,0 -74.66667,-16 -74.66667,-69.33333 z"
       id="path3963-5"
       inkscape:connector-curvature="0"
       sodipodi:nodetypes="cccccccccccccccccccc" />
    <g
       id="layer1-8-1"
       inkscape:label="Layer 1"
       transform="translate(10.161067,-239.93388)"
       style="stroke:#00ff00;stroke-opacity:1">
      <path
         sodipodi:nodetypes="csccscscscsccsc"
         inkscape:connector-curvature="0"
         id="path4512-1"
         d="M 293.84832,1044.5485 76.706746,1017.8819 c -66.109755,-8.1188 -64,-5.3334 -64,-69.33338 V 341.25964 c 0,-48 21.33318,-68.20182 64.745141,-68.25375 l 902.618653,-1.07958 c 37.33336,0 59.07026,21.33327 58.66666,64 l -5.8525,618.6649 c -0.5731,60.86829 -5.9036,58.41829 -47.48083,63.29069 l -227.55555,26.6666 c -0.62585,-64.82456 0,-47.99998 0,-63.99998 0,-26.66666 -21.33333,-48 -48,-48 l -368,10e-6 c -26.66667,0 -48,21.33334 -48,48 0,15.97429 0.14295,-0.44148 0,63.99997 z"
         style="fill:none;stroke:#00ff00;stroke-width:1.06666672px;stroke-linecap:butt;stroke-linejoin:miter;stroke-opacity:1" />
    </g>
    <path
       sodipodi:nodetypes="cccccccccccccc"
       inkscape:connector-curvature="0"
       id="path1032"
       d="m 391.6847,243.0212 c 7.1111,-20.6222 13.5394,-29.3949 26.6667,-37.33332 -17.0384,-0.59492 -31.5362,-4.98345 -32,-16 0.2752,-21.24043 2.8253,-23.82752 16.3823,-34.88631 4.8463,-3.21524 17.3955,-18.44703 17.3955,-34.44703 0,-10.66666 -4.697,-9.94465 -5.1556,-27.775201 5.8359,-21.52839 -15.727,-17.44756 -1.7778,-38.97123 20.8471,4.30416 28.3986,4.42481 43.9811,0.1562 13.16,2.43538 14.5078,13.2569 14.5078,23.92357 26.6667,-5.33334 69.0321,-10.16046 68.8974,20.09385 -0.7722,31.096911 -46.4588,-1.41365 -45.9209,34.800421 7.468,22.946 18.9949,33.91439 41.4043,41.71027 4.4582,29.07583 5.6804,37.56828 4.9525,68.72878 -58.6666,0 -96,0 -149.3333,0 z"
       style="fill:none;stroke:#00ff00;stroke-width:1.06666672px;stroke-linecap:butt;stroke-linejoin:miter;stroke-opacity:1" />
    <path
       sodipodi:nodetypes="csccsccccccsc"
       inkscape:connector-curvature="0"
       id="path1040"
       d="m 456.52587,556.7429 c -42.66666,0 -48,0 -48,-5.3334 0,-16 5.33334,-16 21.33334,-16 l 10.66666,-48 c -69.33333,21.3334 -74.66666,0 -74.66666,-10.6666 0,-10.6667 1.42222,-29.5112 63.94162,-19.96 4.00195,-6.6771 9.53731,-8.5446 15.74727,-8.6688 2.93527,-24.8626 30.32759,-26.9801 34.44444,0.7153 19.80774,5.7811 24.53333,11.9135 24.53333,27.9135 0,10.6666 -23.40741,11.0692 -23.40741,11.0692 0,0 9.43052,19.1172 -3.25925,47.5974 16,0 21.33333,0 21.33333,16 0,5.3334 -5.33333,5.3334 -42.66667,5.3334 z"
       style="display:inline;fill:none;stroke:#00ff00;stroke-width:1.05599999;stroke-linecap:butt;stroke-linejoin:miter;stroke-miterlimit:4;stroke-dasharray:none;stroke-opacity:1;enable-background:new" />
    <path
       sodipodi:nodetypes="ccccccccccccsc"
       inkscape:connector-curvature="0"
       id="path1042"
       d="m 258.12319,549.333 c -0.1316,-9.8955 5.9281,-9.5327 16.5948,-9.5327 -4.7848,-48.0641 10.0801,-45.6176 5.8666,-63.6287 -4.9053,-14.2458 -7.2772,-2.3889 -10.7239,-13.5598 -2.465,-14.3123 -11.5863,-15.6396 -14.1304,-26.4778 -6.9768,-41.7116 39.1655,-42.6435 37.4054,-14.0118 -0.011,4.2915 1.9776,5.5968 13.22331,4.9782 25.5368,3.8839 27.6746,12.2605 27.2168,32.6323 6.5753,-1.9544 16.94327,1.6342 17.64047,8.4284 2.6273,18.7424 -3.48757,24.2148 -24.85277,25.722 5.9677,14.6261 6.9977,21.8238 6.4647,45.9172 10.6667,0 15.99997,0 15.99997,10.6667 0,5.3333 -4.77687,5.3333 -42.11017,5.3333 -42.66671,0 -48.00001,0 -48.59481,-6.4673 z"
       style="display:inline;fill:none;stroke:#00ff00;stroke-width:1.05599999;stroke-linecap:butt;stroke-linejoin:miter;stroke-miterlimit:4;stroke-dasharray:none;stroke-opacity:1;enable-background:new" />
    <path
       style="display:inline;fill:none;stroke:#00ff00;stroke-width:1.05599999;stroke-linecap:butt;stroke-linejoin:miter;stroke-miterlimit:4;stroke-dasharray:none;stroke-opacity:1;enable-background:new"
       d="m 723.48186,556.3133 c -42.66667,0 -48,0 -48,-5.3334 0,-10.6666 5.33333,-10.6666 21.33333,-10.6666 2.35152,-38.2542 5.33334,-48 5.33334,-48 -29.1642,-22.9035 -27.79126,-43.6205 8.83713,-49.6968 -0.33765,-11.6848 9.99755,-13.2341 19.1817,-13.1369 7.55772,0.08 16.97627,2.1473 15.56885,13.5766 16.14565,0.5459 20.41232,6.5904 20.41232,22.5904 0,26.6667 -16,26.6667 -16,26.6667 0,0 3.32538,15.6587 0.13888,48.6644 15.86112,-0.6644 21.19445,-0.6644 21.19445,10.0022 0,5.563 -5.33333,5.3334 -48,5.3334 z"
       id="path1044"
       inkscape:connector-curvature="0"
       sodipodi:nodetypes="cscccsccccsc" />
    <path
       style="display:inline;fill:none;stroke:#00ff00;stroke-width:1.05599999;stroke-linecap:butt;stroke-linejoin:miter;stroke-miterlimit:4;stroke-dasharray:none;stroke-opacity:1;enable-background:new"
       d="m 605.01829,555.32869 c -42.66666,0 -48,0 -48,-5.3334 0,-16 5.33334,-16 21.33334,-16 l 10.66666,-48 c -69.33333,21.3334 -74.66666,0 -74.66666,-10.6666 0,-10.6667 1.42222,-29.5112 63.94162,-19.96 4.00195,-6.6771 9.53731,-8.5446 15.74727,-8.6688 2.93527,-24.8626 30.32759,-26.9801 34.44444,0.7153 19.80774,5.7811 24.53333,11.9135 24.53333,27.9135 0,10.6666 -23.40741,11.0692 -23.40741,11.0692 0,0 9.43052,19.1172 -3.25925,47.5974 16,0 21.33333,0 21.33333,16 0,5.3334 -5.33333,5.3334 -42.66667,5.3334 z"
       id="path4915"
       inkscape:connector-curvature="0"
       sodipodi:nodetypes="csccsccccccsc" />
  </g>
  <g
     inkscape:label="Top"
     inkscape:groupmode="layer"
     id="layer1"
     transform="translate(0,-240)"
     style="display:inline">
    <path
       style="fill:none;stroke:#ff0000;stroke-width:1.05599999;stroke-linecap:butt;stroke-linejoin:miter;stroke-miterlimit:4;stroke-dasharray:none;stroke-opacity:1"
       d="m 283.54647,555.92416 c -48.39484,0.34179 -109.32687,-0.0266 -178.52002,-0.0702 -8.618758,-0.005 -4.50143,-22.3051 5.38627,-21.69063 -13.728818,-27.81154 -9.49056,-59.47754 -21.589318,-57.99606 -17.28396,1.97531 -14.72701,-5.97019 -14.04445,-31.05448 6.06161,-61.04296 3.25178,-115.86939 90.462088,-112.12114 -16.59792,-31.85452 -0.53354,-39.93873 35.90547,-41.08822 32.86274,-0.64931 55.12003,3.80209 54.63723,26.04422 0.0506,19.13103 -18.56061,13.12349 -23.76642,29.02258 0.11045,15.70457 84.55188,11.9746 121.20217,19.77501 l 0.60043,47.65513 c -62.5967,0.54263 -89.07531,0.65494 -153.51111,-0.0592 0,0 -6.62008,14.44319 -2.06319,17.23093 21.06155,12.88472 21.73485,36.86442 43.40094,56.7453 20.65125,18.94967 41.40085,43.32454 41.89991,67.60678 z"
       id="path3892"
       inkscape:connector-curvature="0"
       sodipodi:nodetypes="csccccccccccsscc" />
    <path
       style="fill:none;stroke:#ff0000;stroke-width:1.05599999;stroke-linecap:butt;stroke-linejoin:miter;stroke-miterlimit:4;stroke-dasharray:none;stroke-opacity:1"
       d="m 462.28125,428.69531 c -7.72959,0.17528 -15.31166,6.92026 -16.7793,19.35157 -6.20996,0.12419 -11.74414,1.99086 -15.74609,8.66796 -62.5194,-9.5512 -63.94141,9.29424 -63.94141,19.96094 0,10.6666 5.33269,31.99942 74.66602,10.66602 l -10.66602,48 c -16,0 -21.33398,0 -21.33398,16 0.90486,22.79582 -20.63554,9.58864 -19.29492,31.03901 0,10.6667 5.33464,31.99932 74.66797,10.66602 l -10.66797,48 c -16,0 -21.33203,0 -21.33203,16 0,5.3333 5.33334,5.33398 48,5.33398 37.33334,0 42.66601,-6.8e-4 42.66601,-5.33398 0,-16 -5.33398,-16 -21.33398,-16 12.68977,-28.48031 3.25976,-47.59766 3.25976,-47.59766 0,0 23.40821,-0.40166 23.40821,-11.06836 0,-16 -4.72546,-22.13296 -24.53321,-27.91406 -1.05848,-7.12077 -3.66186,-12.25538 -6.98633,-15.55469 -0.47761,-0.5584 -1.02234,-1.03063 -1.63867,-1.42773 -4.19905,-3.2235 -9.23179,-3.86817 -13.75976,-2.125 -1.02787,-0.006 -1.98817,-0.0176 -3.1211,-0.0176 12.68977,-28.4802 3.25782,-47.59766 3.25782,-47.59766 0,0 23.4082,-0.40176 23.4082,-11.06836 0,-16 -4.72546,-22.13296 -24.5332,-27.91406 -2.05843,-13.8477 -9.93643,-20.24168 -17.66602,-20.06641 z"
       transform="translate(0,240)"
       id="path3894"
       inkscape:connector-curvature="0"
       sodipodi:nodetypes="cccsccccccsssccsccccccsccc" />
    <path
       style="fill:none;stroke:#ff0000;stroke-width:1.05599999;stroke-linecap:butt;stroke-linejoin:miter;stroke-miterlimit:4;stroke-dasharray:none;stroke-opacity:1"
       d="m 730.12109,429.41211 c -9.18415,-0.0972 -19.51929,1.45192 -19.18164,13.13672 -36.62839,6.0763 -38.00013,26.79376 -8.83593,49.69726 0,0 -2.98247,9.7458 -5.33399,48 -16,0 -21.33398,-5.8e-4 -21.33398,10.66602 0,4.62087 4.09928,5.23393 32.91797,5.31641 -12.30488,13.23097 -14.34663,47.969 4.43359,47.64062 v 37.33398 c -16,0 -21.33399,0 -21.33399,16 0,5.3334 10.66667,5.33399 48,5.33399 37.33334,0 48,-5.9e-4 48,-5.33399 0,-16 -10.66601,-16 -26.66601,-16 0,-21.3333 0.33039,-23.91639 -6.81055,-45.52929 49.26595,-0.086 56.59863,-19.10895 9.63086,-20.21875 0,0 1.54567,-12.60361 -4.10742,-19.52735 10.04662,-0.49567 11.93555,-1.76252 11.93555,-5.01562 0,-10.6666 -5.33224,-10.66635 -21.19336,-10.00195 3.1865,-33.0057 -0.13867,-48.66407 -0.13867,-48.66407 0,0 16,-10e-4 16,-26.66797 0,-16 -4.26646,-22.04394 -20.41211,-22.58984 1.40742,-11.4293 -8.0126,-13.49617 -15.57032,-13.57617 z"
       transform="translate(0,240)"
       id="path3896"
       inkscape:connector-curvature="0" />
    <path
       style="fill:none;stroke:#ff0000;stroke-width:1.05599999;stroke-linecap:butt;stroke-linejoin:miter;stroke-miterlimit:4;stroke-dasharray:none;stroke-opacity:1"
       d="m 275.375,402.38672 c -11.43488,0.25333 -23.50489,10.86866 -19.68945,33.67969 2.5441,10.8382 11.6639,12.16426 14.1289,26.47656 3.4467,11.1709 5.81931,-0.68525 10.72461,13.56055 4.2135,18.0111 -10.65199,15.5648 -5.86718,63.6289 -10.66671,0 -16.72535,-0.36229 -16.59376,9.5332 0.50424,5.4826 4.66667,6.30845 31.83985,6.43555 -0.0619,0.76142 -0.0981,1.54592 -0.10352,2.35547 -8.23696,-0.3331 -26.18921,19.15329 -21.35937,36.21289 3.91279,12.507 15.34549,10.54111 14.10937,17.13281 -2.72997,10.5833 -3.3789,18.27471 -3.3789,28.94141 -10.66666,0 -16,0 -16,16 0,5.3333 5.33268,5.33398 42.66601,5.33398 37.33333,0 42.66602,-6.8e-4 42.66602,-5.33398 0,-16 -5.33203,-16 -21.33203,-16 3.73334,-16.7111 4.08843,-29.68949 -3.75,-37.27539 -3.11582,-13.3281 50.07468,1.35893 50.34375,-16.63867 -0.59288,-16.2736 -22.60183,-7.37758 -45.2461,-7.58008 0.76266,-9.5939 3.27807,-18.82451 -10.1914,-20.25781 0.0307,-0.99792 0.013,-1.94708 -0.0312,-2.86914 26.64675,-0.0636 30.47265,-0.6102 30.47265,-5.32422 0,-10.6667 -5.3333,-10.66602 -16,-10.66602 0.533,-24.0934 -0.49714,-31.29187 -6.46484,-45.91797 21.3652,-1.5072 27.48081,-6.9783 24.85352,-25.7207 -0.69721,-6.7942 -11.06533,-10.38409 -17.64063,-8.42969 0.4578,-20.3718 -1.68,-28.74696 -27.2168,-32.63086 -11.24571,0.6186 -13.23561,-0.68701 -13.22461,-4.97851 0.79755,-12.97374 -8.24023,-19.87787 -17.71484,-19.66797 z"
       transform="translate(0,240)"
       id="path3922"
       inkscape:connector-curvature="0" />
    <path
       style="fill:none;stroke:#ff0000;stroke-width:1.05599999;stroke-linecap:butt;stroke-linejoin:miter;stroke-miterlimit:4;stroke-dasharray:none;stroke-opacity:1"
       d="m 560.21111,482.87236 c 7.11111,-20.62222 13.53936,-29.39491 26.66667,-37.33333 -17.03842,-0.59491 -31.53615,-4.98345 -32,-16 0.27525,-21.24043 2.8253,-23.82752 16.38235,-34.88631 4.84625,-3.21524 17.39543,-18.44702 17.39543,-34.44702 0,-10.66667 -4.69697,-9.94466 -5.15555,-27.7752 5.83588,-21.5284 -15.72703,-17.44757 -1.77779,-38.97124 20.84707,4.30416 28.3986,4.42481 43.98106,0.15621 13.16,2.43538 14.50783,13.25689 14.50783,23.92356 26.66667,-5.33333 69.03212,-10.16046 68.89738,20.09385 -0.77222,31.09691 -46.45882,-1.41365 -45.92091,34.80042 7.46805,22.94601 18.99493,33.91439 41.40435,41.71027 4.45815,29.07583 5.68041,37.56831 4.95251,68.72879 -58.66666,0 -96,0 -149.33333,0 z"
       id="path3947"
       inkscape:connector-curvature="0"
       sodipodi:nodetypes="cccccccccccccc" />
    <path
       style="fill:none;stroke:#ff0000;stroke-width:1.05599999;stroke-linecap:butt;stroke-linejoin:miter;stroke-miterlimit:4;stroke-dasharray:none;stroke-opacity:1"
       d="m 345.5855,639.48277 c -42.66667,0 -48,0 -48,-5.33334 -0.1431,-14.18099 0.64937,-14.91858 1.06666,-29.73075 0.69721,-34.0494 23.91351,-28.30684 24,-38.66667 -3.69023,-4.68088 -6.23656,-9.1964 -5.33333,-14.13333 6.74612,-14.9039 12.68554,-22.28608 22.65141,-26.48366 19.752,4.06027 28.46727,3.43854 48.17517,0.0153 20.54494,7.71765 22.1842,21.35634 29.70675,30.73508 4.1888,5.82236 5.25481,15.26071 -5.21055,22.69985 -2.89792,12.89988 -13.12565,8.32202 -18.25611,12.76681 -3.14544,5.40384 -1.42026,10.95071 -4.47496,22.46841 -7.30991,15.41479 3.66104,11.93167 3.67496,20.32901 -5.33334,5.33334 0,5.33334 -48,5.33334 z"
       id="path3949"
       inkscape:connector-curvature="0"
       sodipodi:nodetypes="ccccccccccccc" />
    <path
       style="fill:none;stroke:#ff0000;stroke-width:1.05599999;stroke-linecap:butt;stroke-linejoin:miter;stroke-miterlimit:4;stroke-dasharray:none;stroke-opacity:1"
       d="m 877.32979,712.56856 c -69.33333,0 -64,0 -64,-10.6667 0,-10.6666 10.66666,-10.6666 16,-10.6666 0,-26.6667 5.32816,-31.0595 5.33333,-42.6667 0,-17.8864 -21.33333,5.3333 -21.33333,-37.3333 0,-32 6.84626,-36.9101 32,-37.3334 0,-16 10.66666,-21.3333 26.66666,-21.3333 10.66667,-21.3333 40.31399,-8.1015 32.00001,19.8692 -1.95555,8.2197 -1.02179,12.3206 5.33334,17.4641 15.01684,-10.2674 52.61604,-11.5186 16,32 -11.99739,11.436 -16,10.6667 -32,10.6667 10.66666,10.6667 15.64444,21.3333 10.31111,58.6667 32.71111,0.3555 37.68889,0 37.68889,10.6666 0,10.6667 5.33333,10.6667 -64.00001,10.6667 z"
       id="path3951"
       inkscape:connector-curvature="0"
       sodipodi:nodetypes="cccccccccccccc" />
    <path
       style="fill:none;stroke:#ff0000;stroke-width:1.05599999;stroke-linecap:butt;stroke-linejoin:miter;stroke-miterlimit:4;stroke-dasharray:none;stroke-opacity:1"
       d="m 667.63705,658.63743 c -43.59945,-0.4157 -67.48192,3.0209 -67.12636,-11.2431 -0.16112,-6.4201 11.08548,-10.8697 26.81917,-11.007 -4.07049,-12.6442 -3.41657,-10.3179 -2.46362,-28.5486 -18.33134,-3.5827 -43.82426,34.2529 -48.71111,3.2889 -3.65328,-15.4756 4.75304,-25.0974 41.33333,-35.7333 -5.9353,-26.1207 -11.70279,-28.0864 -3.28889,-46.5778 8.5375,-10.8778 16.6371,-11.8189 42.66667,-12.8 20.29179,-10.0062 25.65667,-11.4442 40.35555,0 11.83732,1.8082 25.5813,3.1866 33.06667,12.5333 11.50014,14.3598 7.30435,24.9031 1.24445,55.3778 35.37685,-0.4805 46.35285,1.0929 45.06666,23.3778 -3.97411,18.3844 -19.22282,11.0571 -45.24444,9.1555 -15.52944,-5.789 -14.39716,1.7012 -17.79304,19.807 11.2978,0.6755 22.10849,2.9613 22.23748,11.1264 -0.27438,13.6105 -29.54769,10.8354 -68.16252,11.2431 z"
       id="path3953"
       inkscape:connector-curvature="0"
       sodipodi:nodetypes="cccccccccccccccc" />
    <path
       style="fill:none;stroke:#ff0000;stroke-width:1.05599999;stroke-linecap:butt;stroke-linejoin:miter;stroke-miterlimit:4;stroke-dasharray:none;stroke-opacity:1"
       d="m 901.79248,983.90223 c -37.402,-0.34884 -82.0041,0.73978 -81.0705,-4.15946 -0.4771,-12.36316 15.8599,-15.01719 38.0784,-16.5503 11.3099,-71.21855 21.1828,-62.85938 27.3255,-97.2979 -2.988,-26.00987 -64.5832,-68.64058 -83.0966,-94.69006 -11.2032,-19.55515 -0.6746,-37.75644 14.315,-38.70323 46.1716,-1.18976 46.7791,32.38825 33.4456,45.77247 6.2997,9.06549 20.5678,22.69501 32.9281,31.52678 -21.5844,-57.00965 59.0546,-57.56504 40.5725,0.79738 18.2343,-14.46362 13.0295,-8.14468 35.3908,-31.64048 -13.0413,-13.78754 -25.1266,-46.09538 25.4771,-46.00385 16.24902,-0.10903 29.86112,15.66986 17.74642,35.19081 -40.69482,62.20183 -82.15372,73.98496 -82.16462,98.41816 0.6124,32.34965 19.8662,28.24609 31.2745,97.25474 23.0429,-0.23456 33.4529,2.93347 33.4614,16.18953 -0.1898,5.9968 -36.9548,2.13426 -83.6836,3.89541 z"
       id="path3955"
       inkscape:connector-curvature="0"
       sodipodi:nodetypes="cccccccccccccccc" />
    <path
       style="fill:none;stroke:#ff0000;stroke-width:1.05599999;stroke-linecap:butt;stroke-linejoin:miter;stroke-miterlimit:4;stroke-dasharray:none;stroke-opacity:1"
       d="m 497.38745,642.26468 c -37.33334,0 -48,0 -48,-10.6666 0.003,-31.6741 -4.9919,-48.2023 -3.34469,-77.1759 -0.65206,-9.2309 -14.26055,-6.4074 -12.65531,-13.4908 2.53387,-7.7834 15.52735,-19.2381 27.98012,-11.4414 9.96365,2.7016 12.06501,-15.9471 59.41822,-15.2754 19.86031,-2.1024 15.98971,-5.2364 31.40974,8.007 10.48429,12.2647 6.63876,16.2344 14.64312,33.1222 0.86709,9.3544 1.59605,30.4409 -10.03398,30.1966 -20.56027,-0.9305 -26.0019,-10.2042 -42.13326,-3.4699 -8.81714,3.6809 -11.31926,3.9373 -12.52873,19.8693 0.5781,13.6583 0.5781,18.9916 16.5781,18.9916 15.76563,0.033 26.66667,0 26.66667,10.6667 0,10.6666 -10.66667,10.6666 -48,10.6666 z"
       id="path3957"
       inkscape:connector-curvature="0"
       sodipodi:nodetypes="cccccccccccccc" />
    <path
       style="fill:none;stroke:#ff0000;stroke-width:1.05599999;stroke-linecap:butt;stroke-linejoin:miter;stroke-miterlimit:4;stroke-dasharray:none;stroke-opacity:1"
       d="m 143.43326,771.28638 c -32,0 -32,0 -32,-10.6667 0,-21.3333 7.89068,-17.7242 10.66666,-32 3.67023,-15.9107 1.93126,-20.3949 6.14119,-37.8361 -26.66667,0 -31.22951,-31.2472 -35.51982,-46.9944 -5.33333,-32 5.04311,-62.7835 17.01605,-63.6661 11.29952,-0.1803 6.57006,18.6352 41.48361,17.222 40.06722,0.075 21.33901,-20.2816 35.07249,-20.239 22.93369,-0.1182 26.37465,43.9464 26.47315,66.1803 0,37.3333 -15.59099,42.7404 -32.13001,46.2025 -11.02812,16.9231 -16.68535,22.957 -15.86999,39.1308 0,16 10.66667,10.6667 10.66667,32 0,10.6667 0,10.6667 -32,10.6667 z"
       id="path3959"
       inkscape:connector-curvature="0"
       sodipodi:nodetypes="ccccccccccccc" />
    <path
       sodipodi:nodetypes="cccccccccscccsc"
       inkscape:connector-curvature="0"
       id="path3961"
       d="m 126.08298,970.50907 c 10.66666,-21.3333 10.66666,-10.6666 18.06201,-30.7354 8.60465,-17.2646 13.93799,-33.2646 4.90261,-43.7464 -16.38013,-21.3931 -57.14685,-14.1667 -56.5525,-26.9118 0.78707,-27.4458 17.58788,0.06 28.25454,-31.9397 -16.59571,-5.0136 -8.33302,-32.5939 3.29483,-28.6601 11.29952,-0.9345 12.63607,3.7622 44.70517,-3.3399 39.6901,3.0923 41.83309,-9.1367 51.04109,-4.9458 13.88272,7.8014 11.10509,21.9406 0.94609,28.7987 -1.73804,24.1865 26.43408,0.525 25.86038,19.5917 -0.3326,11.0545 -4.6936,16.9754 -27.55199,16.4272 -7.6289,41.4615 -28.2892,46.2219 -28.96223,73.4615 0,21.3334 9.97392,15.8287 10.66666,32 0,10.6667 0,10.6667 -37.33333,10.6667 -37.33333,0 -37.33333,0 -37.33333,-10.6667 z"
       style="fill:none;stroke:#ff0000;stroke-width:1.05599999;stroke-linecap:butt;stroke-linejoin:miter;stroke-miterlimit:4;stroke-dasharray:none;stroke-opacity:1" />
    <path
       style="fill:none;stroke:#ff0000;stroke-width:1.05599999;stroke-linecap:butt;stroke-linejoin:miter;stroke-miterlimit:4;stroke-dasharray:none;stroke-opacity:1"
       d="m 736.28347,482.82843 c 26.66667,-10.66667 64,-26.66667 64,-26.66667 -10.66666,0 -16,0 -16,-16 0,-21.33333 0,-48 32,-58.66666 0,0 -53.33333,-16 -80,-26.66667 0,-42.66667 16,-58.66667 74.66667,-58.66667 16,26.66667 37.33333,64 37.33333,64 16,-10.66666 37.33334,-10.66666 53.33334,0 0,0 16,-37.33333 26.66666,-64 64,0 80.00003,16 80.00003,58.66667 -32.00003,10.66667 -74.66669,26.66667 -74.66669,26.66667 26.66666,16 26.66666,37.33333 26.66666,58.66666 0,16 -5.33333,16 -16,16 0,0 37.33334,16 64.00003,26.66667 0,48 -16.00003,69.33333 -74.66669,69.33333 -10.66667,-32 -32,-80 -32,-80 -16,0 -10.66667,10.66667 -26.66667,10.66667 -16,0 -10.66667,-10.66667 -26.32221,-10.81637 0,0 -16.34446,32.1497 -37.67779,80.1497 -53.33333,0 -74.66667,-16 -74.66667,-69.33333 z"
       id="path3963"
       inkscape:connector-curvature="0"
       sodipodi:nodetypes="cccccccccccccccccccc" />
    <g
       id="layer1-8"
       inkscape:label="Layer 1"
       transform="translate(10.151681,0.07369279)"
       style="stroke:#ff0000;stroke-width:0.99000001;stroke-miterlimit:4;stroke-dasharray:none;stroke-opacity:1">
      <path
         sodipodi:nodetypes="csccscscscsccsc"
         inkscape:connector-curvature="0"
         id="path4512"
         d="M 293.84832,1044.5485 76.706746,1017.8819 c -66.109755,-8.1188 -64,-5.3334 -64,-69.33338 V 341.25964 c 0,-48 21.33318,-68.20182 64.745141,-68.25375 l 902.618653,-1.07958 c 37.33336,0 59.07026,21.33327 58.66666,64 l -5.8525,618.6649 c -0.5731,60.86829 -5.9036,58.41829 -47.48083,63.29069 l -227.55555,26.6666 c -0.62585,-64.82456 0,-47.99998 0,-63.99998 0,-26.66666 -21.33333,-48 -48,-48 l -368,10e-6 c -26.66667,0 -48,21.33334 -48,48 0,15.97429 0.14295,-0.44148 0,63.99997 z"
         style="fill:none;stroke:#ff0000;stroke-width:1.05599999;stroke-linecap:butt;stroke-linejoin:miter;stroke-miterlimit:4;stroke-dasharray:none;stroke-opacity:1" />
    </g>
    <path
       sodipodi:nodetypes="cccccccccccccc"
       inkscape:connector-curvature="0"
       id="path1034"
       d="m 391.6753,483.0288 c 7.1111,-20.6222 13.5394,-29.3949 26.6667,-37.3333 -17.0384,-0.595 -31.5362,-4.9835 -32,-16 0.2752,-21.2405 2.8253,-23.8276 16.3823,-34.8864 4.8463,-3.2152 17.3955,-18.447 17.3955,-34.447 0,-10.6666 -4.697,-9.9446 -5.1556,-27.7752 5.8359,-21.5284 -15.727,-17.4475 -1.7778,-38.9712 20.8471,4.3041 28.3986,4.4248 43.9811,0.1562 13.16,2.4354 14.5078,13.2569 14.5078,23.9236 26.6667,-5.3334 69.0321,-10.1605 68.8974,20.0938 -0.7722,31.0969 -46.4588,-1.4136 -45.9209,34.8004 7.468,22.946 18.9949,33.9144 41.4043,41.7103 4.4582,29.0758 5.6805,37.5683 4.9526,68.7288 -58.6667,0 -96,0 -149.3334,0 z"
       style="fill:none;stroke:#ff0000;stroke-width:1.05599999;stroke-linecap:butt;stroke-linejoin:miter;stroke-miterlimit:4;stroke-dasharray:none;stroke-opacity:1" />
    <path
       sodipodi:nodetypes="cccsccccccsssccsccccccsccc"
       inkscape:connector-curvature="0"
       id="path4917"
       d="m 610.77367,667.2811 c -7.72959,0.17528 -15.31166,6.92026 -16.7793,19.35157 -6.20996,0.12419 -11.74414,1.99086 -15.74609,8.66796 -62.5194,-9.5512 -63.94141,9.29424 -63.94141,19.96094 0,10.6666 5.33269,31.99942 74.66602,10.66602 l -10.66602,48 c -16,0 -21.33398,0 -21.33398,16 0.90486,22.79582 -20.63554,9.58864 -19.29492,31.03901 0,10.6667 5.33464,31.99932 74.66797,10.66602 l -10.66797,48 c -16,0 -21.33203,0 -21.33203,16 0,5.3333 5.33334,5.33398 48,5.33398 37.33334,0 42.66601,-6.8e-4 42.66601,-5.33398 0,-16 -5.33398,-16 -21.33398,-16 12.68977,-28.48031 3.25976,-47.59766 3.25976,-47.59766 0,0 23.40821,-0.40166 23.40821,-11.06836 0,-16 -4.72546,-22.13296 -24.53321,-27.91406 -1.05848,-7.12077 -3.66186,-12.25538 -6.98633,-15.55469 -0.47761,-0.5584 -1.02234,-1.03063 -1.63867,-1.42773 -4.19905,-3.2235 -9.23179,-3.86817 -13.75976,-2.125 -1.02787,-0.006 -1.98817,-0.0176 -3.1211,-0.0176 12.68977,-28.4802 3.25782,-47.59766 3.25782,-47.59766 0,0 23.4082,-0.40176 23.4082,-11.06836 0,-16 -4.72546,-22.13296 -24.5332,-27.91406 -2.05843,-13.8477 -9.93643,-20.24168 -17.66602,-20.06641 z"
       style="fill:none;stroke:#ff0000;stroke-width:1.05599999;stroke-linecap:butt;stroke-linejoin:miter;stroke-miterlimit:4;stroke-dasharray:none;stroke-opacity:1" />
  </g>
  <g
     inkscape:groupmode="layer"
     id="layer4"
     inkscape:label="Text"
     style="display:inline;filter:url(#filter5322)">
    <text
       xml:space="preserve"
       style="font-style:normal;font-variant:normal;font-weight:normal;font-stretch:normal;font-size:12.80000019px;line-height:0%;font-family:Helvetica;-inkscape-font-specification:'Helvetica, Normal';text-align:start;letter-spacing:0px;word-spacing:0px;writing-mode:lr-tb;text-anchor:start;display:inline;fill:#000000;fill-opacity:1;stroke:none;stroke-width:1.06666672px;stroke-linecap:butt;stroke-linejoin:miter;stroke-opacity:1"
       x="650.60278"
       y="342.89377"
       id="text5217"><tspan
         sodipodi:role="line"
         id="tspan5219"
         x="650.60278"
         y="342.89377"
         style="font-size:10.66666698px;line-height:1.25;stroke-width:1.06666672px">Mancubus</tspan></text>
    <text
       xml:space="preserve"
       style="font-style:normal;font-variant:normal;font-weight:normal;font-stretch:normal;font-size:12.80000019px;line-height:0%;font-family:Helvetica;-inkscape-font-specification:'Helvetica, Normal';text-align:start;letter-spacing:0px;word-spacing:0px;writing-mode:lr-tb;text-anchor:start;display:inline;fill:#000000;fill-opacity:1;stroke:none;stroke-width:1.06666672px;stroke-linecap:butt;stroke-linejoin:miter;stroke-opacity:1"
       x="881.80139"
       y="594.5553"
       id="text5221"><tspan
         sodipodi:role="line"
         id="tspan5223"
         x="881.80139"
         y="594.5553"
         style="font-size:10.66666698px;line-height:1.25;stroke-width:1.06666672px">Arch-Vile</tspan></text>
    <text
       xml:space="preserve"
       style="font-style:normal;font-variant:normal;font-weight:normal;font-stretch:normal;font-size:12.80000019px;line-height:0%;font-family:Helvetica;-inkscape-font-specification:'Helvetica, Normal';text-align:start;letter-spacing:0px;word-spacing:0px;writing-mode:lr-tb;text-anchor:start;display:inline;fill:#000000;fill-opacity:1;stroke:none;stroke-width:1.06666672px;stroke-linecap:butt;stroke-linejoin:miter;stroke-opacity:1"
       x="143.47072"
       y="160.33621"
       id="text5225"><tspan
         sodipodi:role="line"
         id="tspan5227"
         x="143.47072"
         y="160.33621"
         style="font-size:10.66666698px;line-height:1.25;stroke-width:1.06666672px">Cyberdemon</tspan></text>
    <text
       xml:space="preserve"
       style="font-style:normal;font-variant:normal;font-weight:normal;font-stretch:normal;font-size:12.80000019px;line-height:0%;font-family:Helvetica;-inkscape-font-specification:'Helvetica, Normal';text-align:start;letter-spacing:0px;word-spacing:0px;writing-mode:lr-tb;text-anchor:start;display:inline;fill:#000000;fill-opacity:1;stroke:none;stroke-width:1.06666672px;stroke-linecap:butt;stroke-linejoin:miter;stroke-opacity:1"
       x="845.22522"
       y="184.58139"
       id="text5229"><tspan
         sodipodi:role="line"
         id="tspan5231"
         x="845.22522"
         y="184.58139"
         style="font-size:10.66666698px;line-height:1.25;stroke-width:1.06666672px">Arachnotron</tspan></text>
    <text
       xml:space="preserve"
       style="font-style:normal;font-variant:normal;font-weight:normal;font-stretch:normal;font-size:12.80000019px;line-height:0%;font-family:Helvetica;-inkscape-font-specification:'Helvetica, Normal';text-align:start;letter-spacing:0px;word-spacing:0px;writing-mode:lr-tb;text-anchor:start;display:inline;fill:#000000;fill-opacity:1;stroke:none;stroke-width:1.06666672px;stroke-linecap:butt;stroke-linejoin:miter;stroke-opacity:1"
       x="134.57379"
       y="617.92676"
       id="text5253"><tspan
         sodipodi:role="line"
         id="tspan5255"
         x="134.57379"
         y="617.92676"
         style="font-size:10.66666698px;line-height:1.25;stroke-width:1.06666672px">Pain Elemental</tspan></text>
    <text
       xml:space="preserve"
       style="font-style:normal;font-variant:normal;font-weight:normal;font-stretch:normal;font-size:12.80000019px;line-height:0%;font-family:Helvetica;-inkscape-font-specification:'Helvetica, Normal';text-align:start;letter-spacing:0px;word-spacing:0px;writing-mode:lr-tb;text-anchor:start;display:inline;fill:#000000;fill-opacity:1;stroke:none;stroke-width:1.06666672px;stroke-linecap:butt;stroke-linejoin:miter;stroke-opacity:1"
       x="125.76399"
       y="403.21057"
       id="text5249"><tspan
         sodipodi:role="line"
         id="tspan5251"
         x="125.76399"
         y="403.21057"
         style="font-size:10.66666698px;line-height:1.25;stroke-width:1.06666672px">Cacodemon</tspan></text>
    <text
       xml:space="preserve"
       style="font-style:normal;font-variant:normal;font-weight:normal;font-stretch:normal;font-size:12.80000019px;line-height:0%;font-family:Helvetica;-inkscape-font-specification:'Helvetica, Normal';text-align:start;letter-spacing:0px;word-spacing:0px;writing-mode:lr-tb;text-anchor:start;display:inline;fill:#000000;fill-opacity:1;stroke:none;stroke-width:1.06666672px;stroke-linecap:butt;stroke-linejoin:miter;stroke-opacity:1"
       x="457.47894"
       y="331.35498"
       id="text5245"><tspan
         sodipodi:role="line"
         id="tspan5247"
         x="457.47894"
         y="331.35498"
         style="font-size:10.66666698px;line-height:1.25;stroke-width:1.06666672px">Lost Soul</tspan></text>
    <text
       xml:space="preserve"
       style="font-style:normal;font-variant:normal;font-weight:normal;font-stretch:normal;font-size:12.80000019px;line-height:0%;font-family:Helvetica;-inkscape-font-specification:'Helvetica, Normal';text-align:start;letter-spacing:0px;word-spacing:0px;writing-mode:lr-tb;text-anchor:start;display:inline;fill:#000000;fill-opacity:1;stroke:none;stroke-width:1.06666672px;stroke-linecap:butt;stroke-linejoin:miter;stroke-opacity:1"
       x="591.33856"
       y="155.54175"
       id="text5241"><tspan
         sodipodi:role="line"
         x="591.33856"
         y="155.54175"
         style="font-size:10.66666698px;line-height:1.25;stroke-width:1.06666672px"
         id="tspan4785">Hell Knight</tspan></text>
    <text
       xml:space="preserve"
       style="font-style:normal;font-variant:normal;font-weight:normal;font-stretch:normal;font-size:12.80000019px;line-height:0%;font-family:Helvetica;-inkscape-font-specification:'Helvetica, Normal';text-align:start;letter-spacing:0px;word-spacing:0px;writing-mode:lr-tb;text-anchor:start;display:inline;fill:#000000;fill-opacity:1;stroke:none;stroke-width:1.06666672px;stroke-linecap:butt;stroke-linejoin:miter;stroke-opacity:1"
       x="338.85278"
       y="343.14099"
       id="text5237"><tspan
         sodipodi:role="line"
         id="tspan5239"
         x="338.85278"
         y="343.14099"
         style="font-size:10.66666698px;line-height:1.25;stroke-width:1.06666672px">Demon</tspan></text>
    <text
       xml:space="preserve"
       style="font-style:normal;font-variant:normal;font-weight:normal;font-stretch:normal;font-size:12.80000019px;line-height:0%;font-family:Helvetica;-inkscape-font-specification:'Helvetica, Normal';text-align:start;letter-spacing:0px;word-spacing:0px;writing-mode:lr-tb;text-anchor:start;display:inline;fill:#000000;fill-opacity:1;stroke:none;stroke-width:1.06666672px;stroke-linecap:butt;stroke-linejoin:miter;stroke-opacity:1"
       x="292.88184"
       y="472.37775"
       id="text5257"><tspan
         sodipodi:role="line"
         id="tspan5259"
         x="292.88184"
         y="472.37775"
         style="font-size:10.66666698px;line-height:1.25;stroke-width:1.06666672px">Imp</tspan></text>
    <text
       xml:space="preserve"
       style="font-style:normal;font-variant:normal;font-weight:normal;font-stretch:normal;font-size:12.80000019px;line-height:0%;font-family:Helvetica;-inkscape-font-specification:'Helvetica, Normal';text-align:start;letter-spacing:0px;word-spacing:0px;writing-mode:lr-tb;text-anchor:start;display:inline;fill:#000000;fill-opacity:1;stroke:none;stroke-width:1.06666672px;stroke-linecap:butt;stroke-linejoin:miter;stroke-opacity:1"
       x="277.04144"
       y="591.66266"
       id="text5265"><tspan
         sodipodi:role="line"
         id="tspan5267"
         x="277.04144"
         y="591.66266"
         style="font-size:10.66666698px;line-height:1.25;stroke-width:1.06666672px">Zombieman</tspan></text>
    <text
       xml:space="preserve"
       style="font-style:normal;font-variant:normal;font-weight:normal;font-stretch:normal;font-size:12.80000019px;line-height:0%;font-family:Helvetica;-inkscape-font-specification:'Helvetica, Normal';text-align:start;letter-spacing:0px;word-spacing:0px;writing-mode:lr-tb;text-anchor:start;display:inline;fill:#000000;fill-opacity:1;stroke:none;stroke-width:1.06666672px;stroke-linecap:butt;stroke-linejoin:miter;stroke-opacity:1"
       x="444.22034"
       y="475.10913"
       id="text5261"><tspan
         sodipodi:role="line"
         id="tspan5263"
         x="444.22034"
         y="475.10913"
         style="font-size:10.66666698px;line-height:1.25;stroke-width:1.06666672px">Marine</tspan></text>
    <text
       xml:space="preserve"
       style="font-style:normal;font-variant:normal;font-weight:normal;font-stretch:normal;font-size:12.80000019px;line-height:0%;font-family:Helvetica;-inkscape-font-specification:'Helvetica, Normal';text-align:start;letter-spacing:0px;word-spacing:0px;writing-mode:lr-tb;text-anchor:start;display:inline;fill:#000000;fill-opacity:1;stroke:none;stroke-width:1.06666672px;stroke-linecap:butt;stroke-linejoin:miter;stroke-opacity:1"
       x="705.80554"
       y="588.0929"
       id="text5269"><tspan
         sodipodi:role="line"
         id="tspan5271"
         x="705.80554"
         y="588.0929"
         style="font-size:10.66666698px;line-height:1.25;stroke-width:1.06666672px">Shotgun Guy</tspan></text>
    <text
       xml:space="preserve"
       style="font-style:normal;font-variant:normal;font-weight:normal;font-stretch:normal;font-size:12.80000019px;line-height:0%;font-family:Helvetica;-inkscape-font-specification:'Helvetica, Normal';text-align:start;letter-spacing:0px;word-spacing:0px;writing-mode:lr-tb;text-anchor:start;display:inline;fill:#000000;fill-opacity:1;stroke:none;stroke-width:1.06666672px;stroke-linecap:butt;stroke-linejoin:miter;stroke-opacity:1"
       x="695.03589"
       y="475.9939"
       id="text5273"><tspan
         sodipodi:role="line"
         id="tspan5275"
         x="695.03589"
         y="475.9939"
         style="font-size:10.66666698px;line-height:1.25;stroke-width:1.06666672px">Chaingunner</tspan></text>
    <text
       xml:space="preserve"
       style="font-style:normal;font-variant:normal;font-weight:normal;font-stretch:normal;font-size:12.80000019px;line-height:0%;font-family:Helvetica;-inkscape-font-specification:'Helvetica, Normal';text-align:start;letter-spacing:0px;word-spacing:0px;writing-mode:lr-tb;text-anchor:start;display:inline;fill:#000000;fill-opacity:1;stroke:none;stroke-width:1.06666672px;stroke-linecap:butt;stroke-linejoin:miter;stroke-opacity:1"
       x="842.14087"
       y="373.77328"
       id="text5233"><tspan
         sodipodi:role="line"
         id="tspan5235"
         x="842.14087"
         y="373.77328"
         style="font-size:10.66666698px;line-height:1.25;stroke-width:1.06666672px">Revenant</tspan></text>
    <a
       style="display:inline;filter:url(#filter5322)"
       id="a5338">
      <text
         id="text5326"
         y="724.26666"
         x="328.53333"
         style="font-style:normal;font-variant:normal;font-weight:normal;font-stretch:normal;font-size:12.80000019px;line-height:0%;font-family:Helvetica;-inkscape-font-specification:'Helvetica, Normal';text-align:start;letter-spacing:0px;word-spacing:0px;writing-mode:lr-tb;text-anchor:start;fill:#000000;fill-opacity:1;stroke:none;stroke-width:1.06666672px;stroke-linecap:butt;stroke-linejoin:miter;stroke-opacity:1"
         xml:space="preserve"><tspan
           y="724.26666"
           x="328.53333"
           sodipodi:role="line"
           style="font-size:16px;line-height:1.25;stroke-width:1.06666672px"
           id="tspan4779">Modified laser cutting design for a &quot;more complete&quot; cast</tspan><tspan
           y="744.26666"
           x="328.53333"
           sodipodi:role="line"
           style="font-size:16px;line-height:1.25;stroke-width:1.06666672px"
           id="tspan4783">that includes four marines and the Hell Knight.</tspan></text>
    </a>
    <text
       id="text1026"
       y="580.81482"
       x="467.59293"
       style="font-style:normal;font-variant:normal;font-weight:normal;font-stretch:normal;font-size:12.80000019px;line-height:0%;font-family:Helvetica;-inkscape-font-specification:'Helvetica, Normal';text-align:start;letter-spacing:0px;word-spacing:0px;writing-mode:lr-tb;text-anchor:start;display:inline;fill:#000000;fill-opacity:1;stroke:none;stroke-width:1.06666672px;stroke-linecap:butt;stroke-linejoin:miter;stroke-opacity:1"
       xml:space="preserve"><tspan
         style="font-size:10.66666698px;line-height:1.25;stroke-width:1.06666672px"
         y="580.81482"
         x="467.59293"
         id="tspan1024"
         sodipodi:role="line">Marine</tspan></text>
    <text
       id="text1038"
       y="155.69818"
       x="422.80273"
       style="font-style:normal;font-variant:normal;font-weight:normal;font-stretch:normal;font-size:12.80000019px;line-height:0%;font-family:Helvetica;-inkscape-font-specification:'Helvetica, Normal';text-align:start;letter-spacing:0px;word-spacing:0px;writing-mode:lr-tb;text-anchor:start;display:inline;fill:#000000;fill-opacity:1;stroke:none;stroke-width:1.06666672px;stroke-linecap:butt;stroke-linejoin:miter;stroke-opacity:1"
       xml:space="preserve"><tspan
         style="font-size:10.66666698px;line-height:1.25;stroke-width:1.06666672px"
         y="155.69818"
         x="422.80273"
         id="tspan1036"
         sodipodi:role="line">Baron of Hell</tspan></text>
    <text
       id="text4921"
       y="473.69492"
       x="592.71277"
       style="font-style:normal;font-variant:normal;font-weight:normal;font-stretch:normal;font-size:12.80000019px;line-height:0%;font-family:Helvetica;-inkscape-font-specification:'Helvetica, Normal';text-align:start;letter-spacing:0px;word-spacing:0px;writing-mode:lr-tb;text-anchor:start;display:inline;fill:#000000;fill-opacity:1;stroke:none;stroke-width:1.06666672px;stroke-linecap:butt;stroke-linejoin:miter;stroke-opacity:1"
       xml:space="preserve"><tspan
         style="font-size:10.66666698px;line-height:1.25;stroke-width:1.06666672px"
         y="473.69492"
         x="592.71277"
         id="tspan4919"
         sodipodi:role="line">Marine</tspan></text>
    <text
       xml:space="preserve"
       style="font-style:normal;font-variant:normal;font-weight:normal;font-stretch:normal;font-size:12.80000019px;line-height:0%;font-family:Helvetica;-inkscape-font-specification:'Helvetica, Normal';text-align:start;letter-spacing:0px;word-spacing:0px;writing-mode:lr-tb;text-anchor:start;display:inline;fill:#000000;fill-opacity:1;stroke:none;stroke-width:1.06666672px;stroke-linecap:butt;stroke-linejoin:miter;stroke-opacity:1"
       x="616.08533"
       y="579.40063"
       id="text4925"><tspan
         sodipodi:role="line"
         id="tspan4923"
         x="616.08533"
         y="579.40063"
         style="font-size:10.66666698px;line-height:1.25;stroke-width:1.06666672px">Marine</tspan></text>
  </g>
</svg>
