<?xml version="1.0" encoding="UTF-8" standalone="no"?>
<!-- Created with Inkscape (http://www.inkscape.org/) -->

<svg
   xmlns:dc="http://purl.org/dc/elements/1.1/"
   xmlns:cc="http://creativecommons.org/ns#"
   xmlns:rdf="http://www.w3.org/1999/02/22-rdf-syntax-ns#"
   xmlns:svg="http://www.w3.org/2000/svg"
   xmlns="http://www.w3.org/2000/svg"
   xmlns:sodipodi="http://sodipodi.sourceforge.net/DTD/sodipodi-0.dtd"
   xmlns:inkscape="http://www.inkscape.org/namespaces/inkscape"
   width="1056"
   height="816"
   id="svg2985"
   version="1.1"
   inkscape:version="0.91 r13725"
   sodipodi:docname="leftovers.svg"
   style="enable-background:new">
  <defs
     id="defs2987">
    <filter
       inkscape:collect="always"
       style="color-interpolation-filters:sRGB"
       id="filter5322">
      <feBlend
         inkscape:collect="always"
         mode="lighten"
         in2="BackgroundImage"
         id="feBlend5324" />
    </filter>
  </defs>
  <sodipodi:namedview
     inkscape:document-units="in"
     pagecolor="#ffffff"
     bordercolor="#666666"
     borderopacity="1.0"
     inkscape:pageopacity="0.0"
     inkscape:pageshadow="2"
     inkscape:zoom="0.5"
     inkscape:cx="486.11995"
     inkscape:cy="459.64637"
     inkscape:current-layer="layer1"
     id="namedview2989"
     showgrid="true"
     units="in"
     inkscape:window-width="1391"
     inkscape:window-height="856"
     inkscape:window-x="5"
     inkscape:window-y="0"
     inkscape:window-maximized="0"
     inkscape:snap-global="false">
    <inkscape:grid
       type="xygrid"
       id="grid3008"
       originx="0"
       originy="0"
       spacingx="4.0314961"
       spacingy="4.0314961" />
  </sodipodi:namedview>
  <metadata
     id="metadata2991">
    <rdf:RDF>
      <cc:Work
         rdf:about="">
        <dc:format>image/svg+xml</dc:format>
        <dc:type
           rdf:resource="http://purl.org/dc/dcmitype/StillImage" />
        <dc:title />
      </cc:Work>
    </rdf:RDF>
  </metadata>
  <g
     inkscape:groupmode="layer"
     id="layer3"
     inkscape:label="Bottom"
     style="display:inline">
    <text
       xml:space="preserve"
       style="font-style:normal;font-variant:normal;font-weight:normal;font-stretch:normal;font-size:12.80000019px;line-height:0%;font-family:Helvetica;-inkscape-font-specification:'Helvetica, Normal';text-align:start;letter-spacing:0px;word-spacing:0px;writing-mode:lr-tb;text-anchor:start;fill:#000000;fill-opacity:1;stroke:none;stroke-width:1.06666672px;stroke-linecap:butt;stroke-linejoin:miter;stroke-opacity:1"
       x="803.59998"
       y="433.20001"
       id="text5079"
       sodipodi:linespacing="0%"><tspan
         sodipodi:role="line"
         id="tspan5081"
         x="803.59998"
         y="433.20001"
         style="font-size:16px;line-height:1.25;stroke-width:1.06666672px"> </tspan></text>
    <path
       sodipodi:type="inkscape:offset"
       inkscape:radius="-28.78289"
       inkscape:original="M 525.21289 -131.32031 C 499.29075 -130.5381 468.14438 -121.03405 448.16992 -117.78125 C 355.23733 -102.64755 321.50307 -78.819916 319.38086 -44.541016 C 303.79292 207.24269 304.31433 230.47651 321.91406 541.29688 C 322.66814 554.61435 341.53102 587.58407 380.80273 587.56836 C 720.92345 587.43233 929.2111 591.65566 1187.5137 595.28125 C 1213.4226 595.64492 1234.3765 570.3625 1236.002 544.52148 C 1255.1749 239.73451 1256.0672 220.30533 1244.7383 -30.076172 C 1241.2834 -106.43317 1126.3957 -109.03237 1064.7559 -122.38867 C 1016.2526 -132.89857 998.93466 -121.49385 999.71289 -83.435547 C 1000.4073 -49.476647 968.44875 -23.2793 942.18359 -25.5 C 808.59139 -36.7948 717.81442 -39.704219 628.98633 -28.886719 C 598.08872 -25.123919 569.80942 -55.329444 570.90234 -92.527344 C 571.83183 -124.16279 551.13503 -132.10253 525.21289 -131.32031 z "
       style="fill:none;fill-rule:evenodd;stroke:#0000ff;stroke-width:1px;stroke-linecap:butt;stroke-linejoin:miter;stroke-opacity:1"
       id="path4191"
       d="M 526.08008,-102.55078 C 506.48885,-101.95961 476.86498,-93.292488 452.79688,-89.373047 408.15051,-82.102566 379.31329,-72.487886 364.48047,-63.628906 349.64764,-54.769926 348.61469,-50.923858 348.10938,-42.761719 332.53063,208.87348 333.05342,228.89835 350.65039,539.66992 350.33743,534.14287 352.19867,543.91235 357.45898,549.27344 362.71929,554.63453 369.21169,558.78979 380.79102,558.78516 721.1547,558.64903 929.7119,562.87772 1187.918,566.50195 1194.89,566.59982 1206.549,554.26213 1207.2754,542.71484 1226.447,237.94852 1227.3072,221.47077 1215.9844,-28.775391 1215.4459,-40.676265 1212.0035,-46.634231 1204.3887,-53.607422 1196.7739,-60.580613 1183.8837,-67.265294 1167.748,-72.458984 1135.4767,-82.846364 1092.7195,-86.877731 1058.6602,-94.257812 1038.6756,-98.588144 1029.9997,-96.412528 1029.6562,-96.615234 1029.1392,-94.92026 1028.3514,-90.81316 1028.4902,-84.023438 1029.025,-57.869249 1017.0615,-35.243102 1000.7734,-19.929688 984.48534,-4.6162734 963.33475,5.1731006 939.75781,3.1796875 806.84283,-8.0578557 718.34227,-10.77262 632.46484,-0.31445312 581.127,5.9362841 540.59842,-41.149552 542.13281,-93.373047 542.4113,-102.85137 541.74632,-100.41277 541.55859,-100.54492 541.37087,-100.67707 535.87566,-102.84637 526.08008,-102.55078 Z"
       transform="matrix(-1.0682593,0.00932256,-0.00932256,-1.0682593,1362.178,638.7709)" />
  </g>
  <g
     inkscape:groupmode="layer"
     id="layer2"
     inkscape:label="Middle"
     style="display:inline">
    <path
       style="fill:none;stroke:#00ff00;stroke-width:1.06666672px;stroke-linecap:butt;stroke-linejoin:miter;stroke-opacity:1"
       d="M 581.68284,327.71558 C 533.28799,328.05736 472.35597,327.68898 403.16282,327.64538 394.54406,327.64038 398.66139,305.34029 408.54909,305.95476 394.82027,278.14322 399.05853,246.47721 386.95977,247.9587 384.60914,240.68955 386.45498,257.63296 387.13754,232.54867 423.59057,215.89385 429.42514,229.87812 428.78226,206.85806 427.47213,159.94516 426.17225,106.46451 463.37741,104.78308 446.77949,72.928555 462.84386,64.844352 499.28287,63.694859 532.14561,63.045547 554.4029,67.49695 553.92011,89.73908 553.97071,108.87011 535.3595,102.86257 530.15369,118.76166 530.26414,134.46623 614.70557,130.73625 651.35585,138.53667 L 651.95629,186.19179 C 589.35959,186.73443 562.88097,186.84674 498.44518,186.13259 498.44518,186.13259 491.8251,200.57578 496.38199,203.36353 517.44353,216.24824 518.11683,240.22794 539.78293,260.10883 560.43418,279.05849 581.18378,303.43336 581.68284,327.7156 Z"
       id="path3892-3"
       inkscape:connector-curvature="0"
       sodipodi:nodetypes="cscccscccccccsscc" />
    <path
       style="fill:none;stroke:#00ff00;stroke-width:1.06666672px;stroke-linecap:butt;stroke-linejoin:miter;stroke-opacity:1"
       d="M 859.35797,494.88259 C 815.75853,494.4669 791.87605,497.90354 792.2316,483.63946 792.0705,477.21938 803.3171,472.76982 819.05078,472.63247 814.9803,459.98832 815.63422,462.3146 816.58717,444.08389 798.25582,440.50122 772.7629,478.33681 767.87605,447.37279 764.22277,431.89723 772.62909,422.27541 809.20939,411.63946 803.27408,385.51883 797.50659,383.55311 805.9205,365.06168 814.45799,354.18388 822.5576,353.24278 848.58717,352.26168 868.87895,342.25547 874.24384,340.81754 888.94272,352.26168 900.78003,354.06989 914.52402,355.4483 922.00939,364.79501 933.50953,379.15482 929.31374,389.69807 923.25383,420.17279 958.63069,419.69233 969.60669,421.26571 968.3205,443.55056 964.34639,461.93503 949.09767,454.60765 923.07605,452.70612 907.54661,446.91709 908.6789,454.40732 905.28302,472.5131 916.58082,473.18858 927.39151,475.47436 927.5205,483.63945 927.24611,497.24996 897.97281,494.47489 859.35797,494.88259 Z"
       id="path3953-2"
       inkscape:connector-curvature="0"
       sodipodi:nodetypes="cccccccccccccccc" />
    <path
       style="fill:none;stroke:#00ff00;stroke-width:1.06666672px;stroke-linecap:butt;stroke-linejoin:miter;stroke-opacity:1"
       d="M 148.71411,478.34398 C 111.38078,478.34398 100.71411,478.34398 100.71411,467.67732 100.71711,436.00327 95.722219,419.47502 97.369429,390.50145 96.717369,381.27058 83.108879,384.09402 84.714109,377.01065 87.247989,369.22721 100.24146,357.77254 112.69424,365.56923 122.65789,368.27089 124.75924,349.62215 172.11246,350.29388 191.97277,348.19142 188.10217,345.05741 203.5222,358.30084 214.00649,370.56557 210.16096,374.53521 218.16531,391.423 219.03241,400.77741 219.76137,421.86392 208.13134,421.6197 187.57106,420.68914 182.12944,411.41542 165.99808,418.14978 157.18094,421.83067 154.67882,422.08702 153.46935,438.01902 154.04745,451.67732 154.04745,457.01065 170.04745,457.01065 185.81308,457.04375 196.71411,457.01065 196.71411,467.67732 196.71411,478.34398 186.04745,478.34398 148.71411,478.34398 Z"
       id="path3957-9"
       inkscape:connector-curvature="0"
       sodipodi:nodetypes="cccccccccccccc" />
    <path
       style="fill:none;stroke:#00ff00;stroke-width:1.06666672px;stroke-linecap:butt;stroke-linejoin:miter;stroke-opacity:1"
       d="M 862.01925,711.10512 C 830.01925,711.10512 830.01925,711.10512 830.01925,700.43845 830.01925,679.10512 837.90985,682.71418 840.68585,668.43845 844.35615,652.52769 842.61715,648.04355 846.82705,630.60229 820.16035,630.60229 815.59755,599.35518 811.30725,583.60794 805.97395,551.60794 816.35035,520.8244 828.32325,519.9418 839.62285,519.76155 834.89335,538.57705 869.80685,537.16378 909.87415,537.23908 891.14595,516.8822 904.87935,516.92483 927.81305,516.80662 931.25405,560.87122 931.35255,583.10512 931.35255,620.43845 915.76155,625.84552 899.22255,629.30766 888.19445,646.23078 882.53715,652.26462 883.35255,668.43845 883.35255,684.43845 894.01925,679.10512 894.01925,700.43845 894.01925,711.10512 894.01925,711.10512 862.01925,711.10512 Z"
       id="path3959-8"
       inkscape:connector-curvature="0"
       sodipodi:nodetypes="ccccccccccccc" />
    <path
       sodipodi:nodetypes="cccccccccscccsc"
       inkscape:connector-curvature="0"
       id="path3961-7"
       d="M 140.67605,685.53896 C 151.34272,664.20563 151.34272,674.87229 158.73807,654.80353 167.34272,637.53896 172.67605,621.53896 163.64067,611.05719 147.26054,589.66399 106.49382,596.89047 107.08818,584.14534 107.87524,556.69951 124.67605,584.20564 135.34272,552.20563 118.74701,547.19205 127.0097,519.61177 138.63755,523.5455 149.93707,522.611 151.27362,527.30778 183.34272,520.20563 223.03282,523.29793 225.17581,511.0689 234.38381,515.25989 248.26654,523.06127 245.48891,537.20049 235.3299,544.05859 233.59186,568.24502 261.764,544.58353 261.1903,563.65028 260.8576,574.70475 256.4967,580.62563 233.63828,580.07749 226.00939,621.53896 205.34909,626.29933 204.67605,653.53896 204.67605,674.87229 214.64997,669.36765 215.34272,685.53896 215.34272,696.20563 215.34272,696.20563 178.00939,696.20563 140.67605,696.20563 140.67605,696.20563 140.67605,685.53896 Z"
       style="fill:none;stroke:#00ff00;stroke-width:1.06666672px;stroke-linecap:butt;stroke-linejoin:miter;stroke-opacity:1" />
    <path
       style="fill:none;stroke:#00ff00;stroke-width:1.06666672px;stroke-linecap:butt;stroke-linejoin:miter;stroke-opacity:1"
       d="M 706.56494,255.54878 C 733.23161,244.88211 770.56494,228.88211 770.56494,228.88211 759.89827,228.88211 754.56494,228.88211 754.56494,212.88211 754.56494,191.54878 754.56494,164.88211 786.56494,154.21544 786.56494,154.21544 733.23161,138.21544 706.56494,127.54878 706.56494,84.882109 722.56494,68.882109 781.23161,68.882109 797.23161,95.548776 818.56494,132.88211 818.56494,132.88211 834.56494,122.21544 855.89827,122.21544 871.89827,132.88211 871.89827,132.88211 887.89827,95.548776 898.56494,68.882109 962.56494,68.882109 978.56494,84.882109 978.56494,127.54878 946.56494,138.21544 903.89827,154.21544 903.89827,154.21544 930.56494,170.21544 930.56494,191.54878 930.56494,212.88211 930.56494,228.88211 925.23161,228.88211 914.56494,228.88211 914.56494,228.88211 951.89827,244.88211 978.56494,255.54878 978.56494,303.54878 962.56494,324.88211 903.89827,324.88211 893.23161,292.88211 871.89827,244.88211 871.89827,244.88211 855.89827,244.88211 861.23161,255.54878 845.23161,255.54878 829.23161,255.54878 834.56494,244.88211 818.9094,244.7324 818.9094,244.7324 802.56494,276.88211 781.23161,324.88211 727.89827,324.88211 706.56494,308.88211 706.56494,255.54878 Z"
       id="path3963-5"
       inkscape:connector-curvature="0"
       sodipodi:nodetypes="cccccccccccccccccccc" />
    <path
       sodipodi:type="inkscape:offset"
       inkscape:radius="-13.033512"
       inkscape:original="M 525.21289 -131.32031 C 499.29075 -130.5381 468.14438 -121.03405 448.16992 -117.78125 C 355.23733 -102.64755 321.50307 -78.819916 319.38086 -44.541016 C 303.79292 207.24269 304.31433 230.47651 321.91406 541.29688 C 322.66814 554.61435 341.53102 587.58407 380.80273 587.56836 C 720.92345 587.43233 929.2111 591.65566 1187.5137 595.28125 C 1213.4226 595.64492 1234.3765 570.3625 1236.002 544.52148 C 1255.1749 239.73451 1256.0672 220.30533 1244.7383 -30.076172 C 1241.2834 -106.43317 1126.3957 -109.03237 1064.7559 -122.38867 C 1016.2526 -132.89857 998.93466 -121.49385 999.71289 -83.435547 C 1000.4073 -49.476647 968.44875 -23.2793 942.18359 -25.5 C 808.59139 -36.7948 717.81442 -39.704219 628.98633 -28.886719 C 598.08872 -25.123919 569.80942 -55.329444 570.90234 -92.527344 C 571.83183 -124.16279 551.13503 -132.10253 525.21289 -131.32031 z "
       style="display:inline;fill:none;fill-rule:evenodd;stroke:#00ff00;stroke-width:1px;stroke-linecap:butt;stroke-linejoin:miter;stroke-opacity:1;enable-background:new"
       id="path4187"
       d="M 525.60547,-118.29297 C 502.5501,-117.59726 472.09377,-108.47264 450.26562,-104.91797 404.62343,-97.485321 374.23708,-87.801108 356.4043,-77.150391 338.57152,-66.499673 333.1981,-56.810659 332.38867,-43.736328 316.8049,207.98013 317.3273,229.76227 334.92578,540.56055 334.99037,541.7013 338.51682,552.45718 346.2168,560.30469 353.91678,568.15219 364.80919,574.54155 380.79688,574.53516 721.02762,574.39908 929.43838,578.62307 1187.6973,582.24805 1205.0312,582.49135 1221.7758,563.07164 1222.9941,543.70312 1242.1665,238.9255 1243.0449,220.83389 1231.7188,-29.486328 1231.0023,-45.320527 1225.1579,-55.94208 1215.0234,-65.222656 1204.8889,-74.503233 1189.963,-81.853505 1172.5723,-87.451172 1137.7908,-98.646506 1094.2829,-102.65439 1061.9961,-109.65039 1039.0118,-114.63072 1025.6918,-113.14802 1020.5527,-110.00586 1017.9832,-108.43478 1016.4492,-106.65755 1014.9785,-102.60742 1013.5079,-98.557289 1012.5701,-92.21461 1012.7441,-83.701172 1013.1763,-62.567203 1003.4827,-44.093004 989.98633,-31.404297 976.49,-18.71559 958.94795,-11.003452 941.08594,-12.513672 807.8004,-23.782545 718.05446,-26.604005 630.5625,-15.949219 590.40869,-11.059172 556.58216,-48.90804 557.875,-92.910156 558.2554,-105.85726 555.25065,-110.16564 550.625,-113.42188 545.99935,-116.67811 537.13314,-118.64082 525.60547,-118.29297 Z"
       transform="matrix(-1.0682593,0.00932256,-0.00932256,-1.0682593,1362.178,638.7709)" />
    <path
       sodipodi:nodetypes="ccszzcccccccc"
       inkscape:connector-curvature="0"
       id="path4326"
       d="M 133.73402,270.35555 C 137.30959,255.39019 145.28074,257.88831 194.47049,258.08162 195.85078,233.2122 187.74899,239.89872 162.27319,210.70667 145.21176,191.15643 97.4231,236.34475 97.16667,209.53999 96.91024,182.73523 124.80052,146.23169 120.7889,130.91369 116.77728,115.59569 99.49358,98.24533 111.51111,80.94245 130.06937,84.85278 139.90971,85.36726 155.49217,81.09866 168.65217,83.53404 170,94.35555 170,105.02222 196.66667,99.68889 239.03212,94.86176 238.89738,125.11607 238.12516,156.21298 192.43856,123.70242 192.97647,159.91649 200.44452,182.8625 211.9714,193.83088 234.38082,201.62676 238.83897,230.70259 240.06123,239.19507 239.33333,270.35555 Z"
       style="display:inline;fill:none;stroke:#00ff00;stroke-width:1.05599999;stroke-linecap:butt;stroke-linejoin:miter;stroke-miterlimit:4;stroke-dasharray:none;stroke-opacity:1;enable-background:new" />
  </g>
  <g
     inkscape:label="Top"
     inkscape:groupmode="layer"
     id="layer1"
     transform="translate(0,-240)"
     style="display:inline">
    <path
       style="fill:none;stroke:#ff0000;stroke-width:1.05599999;stroke-linecap:butt;stroke-linejoin:miter;stroke-miterlimit:4;stroke-dasharray:none;stroke-opacity:1"
       d="M 581.67345,567.72315 C 533.27861,568.06494 472.34658,567.69655 403.15343,567.65295 394.53467,567.64795 398.652,545.34785 408.5397,545.96232 394.81088,518.15078 399.52716,488.11111 387.07538,487.59126 371.37867,486.93594 352.44919,466.17827 366.40593,426.91178 380.36267,387.64529 403.65771,330.04239 463.36802,344.79064 446.7701,312.93612 462.83448,304.85191 499.27349,303.70242 532.13623,303.05311 554.39352,307.50451 553.91072,329.74664 553.96132,348.87767 535.35011,342.87013 530.1443,358.76922 530.25475,374.47379 614.69618,370.74382 651.34647,378.54423 L 651.9469,426.19936 C 589.3502,426.74199 562.87159,426.8543 498.43579,426.14016 498.43579,426.14016 491.81571,440.58335 496.3726,443.37109 517.43415,456.25581 518.10745,480.23551 539.77354,500.11639 560.42479,519.06606 581.17439,543.44093 581.67345,567.72317 Z"
       id="path3892"
       inkscape:connector-curvature="0"
       sodipodi:nodetypes="cscszcccccccsscc" />
    <path
       style="fill:none;stroke:#ff0000;stroke-width:1.05599999;stroke-linecap:butt;stroke-linejoin:miter;stroke-miterlimit:4;stroke-dasharray:none;stroke-opacity:1"
       d="M 628.37777,713.95555 C 628.37777,697.95555 633.7111,697.95555 649.7111,697.95555 649.7111,681.95555 649.7111,671.28889 649.7111,660.62222 626.61183,661.02612 635.01465,608.37797 655.26797,607.95267 650.48725,582.88062 691.79183,581.5275 686.45422,608.24854 703.47925,608.25964 700.53088,632.20821 700.53088,632.20821 747.49865,633.31798 740.16677,652.34112 690.90082,652.42715 698.04176,674.03999 697.7111,676.62222 697.7111,697.95555 713.7111,697.95555 724.37777,697.95555 724.37777,713.95555 724.37777,719.28889 713.7111,719.28889 676.37777,719.28889 639.04444,719.28889 628.37777,719.28889 628.37777,713.95555 Z"
       id="path3896"
       inkscape:connector-curvature="0"
       sodipodi:nodetypes="cccccccccsc" />
    <path
       sodipodi:nodetypes="cccccccccccsc"
       inkscape:connector-curvature="0"
       id="path3922"
       d="M 293.51111,716.37778 C 293.51111,700.37778 298.84445,700.37778 309.51111,700.37778 309.51111,689.71111 310.16108,682.02016 312.89105,671.43691 314.12717,664.84514 302.69405,666.81062 298.78126,654.30358 293.95142,637.24395 311.90308,617.75692 320.14004,618.08993 320.31066,592.5502 349.52197,590.87615 348.66748,618.62459 362.13695,620.0579 359.62095,629.29013 358.85829,638.88403 381.50256,639.08659 403.51244,630.19017 404.10532,646.46378 403.83625,664.46142 350.64575,649.77485 353.76157,663.10295 361.6,670.6889 361.24445,683.66667 357.51111,700.37778 373.51111,700.37778 378.84445,700.37778 378.84445,716.37778 378.84445,721.71111 373.51111,721.71111 336.17778,721.71111 298.84445,721.71111 293.51111,721.71111 293.51111,716.37778 Z"
       style="fill:none;stroke:#ff0000;stroke-width:1.05599999;stroke-linecap:butt;stroke-linejoin:miter;stroke-miterlimit:4;stroke-dasharray:none;stroke-opacity:1" />
    <path
       style="fill:none;stroke:#ff0000;stroke-width:1.05599999;stroke-linecap:butt;stroke-linejoin:miter;stroke-miterlimit:4;stroke-dasharray:none;stroke-opacity:1"
       d="M 328.76767,890.14287 C 328.63606,880.24747 334.69581,880.61027 345.36248,880.61027 340.57772,832.54617 355.44262,834.99267 351.22914,816.98147 346.32381,802.73577 343.95195,814.59267 340.50518,803.42177 338.04019,789.10947 328.91893,787.78217 326.37478,776.94397 319.39799,735.23227 365.54035,734.30047 363.78017,762.93217 363.76927,767.22367 365.75784,768.52897 377.00349,767.91037 402.54028,771.79427 404.67813,780.17087 404.22027,800.54267 410.79563,798.58827 421.16358,802.17687 421.86079,808.97107 424.48813,827.71347 418.37317,833.18587 397.00796,834.69307 402.97567,849.31917 404.00569,856.51687 403.47271,880.61027 414.13938,880.61027 419.47271,880.61027 419.47271,891.27697 419.47271,896.61027 414.69581,896.61027 377.36248,896.61027 334.69581,896.61027 329.36248,896.61027 328.76767,890.14287 Z"
       id="path3943"
       inkscape:connector-curvature="0"
       sodipodi:nodetypes="ccccccccccccsc" />
    <path
       style="fill:none;stroke:#ff0000;stroke-width:1.05599999;stroke-linecap:butt;stroke-linejoin:miter;stroke-miterlimit:4;stroke-dasharray:none;stroke-opacity:1"
       d="M 94.48959,510.35555 C 101.6007,489.73333 113.46093,480.21064 129.41667,472.27222 112.37825,471.67731 97.03716,471.72678 97.16667,447.77222 97.29618,423.81766 124.80052,386.23169 120.7889,370.91369 116.77728,355.59569 99.49358,338.24533 111.51111,320.94245 130.06937,324.85278 139.90971,325.36726 155.49217,321.09866 168.65217,323.53404 170,334.35555 170,345.02222 196.66667,339.68889 239.03212,334.86176 238.89738,365.11607 238.12516,396.21298 192.43856,363.70242 192.97647,399.91649 200.44452,422.8625 211.9714,433.83088 234.38082,441.62676 238.83897,470.70259 240.06123,479.19507 239.33333,510.35555 Z"
       id="path3947"
       inkscape:connector-curvature="0"
       sodipodi:nodetypes="cczzcccccccc" />
    <path
       style="fill:none;stroke:#ff0000;stroke-width:1.05599999;stroke-linecap:butt;stroke-linejoin:miter;stroke-miterlimit:4;stroke-dasharray:none;stroke-opacity:1"
       d="M 500.66667,714.28889 C 458,714.28889 452.66667,714.28889 452.66667,708.95555 452.52357,694.77456 453.31604,694.03697 453.73333,679.2248 454.43054,645.1754 477.64684,650.91796 477.73333,640.55813 474.0431,635.87725 471.49677,631.36173 472.4,626.4248 479.14612,611.5209 485.08554,604.13872 495.05141,599.94114 514.80341,604.00141 523.51868,603.37968 543.22658,599.95644 563.77152,607.67409 565.41078,621.31278 572.93333,630.69152 577.12213,636.51388 578.18814,645.95223 567.72278,653.39137 564.82486,666.29125 554.59713,661.71339 549.46667,666.15818 546.32123,671.56202 548.04641,677.10889 544.99171,688.62659 537.6818,704.04138 548.65275,700.55826 548.66667,708.9556 543.33333,714.28894 548.66667,714.28894 500.66667,714.28894 Z"
       id="path3949"
       inkscape:connector-curvature="0"
       sodipodi:nodetypes="ccccccccccccc" />
    <path
       style="fill:none;stroke:#ff0000;stroke-width:1.05599999;stroke-linecap:butt;stroke-linejoin:miter;stroke-miterlimit:4;stroke-dasharray:none;stroke-opacity:1"
       d="M 859.34859,734.89017 C 815.74914,734.47447 791.86667,737.91111 792.22222,723.64703 792.06111,717.22695 803.30771,712.7774 819.0414,712.64004 814.97091,699.99589 815.62483,702.32218 816.57778,684.09147 798.24643,680.50879 772.75351,718.34438 767.86667,687.38036 764.21338,671.9048 772.6197,662.28299 809.2,651.64703 803.2647,625.5264 797.49721,623.56068 805.91111,605.06925 814.44861,594.19146 822.54821,593.25036 848.57778,592.26925 868.86957,582.26304 874.23445,580.82511 888.93333,592.26925 900.77065,594.07746 914.51463,595.45587 922,604.80258 933.50014,619.16239 929.30435,629.70564 923.24445,660.18036 958.6213,659.6999 969.5973,661.27328 968.31111,683.55813 964.337,701.9426 949.08829,694.61522 923.06667,692.7137 907.53723,686.92466 908.66951,694.41489 905.27363,712.52067 916.57143,713.19615 927.38212,715.48193 927.51111,723.64702 927.23673,737.25754 897.96342,734.48246 859.34859,734.89017 Z"
       id="path3953"
       inkscape:connector-curvature="0"
       sodipodi:nodetypes="cccccccccccccccc" />
    <path
       style="fill:none;stroke:#ff0000;stroke-width:1.05599999;stroke-linecap:butt;stroke-linejoin:miter;stroke-miterlimit:4;stroke-dasharray:none;stroke-opacity:1"
       d="M 148.70473,718.35156 C 111.37139,718.35156 100.70473,718.35156 100.70473,707.68489 100.70773,676.01084 95.712829,659.4826 97.360039,630.50902 96.707979,621.27815 83.099489,624.1016 84.704729,617.01822 87.238599,609.23478 100.23208,597.78011 112.68485,605.57681 122.6485,608.27846 124.74986,589.62972 172.10307,590.30146 191.96338,588.19899 188.09278,585.06499 203.51281,598.30841 213.9971,610.57315 210.15157,614.54278 218.15593,631.43058 219.02302,640.78499 219.75198,661.87149 208.12195,661.62727 187.56168,660.69671 182.12005,651.42299 165.98869,658.15735 157.17155,661.83825 154.66943,662.0946 153.45996,678.0266 154.03806,691.68489 154.03806,697.01822 170.03806,697.01822 185.80369,697.05132 196.70473,697.01822 196.70473,707.68489 196.70473,718.35156 186.03806,718.35156 148.70473,718.35156 Z"
       id="path3957"
       inkscape:connector-curvature="0"
       sodipodi:nodetypes="cccccccccccccc" />
    <path
       style="fill:none;stroke:#ff0000;stroke-width:1.05599999;stroke-linecap:butt;stroke-linejoin:miter;stroke-miterlimit:4;stroke-dasharray:none;stroke-opacity:1"
       d="M 862.00985,951.11269 C 830.00985,951.11269 830.00985,951.11269 830.00985,940.44602 830.00985,919.11269 837.90055,922.72176 840.67645,908.44602 844.34675,892.53526 842.60775,888.05112 846.81765,870.60986 820.15105,870.60986 815.58815,839.36275 811.29785,823.61552 805.96455,791.61552 816.34095,760.83198 828.31395,759.94937 839.61345,759.76913 834.88395,778.58463 869.79755,777.17136 909.86475,777.24666 891.13655,756.88978 904.87005,756.9324 927.80365,756.81419 931.24465,800.87879 931.34315,823.11269 931.34315,860.44602 915.75215,865.8531 899.21315,869.31523 888.18505,886.23835 882.52775,892.27219 883.34315,908.44602 883.34315,924.44602 894.00985,919.11269 894.00985,940.44602 894.00985,951.11269 894.00985,951.11269 862.00985,951.11269 Z"
       id="path3959"
       inkscape:connector-curvature="0"
       sodipodi:nodetypes="ccccccccccccc" />
    <path
       sodipodi:nodetypes="cccccccccscccsc"
       inkscape:connector-curvature="0"
       id="path3961"
       d="M 140.66667,925.54653 C 151.33333,904.2132 151.33333,914.87987 158.72868,894.8111 167.33333,877.54653 172.66667,861.54653 163.63129,851.06476 147.25116,829.67157 106.48444,836.89804 107.07879,824.15291 107.86586,796.70709 124.66667,824.2132 135.33333,792.2132 118.73762,787.19962 127.00031,759.61934 138.62816,763.55307 149.92768,762.61858 151.26423,767.31535 183.33333,760.2132 223.02343,763.3055 225.16642,751.07647 234.37442,755.26746 248.25715,763.06885 245.47952,777.20806 235.32051,784.06616 233.58247,808.25259 261.7546,784.5911 261.1809,803.65785 260.8483,814.71233 256.4873,820.6332 233.6289,820.08506 226,861.54653 205.3397,866.30691 204.66667,893.54653 204.66667,914.87987 214.64059,909.37523 215.33333,925.54653 215.33333,936.2132 215.33333,936.2132 178,936.2132 140.66667,936.2132 140.66667,936.2132 140.66667,925.54653 Z"
       style="fill:none;stroke:#ff0000;stroke-width:1.05599999;stroke-linecap:butt;stroke-linejoin:miter;stroke-miterlimit:4;stroke-dasharray:none;stroke-opacity:1" />
    <path
       style="fill:none;stroke:#ff0000;stroke-width:1.05599999;stroke-linecap:butt;stroke-linejoin:miter;stroke-miterlimit:4;stroke-dasharray:none;stroke-opacity:1"
       d="M 706.55555,495.55635 C 733.22222,484.88968 770.55555,468.88968 770.55555,468.88968 759.88889,468.88968 754.55555,468.88968 754.55555,452.88968 754.55555,431.55635 754.55555,404.88968 786.55555,394.22302 786.55555,394.22302 733.22222,378.22302 706.55555,367.55635 706.55555,324.88968 722.55555,308.88968 781.22222,308.88968 797.22222,335.55635 818.55555,372.88968 818.55555,372.88968 834.55555,362.22302 855.88889,362.22302 871.88889,372.88968 871.88889,372.88968 887.88889,335.55635 898.55555,308.88968 962.55555,308.88968 978.55555,324.88968 978.55555,367.55635 946.55555,378.22302 903.88889,394.22302 903.88889,394.22302 930.55555,410.22302 930.55555,431.55635 930.55555,452.88968 930.55555,468.88968 925.22222,468.88968 914.55555,468.88968 914.55555,468.88968 951.88889,484.88968 978.55555,495.55635 978.55555,543.55635 962.55555,564.88968 903.88889,564.88968 893.22222,532.88968 871.88889,484.88968 871.88889,484.88968 855.88889,484.88968 861.22222,495.55635 845.22222,495.55635 829.22222,495.55635 834.55555,484.88968 818.90001,484.73998 818.90001,484.73998 802.55555,516.88968 781.22222,564.88968 727.88889,564.88968 706.55555,548.88968 706.55555,495.55635 Z"
       id="path3963"
       inkscape:connector-curvature="0"
       sodipodi:nodetypes="cccccccccccccccccccc" />
    <path
       sodipodi:type="inkscape:offset"
       inkscape:radius="-2.2064621"
       inkscape:original="M 525.21289 -131.32031 C 499.29075 -130.5381 468.14438 -121.03405 448.16992 -117.78125 C 355.23733 -102.64755 321.50307 -78.819916 319.38086 -44.541016 C 303.79292 207.24269 304.31433 230.47651 321.91406 541.29688 C 322.66814 554.61435 341.53102 587.58407 380.80273 587.56836 C 720.92345 587.43233 929.2111 591.65566 1187.5137 595.28125 C 1213.4226 595.64492 1234.3765 570.3625 1236.002 544.52148 C 1255.1749 239.73451 1256.0672 220.30533 1244.7383 -30.076172 C 1241.2834 -106.43317 1126.3957 -109.03237 1064.7559 -122.38867 C 1016.2526 -132.89857 998.93466 -121.49385 999.71289 -83.435547 C 1000.4073 -49.476647 968.44875 -23.2793 942.18359 -25.5 C 808.59139 -36.7948 717.81442 -39.704219 628.98633 -28.886719 C 598.08872 -25.123919 569.80942 -55.329444 570.90234 -92.527344 C 571.83183 -124.16279 551.13503 -132.10253 525.21289 -131.32031 z "
       style="display:inline;fill:none;fill-rule:evenodd;stroke:#ff0000;stroke-width:1px;stroke-linecap:butt;stroke-linejoin:miter;stroke-opacity:1;enable-background:new"
       id="path4180"
       d="M 525.2793,-129.11523 C 499.84248,-128.34767 468.81366,-118.90742 448.52539,-115.60352 402.19861,-108.05938 370.74864,-98.327776 350.85352,-86.445312 330.95839,-74.562849 322.60248,-60.855557 321.58398,-44.404297 305.99675,207.36802 306.51767,230.35525 324.11719,541.17188 324.44133,546.89646 329.11113,558.32991 338.48828,567.88672 347.86543,577.44353 361.78448,585.36894 380.80273,585.36133 720.94208,585.22529 929.24972,589.44873 1187.5449,593.07422 1212.0021,593.41751 1232.2442,569.12809 1233.8008,544.38281 1252.9736,239.59743 1253.8616,220.39456 1242.5332,-29.976562 1241.6944,-48.51476 1234.2026,-62.340222 1222.3359,-73.207031 1210.4693,-84.07384 1194.1442,-91.882428 1175.8906,-97.757812 1139.3835,-109.50858 1095.3573,-113.50046 1064.2891,-120.23242 1040.252,-125.44088 1024.3265,-125.00321 1014.9043,-119.24219 1010.1932,-116.36167 1006.9371,-112.18607 1004.8008,-106.30273 1002.6645,-100.4194 1001.7269,-92.82556 1001.918,-83.480469 1002.2796,-65.797694 994.14742,-50.177298 982.57031,-39.292969 970.99321,-28.40864 955.93128,-22.122737 941.99805,-23.300781 808.45776,-34.591192 717.8558,-37.48722 629.25391,-26.697266 596.7893,-22.743632 567.5705,-54.242001 568.69727,-92.591797 569.14773,-107.92355 564.53396,-116.87148 556.85742,-122.27539 549.18089,-127.6793 537.9977,-129.49902 525.2793,-129.11523 Z"
       transform="matrix(-1.0682593,0.00932256,-0.00932256,-1.0682593,1362.178,878.7709)" />
    <path
       sodipodi:nodetypes="ccccccccccccsc"
       inkscape:connector-curvature="0"
       id="path5245"
       d="M 478.67431,887.31447 C 478.5427,877.41907 484.60245,877.78187 495.26912,877.78187 490.48436,829.71777 505.34926,832.16427 501.13578,814.15307 496.23045,799.90737 493.85859,811.76427 490.41182,800.59337 487.94683,786.28107 478.82557,784.95377 476.28142,774.11557 469.30463,732.40387 515.44699,731.47207 513.68681,760.10377 513.67591,764.39527 515.66448,765.70057 526.91013,765.08197 552.44692,768.96587 554.58477,777.34247 554.12691,797.71427 560.70227,795.75987 571.07022,799.34847 571.76743,806.14267 574.39477,824.88507 568.27981,830.35747 546.9146,831.86467 552.88231,846.49077 553.91233,853.68847 553.37935,877.78187 564.04602,877.78187 569.37935,877.78187 569.37935,888.44857 569.37935,893.78187 564.60245,893.78187 527.26912,893.78187 484.60245,893.78187 479.26912,893.78187 478.67431,887.31447 Z"
       style="fill:none;stroke:#ff0000;stroke-width:1.05599999;stroke-linecap:butt;stroke-linejoin:miter;stroke-miterlimit:4;stroke-dasharray:none;stroke-opacity:1" />
    <path
       style="fill:none;stroke:#ff0000;stroke-width:1.05599999;stroke-linecap:butt;stroke-linejoin:miter;stroke-miterlimit:4;stroke-dasharray:none;stroke-opacity:1"
       d="M 621.50988,887.31447 C 621.37827,877.41907 627.43802,877.78187 638.10469,877.78187 633.31993,829.71777 648.18483,832.16427 643.97135,814.15307 639.06602,799.90737 636.69416,811.76427 633.24739,800.59337 630.7824,786.28107 621.66114,784.95377 619.11699,774.11557 612.1402,732.40387 658.28256,731.47207 656.52238,760.10377 656.51148,764.39527 658.50005,765.70057 669.7457,765.08197 695.28249,768.96587 697.42034,777.34247 696.96248,797.71427 703.53784,795.75987 713.90579,799.34847 714.603,806.14267 717.23034,824.88507 711.11538,830.35747 689.75017,831.86467 695.71788,846.49077 696.7479,853.68847 696.21492,877.78187 706.88159,877.78187 712.21492,877.78187 712.21492,888.44857 712.21492,893.78187 707.43802,893.78187 670.10469,893.78187 627.43802,893.78187 622.10469,893.78187 621.50988,887.31447 Z"
       id="path5251"
       inkscape:connector-curvature="0"
       sodipodi:nodetypes="ccccccccccccsc" />
  </g>
  <g
     inkscape:groupmode="layer"
     id="layer4"
     inkscape:label="Text"
     style="display:inline;filter:url(#filter5322)">
    <text
       xml:space="preserve"
       style="font-style:normal;font-variant:normal;font-weight:normal;font-stretch:normal;font-size:12.80000019px;line-height:0%;font-family:Helvetica;-inkscape-font-specification:'Helvetica, Normal';text-align:start;letter-spacing:0px;word-spacing:0px;writing-mode:lr-tb;text-anchor:start;display:inline;fill:#000000;fill-opacity:1;stroke:none;stroke-width:1.06666672px;stroke-linecap:butt;stroke-linejoin:miter;stroke-opacity:1"
       x="842.31433"
       y="419.14651"
       id="text5217"
       sodipodi:linespacing="0%"><tspan
         sodipodi:role="line"
         id="tspan5219"
         x="842.31433"
         y="419.14651"
         style="font-size:10.66666698px;line-height:1.25;stroke-width:1.06666672px">Mancubus</tspan></text>
    <text
       xml:space="preserve"
       style="font-style:normal;font-variant:normal;font-weight:normal;font-stretch:normal;font-size:12.80000019px;line-height:0%;font-family:Helvetica;-inkscape-font-specification:'Helvetica, Normal';text-align:start;letter-spacing:0px;word-spacing:0px;writing-mode:lr-tb;text-anchor:start;display:inline;fill:#000000;fill-opacity:1;stroke:none;stroke-width:1.06666672px;stroke-linecap:butt;stroke-linejoin:miter;stroke-opacity:1"
       x="441.59772"
       y="172.13519"
       id="text5225"
       sodipodi:linespacing="0%"><tspan
         sodipodi:role="line"
         id="tspan5227"
         x="441.59772"
         y="172.13519"
         style="font-size:10.66666698px;line-height:1.25;stroke-width:1.06666672px">Cyberdemon</tspan></text>
    <text
       xml:space="preserve"
       style="font-style:normal;font-variant:normal;font-weight:normal;font-stretch:normal;font-size:12.80000019px;line-height:0%;font-family:Helvetica;-inkscape-font-specification:'Helvetica, Normal';text-align:start;letter-spacing:0px;word-spacing:0px;writing-mode:lr-tb;text-anchor:start;display:inline;fill:#000000;fill-opacity:1;stroke:none;stroke-width:1.06666672px;stroke-linecap:butt;stroke-linejoin:miter;stroke-opacity:1"
       x="815.49731"
       y="197.30931"
       id="text5229"
       sodipodi:linespacing="0%"><tspan
         sodipodi:role="line"
         id="tspan5231"
         x="815.49731"
         y="197.30931"
         style="font-size:10.66666698px;line-height:1.25;stroke-width:1.06666672px">Arachnotron</tspan></text>
    <text
       xml:space="preserve"
       style="font-style:normal;font-variant:normal;font-weight:normal;font-stretch:normal;font-size:12.80000019px;line-height:0%;font-family:Helvetica;-inkscape-font-specification:'Helvetica, Normal';text-align:start;letter-spacing:0px;word-spacing:0px;writing-mode:lr-tb;text-anchor:start;display:inline;fill:#000000;fill-opacity:1;stroke:none;stroke-width:1.06666672px;stroke-linecap:butt;stroke-linejoin:miter;stroke-opacity:1"
       x="149.15747"
       y="572.96423"
       id="text5253"
       sodipodi:linespacing="0%"><tspan
         sodipodi:role="line"
         id="tspan5255"
         x="149.15747"
         y="572.96423"
         style="font-size:10.66666698px;line-height:1.25;stroke-width:1.06666672px">Pain Elemental</tspan></text>
    <text
       xml:space="preserve"
       style="font-style:normal;font-variant:normal;font-weight:normal;font-stretch:normal;font-size:12.80000019px;line-height:0%;font-family:Helvetica;-inkscape-font-specification:'Helvetica, Normal';text-align:start;letter-spacing:0px;word-spacing:0px;writing-mode:lr-tb;text-anchor:start;display:inline;fill:#000000;fill-opacity:1;stroke:none;stroke-width:1.06666672px;stroke-linecap:butt;stroke-linejoin:miter;stroke-opacity:1"
       x="844.34058"
       y="583.03687"
       id="text5249"
       sodipodi:linespacing="0%"><tspan
         sodipodi:role="line"
         id="tspan5251"
         x="844.34058"
         y="583.03687"
         style="font-size:10.66666698px;line-height:1.25;stroke-width:1.06666672px">Cacodemon</tspan></text>
    <text
       xml:space="preserve"
       style="font-style:normal;font-variant:normal;font-weight:normal;font-stretch:normal;font-size:12.80000019px;line-height:0%;font-family:Helvetica;-inkscape-font-specification:'Helvetica, Normal';text-align:start;letter-spacing:0px;word-spacing:0px;writing-mode:lr-tb;text-anchor:start;display:inline;fill:#000000;fill-opacity:1;stroke:none;stroke-width:1.06666672px;stroke-linecap:butt;stroke-linejoin:miter;stroke-opacity:1"
       x="108.79626"
       y="407.44183"
       id="text5245"
       sodipodi:linespacing="0%"><tspan
         sodipodi:role="line"
         id="tspan5247"
         x="108.79626"
         y="407.44183"
         style="font-size:10.66666698px;line-height:1.25;stroke-width:1.06666672px">Lost Soul</tspan></text>
    <text
       xml:space="preserve"
       style="font-style:normal;font-variant:normal;font-weight:normal;font-stretch:normal;font-size:12.80000019px;line-height:0%;font-family:Helvetica;-inkscape-font-specification:'Helvetica, Normal';text-align:start;letter-spacing:0px;word-spacing:0px;writing-mode:lr-tb;text-anchor:start;display:inline;fill:#000000;fill-opacity:1;stroke:none;stroke-width:1.06666672px;stroke-linecap:butt;stroke-linejoin:miter;stroke-opacity:1"
       x="121.12744"
       y="183.02496"
       id="text5241"
       sodipodi:linespacing="0%"><tspan
         sodipodi:role="line"
         id="tspan5243"
         x="121.12744"
         y="183.02496"
         style="font-size:10.66666698px;line-height:1.25;stroke-width:1.06666672px">Baron of Hell</tspan></text>
    <text
       xml:space="preserve"
       style="font-style:normal;font-variant:normal;font-weight:normal;font-stretch:normal;font-size:12.80000019px;line-height:0%;font-family:Helvetica;-inkscape-font-specification:'Helvetica, Normal';text-align:start;letter-spacing:0px;word-spacing:0px;writing-mode:lr-tb;text-anchor:start;display:inline;fill:#000000;fill-opacity:1;stroke:none;stroke-width:1.06666672px;stroke-linecap:butt;stroke-linejoin:miter;stroke-opacity:1"
       x="493.93396"
       y="417.94714"
       id="text5237"
       sodipodi:linespacing="0%"><tspan
         sodipodi:role="line"
         id="tspan5239"
         x="493.93396"
         y="417.94714"
         style="font-size:10.66666698px;line-height:1.25;stroke-width:1.06666672px">Demon</tspan></text>
    <text
       xml:space="preserve"
       style="font-style:normal;font-variant:normal;font-weight:normal;font-stretch:normal;font-size:12.80000019px;line-height:0%;font-family:Helvetica;-inkscape-font-specification:'Helvetica, Normal';text-align:start;letter-spacing:0px;word-spacing:0px;writing-mode:lr-tb;text-anchor:start;display:inline;fill:#000000;fill-opacity:1;stroke:none;stroke-width:1.06666672px;stroke-linecap:butt;stroke-linejoin:miter;stroke-opacity:1"
       x="363.57162"
       y="573.25549"
       id="text5257"
       sodipodi:linespacing="0%"><tspan
         sodipodi:role="line"
         id="tspan5259"
         x="363.57162"
         y="573.25549"
         style="font-size:10.66666698px;line-height:1.25;stroke-width:1.06666672px">Imp</tspan></text>
    <text
       xml:space="preserve"
       style="font-style:normal;font-variant:normal;font-weight:normal;font-stretch:normal;font-size:12.80000019px;line-height:0%;font-family:Helvetica;-inkscape-font-specification:'Helvetica, Normal';text-align:start;letter-spacing:0px;word-spacing:0px;writing-mode:lr-tb;text-anchor:start;display:inline;fill:#000000;fill-opacity:1;stroke:none;stroke-width:1.06666672px;stroke-linecap:butt;stroke-linejoin:miter;stroke-opacity:1"
       x="307.36731"
       y="411.69617"
       id="text5265"
       sodipodi:linespacing="0%"><tspan
         sodipodi:role="line"
         id="tspan5267"
         x="307.36731"
         y="411.69617"
         style="font-size:10.66666698px;line-height:1.25;stroke-width:1.06666672px">Zombieman</tspan></text>
    <text
       xml:space="preserve"
       style="font-style:normal;font-variant:normal;font-weight:normal;font-stretch:normal;font-size:12.80000019px;line-height:0%;font-family:Helvetica;-inkscape-font-specification:'Helvetica, Normal';text-align:start;letter-spacing:0px;word-spacing:0px;writing-mode:lr-tb;text-anchor:start;display:inline;fill:#000000;fill-opacity:1;stroke:none;stroke-width:1.06666672px;stroke-linecap:butt;stroke-linejoin:miter;stroke-opacity:1"
       x="642.72943"
       y="404.84515"
       id="text5269"
       sodipodi:linespacing="0%"><tspan
         sodipodi:role="line"
         id="tspan5271"
         x="642.72943"
         y="404.84515"
         style="font-size:10.66666698px;line-height:1.25;stroke-width:1.06666672px">Shotgun Guy</tspan></text>
    <text
       sodipodi:linespacing="0%"
       id="text5247"
       y="570.42712"
       x="513.47827"
       style="font-style:normal;font-variant:normal;font-weight:normal;font-stretch:normal;font-size:12.80000019px;line-height:0%;font-family:Helvetica;-inkscape-font-specification:'Helvetica, Normal';text-align:start;letter-spacing:0px;word-spacing:0px;writing-mode:lr-tb;text-anchor:start;display:inline;fill:#000000;fill-opacity:1;stroke:none;stroke-width:1.06666672px;stroke-linecap:butt;stroke-linejoin:miter;stroke-opacity:1"
       xml:space="preserve"><tspan
         style="font-size:10.66666698px;line-height:1.25;stroke-width:1.06666672px"
         y="570.42712"
         x="513.47827"
         id="tspan5249"
         sodipodi:role="line">Imp</tspan></text>
    <text
       xml:space="preserve"
       style="font-style:normal;font-variant:normal;font-weight:normal;font-stretch:normal;font-size:12.80000019px;line-height:0%;font-family:Helvetica;-inkscape-font-specification:'Helvetica, Normal';text-align:start;letter-spacing:0px;word-spacing:0px;writing-mode:lr-tb;text-anchor:start;display:inline;fill:#000000;fill-opacity:1;stroke:none;stroke-width:1.06666672px;stroke-linecap:butt;stroke-linejoin:miter;stroke-opacity:1"
       x="656.31384"
       y="570.42712"
       id="text5254"
       sodipodi:linespacing="0%"><tspan
         sodipodi:role="line"
         id="tspan5256"
         x="656.31384"
         y="570.42712"
         style="font-size:10.66666698px;line-height:1.25;stroke-width:1.06666672px">Imp</tspan></text>
  </g>
</svg>
